M48
; DRILL file {KiCad (5.1.2-1)-1} date Friday, July 19, 2019 at 06:16:09 PM
; FORMAT={3:3/ absolute / metric / suppress leading zeros}
; #@! TF.CreationDate,2019-07-19T18:16:09-07:00
; #@! TF.GenerationSoftware,Kicad,Pcbnew,(5.1.2-1)-1
FMAT,2
METRIC,TZ
T1C0.203
T2C0.254
T3C0.305
T4C0.330
T5C0.432
T6C1.000
%
G90
G05
T1
X120802Y-85090
X123774Y-85090
X125552Y-85090
X126162Y-74092
X126162Y-74092
X126898Y-85090
X128575Y-85090
X130200Y-85090
X146507Y-91999
X146507Y-94132
X149479Y-81661
X155042Y-94082
X156322Y-90206
X156371Y-87682
X156414Y-87035
X156523Y-89425
X156557Y-88348
X157226Y-88875
X157228Y-90854
X157810Y-76860
X161112Y-94640
X163678Y-94767
X168475Y-78000
X173939Y-88087
X178105Y-82677
X182550Y-94132
T2
X119151Y-91262
X119177Y-81153
X120320Y-80442
X120320Y-90475
X121285Y-79604
X121412Y-89840
X123800Y-81204
X125044Y-80442
X126314Y-79527
X126492Y-90678
X127559Y-81153
X128854Y-80493
X130175Y-79527
X133121Y-103022
X133626Y-102038
X134925Y-81178
X135712Y-80493
X136500Y-79527
X136550Y-91313
X137343Y-91094
X138551Y-90817
X145034Y-78232
X145186Y-89510
X145212Y-83033
X145212Y-91059
X145237Y-90272
X145263Y-79045
X145263Y-86496
X145313Y-87757
X145313Y-88621
X145390Y-81432
X145459Y-79899
X145466Y-85776
X145517Y-82169
X145593Y-80595
X145872Y-87020
X145920Y-95497
X146460Y-89510
X146609Y-77445
X146990Y-92964
X147018Y-85836
X147549Y-81382
X147549Y-94615
X147599Y-76352
X148079Y-93320
X148209Y-82118
X148488Y-86992
X149123Y-78181
X149135Y-92165
X149454Y-79045
X149555Y-83293
X149842Y-92120
X150241Y-94031
X150774Y-90094
X150800Y-88646
X150863Y-84508
X150876Y-78410
X151644Y-79928
X152230Y-85836
X152335Y-80543
X152690Y-81156
X152942Y-87808
X152942Y-88646
X152944Y-82061
X153162Y-78461
X153270Y-81156
X153492Y-83033
X154608Y-96148
X155607Y-96391
X156049Y-79372
X156103Y-80078
X156319Y-78718
X156386Y-78013
X157534Y-81236
X158420Y-73812
X158468Y-94085
X158699Y-76352
X159468Y-82384
X160065Y-91116
X160198Y-76276
X160204Y-86001
X160471Y-90119
X160557Y-83817
X160759Y-89334
X161087Y-73990
X161293Y-88668
X162712Y-88138
X163279Y-86810
X163659Y-87407
X163842Y-94085
X164440Y-76302
X165637Y-75438
X166039Y-79685
X166294Y-74676
X166604Y-79259
X166824Y-78586
X166941Y-77636
X167716Y-89535
X167774Y-80956
X168300Y-84588
X168656Y-80778
X169009Y-92662
X169189Y-94075
X169219Y-81820
X169443Y-90399
X170921Y-95654
X170967Y-73990
X171799Y-93472
X171958Y-82702
X172288Y-76375
X172697Y-94075
X172832Y-89126
X173533Y-75844
X173584Y-92507
X173939Y-80061
X173939Y-81382
X173939Y-84430
X174422Y-102591
X174803Y-78565
X175363Y-94605
X175616Y-95402
X176073Y-85471
X176102Y-91624
X177012Y-92557
X177066Y-86960
X177637Y-87379
X177818Y-78804
X177974Y-89080
X177978Y-79985
X178003Y-84684
X178558Y-79321
X178991Y-88894
X179146Y-83817
X179172Y-80848
X179172Y-82093
X179172Y-84684
X179248Y-87071
X179273Y-85903
X179349Y-79781
X179426Y-78791
X179426Y-93878
X180721Y-93164
X181102Y-90627
X181864Y-91875
X182321Y-73812
X182524Y-88570
X183286Y-92786
X183490Y-90602
X183515Y-83287
X184277Y-89433
X184480Y-94031
X185776Y-88290
X185801Y-95606
X186969Y-88849
X188265Y-90602
T3
X144831Y-94234
X163347Y-90195
T4
X156947Y-86233
X160223Y-81001
X163525Y-78156
T5
X123800Y-74143
X127559Y-92812
X130099Y-74193
X132375Y-88580
X139878Y-74244
X140056Y-83845
X140132Y-85598
X145287Y-84480
X153076Y-83829
X158750Y-75286
X175971Y-75921
T6
X119253Y-97663
X119253Y-100203
X121793Y-97663
X121793Y-100203
X124333Y-97663
X124333Y-100203
X126873Y-97663
X126873Y-100203
X129413Y-97663
X129413Y-100203
X140081Y-97663
X140081Y-100203
X142621Y-97663
X142621Y-100203
X145161Y-97663
X145161Y-100203
X147701Y-97663
X147701Y-100203
X150241Y-97663
X150241Y-100203
X152781Y-97663
X152781Y-100203
X155321Y-97663
X155321Y-100203
X157861Y-97663
X157861Y-100203
X160401Y-97663
X160401Y-100203
X162941Y-97663
X162941Y-100203
X165481Y-97663
X165481Y-100203
X168021Y-97663
X168021Y-100203
X170561Y-97663
X170561Y-100203
X173101Y-97663
X173101Y-100203
X175641Y-97663
X175641Y-100203
X178181Y-97663
X178181Y-100203
X180721Y-97663
X180721Y-100203
X183261Y-97663
X183261Y-100203
X185801Y-97663
X185801Y-100203
X188341Y-97663
X188341Y-100203
T0
M30
