G04 #@! TF.GenerationSoftware,KiCad,Pcbnew,(5.1.2-1)-1*
G04 #@! TF.CreationDate,2019-07-03T01:56:20-07:00*
G04 #@! TF.ProjectId,ram_board,72616d5f-626f-4617-9264-2e6b69636164,rev?*
G04 #@! TF.SameCoordinates,Original*
G04 #@! TF.FileFunction,Copper,L2,Bot*
G04 #@! TF.FilePolarity,Positive*
%FSLAX46Y46*%
G04 Gerber Fmt 4.6, Leading zero omitted, Abs format (unit mm)*
G04 Created by KiCad (PCBNEW (5.1.2-1)-1) date 2019-07-03 01:56:20*
%MOMM*%
%LPD*%
G04 APERTURE LIST*
%ADD10C,0.254000*%
%ADD11C,0.100000*%
%ADD12C,0.950000*%
%ADD13O,1.700000X1.700000*%
%ADD14R,1.700000X1.700000*%
%ADD15C,0.889000*%
%ADD16C,0.685800*%
%ADD17C,0.508000*%
%ADD18C,0.635000*%
%ADD19C,0.304800*%
%ADD20C,0.406400*%
%ADD21C,0.152400*%
G04 APERTURE END LIST*
D10*
X186786761Y-75897619D02*
X187125428Y-75413809D01*
X187367333Y-75897619D02*
X187367333Y-74881619D01*
X186980285Y-74881619D01*
X186883523Y-74930000D01*
X186835142Y-74978380D01*
X186786761Y-75075142D01*
X186786761Y-75220285D01*
X186835142Y-75317047D01*
X186883523Y-75365428D01*
X186980285Y-75413809D01*
X187367333Y-75413809D01*
X185867523Y-75897619D02*
X186351333Y-75897619D01*
X186351333Y-74881619D01*
D11*
G36*
X148850779Y-84348944D02*
G01*
X148873834Y-84352363D01*
X148896443Y-84358027D01*
X148918387Y-84365879D01*
X148939457Y-84375844D01*
X148959448Y-84387826D01*
X148978168Y-84401710D01*
X148995438Y-84417362D01*
X149011090Y-84434632D01*
X149024974Y-84453352D01*
X149036956Y-84473343D01*
X149046921Y-84494413D01*
X149054773Y-84516357D01*
X149060437Y-84538966D01*
X149063856Y-84562021D01*
X149065000Y-84585300D01*
X149065000Y-85160300D01*
X149063856Y-85183579D01*
X149060437Y-85206634D01*
X149054773Y-85229243D01*
X149046921Y-85251187D01*
X149036956Y-85272257D01*
X149024974Y-85292248D01*
X149011090Y-85310968D01*
X148995438Y-85328238D01*
X148978168Y-85343890D01*
X148959448Y-85357774D01*
X148939457Y-85369756D01*
X148918387Y-85379721D01*
X148896443Y-85387573D01*
X148873834Y-85393237D01*
X148850779Y-85396656D01*
X148827500Y-85397800D01*
X148352500Y-85397800D01*
X148329221Y-85396656D01*
X148306166Y-85393237D01*
X148283557Y-85387573D01*
X148261613Y-85379721D01*
X148240543Y-85369756D01*
X148220552Y-85357774D01*
X148201832Y-85343890D01*
X148184562Y-85328238D01*
X148168910Y-85310968D01*
X148155026Y-85292248D01*
X148143044Y-85272257D01*
X148133079Y-85251187D01*
X148125227Y-85229243D01*
X148119563Y-85206634D01*
X148116144Y-85183579D01*
X148115000Y-85160300D01*
X148115000Y-84585300D01*
X148116144Y-84562021D01*
X148119563Y-84538966D01*
X148125227Y-84516357D01*
X148133079Y-84494413D01*
X148143044Y-84473343D01*
X148155026Y-84453352D01*
X148168910Y-84434632D01*
X148184562Y-84417362D01*
X148201832Y-84401710D01*
X148220552Y-84387826D01*
X148240543Y-84375844D01*
X148261613Y-84365879D01*
X148283557Y-84358027D01*
X148306166Y-84352363D01*
X148329221Y-84348944D01*
X148352500Y-84347800D01*
X148827500Y-84347800D01*
X148850779Y-84348944D01*
X148850779Y-84348944D01*
G37*
D12*
X148590000Y-84872800D03*
D11*
G36*
X148850779Y-82598944D02*
G01*
X148873834Y-82602363D01*
X148896443Y-82608027D01*
X148918387Y-82615879D01*
X148939457Y-82625844D01*
X148959448Y-82637826D01*
X148978168Y-82651710D01*
X148995438Y-82667362D01*
X149011090Y-82684632D01*
X149024974Y-82703352D01*
X149036956Y-82723343D01*
X149046921Y-82744413D01*
X149054773Y-82766357D01*
X149060437Y-82788966D01*
X149063856Y-82812021D01*
X149065000Y-82835300D01*
X149065000Y-83410300D01*
X149063856Y-83433579D01*
X149060437Y-83456634D01*
X149054773Y-83479243D01*
X149046921Y-83501187D01*
X149036956Y-83522257D01*
X149024974Y-83542248D01*
X149011090Y-83560968D01*
X148995438Y-83578238D01*
X148978168Y-83593890D01*
X148959448Y-83607774D01*
X148939457Y-83619756D01*
X148918387Y-83629721D01*
X148896443Y-83637573D01*
X148873834Y-83643237D01*
X148850779Y-83646656D01*
X148827500Y-83647800D01*
X148352500Y-83647800D01*
X148329221Y-83646656D01*
X148306166Y-83643237D01*
X148283557Y-83637573D01*
X148261613Y-83629721D01*
X148240543Y-83619756D01*
X148220552Y-83607774D01*
X148201832Y-83593890D01*
X148184562Y-83578238D01*
X148168910Y-83560968D01*
X148155026Y-83542248D01*
X148143044Y-83522257D01*
X148133079Y-83501187D01*
X148125227Y-83479243D01*
X148119563Y-83456634D01*
X148116144Y-83433579D01*
X148115000Y-83410300D01*
X148115000Y-82835300D01*
X148116144Y-82812021D01*
X148119563Y-82788966D01*
X148125227Y-82766357D01*
X148133079Y-82744413D01*
X148143044Y-82723343D01*
X148155026Y-82703352D01*
X148168910Y-82684632D01*
X148184562Y-82667362D01*
X148201832Y-82651710D01*
X148220552Y-82637826D01*
X148240543Y-82625844D01*
X148261613Y-82615879D01*
X148283557Y-82608027D01*
X148306166Y-82602363D01*
X148329221Y-82598944D01*
X148352500Y-82597800D01*
X148827500Y-82597800D01*
X148850779Y-82598944D01*
X148850779Y-82598944D01*
G37*
D12*
X148590000Y-83122800D03*
D13*
X188341000Y-100203000D03*
X188341000Y-97663000D03*
X185801000Y-100203000D03*
X185801000Y-97663000D03*
X183261000Y-100203000D03*
X183261000Y-97663000D03*
X180721000Y-100203000D03*
X180721000Y-97663000D03*
X178181000Y-100203000D03*
X178181000Y-97663000D03*
X175641000Y-100203000D03*
X175641000Y-97663000D03*
X173101000Y-100203000D03*
X173101000Y-97663000D03*
X170561000Y-100203000D03*
X170561000Y-97663000D03*
X168021000Y-100203000D03*
X168021000Y-97663000D03*
X165481000Y-100203000D03*
X165481000Y-97663000D03*
X162941000Y-100203000D03*
X162941000Y-97663000D03*
X160401000Y-100203000D03*
X160401000Y-97663000D03*
X157861000Y-100203000D03*
X157861000Y-97663000D03*
X155321000Y-100203000D03*
X155321000Y-97663000D03*
X152781000Y-100203000D03*
X152781000Y-97663000D03*
X150241000Y-100203000D03*
X150241000Y-97663000D03*
X147701000Y-100203000D03*
X147701000Y-97663000D03*
X145161000Y-100203000D03*
X145161000Y-97663000D03*
X142621000Y-100203000D03*
X142621000Y-97663000D03*
X140081000Y-100203000D03*
D14*
X140081000Y-97663000D03*
D11*
G36*
X176473779Y-74329144D02*
G01*
X176496834Y-74332563D01*
X176519443Y-74338227D01*
X176541387Y-74346079D01*
X176562457Y-74356044D01*
X176582448Y-74368026D01*
X176601168Y-74381910D01*
X176618438Y-74397562D01*
X176634090Y-74414832D01*
X176647974Y-74433552D01*
X176659956Y-74453543D01*
X176669921Y-74474613D01*
X176677773Y-74496557D01*
X176683437Y-74519166D01*
X176686856Y-74542221D01*
X176688000Y-74565500D01*
X176688000Y-75040500D01*
X176686856Y-75063779D01*
X176683437Y-75086834D01*
X176677773Y-75109443D01*
X176669921Y-75131387D01*
X176659956Y-75152457D01*
X176647974Y-75172448D01*
X176634090Y-75191168D01*
X176618438Y-75208438D01*
X176601168Y-75224090D01*
X176582448Y-75237974D01*
X176562457Y-75249956D01*
X176541387Y-75259921D01*
X176519443Y-75267773D01*
X176496834Y-75273437D01*
X176473779Y-75276856D01*
X176450500Y-75278000D01*
X175875500Y-75278000D01*
X175852221Y-75276856D01*
X175829166Y-75273437D01*
X175806557Y-75267773D01*
X175784613Y-75259921D01*
X175763543Y-75249956D01*
X175743552Y-75237974D01*
X175724832Y-75224090D01*
X175707562Y-75208438D01*
X175691910Y-75191168D01*
X175678026Y-75172448D01*
X175666044Y-75152457D01*
X175656079Y-75131387D01*
X175648227Y-75109443D01*
X175642563Y-75086834D01*
X175639144Y-75063779D01*
X175638000Y-75040500D01*
X175638000Y-74565500D01*
X175639144Y-74542221D01*
X175642563Y-74519166D01*
X175648227Y-74496557D01*
X175656079Y-74474613D01*
X175666044Y-74453543D01*
X175678026Y-74433552D01*
X175691910Y-74414832D01*
X175707562Y-74397562D01*
X175724832Y-74381910D01*
X175743552Y-74368026D01*
X175763543Y-74356044D01*
X175784613Y-74346079D01*
X175806557Y-74338227D01*
X175829166Y-74332563D01*
X175852221Y-74329144D01*
X175875500Y-74328000D01*
X176450500Y-74328000D01*
X176473779Y-74329144D01*
X176473779Y-74329144D01*
G37*
D12*
X176163000Y-74803000D03*
D11*
G36*
X178223779Y-74329144D02*
G01*
X178246834Y-74332563D01*
X178269443Y-74338227D01*
X178291387Y-74346079D01*
X178312457Y-74356044D01*
X178332448Y-74368026D01*
X178351168Y-74381910D01*
X178368438Y-74397562D01*
X178384090Y-74414832D01*
X178397974Y-74433552D01*
X178409956Y-74453543D01*
X178419921Y-74474613D01*
X178427773Y-74496557D01*
X178433437Y-74519166D01*
X178436856Y-74542221D01*
X178438000Y-74565500D01*
X178438000Y-75040500D01*
X178436856Y-75063779D01*
X178433437Y-75086834D01*
X178427773Y-75109443D01*
X178419921Y-75131387D01*
X178409956Y-75152457D01*
X178397974Y-75172448D01*
X178384090Y-75191168D01*
X178368438Y-75208438D01*
X178351168Y-75224090D01*
X178332448Y-75237974D01*
X178312457Y-75249956D01*
X178291387Y-75259921D01*
X178269443Y-75267773D01*
X178246834Y-75273437D01*
X178223779Y-75276856D01*
X178200500Y-75278000D01*
X177625500Y-75278000D01*
X177602221Y-75276856D01*
X177579166Y-75273437D01*
X177556557Y-75267773D01*
X177534613Y-75259921D01*
X177513543Y-75249956D01*
X177493552Y-75237974D01*
X177474832Y-75224090D01*
X177457562Y-75208438D01*
X177441910Y-75191168D01*
X177428026Y-75172448D01*
X177416044Y-75152457D01*
X177406079Y-75131387D01*
X177398227Y-75109443D01*
X177392563Y-75086834D01*
X177389144Y-75063779D01*
X177388000Y-75040500D01*
X177388000Y-74565500D01*
X177389144Y-74542221D01*
X177392563Y-74519166D01*
X177398227Y-74496557D01*
X177406079Y-74474613D01*
X177416044Y-74453543D01*
X177428026Y-74433552D01*
X177441910Y-74414832D01*
X177457562Y-74397562D01*
X177474832Y-74381910D01*
X177493552Y-74368026D01*
X177513543Y-74356044D01*
X177534613Y-74346079D01*
X177556557Y-74338227D01*
X177579166Y-74332563D01*
X177602221Y-74329144D01*
X177625500Y-74328000D01*
X178200500Y-74328000D01*
X178223779Y-74329144D01*
X178223779Y-74329144D01*
G37*
D12*
X177913000Y-74803000D03*
D11*
G36*
X172917779Y-74329144D02*
G01*
X172940834Y-74332563D01*
X172963443Y-74338227D01*
X172985387Y-74346079D01*
X173006457Y-74356044D01*
X173026448Y-74368026D01*
X173045168Y-74381910D01*
X173062438Y-74397562D01*
X173078090Y-74414832D01*
X173091974Y-74433552D01*
X173103956Y-74453543D01*
X173113921Y-74474613D01*
X173121773Y-74496557D01*
X173127437Y-74519166D01*
X173130856Y-74542221D01*
X173132000Y-74565500D01*
X173132000Y-75040500D01*
X173130856Y-75063779D01*
X173127437Y-75086834D01*
X173121773Y-75109443D01*
X173113921Y-75131387D01*
X173103956Y-75152457D01*
X173091974Y-75172448D01*
X173078090Y-75191168D01*
X173062438Y-75208438D01*
X173045168Y-75224090D01*
X173026448Y-75237974D01*
X173006457Y-75249956D01*
X172985387Y-75259921D01*
X172963443Y-75267773D01*
X172940834Y-75273437D01*
X172917779Y-75276856D01*
X172894500Y-75278000D01*
X172319500Y-75278000D01*
X172296221Y-75276856D01*
X172273166Y-75273437D01*
X172250557Y-75267773D01*
X172228613Y-75259921D01*
X172207543Y-75249956D01*
X172187552Y-75237974D01*
X172168832Y-75224090D01*
X172151562Y-75208438D01*
X172135910Y-75191168D01*
X172122026Y-75172448D01*
X172110044Y-75152457D01*
X172100079Y-75131387D01*
X172092227Y-75109443D01*
X172086563Y-75086834D01*
X172083144Y-75063779D01*
X172082000Y-75040500D01*
X172082000Y-74565500D01*
X172083144Y-74542221D01*
X172086563Y-74519166D01*
X172092227Y-74496557D01*
X172100079Y-74474613D01*
X172110044Y-74453543D01*
X172122026Y-74433552D01*
X172135910Y-74414832D01*
X172151562Y-74397562D01*
X172168832Y-74381910D01*
X172187552Y-74368026D01*
X172207543Y-74356044D01*
X172228613Y-74346079D01*
X172250557Y-74338227D01*
X172273166Y-74332563D01*
X172296221Y-74329144D01*
X172319500Y-74328000D01*
X172894500Y-74328000D01*
X172917779Y-74329144D01*
X172917779Y-74329144D01*
G37*
D12*
X172607000Y-74803000D03*
D11*
G36*
X174667779Y-74329144D02*
G01*
X174690834Y-74332563D01*
X174713443Y-74338227D01*
X174735387Y-74346079D01*
X174756457Y-74356044D01*
X174776448Y-74368026D01*
X174795168Y-74381910D01*
X174812438Y-74397562D01*
X174828090Y-74414832D01*
X174841974Y-74433552D01*
X174853956Y-74453543D01*
X174863921Y-74474613D01*
X174871773Y-74496557D01*
X174877437Y-74519166D01*
X174880856Y-74542221D01*
X174882000Y-74565500D01*
X174882000Y-75040500D01*
X174880856Y-75063779D01*
X174877437Y-75086834D01*
X174871773Y-75109443D01*
X174863921Y-75131387D01*
X174853956Y-75152457D01*
X174841974Y-75172448D01*
X174828090Y-75191168D01*
X174812438Y-75208438D01*
X174795168Y-75224090D01*
X174776448Y-75237974D01*
X174756457Y-75249956D01*
X174735387Y-75259921D01*
X174713443Y-75267773D01*
X174690834Y-75273437D01*
X174667779Y-75276856D01*
X174644500Y-75278000D01*
X174069500Y-75278000D01*
X174046221Y-75276856D01*
X174023166Y-75273437D01*
X174000557Y-75267773D01*
X173978613Y-75259921D01*
X173957543Y-75249956D01*
X173937552Y-75237974D01*
X173918832Y-75224090D01*
X173901562Y-75208438D01*
X173885910Y-75191168D01*
X173872026Y-75172448D01*
X173860044Y-75152457D01*
X173850079Y-75131387D01*
X173842227Y-75109443D01*
X173836563Y-75086834D01*
X173833144Y-75063779D01*
X173832000Y-75040500D01*
X173832000Y-74565500D01*
X173833144Y-74542221D01*
X173836563Y-74519166D01*
X173842227Y-74496557D01*
X173850079Y-74474613D01*
X173860044Y-74453543D01*
X173872026Y-74433552D01*
X173885910Y-74414832D01*
X173901562Y-74397562D01*
X173918832Y-74381910D01*
X173937552Y-74368026D01*
X173957543Y-74356044D01*
X173978613Y-74346079D01*
X174000557Y-74338227D01*
X174023166Y-74332563D01*
X174046221Y-74329144D01*
X174069500Y-74328000D01*
X174644500Y-74328000D01*
X174667779Y-74329144D01*
X174667779Y-74329144D01*
G37*
D12*
X174357000Y-74803000D03*
D13*
X129159000Y-100076000D03*
X129159000Y-97536000D03*
X126619000Y-100076000D03*
X126619000Y-97536000D03*
X124079000Y-100076000D03*
X124079000Y-97536000D03*
X121539000Y-100076000D03*
X121539000Y-97536000D03*
X118999000Y-100076000D03*
D14*
X118999000Y-97536000D03*
D15*
X126238000Y-90678000D03*
X126873000Y-93980000D03*
X136271000Y-75565000D03*
X173736000Y-92329000D03*
X177165000Y-94361000D03*
X182753000Y-88392000D03*
X171196000Y-74272790D03*
X168529000Y-75819000D03*
X154906837Y-83929835D03*
X147320000Y-84582000D03*
D16*
X158369000Y-91567000D03*
D17*
X158157613Y-77763956D03*
X173736000Y-78867000D03*
X162255168Y-77383315D03*
X158138197Y-78589803D03*
X176022000Y-79883000D03*
X161110454Y-79608576D03*
X161899634Y-81901428D03*
X158334564Y-79849477D03*
X172464405Y-79397210D03*
X160897860Y-80668987D03*
X160881946Y-78548165D03*
X158523048Y-80959920D03*
X160470888Y-77400112D03*
X170724418Y-78534586D03*
X160839222Y-81805255D03*
X158216967Y-86359873D03*
X160521621Y-86161005D03*
X177927000Y-79502000D03*
X159364387Y-78861451D03*
X158044997Y-87772696D03*
X160195448Y-87573827D03*
X158834979Y-77258021D03*
X168656000Y-77343000D03*
X158115000Y-88519000D03*
X159766000Y-88519000D03*
X177927000Y-83312000D03*
X153907201Y-85454201D03*
X155275591Y-89392909D03*
X153862760Y-89264201D03*
X163789672Y-88432328D03*
X146979679Y-86994663D03*
X178054000Y-85852000D03*
X151639055Y-86685300D03*
X152781000Y-90043000D03*
X155167779Y-90453314D03*
X165757146Y-80114802D03*
X158950476Y-81751130D03*
X177927000Y-82042000D03*
X142240000Y-83820000D03*
X144421210Y-90941787D03*
X140849390Y-90928831D03*
X163112411Y-81671059D03*
X147057146Y-79536969D03*
X177927000Y-80772000D03*
X144421210Y-90074990D03*
X140496980Y-90087468D03*
X141563701Y-81511790D03*
X140970000Y-79502000D03*
X167160584Y-79938067D03*
X144421210Y-89278333D03*
X140144559Y-89239767D03*
X176784000Y-80391000D03*
X158034185Y-82353927D03*
X140306477Y-81308523D03*
X166474982Y-80114790D03*
X144421210Y-88457456D03*
X139792149Y-88518934D03*
X159004000Y-93091000D03*
X181358950Y-92580050D03*
X166630779Y-81937210D03*
X139954000Y-82804000D03*
X144421210Y-87699826D03*
X139439739Y-87630000D03*
X154813000Y-96012000D03*
X181246000Y-94852000D03*
X166122660Y-84699464D03*
X139294683Y-83062034D03*
X143422398Y-80178290D03*
X139786681Y-80491576D03*
X155321000Y-93218000D03*
X178325002Y-93621210D03*
X166934448Y-84449207D03*
X137864888Y-84258112D03*
X142721593Y-79729593D03*
X139319000Y-79756000D03*
X144780000Y-93345000D03*
X175006000Y-94129210D03*
X167192165Y-86394549D03*
X138938000Y-78867000D03*
X144281513Y-78857487D03*
X138292508Y-85779715D03*
X144272000Y-93853000D03*
X173989980Y-94481621D03*
X167306384Y-87093287D03*
X138601541Y-78022541D03*
X144333039Y-78074000D03*
X137674507Y-87083373D03*
X143175531Y-93760363D03*
X172328696Y-94834032D03*
X167259000Y-88392000D03*
X138249131Y-77142869D03*
X144368052Y-77274000D03*
X137322096Y-88556869D03*
X142537665Y-93239880D03*
X172007253Y-95464869D03*
D15*
X174815499Y-73342499D03*
X174930794Y-76158710D03*
X148590000Y-81534000D03*
X153035000Y-83185000D03*
X147447000Y-82930998D03*
D18*
X176734063Y-76158710D03*
D19*
X148426200Y-84709000D02*
X148590000Y-84872800D01*
D20*
X171726210Y-74803000D02*
X171196000Y-74272790D01*
X172607000Y-74803000D02*
X171726210Y-74803000D01*
X148299200Y-84582000D02*
X148590000Y-84872800D01*
X147320000Y-84582000D02*
X148299200Y-84582000D01*
D21*
X166387160Y-77383315D02*
X162255168Y-77383315D01*
X171176702Y-78867000D02*
X170978915Y-79064787D01*
X170978915Y-79064787D02*
X168068632Y-79064787D01*
X168068632Y-79064787D02*
X166387160Y-77383315D01*
X173736000Y-78867000D02*
X171176702Y-78867000D01*
X158411612Y-78017955D02*
X161620528Y-78017955D01*
X158157613Y-77763956D02*
X158411612Y-78017955D01*
X161620528Y-78017955D02*
X162255168Y-77383315D01*
X158034234Y-78589803D02*
X158138197Y-78589803D01*
X159130503Y-79397201D02*
X160466117Y-79397201D01*
X158392196Y-78843802D02*
X158577104Y-78843802D01*
X158138197Y-78589803D02*
X158392196Y-78843802D01*
X160677492Y-79608576D02*
X161110454Y-79608576D01*
X158577104Y-78843802D02*
X159130503Y-79397201D01*
X160466117Y-79397201D02*
X160677492Y-79608576D01*
X176022000Y-79883000D02*
X175259997Y-80645003D01*
X163156059Y-80645003D02*
X161899634Y-81901428D01*
X175259997Y-80645003D02*
X163156059Y-80645003D01*
X161766501Y-78370366D02*
X161059745Y-78370366D01*
X160893177Y-80664304D02*
X160897860Y-80668987D01*
X158334564Y-79849477D02*
X158586011Y-79849477D01*
X158586011Y-79849477D02*
X158838557Y-80102023D01*
X168156670Y-79651209D02*
X166799471Y-78294010D01*
X172210406Y-79651209D02*
X168156670Y-79651209D01*
X158838557Y-80102023D02*
X160174171Y-80102023D01*
X160893177Y-80603467D02*
X160893177Y-80664304D01*
X160675615Y-80603467D02*
X160893177Y-80603467D01*
X160174171Y-80102023D02*
X160675615Y-80603467D01*
X161842857Y-78294010D02*
X161766501Y-78370366D01*
X166799471Y-78294010D02*
X161842857Y-78294010D01*
X172464405Y-79397210D02*
X172210406Y-79651209D01*
X161059745Y-78370366D02*
X160881946Y-78548165D01*
X168186970Y-78534586D02*
X170724418Y-78534586D01*
X160724887Y-77146113D02*
X161707644Y-77146113D01*
X166505471Y-76853087D02*
X168186970Y-78534586D01*
X162000670Y-76853087D02*
X166505471Y-76853087D01*
X161707644Y-77146113D02*
X162000670Y-76853087D01*
X160470888Y-77400112D02*
X160724887Y-77146113D01*
X160497047Y-81551256D02*
X160585223Y-81551256D01*
X158523048Y-80959920D02*
X159905711Y-80959920D01*
X160585223Y-81551256D02*
X160839222Y-81805255D01*
X159905711Y-80959920D02*
X160497047Y-81551256D01*
X160466490Y-86105874D02*
X160521621Y-86161005D01*
X158216967Y-86359873D02*
X158470966Y-86105874D01*
X158470966Y-86105874D02*
X160466490Y-86105874D01*
X161335039Y-78879770D02*
X161136443Y-79078366D01*
X160410534Y-78861451D02*
X159364387Y-78861451D01*
X175618302Y-79502000D02*
X173123698Y-79502000D01*
X177673001Y-79248001D02*
X175872301Y-79248001D01*
X166886847Y-78879770D02*
X161335039Y-78879770D01*
X175872301Y-79248001D02*
X175618302Y-79502000D01*
X161136443Y-79078366D02*
X160627449Y-79078366D01*
X172460109Y-80165589D02*
X168172666Y-80165589D01*
X177927000Y-79502000D02*
X177673001Y-79248001D01*
X173123698Y-79502000D02*
X172460109Y-80165589D01*
X168172666Y-80165589D02*
X166886847Y-78879770D01*
X160627449Y-79078366D02*
X160410534Y-78861451D01*
X157900621Y-87686997D02*
X157959298Y-87686997D01*
X157959298Y-87686997D02*
X158044997Y-87772696D01*
X159996579Y-87772696D02*
X160195448Y-87573827D01*
X158044997Y-87772696D02*
X159996579Y-87772696D01*
X158834979Y-77258021D02*
X158834979Y-77275673D01*
X168656000Y-77343000D02*
X167277749Y-75964749D01*
X160128251Y-75964749D02*
X158834979Y-77258021D01*
X167277749Y-75964749D02*
X160128251Y-75964749D01*
X158115000Y-88519000D02*
X159766000Y-88519000D01*
X153862760Y-89264201D02*
X155146883Y-89264201D01*
X155146883Y-89264201D02*
X155275591Y-89392909D01*
X154449117Y-85454201D02*
X153907201Y-85454201D01*
X155329746Y-84573572D02*
X154449117Y-85454201D01*
X165318248Y-84573572D02*
X155329746Y-84573572D01*
X177927000Y-83312000D02*
X166579820Y-83312000D01*
X166579820Y-83312000D02*
X165318248Y-84573572D01*
X162581790Y-89281000D02*
X163430462Y-88432328D01*
X156858082Y-89281000D02*
X162581790Y-89281000D01*
X155958671Y-88381589D02*
X156858082Y-89281000D01*
X153462290Y-88381589D02*
X155958671Y-88381589D01*
X148667124Y-88517910D02*
X153325969Y-88517910D01*
X153325969Y-88517910D02*
X153462290Y-88381589D01*
X147041612Y-86892398D02*
X148667124Y-88517910D01*
X163430462Y-88432328D02*
X163789672Y-88432328D01*
X152781000Y-90043000D02*
X154757465Y-90043000D01*
X154757465Y-90043000D02*
X155167779Y-90453314D01*
X178054000Y-85852000D02*
X160997314Y-85852000D01*
X157846138Y-85630804D02*
X156724219Y-86752723D01*
X160776118Y-85630804D02*
X157846138Y-85630804D01*
X156724219Y-86752723D02*
X152065688Y-86752723D01*
X152065688Y-86752723D02*
X151998265Y-86685300D01*
X160997314Y-85852000D02*
X160776118Y-85630804D01*
X151998265Y-86685300D02*
X151639055Y-86685300D01*
X165757146Y-80114802D02*
X165397936Y-80114802D01*
X162651657Y-80276643D02*
X161369423Y-81558877D01*
X165236095Y-80276643D02*
X162651657Y-80276643D01*
X161369423Y-82059752D02*
X161093719Y-82335456D01*
X159534802Y-82335456D02*
X158950476Y-81751130D01*
X161093719Y-82335456D02*
X159534802Y-82335456D01*
X165397936Y-80114802D02*
X165236095Y-80276643D01*
X161369423Y-81558877D02*
X161369423Y-82059752D01*
X142240000Y-83820000D02*
X142198701Y-83861299D01*
X144268831Y-90928831D02*
X140849390Y-90928831D01*
X144272000Y-90932000D02*
X144268831Y-90928831D01*
X145288000Y-80772000D02*
X142240000Y-83820000D01*
X157496696Y-84221162D02*
X154047534Y-80772000D01*
X165172274Y-84221162D02*
X157496696Y-84221162D01*
X167351436Y-82042000D02*
X165172274Y-84221162D01*
X177927000Y-82042000D02*
X167351436Y-82042000D01*
X154047534Y-80772000D02*
X145288000Y-80772000D01*
X155577653Y-80806969D02*
X154307653Y-79536969D01*
X159243339Y-82811522D02*
X157238786Y-80806969D01*
X157238786Y-80806969D02*
X155577653Y-80806969D01*
X163112411Y-81671059D02*
X161971948Y-82811522D01*
X161971948Y-82811522D02*
X159243339Y-82811522D01*
X154307653Y-79536969D02*
X147416356Y-79536969D01*
X147416356Y-79536969D02*
X147057146Y-79536969D01*
X144421210Y-90074990D02*
X140509458Y-90074990D01*
X140509458Y-90074990D02*
X140496980Y-90087468D01*
X177927000Y-80772000D02*
X177292000Y-81407000D01*
X157788642Y-83516340D02*
X154339479Y-80067179D01*
X143551442Y-81511790D02*
X141922911Y-81511790D01*
X154339479Y-80067179D02*
X144996052Y-80067180D01*
X141922911Y-81511790D02*
X141563701Y-81511790D01*
X177292000Y-81407000D02*
X166383084Y-81407000D01*
X166383084Y-81407000D02*
X164273744Y-83516340D01*
X164273744Y-83516340D02*
X157788642Y-83516340D01*
X144996052Y-80067180D02*
X143551442Y-81511790D01*
X144421210Y-89278333D02*
X140183125Y-89278333D01*
X140183125Y-89278333D02*
X140144559Y-89239767D01*
X157791729Y-79502000D02*
X158026258Y-79267471D01*
X160320144Y-79749612D02*
X160709309Y-80138777D01*
X145412107Y-78654357D02*
X154421809Y-78654357D01*
X164899709Y-79571823D02*
X165239351Y-79232181D01*
X143242847Y-79390497D02*
X144675967Y-79390497D01*
X142997406Y-79145056D02*
X143242847Y-79390497D01*
X158502389Y-79267471D02*
X158984530Y-79749612D01*
X154421809Y-78654357D02*
X155269452Y-79502000D01*
X162035757Y-79571823D02*
X164899709Y-79571823D01*
X140970000Y-79473468D02*
X141298412Y-79145056D01*
X158026258Y-79267471D02*
X158502389Y-79267471D01*
X144675967Y-79390497D02*
X145412107Y-78654357D01*
X161468803Y-80138777D02*
X162035757Y-79571823D01*
X158984530Y-79749612D02*
X160320144Y-79749612D01*
X141298412Y-79145056D02*
X142997406Y-79145056D01*
X160709309Y-80138777D02*
X161468803Y-80138777D01*
X155269452Y-79502000D02*
X157791729Y-79502000D01*
X166551059Y-79232181D02*
X167258999Y-79940121D01*
X165239351Y-79232181D02*
X166551059Y-79232181D01*
X166294289Y-80997411D02*
X164127769Y-83163931D01*
X176784000Y-80391000D02*
X176177589Y-80997411D01*
X164127769Y-83163931D02*
X158844189Y-83163931D01*
X158844189Y-83163931D02*
X158034185Y-82353927D01*
X176177589Y-80997411D02*
X166294289Y-80997411D01*
X139853627Y-88457456D02*
X139792149Y-88518934D01*
X144421210Y-88457456D02*
X139853627Y-88457456D01*
X140633412Y-80981588D02*
X143583260Y-80981588D01*
X166303994Y-79584592D02*
X166474982Y-79755580D01*
X154275835Y-79006767D02*
X155648747Y-80379679D01*
X155648747Y-80379679D02*
X158617829Y-80379679D01*
X159898607Y-80454432D02*
X160643363Y-81199188D01*
X140306477Y-81308523D02*
X140633412Y-80981588D01*
X166474982Y-79755580D02*
X166474982Y-80114790D01*
X145558081Y-79006767D02*
X154275835Y-79006767D01*
X165045682Y-79924234D02*
X165385324Y-79584592D01*
X158617829Y-80379679D02*
X158692582Y-80454432D01*
X161152201Y-81199188D02*
X162427155Y-79924234D01*
X158692582Y-80454432D02*
X159898607Y-80454432D01*
X162427155Y-79924234D02*
X165045682Y-79924234D01*
X143583260Y-80981588D02*
X145558081Y-79006767D01*
X160643363Y-81199188D02*
X161152201Y-81199188D01*
X165385324Y-79584592D02*
X166303994Y-79584592D01*
X180848000Y-93091000D02*
X181358950Y-92580050D01*
X159004000Y-93091000D02*
X180848000Y-93091000D01*
X166630779Y-81765888D02*
X166630779Y-81937210D01*
X144421210Y-87699826D02*
X139509565Y-87699826D01*
X139509565Y-87699826D02*
X139439739Y-87630000D01*
X164699238Y-83868751D02*
X157642669Y-83868751D01*
X142757616Y-82804000D02*
X140313210Y-82804000D01*
X145142026Y-80419590D02*
X142757616Y-82804000D01*
X166630779Y-81937210D02*
X164699238Y-83868751D01*
X140313210Y-82804000D02*
X139954000Y-82804000D01*
X157642669Y-83868751D02*
X154193507Y-80419589D01*
X154193507Y-80419589D02*
X145142026Y-80419590D01*
X180041589Y-96056411D02*
X181246000Y-94852000D01*
X171785904Y-96056411D02*
X180041589Y-96056411D01*
X171741493Y-96012000D02*
X171785904Y-96056411D01*
X154813000Y-96012000D02*
X171741493Y-96012000D01*
X139786681Y-80491576D02*
X140235693Y-80491576D01*
X140307680Y-80419589D02*
X143181099Y-80419589D01*
X143181099Y-80419589D02*
X143422398Y-80178290D01*
X140235693Y-80491576D02*
X140307680Y-80419589D01*
X143729158Y-84801158D02*
X141033807Y-84801158D01*
X144301088Y-85373088D02*
X143729158Y-84801158D01*
X166122660Y-84699464D02*
X165763450Y-84699464D01*
X147603088Y-85373088D02*
X144301088Y-85373088D01*
X141033807Y-84801158D02*
X139294683Y-83062034D01*
X150658459Y-85739179D02*
X150037638Y-86360000D01*
X153313499Y-85739179D02*
X150658459Y-85739179D01*
X165536932Y-84925982D02*
X155812384Y-84925982D01*
X148590000Y-86360000D02*
X147603088Y-85373088D01*
X155812384Y-84925982D02*
X154690465Y-86047901D01*
X150037638Y-86360000D02*
X148590000Y-86360000D01*
X153622221Y-86047901D02*
X153313499Y-85739179D01*
X154690465Y-86047901D02*
X153622221Y-86047901D01*
X165763450Y-84699464D02*
X165536932Y-84925982D01*
X155724201Y-93621201D02*
X159258497Y-93621201D01*
X159258497Y-93621201D02*
X159436287Y-93443411D01*
X177965792Y-93621210D02*
X178325002Y-93621210D01*
X155321000Y-93218000D02*
X155724201Y-93621201D01*
X177787993Y-93443411D02*
X177965792Y-93621210D01*
X159436287Y-93443411D02*
X177787993Y-93443411D01*
X140551054Y-80067178D02*
X142384008Y-80067178D01*
X140239876Y-79756000D02*
X140551054Y-80067178D01*
X142384008Y-80067178D02*
X142712428Y-79738758D01*
X139319000Y-79756000D02*
X140239876Y-79756000D01*
X143914427Y-85484811D02*
X144155115Y-85725499D01*
X137864888Y-84270888D02*
X139078811Y-85484811D01*
X153476248Y-86400312D02*
X156578246Y-86400312D01*
X153167526Y-86091590D02*
X153476248Y-86400312D01*
X156578246Y-86400312D02*
X157700165Y-85278393D01*
X139078811Y-85484811D02*
X143914427Y-85484811D01*
X144155115Y-85725499D02*
X147457115Y-85725499D01*
X147457115Y-85725499D02*
X148444027Y-86712411D01*
X150804432Y-86091590D02*
X153167526Y-86091590D01*
X166934448Y-84808417D02*
X166934448Y-84449207D01*
X150183611Y-86712411D02*
X150804432Y-86091590D01*
X148444027Y-86712411D02*
X150183611Y-86712411D01*
X166464472Y-85278393D02*
X166934448Y-84808417D01*
X157700165Y-85278393D02*
X166464472Y-85278393D01*
X145408612Y-93973612D02*
X159404471Y-93973611D01*
X174752001Y-93875211D02*
X175006000Y-94129210D01*
X159502871Y-93875211D02*
X174752001Y-93875211D01*
X159404471Y-93973611D02*
X159502871Y-93875211D01*
X144780000Y-93345000D02*
X145408612Y-93973612D01*
X139271450Y-78533550D02*
X143957576Y-78533550D01*
X138953951Y-78851049D02*
X139271450Y-78533550D01*
X143957576Y-78533550D02*
X144272000Y-78847974D01*
X147311142Y-86077910D02*
X144009142Y-86077910D01*
X158670324Y-86691216D02*
X158471465Y-86890075D01*
X148512234Y-87279002D02*
X147311142Y-86077910D01*
X144009142Y-86077910D02*
X143768454Y-85837222D01*
X158471465Y-86890075D02*
X157282843Y-86890076D01*
X156893917Y-87279002D02*
X148512234Y-87279002D01*
X138709225Y-85837222D02*
X138651718Y-85779715D01*
X143768454Y-85837222D02*
X138709225Y-85837222D01*
X166931124Y-86691216D02*
X158670324Y-86691216D01*
X157282843Y-86890076D02*
X156893917Y-87279002D01*
X138651718Y-85779715D02*
X138292508Y-85779715D01*
X167176630Y-86445710D02*
X166931124Y-86691216D01*
X159648844Y-94227622D02*
X173735981Y-94227622D01*
X173735981Y-94227622D02*
X173989980Y-94481621D01*
X159550445Y-94326021D02*
X159648844Y-94227622D01*
X144272000Y-93853000D02*
X144745021Y-94326021D01*
X144745021Y-94326021D02*
X159550445Y-94326021D01*
X144281580Y-78022541D02*
X144333039Y-78074000D01*
X138601541Y-78022541D02*
X144281580Y-78022541D01*
X157039890Y-87631413D02*
X148366261Y-87631413D01*
X143707148Y-86274300D02*
X138483580Y-86274300D01*
X160499606Y-87093287D02*
X160449946Y-87043627D01*
X167306384Y-87093287D02*
X160499606Y-87093287D01*
X143863168Y-86430320D02*
X143707148Y-86274300D01*
X157428817Y-87242486D02*
X157039890Y-87631413D01*
X148366261Y-87631413D02*
X147165169Y-86430321D01*
X138483580Y-86274300D02*
X137928506Y-86829374D01*
X158816297Y-87043627D02*
X158617438Y-87242486D01*
X158617438Y-87242486D02*
X157428817Y-87242486D01*
X160449946Y-87043627D02*
X158816297Y-87043627D01*
X147165169Y-86430321D02*
X143863168Y-86430320D01*
X137928506Y-86829374D02*
X137674507Y-87083373D01*
X144249200Y-94834032D02*
X172328696Y-94834032D01*
X143175531Y-93760363D02*
X144249200Y-94834032D01*
X144236921Y-77142869D02*
X144368052Y-77274000D01*
X138249131Y-77142869D02*
X144236921Y-77142869D01*
X144929201Y-86890201D02*
X138988764Y-86890201D01*
X155812698Y-88734000D02*
X153608263Y-88734000D01*
X147001530Y-88962530D02*
X144929201Y-86890201D01*
X153379733Y-88962530D02*
X147001530Y-88962530D01*
X153608263Y-88734000D02*
X153379733Y-88962530D01*
X167259000Y-88392000D02*
X166017589Y-89633411D01*
X166017589Y-89633411D02*
X156712109Y-89633411D01*
X138988764Y-86890201D02*
X137322096Y-88556869D01*
X156712109Y-89633411D02*
X155812698Y-88734000D01*
X142537665Y-93907197D02*
X144095337Y-95464869D01*
X142537665Y-93239880D02*
X142537665Y-93907197D01*
X144095337Y-95464869D02*
X172007253Y-95464869D01*
D19*
X174930794Y-76035206D02*
X174930794Y-76158710D01*
X148652200Y-83185000D02*
X148590000Y-83122800D01*
D20*
X174815499Y-73455499D02*
X176163000Y-74803000D01*
X174815499Y-73342499D02*
X174815499Y-73455499D01*
X176163000Y-74926504D02*
X174930794Y-76158710D01*
X176163000Y-74803000D02*
X176163000Y-74926504D01*
X176163000Y-74803000D02*
X174357000Y-74803000D01*
X148590000Y-81534000D02*
X148590000Y-83122800D01*
X147638802Y-83122800D02*
X147447000Y-82930998D01*
X148590000Y-83122800D02*
X147638802Y-83122800D01*
X152972800Y-83122800D02*
X153035000Y-83185000D01*
X148590000Y-83122800D02*
X152972800Y-83122800D01*
D21*
X177913000Y-74803000D02*
X176734063Y-75981937D01*
X176734063Y-75981937D02*
X176734063Y-76158710D01*
D10*
G36*
X174083951Y-72951478D02*
G01*
X174021723Y-73101710D01*
X173989999Y-73261194D01*
X173989999Y-73423804D01*
X174021723Y-73583288D01*
X174083951Y-73733520D01*
X174174291Y-73868724D01*
X174250724Y-73945157D01*
X174069500Y-73945157D01*
X173948477Y-73957077D01*
X173832105Y-73992378D01*
X173724856Y-74049704D01*
X173709849Y-74062020D01*
X173662537Y-73973506D01*
X173583185Y-73876815D01*
X173486494Y-73797463D01*
X173376180Y-73738498D01*
X173256482Y-73702188D01*
X173132000Y-73689928D01*
X172892750Y-73693000D01*
X172734000Y-73851750D01*
X172734000Y-74676000D01*
X172754000Y-74676000D01*
X172754000Y-74930000D01*
X172734000Y-74930000D01*
X172734000Y-75754250D01*
X172892750Y-75913000D01*
X173132000Y-75916072D01*
X173256482Y-75903812D01*
X173376180Y-75867502D01*
X173486494Y-75808537D01*
X173583185Y-75729185D01*
X173662537Y-75632494D01*
X173709849Y-75543980D01*
X173724856Y-75556296D01*
X173832105Y-75613622D01*
X173948477Y-75648923D01*
X174069500Y-75660843D01*
X174270638Y-75660843D01*
X174199246Y-75767689D01*
X174137018Y-75917921D01*
X174105294Y-76077405D01*
X174105294Y-76240015D01*
X174137018Y-76399499D01*
X174199246Y-76549731D01*
X174289586Y-76684935D01*
X174404569Y-76799918D01*
X174539773Y-76890258D01*
X174690005Y-76952486D01*
X174849489Y-76984210D01*
X175012099Y-76984210D01*
X175171583Y-76952486D01*
X175321815Y-76890258D01*
X175457019Y-76799918D01*
X175572002Y-76684935D01*
X175662342Y-76549731D01*
X175724570Y-76399499D01*
X175756294Y-76240015D01*
X175756294Y-76159393D01*
X176169869Y-75745818D01*
X176115060Y-75827846D01*
X176062406Y-75954965D01*
X176035563Y-76089914D01*
X176035563Y-76227506D01*
X176062406Y-76362455D01*
X176115060Y-76489574D01*
X176191502Y-76603978D01*
X176288795Y-76701271D01*
X176403199Y-76777713D01*
X176530318Y-76830367D01*
X176665267Y-76857210D01*
X176802859Y-76857210D01*
X176937808Y-76830367D01*
X177064927Y-76777713D01*
X177179331Y-76701271D01*
X177276624Y-76603978D01*
X177353066Y-76489574D01*
X177405720Y-76362455D01*
X177432563Y-76227506D01*
X177432563Y-76089914D01*
X177406034Y-75956544D01*
X177701735Y-75660843D01*
X178200500Y-75660843D01*
X178321523Y-75648923D01*
X178437895Y-75613622D01*
X178545144Y-75556296D01*
X178639149Y-75479149D01*
X178716296Y-75385144D01*
X178773622Y-75277895D01*
X178808923Y-75161523D01*
X178820843Y-75040500D01*
X178820843Y-74565500D01*
X178808923Y-74444477D01*
X178773622Y-74328105D01*
X178738278Y-74261980D01*
X185262762Y-74261980D01*
X185262762Y-76801980D01*
X188117238Y-76801980D01*
X188117238Y-74261980D01*
X185262762Y-74261980D01*
X178738278Y-74261980D01*
X178716296Y-74220856D01*
X178639149Y-74126851D01*
X178545144Y-74049704D01*
X178437895Y-73992378D01*
X178321523Y-73957077D01*
X178200500Y-73945157D01*
X177625500Y-73945157D01*
X177504477Y-73957077D01*
X177388105Y-73992378D01*
X177280856Y-74049704D01*
X177186851Y-74126851D01*
X177109704Y-74220856D01*
X177052378Y-74328105D01*
X177038000Y-74375503D01*
X177023622Y-74328105D01*
X176966296Y-74220856D01*
X176889149Y-74126851D01*
X176795144Y-74049704D01*
X176687895Y-73992378D01*
X176571523Y-73957077D01*
X176450500Y-73945157D01*
X176131340Y-73945157D01*
X175635854Y-73449671D01*
X175640999Y-73423804D01*
X175640999Y-73261194D01*
X175609275Y-73101710D01*
X175547047Y-72951478D01*
X175528019Y-72923000D01*
X189713000Y-72923000D01*
X189713001Y-97110241D01*
X189685157Y-97031748D01*
X189536178Y-96781645D01*
X189341269Y-96565412D01*
X189107920Y-96391359D01*
X188845099Y-96266175D01*
X188697890Y-96221524D01*
X188468000Y-96342845D01*
X188468000Y-97536000D01*
X188488000Y-97536000D01*
X188488000Y-97790000D01*
X188468000Y-97790000D01*
X188468000Y-97810000D01*
X188214000Y-97810000D01*
X188214000Y-97790000D01*
X188194000Y-97790000D01*
X188194000Y-97536000D01*
X188214000Y-97536000D01*
X188214000Y-96342845D01*
X187984110Y-96221524D01*
X187836901Y-96266175D01*
X187574080Y-96391359D01*
X187340731Y-96565412D01*
X187145822Y-96781645D01*
X186996843Y-97031748D01*
X186942017Y-97186305D01*
X186829491Y-96975784D01*
X186675660Y-96788340D01*
X186488216Y-96634509D01*
X186274363Y-96520202D01*
X186042318Y-96449812D01*
X185861472Y-96432000D01*
X185740528Y-96432000D01*
X185559682Y-96449812D01*
X185327637Y-96520202D01*
X185113784Y-96634509D01*
X184926340Y-96788340D01*
X184772509Y-96975784D01*
X184658202Y-97189637D01*
X184587812Y-97421682D01*
X184564044Y-97663000D01*
X184587812Y-97904318D01*
X184658202Y-98136363D01*
X184772509Y-98350216D01*
X184926340Y-98537660D01*
X185113784Y-98691491D01*
X185327637Y-98805798D01*
X185559682Y-98876188D01*
X185740528Y-98894000D01*
X185861472Y-98894000D01*
X186042318Y-98876188D01*
X186274363Y-98805798D01*
X186488216Y-98691491D01*
X186675660Y-98537660D01*
X186829491Y-98350216D01*
X186942017Y-98139695D01*
X186996843Y-98294252D01*
X187145822Y-98544355D01*
X187340731Y-98760588D01*
X187574080Y-98934641D01*
X187836901Y-99059825D01*
X187856960Y-99065909D01*
X187653784Y-99174509D01*
X187466340Y-99328340D01*
X187312509Y-99515784D01*
X187198202Y-99729637D01*
X187127812Y-99961682D01*
X187104044Y-100203000D01*
X187127812Y-100444318D01*
X187198202Y-100676363D01*
X187312509Y-100890216D01*
X187466340Y-101077660D01*
X187653784Y-101231491D01*
X187867637Y-101345798D01*
X188099682Y-101416188D01*
X188280528Y-101434000D01*
X188401472Y-101434000D01*
X188582318Y-101416188D01*
X188814363Y-101345798D01*
X189028216Y-101231491D01*
X189215660Y-101077660D01*
X189369491Y-100890216D01*
X189483798Y-100676363D01*
X189554188Y-100444318D01*
X189577956Y-100203000D01*
X189554188Y-99961682D01*
X189483798Y-99729637D01*
X189369491Y-99515784D01*
X189215660Y-99328340D01*
X189028216Y-99174509D01*
X188825040Y-99065909D01*
X188845099Y-99059825D01*
X189107920Y-98934641D01*
X189341269Y-98760588D01*
X189536178Y-98544355D01*
X189685157Y-98294252D01*
X189713001Y-98215759D01*
X189713001Y-103734000D01*
X187325214Y-103734000D01*
X117500000Y-103607734D01*
X117500000Y-100076000D01*
X117762044Y-100076000D01*
X117785812Y-100317318D01*
X117856202Y-100549363D01*
X117970509Y-100763216D01*
X118124340Y-100950660D01*
X118311784Y-101104491D01*
X118525637Y-101218798D01*
X118757682Y-101289188D01*
X118938528Y-101307000D01*
X119059472Y-101307000D01*
X119240318Y-101289188D01*
X119472363Y-101218798D01*
X119686216Y-101104491D01*
X119873660Y-100950660D01*
X120027491Y-100763216D01*
X120141798Y-100549363D01*
X120212188Y-100317318D01*
X120235956Y-100076000D01*
X120302044Y-100076000D01*
X120325812Y-100317318D01*
X120396202Y-100549363D01*
X120510509Y-100763216D01*
X120664340Y-100950660D01*
X120851784Y-101104491D01*
X121065637Y-101218798D01*
X121297682Y-101289188D01*
X121478528Y-101307000D01*
X121599472Y-101307000D01*
X121780318Y-101289188D01*
X122012363Y-101218798D01*
X122226216Y-101104491D01*
X122413660Y-100950660D01*
X122567491Y-100763216D01*
X122681798Y-100549363D01*
X122752188Y-100317318D01*
X122775956Y-100076000D01*
X122752188Y-99834682D01*
X122681798Y-99602637D01*
X122567491Y-99388784D01*
X122413660Y-99201340D01*
X122226216Y-99047509D01*
X122012363Y-98933202D01*
X121780318Y-98862812D01*
X121599472Y-98845000D01*
X121478528Y-98845000D01*
X121297682Y-98862812D01*
X121065637Y-98933202D01*
X120851784Y-99047509D01*
X120664340Y-99201340D01*
X120510509Y-99388784D01*
X120396202Y-99602637D01*
X120325812Y-99834682D01*
X120302044Y-100076000D01*
X120235956Y-100076000D01*
X120212188Y-99834682D01*
X120141798Y-99602637D01*
X120027491Y-99388784D01*
X119873660Y-99201340D01*
X119686216Y-99047509D01*
X119472363Y-98933202D01*
X119240318Y-98862812D01*
X119059472Y-98845000D01*
X118938528Y-98845000D01*
X118757682Y-98862812D01*
X118525637Y-98933202D01*
X118311784Y-99047509D01*
X118124340Y-99201340D01*
X117970509Y-99388784D01*
X117856202Y-99602637D01*
X117785812Y-99834682D01*
X117762044Y-100076000D01*
X117500000Y-100076000D01*
X117500000Y-96686000D01*
X117766157Y-96686000D01*
X117766157Y-98386000D01*
X117773513Y-98460689D01*
X117795299Y-98532508D01*
X117830678Y-98598696D01*
X117878289Y-98656711D01*
X117936304Y-98704322D01*
X118002492Y-98739701D01*
X118074311Y-98761487D01*
X118149000Y-98768843D01*
X119849000Y-98768843D01*
X119923689Y-98761487D01*
X119995508Y-98739701D01*
X120061696Y-98704322D01*
X120119711Y-98656711D01*
X120167322Y-98598696D01*
X120202701Y-98532508D01*
X120224487Y-98460689D01*
X120231843Y-98386000D01*
X120231843Y-97536000D01*
X120302044Y-97536000D01*
X120325812Y-97777318D01*
X120396202Y-98009363D01*
X120510509Y-98223216D01*
X120664340Y-98410660D01*
X120851784Y-98564491D01*
X121065637Y-98678798D01*
X121297682Y-98749188D01*
X121478528Y-98767000D01*
X121599472Y-98767000D01*
X121780318Y-98749188D01*
X122012363Y-98678798D01*
X122226216Y-98564491D01*
X122413660Y-98410660D01*
X122567491Y-98223216D01*
X122681798Y-98009363D01*
X122752188Y-97777318D01*
X122775956Y-97536000D01*
X122842044Y-97536000D01*
X122865812Y-97777318D01*
X122936202Y-98009363D01*
X123050509Y-98223216D01*
X123204340Y-98410660D01*
X123391784Y-98564491D01*
X123605637Y-98678798D01*
X123837682Y-98749188D01*
X124018528Y-98767000D01*
X124139472Y-98767000D01*
X124320318Y-98749188D01*
X124552363Y-98678798D01*
X124766216Y-98564491D01*
X124953660Y-98410660D01*
X125107491Y-98223216D01*
X125220017Y-98012695D01*
X125274843Y-98167252D01*
X125423822Y-98417355D01*
X125618731Y-98633588D01*
X125849880Y-98806000D01*
X125618731Y-98978412D01*
X125423822Y-99194645D01*
X125274843Y-99444748D01*
X125220017Y-99599305D01*
X125107491Y-99388784D01*
X124953660Y-99201340D01*
X124766216Y-99047509D01*
X124552363Y-98933202D01*
X124320318Y-98862812D01*
X124139472Y-98845000D01*
X124018528Y-98845000D01*
X123837682Y-98862812D01*
X123605637Y-98933202D01*
X123391784Y-99047509D01*
X123204340Y-99201340D01*
X123050509Y-99388784D01*
X122936202Y-99602637D01*
X122865812Y-99834682D01*
X122842044Y-100076000D01*
X122865812Y-100317318D01*
X122936202Y-100549363D01*
X123050509Y-100763216D01*
X123204340Y-100950660D01*
X123391784Y-101104491D01*
X123605637Y-101218798D01*
X123837682Y-101289188D01*
X124018528Y-101307000D01*
X124139472Y-101307000D01*
X124320318Y-101289188D01*
X124552363Y-101218798D01*
X124766216Y-101104491D01*
X124953660Y-100950660D01*
X125107491Y-100763216D01*
X125220017Y-100552695D01*
X125274843Y-100707252D01*
X125423822Y-100957355D01*
X125618731Y-101173588D01*
X125852080Y-101347641D01*
X126114901Y-101472825D01*
X126262110Y-101517476D01*
X126492000Y-101396155D01*
X126492000Y-100203000D01*
X126746000Y-100203000D01*
X126746000Y-101396155D01*
X126975890Y-101517476D01*
X127123099Y-101472825D01*
X127385920Y-101347641D01*
X127619269Y-101173588D01*
X127814178Y-100957355D01*
X127889000Y-100831745D01*
X127963822Y-100957355D01*
X128158731Y-101173588D01*
X128392080Y-101347641D01*
X128654901Y-101472825D01*
X128802110Y-101517476D01*
X129032000Y-101396155D01*
X129032000Y-100203000D01*
X129286000Y-100203000D01*
X129286000Y-101396155D01*
X129515890Y-101517476D01*
X129663099Y-101472825D01*
X129925920Y-101347641D01*
X130159269Y-101173588D01*
X130354178Y-100957355D01*
X130503157Y-100707252D01*
X130600481Y-100432891D01*
X130479814Y-100203000D01*
X138844044Y-100203000D01*
X138867812Y-100444318D01*
X138938202Y-100676363D01*
X139052509Y-100890216D01*
X139206340Y-101077660D01*
X139393784Y-101231491D01*
X139607637Y-101345798D01*
X139839682Y-101416188D01*
X140020528Y-101434000D01*
X140141472Y-101434000D01*
X140322318Y-101416188D01*
X140554363Y-101345798D01*
X140768216Y-101231491D01*
X140955660Y-101077660D01*
X141109491Y-100890216D01*
X141223798Y-100676363D01*
X141294188Y-100444318D01*
X141317956Y-100203000D01*
X141384044Y-100203000D01*
X141407812Y-100444318D01*
X141478202Y-100676363D01*
X141592509Y-100890216D01*
X141746340Y-101077660D01*
X141933784Y-101231491D01*
X142147637Y-101345798D01*
X142379682Y-101416188D01*
X142560528Y-101434000D01*
X142681472Y-101434000D01*
X142862318Y-101416188D01*
X143094363Y-101345798D01*
X143308216Y-101231491D01*
X143495660Y-101077660D01*
X143649491Y-100890216D01*
X143763798Y-100676363D01*
X143834188Y-100444318D01*
X143857956Y-100203000D01*
X143924044Y-100203000D01*
X143947812Y-100444318D01*
X144018202Y-100676363D01*
X144132509Y-100890216D01*
X144286340Y-101077660D01*
X144473784Y-101231491D01*
X144687637Y-101345798D01*
X144919682Y-101416188D01*
X145100528Y-101434000D01*
X145221472Y-101434000D01*
X145402318Y-101416188D01*
X145634363Y-101345798D01*
X145848216Y-101231491D01*
X146035660Y-101077660D01*
X146189491Y-100890216D01*
X146303798Y-100676363D01*
X146374188Y-100444318D01*
X146397956Y-100203000D01*
X146464044Y-100203000D01*
X146487812Y-100444318D01*
X146558202Y-100676363D01*
X146672509Y-100890216D01*
X146826340Y-101077660D01*
X147013784Y-101231491D01*
X147227637Y-101345798D01*
X147459682Y-101416188D01*
X147640528Y-101434000D01*
X147761472Y-101434000D01*
X147942318Y-101416188D01*
X148174363Y-101345798D01*
X148388216Y-101231491D01*
X148575660Y-101077660D01*
X148729491Y-100890216D01*
X148843798Y-100676363D01*
X148914188Y-100444318D01*
X148937956Y-100203000D01*
X149004044Y-100203000D01*
X149027812Y-100444318D01*
X149098202Y-100676363D01*
X149212509Y-100890216D01*
X149366340Y-101077660D01*
X149553784Y-101231491D01*
X149767637Y-101345798D01*
X149999682Y-101416188D01*
X150180528Y-101434000D01*
X150301472Y-101434000D01*
X150482318Y-101416188D01*
X150714363Y-101345798D01*
X150928216Y-101231491D01*
X151115660Y-101077660D01*
X151269491Y-100890216D01*
X151383798Y-100676363D01*
X151454188Y-100444318D01*
X151477956Y-100203000D01*
X151544044Y-100203000D01*
X151567812Y-100444318D01*
X151638202Y-100676363D01*
X151752509Y-100890216D01*
X151906340Y-101077660D01*
X152093784Y-101231491D01*
X152307637Y-101345798D01*
X152539682Y-101416188D01*
X152720528Y-101434000D01*
X152841472Y-101434000D01*
X153022318Y-101416188D01*
X153254363Y-101345798D01*
X153468216Y-101231491D01*
X153655660Y-101077660D01*
X153809491Y-100890216D01*
X153923798Y-100676363D01*
X153994188Y-100444318D01*
X154017956Y-100203000D01*
X154084044Y-100203000D01*
X154107812Y-100444318D01*
X154178202Y-100676363D01*
X154292509Y-100890216D01*
X154446340Y-101077660D01*
X154633784Y-101231491D01*
X154847637Y-101345798D01*
X155079682Y-101416188D01*
X155260528Y-101434000D01*
X155381472Y-101434000D01*
X155562318Y-101416188D01*
X155794363Y-101345798D01*
X156008216Y-101231491D01*
X156195660Y-101077660D01*
X156349491Y-100890216D01*
X156463798Y-100676363D01*
X156534188Y-100444318D01*
X156557956Y-100203000D01*
X156624044Y-100203000D01*
X156647812Y-100444318D01*
X156718202Y-100676363D01*
X156832509Y-100890216D01*
X156986340Y-101077660D01*
X157173784Y-101231491D01*
X157387637Y-101345798D01*
X157619682Y-101416188D01*
X157800528Y-101434000D01*
X157921472Y-101434000D01*
X158102318Y-101416188D01*
X158334363Y-101345798D01*
X158548216Y-101231491D01*
X158735660Y-101077660D01*
X158889491Y-100890216D01*
X159003798Y-100676363D01*
X159074188Y-100444318D01*
X159097956Y-100203000D01*
X159164044Y-100203000D01*
X159187812Y-100444318D01*
X159258202Y-100676363D01*
X159372509Y-100890216D01*
X159526340Y-101077660D01*
X159713784Y-101231491D01*
X159927637Y-101345798D01*
X160159682Y-101416188D01*
X160340528Y-101434000D01*
X160461472Y-101434000D01*
X160642318Y-101416188D01*
X160874363Y-101345798D01*
X161088216Y-101231491D01*
X161275660Y-101077660D01*
X161429491Y-100890216D01*
X161543798Y-100676363D01*
X161614188Y-100444318D01*
X161637956Y-100203000D01*
X161704044Y-100203000D01*
X161727812Y-100444318D01*
X161798202Y-100676363D01*
X161912509Y-100890216D01*
X162066340Y-101077660D01*
X162253784Y-101231491D01*
X162467637Y-101345798D01*
X162699682Y-101416188D01*
X162880528Y-101434000D01*
X163001472Y-101434000D01*
X163182318Y-101416188D01*
X163414363Y-101345798D01*
X163628216Y-101231491D01*
X163815660Y-101077660D01*
X163969491Y-100890216D01*
X164083798Y-100676363D01*
X164154188Y-100444318D01*
X164177956Y-100203000D01*
X164244044Y-100203000D01*
X164267812Y-100444318D01*
X164338202Y-100676363D01*
X164452509Y-100890216D01*
X164606340Y-101077660D01*
X164793784Y-101231491D01*
X165007637Y-101345798D01*
X165239682Y-101416188D01*
X165420528Y-101434000D01*
X165541472Y-101434000D01*
X165722318Y-101416188D01*
X165954363Y-101345798D01*
X166168216Y-101231491D01*
X166355660Y-101077660D01*
X166509491Y-100890216D01*
X166623798Y-100676363D01*
X166694188Y-100444318D01*
X166717956Y-100203000D01*
X166784044Y-100203000D01*
X166807812Y-100444318D01*
X166878202Y-100676363D01*
X166992509Y-100890216D01*
X167146340Y-101077660D01*
X167333784Y-101231491D01*
X167547637Y-101345798D01*
X167779682Y-101416188D01*
X167960528Y-101434000D01*
X168081472Y-101434000D01*
X168262318Y-101416188D01*
X168494363Y-101345798D01*
X168708216Y-101231491D01*
X168895660Y-101077660D01*
X169049491Y-100890216D01*
X169163798Y-100676363D01*
X169234188Y-100444318D01*
X169257956Y-100203000D01*
X169324044Y-100203000D01*
X169347812Y-100444318D01*
X169418202Y-100676363D01*
X169532509Y-100890216D01*
X169686340Y-101077660D01*
X169873784Y-101231491D01*
X170087637Y-101345798D01*
X170319682Y-101416188D01*
X170500528Y-101434000D01*
X170621472Y-101434000D01*
X170802318Y-101416188D01*
X171034363Y-101345798D01*
X171248216Y-101231491D01*
X171435660Y-101077660D01*
X171589491Y-100890216D01*
X171703798Y-100676363D01*
X171774188Y-100444318D01*
X171797956Y-100203000D01*
X171864044Y-100203000D01*
X171887812Y-100444318D01*
X171958202Y-100676363D01*
X172072509Y-100890216D01*
X172226340Y-101077660D01*
X172413784Y-101231491D01*
X172627637Y-101345798D01*
X172859682Y-101416188D01*
X173040528Y-101434000D01*
X173161472Y-101434000D01*
X173342318Y-101416188D01*
X173574363Y-101345798D01*
X173788216Y-101231491D01*
X173975660Y-101077660D01*
X174129491Y-100890216D01*
X174243798Y-100676363D01*
X174314188Y-100444318D01*
X174337956Y-100203000D01*
X174314188Y-99961682D01*
X174243798Y-99729637D01*
X174129491Y-99515784D01*
X173975660Y-99328340D01*
X173788216Y-99174509D01*
X173574363Y-99060202D01*
X173342318Y-98989812D01*
X173161472Y-98972000D01*
X173040528Y-98972000D01*
X172859682Y-98989812D01*
X172627637Y-99060202D01*
X172413784Y-99174509D01*
X172226340Y-99328340D01*
X172072509Y-99515784D01*
X171958202Y-99729637D01*
X171887812Y-99961682D01*
X171864044Y-100203000D01*
X171797956Y-100203000D01*
X171774188Y-99961682D01*
X171703798Y-99729637D01*
X171589491Y-99515784D01*
X171435660Y-99328340D01*
X171248216Y-99174509D01*
X171034363Y-99060202D01*
X170802318Y-98989812D01*
X170621472Y-98972000D01*
X170500528Y-98972000D01*
X170319682Y-98989812D01*
X170087637Y-99060202D01*
X169873784Y-99174509D01*
X169686340Y-99328340D01*
X169532509Y-99515784D01*
X169418202Y-99729637D01*
X169347812Y-99961682D01*
X169324044Y-100203000D01*
X169257956Y-100203000D01*
X169234188Y-99961682D01*
X169163798Y-99729637D01*
X169049491Y-99515784D01*
X168895660Y-99328340D01*
X168708216Y-99174509D01*
X168494363Y-99060202D01*
X168262318Y-98989812D01*
X168081472Y-98972000D01*
X167960528Y-98972000D01*
X167779682Y-98989812D01*
X167547637Y-99060202D01*
X167333784Y-99174509D01*
X167146340Y-99328340D01*
X166992509Y-99515784D01*
X166878202Y-99729637D01*
X166807812Y-99961682D01*
X166784044Y-100203000D01*
X166717956Y-100203000D01*
X166694188Y-99961682D01*
X166623798Y-99729637D01*
X166509491Y-99515784D01*
X166355660Y-99328340D01*
X166168216Y-99174509D01*
X165954363Y-99060202D01*
X165722318Y-98989812D01*
X165541472Y-98972000D01*
X165420528Y-98972000D01*
X165239682Y-98989812D01*
X165007637Y-99060202D01*
X164793784Y-99174509D01*
X164606340Y-99328340D01*
X164452509Y-99515784D01*
X164338202Y-99729637D01*
X164267812Y-99961682D01*
X164244044Y-100203000D01*
X164177956Y-100203000D01*
X164154188Y-99961682D01*
X164083798Y-99729637D01*
X163969491Y-99515784D01*
X163815660Y-99328340D01*
X163628216Y-99174509D01*
X163414363Y-99060202D01*
X163182318Y-98989812D01*
X163001472Y-98972000D01*
X162880528Y-98972000D01*
X162699682Y-98989812D01*
X162467637Y-99060202D01*
X162253784Y-99174509D01*
X162066340Y-99328340D01*
X161912509Y-99515784D01*
X161798202Y-99729637D01*
X161727812Y-99961682D01*
X161704044Y-100203000D01*
X161637956Y-100203000D01*
X161614188Y-99961682D01*
X161543798Y-99729637D01*
X161429491Y-99515784D01*
X161275660Y-99328340D01*
X161088216Y-99174509D01*
X160874363Y-99060202D01*
X160642318Y-98989812D01*
X160461472Y-98972000D01*
X160340528Y-98972000D01*
X160159682Y-98989812D01*
X159927637Y-99060202D01*
X159713784Y-99174509D01*
X159526340Y-99328340D01*
X159372509Y-99515784D01*
X159258202Y-99729637D01*
X159187812Y-99961682D01*
X159164044Y-100203000D01*
X159097956Y-100203000D01*
X159074188Y-99961682D01*
X159003798Y-99729637D01*
X158889491Y-99515784D01*
X158735660Y-99328340D01*
X158548216Y-99174509D01*
X158334363Y-99060202D01*
X158102318Y-98989812D01*
X157921472Y-98972000D01*
X157800528Y-98972000D01*
X157619682Y-98989812D01*
X157387637Y-99060202D01*
X157173784Y-99174509D01*
X156986340Y-99328340D01*
X156832509Y-99515784D01*
X156718202Y-99729637D01*
X156647812Y-99961682D01*
X156624044Y-100203000D01*
X156557956Y-100203000D01*
X156534188Y-99961682D01*
X156463798Y-99729637D01*
X156349491Y-99515784D01*
X156195660Y-99328340D01*
X156008216Y-99174509D01*
X155794363Y-99060202D01*
X155562318Y-98989812D01*
X155381472Y-98972000D01*
X155260528Y-98972000D01*
X155079682Y-98989812D01*
X154847637Y-99060202D01*
X154633784Y-99174509D01*
X154446340Y-99328340D01*
X154292509Y-99515784D01*
X154178202Y-99729637D01*
X154107812Y-99961682D01*
X154084044Y-100203000D01*
X154017956Y-100203000D01*
X153994188Y-99961682D01*
X153923798Y-99729637D01*
X153809491Y-99515784D01*
X153655660Y-99328340D01*
X153468216Y-99174509D01*
X153254363Y-99060202D01*
X153022318Y-98989812D01*
X152841472Y-98972000D01*
X152720528Y-98972000D01*
X152539682Y-98989812D01*
X152307637Y-99060202D01*
X152093784Y-99174509D01*
X151906340Y-99328340D01*
X151752509Y-99515784D01*
X151638202Y-99729637D01*
X151567812Y-99961682D01*
X151544044Y-100203000D01*
X151477956Y-100203000D01*
X151454188Y-99961682D01*
X151383798Y-99729637D01*
X151269491Y-99515784D01*
X151115660Y-99328340D01*
X150928216Y-99174509D01*
X150714363Y-99060202D01*
X150482318Y-98989812D01*
X150301472Y-98972000D01*
X150180528Y-98972000D01*
X149999682Y-98989812D01*
X149767637Y-99060202D01*
X149553784Y-99174509D01*
X149366340Y-99328340D01*
X149212509Y-99515784D01*
X149098202Y-99729637D01*
X149027812Y-99961682D01*
X149004044Y-100203000D01*
X148937956Y-100203000D01*
X148914188Y-99961682D01*
X148843798Y-99729637D01*
X148729491Y-99515784D01*
X148575660Y-99328340D01*
X148388216Y-99174509D01*
X148174363Y-99060202D01*
X147942318Y-98989812D01*
X147761472Y-98972000D01*
X147640528Y-98972000D01*
X147459682Y-98989812D01*
X147227637Y-99060202D01*
X147013784Y-99174509D01*
X146826340Y-99328340D01*
X146672509Y-99515784D01*
X146558202Y-99729637D01*
X146487812Y-99961682D01*
X146464044Y-100203000D01*
X146397956Y-100203000D01*
X146374188Y-99961682D01*
X146303798Y-99729637D01*
X146189491Y-99515784D01*
X146035660Y-99328340D01*
X145848216Y-99174509D01*
X145634363Y-99060202D01*
X145402318Y-98989812D01*
X145221472Y-98972000D01*
X145100528Y-98972000D01*
X144919682Y-98989812D01*
X144687637Y-99060202D01*
X144473784Y-99174509D01*
X144286340Y-99328340D01*
X144132509Y-99515784D01*
X144018202Y-99729637D01*
X143947812Y-99961682D01*
X143924044Y-100203000D01*
X143857956Y-100203000D01*
X143834188Y-99961682D01*
X143763798Y-99729637D01*
X143649491Y-99515784D01*
X143495660Y-99328340D01*
X143308216Y-99174509D01*
X143094363Y-99060202D01*
X142862318Y-98989812D01*
X142681472Y-98972000D01*
X142560528Y-98972000D01*
X142379682Y-98989812D01*
X142147637Y-99060202D01*
X141933784Y-99174509D01*
X141746340Y-99328340D01*
X141592509Y-99515784D01*
X141478202Y-99729637D01*
X141407812Y-99961682D01*
X141384044Y-100203000D01*
X141317956Y-100203000D01*
X141294188Y-99961682D01*
X141223798Y-99729637D01*
X141109491Y-99515784D01*
X140955660Y-99328340D01*
X140768216Y-99174509D01*
X140554363Y-99060202D01*
X140322318Y-98989812D01*
X140141472Y-98972000D01*
X140020528Y-98972000D01*
X139839682Y-98989812D01*
X139607637Y-99060202D01*
X139393784Y-99174509D01*
X139206340Y-99328340D01*
X139052509Y-99515784D01*
X138938202Y-99729637D01*
X138867812Y-99961682D01*
X138844044Y-100203000D01*
X130479814Y-100203000D01*
X129286000Y-100203000D01*
X129032000Y-100203000D01*
X126746000Y-100203000D01*
X126492000Y-100203000D01*
X126472000Y-100203000D01*
X126472000Y-99949000D01*
X126492000Y-99949000D01*
X126492000Y-97663000D01*
X126746000Y-97663000D01*
X126746000Y-99949000D01*
X129032000Y-99949000D01*
X129032000Y-97663000D01*
X129286000Y-97663000D01*
X129286000Y-99949000D01*
X130479814Y-99949000D01*
X130600481Y-99719109D01*
X130503157Y-99444748D01*
X130354178Y-99194645D01*
X130159269Y-98978412D01*
X129928120Y-98806000D01*
X130159269Y-98633588D01*
X130354178Y-98417355D01*
X130503157Y-98167252D01*
X130600481Y-97892891D01*
X130479814Y-97663000D01*
X129286000Y-97663000D01*
X129032000Y-97663000D01*
X126746000Y-97663000D01*
X126492000Y-97663000D01*
X126472000Y-97663000D01*
X126472000Y-97409000D01*
X126492000Y-97409000D01*
X126492000Y-96215845D01*
X126746000Y-96215845D01*
X126746000Y-97409000D01*
X129032000Y-97409000D01*
X129032000Y-96215845D01*
X129286000Y-96215845D01*
X129286000Y-97409000D01*
X130479814Y-97409000D01*
X130600481Y-97179109D01*
X130503157Y-96904748D01*
X130448506Y-96813000D01*
X138848157Y-96813000D01*
X138848157Y-98513000D01*
X138855513Y-98587689D01*
X138877299Y-98659508D01*
X138912678Y-98725696D01*
X138960289Y-98783711D01*
X139018304Y-98831322D01*
X139084492Y-98866701D01*
X139156311Y-98888487D01*
X139231000Y-98895843D01*
X140931000Y-98895843D01*
X141005689Y-98888487D01*
X141077508Y-98866701D01*
X141143696Y-98831322D01*
X141201711Y-98783711D01*
X141249322Y-98725696D01*
X141284701Y-98659508D01*
X141306487Y-98587689D01*
X141313843Y-98513000D01*
X141313843Y-97663000D01*
X141384044Y-97663000D01*
X141407812Y-97904318D01*
X141478202Y-98136363D01*
X141592509Y-98350216D01*
X141746340Y-98537660D01*
X141933784Y-98691491D01*
X142147637Y-98805798D01*
X142379682Y-98876188D01*
X142560528Y-98894000D01*
X142681472Y-98894000D01*
X142862318Y-98876188D01*
X143094363Y-98805798D01*
X143308216Y-98691491D01*
X143495660Y-98537660D01*
X143649491Y-98350216D01*
X143763798Y-98136363D01*
X143834188Y-97904318D01*
X143857956Y-97663000D01*
X143924044Y-97663000D01*
X143947812Y-97904318D01*
X144018202Y-98136363D01*
X144132509Y-98350216D01*
X144286340Y-98537660D01*
X144473784Y-98691491D01*
X144687637Y-98805798D01*
X144919682Y-98876188D01*
X145100528Y-98894000D01*
X145221472Y-98894000D01*
X145402318Y-98876188D01*
X145634363Y-98805798D01*
X145848216Y-98691491D01*
X146035660Y-98537660D01*
X146189491Y-98350216D01*
X146303798Y-98136363D01*
X146374188Y-97904318D01*
X146397956Y-97663000D01*
X146464044Y-97663000D01*
X146487812Y-97904318D01*
X146558202Y-98136363D01*
X146672509Y-98350216D01*
X146826340Y-98537660D01*
X147013784Y-98691491D01*
X147227637Y-98805798D01*
X147459682Y-98876188D01*
X147640528Y-98894000D01*
X147761472Y-98894000D01*
X147942318Y-98876188D01*
X148174363Y-98805798D01*
X148388216Y-98691491D01*
X148575660Y-98537660D01*
X148729491Y-98350216D01*
X148843798Y-98136363D01*
X148914188Y-97904318D01*
X148937956Y-97663000D01*
X149004044Y-97663000D01*
X149027812Y-97904318D01*
X149098202Y-98136363D01*
X149212509Y-98350216D01*
X149366340Y-98537660D01*
X149553784Y-98691491D01*
X149767637Y-98805798D01*
X149999682Y-98876188D01*
X150180528Y-98894000D01*
X150301472Y-98894000D01*
X150482318Y-98876188D01*
X150714363Y-98805798D01*
X150928216Y-98691491D01*
X151115660Y-98537660D01*
X151269491Y-98350216D01*
X151383798Y-98136363D01*
X151454188Y-97904318D01*
X151477956Y-97663000D01*
X151544044Y-97663000D01*
X151567812Y-97904318D01*
X151638202Y-98136363D01*
X151752509Y-98350216D01*
X151906340Y-98537660D01*
X152093784Y-98691491D01*
X152307637Y-98805798D01*
X152539682Y-98876188D01*
X152720528Y-98894000D01*
X152841472Y-98894000D01*
X153022318Y-98876188D01*
X153254363Y-98805798D01*
X153468216Y-98691491D01*
X153655660Y-98537660D01*
X153809491Y-98350216D01*
X153923798Y-98136363D01*
X153994188Y-97904318D01*
X154017956Y-97663000D01*
X153994188Y-97421682D01*
X153923798Y-97189637D01*
X153809491Y-96975784D01*
X153655660Y-96788340D01*
X153468216Y-96634509D01*
X153254363Y-96520202D01*
X153022318Y-96449812D01*
X152841472Y-96432000D01*
X152720528Y-96432000D01*
X152539682Y-96449812D01*
X152307637Y-96520202D01*
X152093784Y-96634509D01*
X151906340Y-96788340D01*
X151752509Y-96975784D01*
X151638202Y-97189637D01*
X151567812Y-97421682D01*
X151544044Y-97663000D01*
X151477956Y-97663000D01*
X151454188Y-97421682D01*
X151383798Y-97189637D01*
X151269491Y-96975784D01*
X151115660Y-96788340D01*
X150928216Y-96634509D01*
X150714363Y-96520202D01*
X150482318Y-96449812D01*
X150301472Y-96432000D01*
X150180528Y-96432000D01*
X149999682Y-96449812D01*
X149767637Y-96520202D01*
X149553784Y-96634509D01*
X149366340Y-96788340D01*
X149212509Y-96975784D01*
X149098202Y-97189637D01*
X149027812Y-97421682D01*
X149004044Y-97663000D01*
X148937956Y-97663000D01*
X148914188Y-97421682D01*
X148843798Y-97189637D01*
X148729491Y-96975784D01*
X148575660Y-96788340D01*
X148388216Y-96634509D01*
X148174363Y-96520202D01*
X147942318Y-96449812D01*
X147761472Y-96432000D01*
X147640528Y-96432000D01*
X147459682Y-96449812D01*
X147227637Y-96520202D01*
X147013784Y-96634509D01*
X146826340Y-96788340D01*
X146672509Y-96975784D01*
X146558202Y-97189637D01*
X146487812Y-97421682D01*
X146464044Y-97663000D01*
X146397956Y-97663000D01*
X146374188Y-97421682D01*
X146303798Y-97189637D01*
X146189491Y-96975784D01*
X146035660Y-96788340D01*
X145848216Y-96634509D01*
X145634363Y-96520202D01*
X145402318Y-96449812D01*
X145221472Y-96432000D01*
X145100528Y-96432000D01*
X144919682Y-96449812D01*
X144687637Y-96520202D01*
X144473784Y-96634509D01*
X144286340Y-96788340D01*
X144132509Y-96975784D01*
X144018202Y-97189637D01*
X143947812Y-97421682D01*
X143924044Y-97663000D01*
X143857956Y-97663000D01*
X143834188Y-97421682D01*
X143763798Y-97189637D01*
X143649491Y-96975784D01*
X143495660Y-96788340D01*
X143308216Y-96634509D01*
X143094363Y-96520202D01*
X142862318Y-96449812D01*
X142681472Y-96432000D01*
X142560528Y-96432000D01*
X142379682Y-96449812D01*
X142147637Y-96520202D01*
X141933784Y-96634509D01*
X141746340Y-96788340D01*
X141592509Y-96975784D01*
X141478202Y-97189637D01*
X141407812Y-97421682D01*
X141384044Y-97663000D01*
X141313843Y-97663000D01*
X141313843Y-96813000D01*
X141306487Y-96738311D01*
X141284701Y-96666492D01*
X141249322Y-96600304D01*
X141201711Y-96542289D01*
X141143696Y-96494678D01*
X141077508Y-96459299D01*
X141005689Y-96437513D01*
X140931000Y-96430157D01*
X139231000Y-96430157D01*
X139156311Y-96437513D01*
X139084492Y-96459299D01*
X139018304Y-96494678D01*
X138960289Y-96542289D01*
X138912678Y-96600304D01*
X138877299Y-96666492D01*
X138855513Y-96738311D01*
X138848157Y-96813000D01*
X130448506Y-96813000D01*
X130354178Y-96654645D01*
X130159269Y-96438412D01*
X129925920Y-96264359D01*
X129663099Y-96139175D01*
X129515890Y-96094524D01*
X129286000Y-96215845D01*
X129032000Y-96215845D01*
X128802110Y-96094524D01*
X128654901Y-96139175D01*
X128392080Y-96264359D01*
X128158731Y-96438412D01*
X127963822Y-96654645D01*
X127889000Y-96780255D01*
X127814178Y-96654645D01*
X127619269Y-96438412D01*
X127385920Y-96264359D01*
X127123099Y-96139175D01*
X126975890Y-96094524D01*
X126746000Y-96215845D01*
X126492000Y-96215845D01*
X126262110Y-96094524D01*
X126114901Y-96139175D01*
X125852080Y-96264359D01*
X125618731Y-96438412D01*
X125423822Y-96654645D01*
X125274843Y-96904748D01*
X125220017Y-97059305D01*
X125107491Y-96848784D01*
X124953660Y-96661340D01*
X124766216Y-96507509D01*
X124552363Y-96393202D01*
X124320318Y-96322812D01*
X124139472Y-96305000D01*
X124018528Y-96305000D01*
X123837682Y-96322812D01*
X123605637Y-96393202D01*
X123391784Y-96507509D01*
X123204340Y-96661340D01*
X123050509Y-96848784D01*
X122936202Y-97062637D01*
X122865812Y-97294682D01*
X122842044Y-97536000D01*
X122775956Y-97536000D01*
X122752188Y-97294682D01*
X122681798Y-97062637D01*
X122567491Y-96848784D01*
X122413660Y-96661340D01*
X122226216Y-96507509D01*
X122012363Y-96393202D01*
X121780318Y-96322812D01*
X121599472Y-96305000D01*
X121478528Y-96305000D01*
X121297682Y-96322812D01*
X121065637Y-96393202D01*
X120851784Y-96507509D01*
X120664340Y-96661340D01*
X120510509Y-96848784D01*
X120396202Y-97062637D01*
X120325812Y-97294682D01*
X120302044Y-97536000D01*
X120231843Y-97536000D01*
X120231843Y-96686000D01*
X120224487Y-96611311D01*
X120202701Y-96539492D01*
X120167322Y-96473304D01*
X120119711Y-96415289D01*
X120061696Y-96367678D01*
X119995508Y-96332299D01*
X119923689Y-96310513D01*
X119849000Y-96303157D01*
X118149000Y-96303157D01*
X118074311Y-96310513D01*
X118002492Y-96332299D01*
X117936304Y-96367678D01*
X117878289Y-96415289D01*
X117830678Y-96473304D01*
X117795299Y-96539492D01*
X117773513Y-96611311D01*
X117766157Y-96686000D01*
X117500000Y-96686000D01*
X117500000Y-93177338D01*
X141902665Y-93177338D01*
X141902665Y-93302422D01*
X141927068Y-93425103D01*
X141974936Y-93540665D01*
X142044429Y-93644669D01*
X142080466Y-93680706D01*
X142080466Y-93884738D01*
X142078254Y-93907197D01*
X142080466Y-93929657D01*
X142087081Y-93996824D01*
X142096784Y-94028809D01*
X142113225Y-94083006D01*
X142155678Y-94162432D01*
X142172245Y-94182618D01*
X142212813Y-94232050D01*
X142230258Y-94246367D01*
X143756167Y-95772277D01*
X143770484Y-95789722D01*
X143840101Y-95846856D01*
X143919528Y-95889310D01*
X144005710Y-95915454D01*
X144072877Y-95922069D01*
X144072887Y-95922069D01*
X144095337Y-95924280D01*
X144117787Y-95922069D01*
X154183448Y-95922069D01*
X154178000Y-95949458D01*
X154178000Y-96074542D01*
X154202403Y-96197223D01*
X154250271Y-96312785D01*
X154319764Y-96416789D01*
X154408211Y-96505236D01*
X154512215Y-96574729D01*
X154627777Y-96622597D01*
X154648396Y-96626698D01*
X154633784Y-96634509D01*
X154446340Y-96788340D01*
X154292509Y-96975784D01*
X154178202Y-97189637D01*
X154107812Y-97421682D01*
X154084044Y-97663000D01*
X154107812Y-97904318D01*
X154178202Y-98136363D01*
X154292509Y-98350216D01*
X154446340Y-98537660D01*
X154633784Y-98691491D01*
X154847637Y-98805798D01*
X155079682Y-98876188D01*
X155260528Y-98894000D01*
X155381472Y-98894000D01*
X155562318Y-98876188D01*
X155794363Y-98805798D01*
X156008216Y-98691491D01*
X156195660Y-98537660D01*
X156349491Y-98350216D01*
X156463798Y-98136363D01*
X156534188Y-97904318D01*
X156557956Y-97663000D01*
X156534188Y-97421682D01*
X156463798Y-97189637D01*
X156349491Y-96975784D01*
X156195660Y-96788340D01*
X156008216Y-96634509D01*
X155794363Y-96520202D01*
X155626232Y-96469200D01*
X157555768Y-96469200D01*
X157387637Y-96520202D01*
X157173784Y-96634509D01*
X156986340Y-96788340D01*
X156832509Y-96975784D01*
X156718202Y-97189637D01*
X156647812Y-97421682D01*
X156624044Y-97663000D01*
X156647812Y-97904318D01*
X156718202Y-98136363D01*
X156832509Y-98350216D01*
X156986340Y-98537660D01*
X157173784Y-98691491D01*
X157387637Y-98805798D01*
X157619682Y-98876188D01*
X157800528Y-98894000D01*
X157921472Y-98894000D01*
X158102318Y-98876188D01*
X158334363Y-98805798D01*
X158548216Y-98691491D01*
X158735660Y-98537660D01*
X158889491Y-98350216D01*
X159003798Y-98136363D01*
X159074188Y-97904318D01*
X159097956Y-97663000D01*
X159074188Y-97421682D01*
X159003798Y-97189637D01*
X158889491Y-96975784D01*
X158735660Y-96788340D01*
X158548216Y-96634509D01*
X158334363Y-96520202D01*
X158166232Y-96469200D01*
X160095768Y-96469200D01*
X159927637Y-96520202D01*
X159713784Y-96634509D01*
X159526340Y-96788340D01*
X159372509Y-96975784D01*
X159258202Y-97189637D01*
X159187812Y-97421682D01*
X159164044Y-97663000D01*
X159187812Y-97904318D01*
X159258202Y-98136363D01*
X159372509Y-98350216D01*
X159526340Y-98537660D01*
X159713784Y-98691491D01*
X159927637Y-98805798D01*
X160159682Y-98876188D01*
X160340528Y-98894000D01*
X160461472Y-98894000D01*
X160642318Y-98876188D01*
X160874363Y-98805798D01*
X161088216Y-98691491D01*
X161275660Y-98537660D01*
X161429491Y-98350216D01*
X161543798Y-98136363D01*
X161614188Y-97904318D01*
X161637956Y-97663000D01*
X161614188Y-97421682D01*
X161543798Y-97189637D01*
X161429491Y-96975784D01*
X161275660Y-96788340D01*
X161088216Y-96634509D01*
X160874363Y-96520202D01*
X160706232Y-96469200D01*
X162635768Y-96469200D01*
X162467637Y-96520202D01*
X162253784Y-96634509D01*
X162066340Y-96788340D01*
X161912509Y-96975784D01*
X161798202Y-97189637D01*
X161727812Y-97421682D01*
X161704044Y-97663000D01*
X161727812Y-97904318D01*
X161798202Y-98136363D01*
X161912509Y-98350216D01*
X162066340Y-98537660D01*
X162253784Y-98691491D01*
X162467637Y-98805798D01*
X162699682Y-98876188D01*
X162880528Y-98894000D01*
X163001472Y-98894000D01*
X163182318Y-98876188D01*
X163414363Y-98805798D01*
X163628216Y-98691491D01*
X163815660Y-98537660D01*
X163969491Y-98350216D01*
X164083798Y-98136363D01*
X164154188Y-97904318D01*
X164177956Y-97663000D01*
X164154188Y-97421682D01*
X164083798Y-97189637D01*
X163969491Y-96975784D01*
X163815660Y-96788340D01*
X163628216Y-96634509D01*
X163414363Y-96520202D01*
X163246232Y-96469200D01*
X165175768Y-96469200D01*
X165007637Y-96520202D01*
X164793784Y-96634509D01*
X164606340Y-96788340D01*
X164452509Y-96975784D01*
X164338202Y-97189637D01*
X164267812Y-97421682D01*
X164244044Y-97663000D01*
X164267812Y-97904318D01*
X164338202Y-98136363D01*
X164452509Y-98350216D01*
X164606340Y-98537660D01*
X164793784Y-98691491D01*
X165007637Y-98805798D01*
X165239682Y-98876188D01*
X165420528Y-98894000D01*
X165541472Y-98894000D01*
X165722318Y-98876188D01*
X165954363Y-98805798D01*
X166168216Y-98691491D01*
X166355660Y-98537660D01*
X166509491Y-98350216D01*
X166623798Y-98136363D01*
X166694188Y-97904318D01*
X166717956Y-97663000D01*
X166694188Y-97421682D01*
X166623798Y-97189637D01*
X166509491Y-96975784D01*
X166355660Y-96788340D01*
X166168216Y-96634509D01*
X165954363Y-96520202D01*
X165786232Y-96469200D01*
X167715768Y-96469200D01*
X167547637Y-96520202D01*
X167333784Y-96634509D01*
X167146340Y-96788340D01*
X166992509Y-96975784D01*
X166878202Y-97189637D01*
X166807812Y-97421682D01*
X166784044Y-97663000D01*
X166807812Y-97904318D01*
X166878202Y-98136363D01*
X166992509Y-98350216D01*
X167146340Y-98537660D01*
X167333784Y-98691491D01*
X167547637Y-98805798D01*
X167779682Y-98876188D01*
X167960528Y-98894000D01*
X168081472Y-98894000D01*
X168262318Y-98876188D01*
X168494363Y-98805798D01*
X168708216Y-98691491D01*
X168895660Y-98537660D01*
X169049491Y-98350216D01*
X169163798Y-98136363D01*
X169234188Y-97904318D01*
X169257956Y-97663000D01*
X169234188Y-97421682D01*
X169163798Y-97189637D01*
X169049491Y-96975784D01*
X168895660Y-96788340D01*
X168708216Y-96634509D01*
X168494363Y-96520202D01*
X168326232Y-96469200D01*
X170255768Y-96469200D01*
X170087637Y-96520202D01*
X169873784Y-96634509D01*
X169686340Y-96788340D01*
X169532509Y-96975784D01*
X169418202Y-97189637D01*
X169347812Y-97421682D01*
X169324044Y-97663000D01*
X169347812Y-97904318D01*
X169418202Y-98136363D01*
X169532509Y-98350216D01*
X169686340Y-98537660D01*
X169873784Y-98691491D01*
X170087637Y-98805798D01*
X170319682Y-98876188D01*
X170500528Y-98894000D01*
X170621472Y-98894000D01*
X170802318Y-98876188D01*
X171034363Y-98805798D01*
X171248216Y-98691491D01*
X171435660Y-98537660D01*
X171589491Y-98350216D01*
X171703798Y-98136363D01*
X171774188Y-97904318D01*
X171797956Y-97663000D01*
X171774188Y-97421682D01*
X171703798Y-97189637D01*
X171589491Y-96975784D01*
X171435660Y-96788340D01*
X171248216Y-96634509D01*
X171034363Y-96520202D01*
X170866232Y-96469200D01*
X171588295Y-96469200D01*
X171610095Y-96480852D01*
X171696277Y-96506996D01*
X171763444Y-96513611D01*
X171763454Y-96513611D01*
X171785904Y-96515822D01*
X171808354Y-96513611D01*
X172649365Y-96513611D01*
X172627637Y-96520202D01*
X172413784Y-96634509D01*
X172226340Y-96788340D01*
X172072509Y-96975784D01*
X171958202Y-97189637D01*
X171887812Y-97421682D01*
X171864044Y-97663000D01*
X171887812Y-97904318D01*
X171958202Y-98136363D01*
X172072509Y-98350216D01*
X172226340Y-98537660D01*
X172413784Y-98691491D01*
X172627637Y-98805798D01*
X172859682Y-98876188D01*
X173040528Y-98894000D01*
X173161472Y-98894000D01*
X173342318Y-98876188D01*
X173574363Y-98805798D01*
X173788216Y-98691491D01*
X173975660Y-98537660D01*
X174129491Y-98350216D01*
X174243798Y-98136363D01*
X174314188Y-97904318D01*
X174337956Y-97663000D01*
X174314188Y-97421682D01*
X174243798Y-97189637D01*
X174129491Y-96975784D01*
X173975660Y-96788340D01*
X173788216Y-96634509D01*
X173574363Y-96520202D01*
X173552635Y-96513611D01*
X175189365Y-96513611D01*
X175167637Y-96520202D01*
X174953784Y-96634509D01*
X174766340Y-96788340D01*
X174612509Y-96975784D01*
X174498202Y-97189637D01*
X174427812Y-97421682D01*
X174404044Y-97663000D01*
X174427812Y-97904318D01*
X174498202Y-98136363D01*
X174612509Y-98350216D01*
X174766340Y-98537660D01*
X174953784Y-98691491D01*
X175167637Y-98805798D01*
X175399682Y-98876188D01*
X175580528Y-98894000D01*
X175701472Y-98894000D01*
X175882318Y-98876188D01*
X176114363Y-98805798D01*
X176328216Y-98691491D01*
X176515660Y-98537660D01*
X176669491Y-98350216D01*
X176783798Y-98136363D01*
X176854188Y-97904318D01*
X176877956Y-97663000D01*
X176854188Y-97421682D01*
X176783798Y-97189637D01*
X176669491Y-96975784D01*
X176515660Y-96788340D01*
X176328216Y-96634509D01*
X176114363Y-96520202D01*
X176092635Y-96513611D01*
X177729365Y-96513611D01*
X177707637Y-96520202D01*
X177493784Y-96634509D01*
X177306340Y-96788340D01*
X177152509Y-96975784D01*
X177038202Y-97189637D01*
X176967812Y-97421682D01*
X176944044Y-97663000D01*
X176967812Y-97904318D01*
X177038202Y-98136363D01*
X177152509Y-98350216D01*
X177306340Y-98537660D01*
X177493784Y-98691491D01*
X177696960Y-98800091D01*
X177676901Y-98806175D01*
X177414080Y-98931359D01*
X177180731Y-99105412D01*
X176985822Y-99321645D01*
X176836843Y-99571748D01*
X176782017Y-99726305D01*
X176669491Y-99515784D01*
X176515660Y-99328340D01*
X176328216Y-99174509D01*
X176114363Y-99060202D01*
X175882318Y-98989812D01*
X175701472Y-98972000D01*
X175580528Y-98972000D01*
X175399682Y-98989812D01*
X175167637Y-99060202D01*
X174953784Y-99174509D01*
X174766340Y-99328340D01*
X174612509Y-99515784D01*
X174498202Y-99729637D01*
X174427812Y-99961682D01*
X174404044Y-100203000D01*
X174427812Y-100444318D01*
X174498202Y-100676363D01*
X174612509Y-100890216D01*
X174766340Y-101077660D01*
X174953784Y-101231491D01*
X175167637Y-101345798D01*
X175399682Y-101416188D01*
X175580528Y-101434000D01*
X175701472Y-101434000D01*
X175882318Y-101416188D01*
X176114363Y-101345798D01*
X176328216Y-101231491D01*
X176515660Y-101077660D01*
X176669491Y-100890216D01*
X176782017Y-100679695D01*
X176836843Y-100834252D01*
X176985822Y-101084355D01*
X177180731Y-101300588D01*
X177414080Y-101474641D01*
X177676901Y-101599825D01*
X177824110Y-101644476D01*
X178054000Y-101523155D01*
X178054000Y-100330000D01*
X178034000Y-100330000D01*
X178034000Y-100076000D01*
X178054000Y-100076000D01*
X178054000Y-100056000D01*
X178308000Y-100056000D01*
X178308000Y-100076000D01*
X178328000Y-100076000D01*
X178328000Y-100330000D01*
X178308000Y-100330000D01*
X178308000Y-101523155D01*
X178537890Y-101644476D01*
X178685099Y-101599825D01*
X178947920Y-101474641D01*
X179181269Y-101300588D01*
X179376178Y-101084355D01*
X179525157Y-100834252D01*
X179579983Y-100679695D01*
X179692509Y-100890216D01*
X179846340Y-101077660D01*
X180033784Y-101231491D01*
X180247637Y-101345798D01*
X180479682Y-101416188D01*
X180660528Y-101434000D01*
X180781472Y-101434000D01*
X180962318Y-101416188D01*
X181194363Y-101345798D01*
X181408216Y-101231491D01*
X181595660Y-101077660D01*
X181749491Y-100890216D01*
X181863798Y-100676363D01*
X181934188Y-100444318D01*
X181957956Y-100203000D01*
X182024044Y-100203000D01*
X182047812Y-100444318D01*
X182118202Y-100676363D01*
X182232509Y-100890216D01*
X182386340Y-101077660D01*
X182573784Y-101231491D01*
X182787637Y-101345798D01*
X183019682Y-101416188D01*
X183200528Y-101434000D01*
X183321472Y-101434000D01*
X183502318Y-101416188D01*
X183734363Y-101345798D01*
X183948216Y-101231491D01*
X184135660Y-101077660D01*
X184289491Y-100890216D01*
X184403798Y-100676363D01*
X184474188Y-100444318D01*
X184497956Y-100203000D01*
X184564044Y-100203000D01*
X184587812Y-100444318D01*
X184658202Y-100676363D01*
X184772509Y-100890216D01*
X184926340Y-101077660D01*
X185113784Y-101231491D01*
X185327637Y-101345798D01*
X185559682Y-101416188D01*
X185740528Y-101434000D01*
X185861472Y-101434000D01*
X186042318Y-101416188D01*
X186274363Y-101345798D01*
X186488216Y-101231491D01*
X186675660Y-101077660D01*
X186829491Y-100890216D01*
X186943798Y-100676363D01*
X187014188Y-100444318D01*
X187037956Y-100203000D01*
X187014188Y-99961682D01*
X186943798Y-99729637D01*
X186829491Y-99515784D01*
X186675660Y-99328340D01*
X186488216Y-99174509D01*
X186274363Y-99060202D01*
X186042318Y-98989812D01*
X185861472Y-98972000D01*
X185740528Y-98972000D01*
X185559682Y-98989812D01*
X185327637Y-99060202D01*
X185113784Y-99174509D01*
X184926340Y-99328340D01*
X184772509Y-99515784D01*
X184658202Y-99729637D01*
X184587812Y-99961682D01*
X184564044Y-100203000D01*
X184497956Y-100203000D01*
X184474188Y-99961682D01*
X184403798Y-99729637D01*
X184289491Y-99515784D01*
X184135660Y-99328340D01*
X183948216Y-99174509D01*
X183734363Y-99060202D01*
X183502318Y-98989812D01*
X183321472Y-98972000D01*
X183200528Y-98972000D01*
X183019682Y-98989812D01*
X182787637Y-99060202D01*
X182573784Y-99174509D01*
X182386340Y-99328340D01*
X182232509Y-99515784D01*
X182118202Y-99729637D01*
X182047812Y-99961682D01*
X182024044Y-100203000D01*
X181957956Y-100203000D01*
X181934188Y-99961682D01*
X181863798Y-99729637D01*
X181749491Y-99515784D01*
X181595660Y-99328340D01*
X181408216Y-99174509D01*
X181205040Y-99065909D01*
X181225099Y-99059825D01*
X181487920Y-98934641D01*
X181721269Y-98760588D01*
X181916178Y-98544355D01*
X182065157Y-98294252D01*
X182119983Y-98139695D01*
X182232509Y-98350216D01*
X182386340Y-98537660D01*
X182573784Y-98691491D01*
X182787637Y-98805798D01*
X183019682Y-98876188D01*
X183200528Y-98894000D01*
X183321472Y-98894000D01*
X183502318Y-98876188D01*
X183734363Y-98805798D01*
X183948216Y-98691491D01*
X184135660Y-98537660D01*
X184289491Y-98350216D01*
X184403798Y-98136363D01*
X184474188Y-97904318D01*
X184497956Y-97663000D01*
X184474188Y-97421682D01*
X184403798Y-97189637D01*
X184289491Y-96975784D01*
X184135660Y-96788340D01*
X183948216Y-96634509D01*
X183734363Y-96520202D01*
X183502318Y-96449812D01*
X183321472Y-96432000D01*
X183200528Y-96432000D01*
X183019682Y-96449812D01*
X182787637Y-96520202D01*
X182573784Y-96634509D01*
X182386340Y-96788340D01*
X182232509Y-96975784D01*
X182119983Y-97186305D01*
X182065157Y-97031748D01*
X181916178Y-96781645D01*
X181721269Y-96565412D01*
X181487920Y-96391359D01*
X181225099Y-96266175D01*
X181077890Y-96221524D01*
X180848000Y-96342845D01*
X180848000Y-97536000D01*
X180868000Y-97536000D01*
X180868000Y-97790000D01*
X180848000Y-97790000D01*
X180848000Y-97810000D01*
X180594000Y-97810000D01*
X180594000Y-97790000D01*
X180574000Y-97790000D01*
X180574000Y-97536000D01*
X180594000Y-97536000D01*
X180594000Y-96342845D01*
X180468148Y-96276429D01*
X181257578Y-95487000D01*
X181308542Y-95487000D01*
X181431223Y-95462597D01*
X181546785Y-95414729D01*
X181650789Y-95345236D01*
X181739236Y-95256789D01*
X181808729Y-95152785D01*
X181856597Y-95037223D01*
X181881000Y-94914542D01*
X181881000Y-94789458D01*
X181856597Y-94666777D01*
X181808729Y-94551215D01*
X181739236Y-94447211D01*
X181650789Y-94358764D01*
X181546785Y-94289271D01*
X181431223Y-94241403D01*
X181308542Y-94217000D01*
X181183458Y-94217000D01*
X181060777Y-94241403D01*
X180945215Y-94289271D01*
X180841211Y-94358764D01*
X180752764Y-94447211D01*
X180683271Y-94551215D01*
X180635403Y-94666777D01*
X180611000Y-94789458D01*
X180611000Y-94840422D01*
X179852212Y-95599211D01*
X172627971Y-95599211D01*
X172642253Y-95527411D01*
X172642253Y-95402327D01*
X172639777Y-95389881D01*
X172733485Y-95327268D01*
X172821932Y-95238821D01*
X172891425Y-95134817D01*
X172939293Y-95019255D01*
X172963696Y-94896574D01*
X172963696Y-94771490D01*
X172946456Y-94684822D01*
X173386830Y-94684822D01*
X173427251Y-94782406D01*
X173496744Y-94886410D01*
X173585191Y-94974857D01*
X173689195Y-95044350D01*
X173804757Y-95092218D01*
X173927438Y-95116621D01*
X174052522Y-95116621D01*
X174175203Y-95092218D01*
X174290765Y-95044350D01*
X174394769Y-94974857D01*
X174483216Y-94886410D01*
X174552709Y-94782406D01*
X174600577Y-94666844D01*
X174608447Y-94627281D01*
X174705215Y-94691939D01*
X174820777Y-94739807D01*
X174943458Y-94764210D01*
X175068542Y-94764210D01*
X175191223Y-94739807D01*
X175306785Y-94691939D01*
X175410789Y-94622446D01*
X175499236Y-94533999D01*
X175568729Y-94429995D01*
X175616597Y-94314433D01*
X175641000Y-94191752D01*
X175641000Y-94066668D01*
X175616597Y-93943987D01*
X175598630Y-93900611D01*
X177598615Y-93900611D01*
X177626622Y-93928617D01*
X177640939Y-93946063D01*
X177710556Y-94003197D01*
X177733757Y-94015598D01*
X177789982Y-94045651D01*
X177810041Y-94051736D01*
X177876165Y-94071795D01*
X177877715Y-94071948D01*
X177920213Y-94114446D01*
X178024217Y-94183939D01*
X178139779Y-94231807D01*
X178262460Y-94256210D01*
X178387544Y-94256210D01*
X178510225Y-94231807D01*
X178625787Y-94183939D01*
X178729791Y-94114446D01*
X178818238Y-94025999D01*
X178887731Y-93921995D01*
X178935599Y-93806433D01*
X178960002Y-93683752D01*
X178960002Y-93558668D01*
X178957920Y-93548200D01*
X180825550Y-93548200D01*
X180848000Y-93550411D01*
X180870450Y-93548200D01*
X180870460Y-93548200D01*
X180937627Y-93541585D01*
X181023809Y-93515441D01*
X181103236Y-93472987D01*
X181172853Y-93415853D01*
X181187174Y-93398403D01*
X181370527Y-93215050D01*
X181421492Y-93215050D01*
X181544173Y-93190647D01*
X181659735Y-93142779D01*
X181763739Y-93073286D01*
X181852186Y-92984839D01*
X181921679Y-92880835D01*
X181969547Y-92765273D01*
X181993950Y-92642592D01*
X181993950Y-92517508D01*
X181969547Y-92394827D01*
X181921679Y-92279265D01*
X181852186Y-92175261D01*
X181763739Y-92086814D01*
X181659735Y-92017321D01*
X181544173Y-91969453D01*
X181421492Y-91945050D01*
X181296408Y-91945050D01*
X181173727Y-91969453D01*
X181058165Y-92017321D01*
X180954161Y-92086814D01*
X180865714Y-92175261D01*
X180796221Y-92279265D01*
X180748353Y-92394827D01*
X180723950Y-92517508D01*
X180723950Y-92568473D01*
X180658623Y-92633800D01*
X159444825Y-92633800D01*
X159408789Y-92597764D01*
X159304785Y-92528271D01*
X159189223Y-92480403D01*
X159066542Y-92456000D01*
X158941458Y-92456000D01*
X158818777Y-92480403D01*
X158703215Y-92528271D01*
X158599211Y-92597764D01*
X158510764Y-92686211D01*
X158441271Y-92790215D01*
X158393403Y-92905777D01*
X158369000Y-93028458D01*
X158369000Y-93153542D01*
X158371080Y-93164001D01*
X155956000Y-93164001D01*
X155956000Y-93155458D01*
X155931597Y-93032777D01*
X155883729Y-92917215D01*
X155814236Y-92813211D01*
X155725789Y-92724764D01*
X155621785Y-92655271D01*
X155506223Y-92607403D01*
X155383542Y-92583000D01*
X155258458Y-92583000D01*
X155135777Y-92607403D01*
X155020215Y-92655271D01*
X154916211Y-92724764D01*
X154827764Y-92813211D01*
X154758271Y-92917215D01*
X154710403Y-93032777D01*
X154686000Y-93155458D01*
X154686000Y-93280542D01*
X154710403Y-93403223D01*
X154757288Y-93516412D01*
X145597992Y-93516413D01*
X145415000Y-93333422D01*
X145415000Y-93282458D01*
X145390597Y-93159777D01*
X145342729Y-93044215D01*
X145273236Y-92940211D01*
X145184789Y-92851764D01*
X145080785Y-92782271D01*
X144965223Y-92734403D01*
X144842542Y-92710000D01*
X144717458Y-92710000D01*
X144594777Y-92734403D01*
X144479215Y-92782271D01*
X144375211Y-92851764D01*
X144286764Y-92940211D01*
X144217271Y-93044215D01*
X144169403Y-93159777D01*
X144155694Y-93228694D01*
X144086777Y-93242403D01*
X143971215Y-93290271D01*
X143867211Y-93359764D01*
X143778764Y-93448211D01*
X143750854Y-93489982D01*
X143738260Y-93459578D01*
X143668767Y-93355574D01*
X143580320Y-93267127D01*
X143476316Y-93197634D01*
X143360754Y-93149766D01*
X143238073Y-93125363D01*
X143162326Y-93125363D01*
X143148262Y-93054657D01*
X143100394Y-92939095D01*
X143030901Y-92835091D01*
X142942454Y-92746644D01*
X142838450Y-92677151D01*
X142722888Y-92629283D01*
X142600207Y-92604880D01*
X142475123Y-92604880D01*
X142352442Y-92629283D01*
X142236880Y-92677151D01*
X142132876Y-92746644D01*
X142044429Y-92835091D01*
X141974936Y-92939095D01*
X141927068Y-93054657D01*
X141902665Y-93177338D01*
X117500000Y-93177338D01*
X117500000Y-88494327D01*
X136687096Y-88494327D01*
X136687096Y-88619411D01*
X136711499Y-88742092D01*
X136759367Y-88857654D01*
X136828860Y-88961658D01*
X136917307Y-89050105D01*
X137021311Y-89119598D01*
X137136873Y-89167466D01*
X137259554Y-89191869D01*
X137384638Y-89191869D01*
X137507319Y-89167466D01*
X137622881Y-89119598D01*
X137726885Y-89050105D01*
X137815332Y-88961658D01*
X137884825Y-88857654D01*
X137932693Y-88742092D01*
X137957096Y-88619411D01*
X137957096Y-88568446D01*
X138809428Y-87716115D01*
X138829142Y-87815223D01*
X138877010Y-87930785D01*
X138946503Y-88034789D01*
X139034950Y-88123236D01*
X139138954Y-88192729D01*
X139225159Y-88228437D01*
X139181552Y-88333711D01*
X139157149Y-88456392D01*
X139157149Y-88581476D01*
X139181552Y-88704157D01*
X139229420Y-88819719D01*
X139298913Y-88923723D01*
X139387360Y-89012170D01*
X139491364Y-89081663D01*
X139525736Y-89095900D01*
X139509559Y-89177225D01*
X139509559Y-89302309D01*
X139533962Y-89424990D01*
X139581830Y-89540552D01*
X139651323Y-89644556D01*
X139739770Y-89733003D01*
X139843774Y-89802496D01*
X139915410Y-89832169D01*
X139886383Y-89902245D01*
X139861980Y-90024926D01*
X139861980Y-90150010D01*
X139886383Y-90272691D01*
X139934251Y-90388253D01*
X140003744Y-90492257D01*
X140092191Y-90580704D01*
X140196195Y-90650197D01*
X140265581Y-90678938D01*
X140238793Y-90743608D01*
X140214390Y-90866289D01*
X140214390Y-90991373D01*
X140238793Y-91114054D01*
X140286661Y-91229616D01*
X140356154Y-91333620D01*
X140444601Y-91422067D01*
X140548605Y-91491560D01*
X140664167Y-91539428D01*
X140786848Y-91563831D01*
X140911932Y-91563831D01*
X141034613Y-91539428D01*
X141150175Y-91491560D01*
X141254179Y-91422067D01*
X141290215Y-91386031D01*
X143967429Y-91386031D01*
X144016421Y-91435023D01*
X144120425Y-91504516D01*
X144235987Y-91552384D01*
X144358668Y-91576787D01*
X144483752Y-91576787D01*
X144606433Y-91552384D01*
X144721995Y-91504516D01*
X144825999Y-91435023D01*
X144914446Y-91346576D01*
X144983939Y-91242572D01*
X145031807Y-91127010D01*
X145056210Y-91004329D01*
X145056210Y-90879245D01*
X145031807Y-90756564D01*
X144983939Y-90641002D01*
X144914446Y-90536998D01*
X144885837Y-90508389D01*
X144914446Y-90479779D01*
X144983939Y-90375775D01*
X145031807Y-90260213D01*
X145056210Y-90137532D01*
X145056210Y-90012448D01*
X145031807Y-89889767D01*
X144983939Y-89774205D01*
X144918763Y-89676662D01*
X144983939Y-89579118D01*
X145031807Y-89463556D01*
X145056210Y-89340875D01*
X145056210Y-89215791D01*
X145031807Y-89093110D01*
X144983939Y-88977548D01*
X144914446Y-88873544D01*
X144908797Y-88867895D01*
X144914446Y-88862245D01*
X144983939Y-88758241D01*
X145031807Y-88642679D01*
X145056210Y-88519998D01*
X145056210Y-88394914D01*
X145031807Y-88272233D01*
X144983939Y-88156671D01*
X144931801Y-88078641D01*
X144983939Y-88000611D01*
X145031807Y-87885049D01*
X145056210Y-87762368D01*
X145056210Y-87663787D01*
X146662360Y-89269938D01*
X146676677Y-89287383D01*
X146694122Y-89301700D01*
X146746294Y-89344517D01*
X146825720Y-89386971D01*
X146845295Y-89392909D01*
X146911903Y-89413115D01*
X146979070Y-89419730D01*
X146979080Y-89419730D01*
X147001530Y-89421941D01*
X147023980Y-89419730D01*
X152659488Y-89419730D01*
X152595777Y-89432403D01*
X152480215Y-89480271D01*
X152376211Y-89549764D01*
X152287764Y-89638211D01*
X152218271Y-89742215D01*
X152170403Y-89857777D01*
X152146000Y-89980458D01*
X152146000Y-90105542D01*
X152170403Y-90228223D01*
X152218271Y-90343785D01*
X152287764Y-90447789D01*
X152376211Y-90536236D01*
X152480215Y-90605729D01*
X152595777Y-90653597D01*
X152718458Y-90678000D01*
X152843542Y-90678000D01*
X152966223Y-90653597D01*
X153081785Y-90605729D01*
X153185789Y-90536236D01*
X153221825Y-90500200D01*
X154532779Y-90500200D01*
X154532779Y-90515856D01*
X154557182Y-90638537D01*
X154605050Y-90754099D01*
X154674543Y-90858103D01*
X154762990Y-90946550D01*
X154866994Y-91016043D01*
X154982556Y-91063911D01*
X155105237Y-91088314D01*
X155230321Y-91088314D01*
X155353002Y-91063911D01*
X155468564Y-91016043D01*
X155572568Y-90946550D01*
X155661015Y-90858103D01*
X155730508Y-90754099D01*
X155778376Y-90638537D01*
X155802779Y-90515856D01*
X155802779Y-90390772D01*
X155778376Y-90268091D01*
X155730508Y-90152529D01*
X155661015Y-90048525D01*
X155572568Y-89960078D01*
X155569923Y-89958311D01*
X155576376Y-89955638D01*
X155680380Y-89886145D01*
X155768827Y-89797698D01*
X155838320Y-89693694D01*
X155886188Y-89578132D01*
X155906772Y-89474651D01*
X156372939Y-89940819D01*
X156387256Y-89958264D01*
X156404701Y-89972581D01*
X156456872Y-90015398D01*
X156499326Y-90038089D01*
X156536300Y-90057852D01*
X156622482Y-90083996D01*
X156689649Y-90090611D01*
X156689658Y-90090611D01*
X156712108Y-90092822D01*
X156734558Y-90090611D01*
X165995139Y-90090611D01*
X166017589Y-90092822D01*
X166040039Y-90090611D01*
X166040049Y-90090611D01*
X166107216Y-90083996D01*
X166193398Y-90057852D01*
X166272825Y-90015398D01*
X166342442Y-89958264D01*
X166356763Y-89940814D01*
X167270578Y-89027000D01*
X167321542Y-89027000D01*
X167444223Y-89002597D01*
X167559785Y-88954729D01*
X167663789Y-88885236D01*
X167752236Y-88796789D01*
X167821729Y-88692785D01*
X167869597Y-88577223D01*
X167894000Y-88454542D01*
X167894000Y-88329458D01*
X167869597Y-88206777D01*
X167821729Y-88091215D01*
X167752236Y-87987211D01*
X167663789Y-87898764D01*
X167559785Y-87829271D01*
X167444223Y-87781403D01*
X167321542Y-87757000D01*
X167196458Y-87757000D01*
X167073777Y-87781403D01*
X166958215Y-87829271D01*
X166854211Y-87898764D01*
X166765764Y-87987211D01*
X166696271Y-88091215D01*
X166648403Y-88206777D01*
X166624000Y-88329458D01*
X166624000Y-88380422D01*
X165828212Y-89176211D01*
X163333157Y-89176211D01*
X163506864Y-89002504D01*
X163604449Y-89042925D01*
X163727130Y-89067328D01*
X163852214Y-89067328D01*
X163974895Y-89042925D01*
X164090457Y-88995057D01*
X164194461Y-88925564D01*
X164282908Y-88837117D01*
X164352401Y-88733113D01*
X164400269Y-88617551D01*
X164424672Y-88494870D01*
X164424672Y-88369786D01*
X164400269Y-88247105D01*
X164352401Y-88131543D01*
X164282908Y-88027539D01*
X164194461Y-87939092D01*
X164090457Y-87869599D01*
X163974895Y-87821731D01*
X163852214Y-87797328D01*
X163727130Y-87797328D01*
X163604449Y-87821731D01*
X163488887Y-87869599D01*
X163384883Y-87939092D01*
X163342385Y-87981590D01*
X163340835Y-87981743D01*
X163254653Y-88007887D01*
X163221207Y-88025764D01*
X163175225Y-88050341D01*
X163123054Y-88093158D01*
X163105609Y-88107475D01*
X163091292Y-88124920D01*
X162392413Y-88823800D01*
X160326046Y-88823800D01*
X160328729Y-88819785D01*
X160376597Y-88704223D01*
X160401000Y-88581542D01*
X160401000Y-88456458D01*
X160376597Y-88333777D01*
X160328729Y-88218215D01*
X160314893Y-88197508D01*
X160380671Y-88184424D01*
X160496233Y-88136556D01*
X160600237Y-88067063D01*
X160688684Y-87978616D01*
X160758177Y-87874612D01*
X160806045Y-87759050D01*
X160830448Y-87636369D01*
X160830448Y-87550487D01*
X166865559Y-87550487D01*
X166901595Y-87586523D01*
X167005599Y-87656016D01*
X167121161Y-87703884D01*
X167243842Y-87728287D01*
X167368926Y-87728287D01*
X167491607Y-87703884D01*
X167607169Y-87656016D01*
X167711173Y-87586523D01*
X167799620Y-87498076D01*
X167869113Y-87394072D01*
X167916981Y-87278510D01*
X167941384Y-87155829D01*
X167941384Y-87030745D01*
X167916981Y-86908064D01*
X167869113Y-86792502D01*
X167799620Y-86688498D01*
X167769996Y-86658874D01*
X167802762Y-86579772D01*
X167827165Y-86457091D01*
X167827165Y-86332007D01*
X167822628Y-86309200D01*
X177613175Y-86309200D01*
X177649211Y-86345236D01*
X177753215Y-86414729D01*
X177868777Y-86462597D01*
X177991458Y-86487000D01*
X178116542Y-86487000D01*
X178239223Y-86462597D01*
X178354785Y-86414729D01*
X178458789Y-86345236D01*
X178547236Y-86256789D01*
X178616729Y-86152785D01*
X178664597Y-86037223D01*
X178689000Y-85914542D01*
X178689000Y-85789458D01*
X178664597Y-85666777D01*
X178616729Y-85551215D01*
X178547236Y-85447211D01*
X178458789Y-85358764D01*
X178354785Y-85289271D01*
X178239223Y-85241403D01*
X178116542Y-85217000D01*
X177991458Y-85217000D01*
X177868777Y-85241403D01*
X177753215Y-85289271D01*
X177649211Y-85358764D01*
X177613175Y-85394800D01*
X166994642Y-85394800D01*
X167241857Y-85147586D01*
X167259301Y-85133270D01*
X167299567Y-85084207D01*
X167316435Y-85063654D01*
X167348525Y-85003616D01*
X167358889Y-84984226D01*
X167385033Y-84898044D01*
X167385186Y-84896494D01*
X167427684Y-84853996D01*
X167497177Y-84749992D01*
X167545045Y-84634430D01*
X167569448Y-84511749D01*
X167569448Y-84386665D01*
X167545045Y-84263984D01*
X167497177Y-84148422D01*
X167427684Y-84044418D01*
X167339237Y-83955971D01*
X167235233Y-83886478D01*
X167119671Y-83838610D01*
X166996990Y-83814207D01*
X166871906Y-83814207D01*
X166749225Y-83838610D01*
X166664830Y-83873568D01*
X166769198Y-83769200D01*
X177486175Y-83769200D01*
X177522211Y-83805236D01*
X177626215Y-83874729D01*
X177741777Y-83922597D01*
X177864458Y-83947000D01*
X177989542Y-83947000D01*
X178112223Y-83922597D01*
X178227785Y-83874729D01*
X178331789Y-83805236D01*
X178420236Y-83716789D01*
X178489729Y-83612785D01*
X178537597Y-83497223D01*
X178562000Y-83374542D01*
X178562000Y-83249458D01*
X178537597Y-83126777D01*
X178489729Y-83011215D01*
X178420236Y-82907211D01*
X178331789Y-82818764D01*
X178227785Y-82749271D01*
X178112223Y-82701403D01*
X177989542Y-82677000D01*
X178112223Y-82652597D01*
X178227785Y-82604729D01*
X178331789Y-82535236D01*
X178420236Y-82446789D01*
X178489729Y-82342785D01*
X178537597Y-82227223D01*
X178562000Y-82104542D01*
X178562000Y-81979458D01*
X178537597Y-81856777D01*
X178489729Y-81741215D01*
X178420236Y-81637211D01*
X178331789Y-81548764D01*
X178227785Y-81479271D01*
X178112223Y-81431403D01*
X177989542Y-81407000D01*
X178112223Y-81382597D01*
X178227785Y-81334729D01*
X178331789Y-81265236D01*
X178420236Y-81176789D01*
X178489729Y-81072785D01*
X178537597Y-80957223D01*
X178562000Y-80834542D01*
X178562000Y-80709458D01*
X178537597Y-80586777D01*
X178489729Y-80471215D01*
X178420236Y-80367211D01*
X178331789Y-80278764D01*
X178227785Y-80209271D01*
X178112223Y-80161403D01*
X177989542Y-80137000D01*
X178112223Y-80112597D01*
X178227785Y-80064729D01*
X178331789Y-79995236D01*
X178420236Y-79906789D01*
X178489729Y-79802785D01*
X178537597Y-79687223D01*
X178562000Y-79564542D01*
X178562000Y-79439458D01*
X178537597Y-79316777D01*
X178489729Y-79201215D01*
X178420236Y-79097211D01*
X178331789Y-79008764D01*
X178227785Y-78939271D01*
X178112223Y-78891403D01*
X177989542Y-78867000D01*
X177929438Y-78867000D01*
X177928237Y-78866014D01*
X177848810Y-78823560D01*
X177762628Y-78797416D01*
X177695461Y-78790801D01*
X177695451Y-78790801D01*
X177673001Y-78788590D01*
X177650551Y-78790801D01*
X175894751Y-78790801D01*
X175872301Y-78788590D01*
X175849851Y-78790801D01*
X175849841Y-78790801D01*
X175782674Y-78797416D01*
X175696492Y-78823560D01*
X175617065Y-78866014D01*
X175547448Y-78923148D01*
X175533127Y-78940598D01*
X175428925Y-79044800D01*
X174348074Y-79044800D01*
X174371000Y-78929542D01*
X174371000Y-78804458D01*
X174346597Y-78681777D01*
X174298729Y-78566215D01*
X174229236Y-78462211D01*
X174140789Y-78373764D01*
X174036785Y-78304271D01*
X173921223Y-78256403D01*
X173798542Y-78232000D01*
X173673458Y-78232000D01*
X173550777Y-78256403D01*
X173435215Y-78304271D01*
X173331211Y-78373764D01*
X173295175Y-78409800D01*
X171347037Y-78409800D01*
X171335015Y-78349363D01*
X171287147Y-78233801D01*
X171217654Y-78129797D01*
X171129207Y-78041350D01*
X171025203Y-77971857D01*
X170909641Y-77923989D01*
X170786960Y-77899586D01*
X170661876Y-77899586D01*
X170539195Y-77923989D01*
X170423633Y-77971857D01*
X170319629Y-78041350D01*
X170283593Y-78077386D01*
X168376349Y-78077386D01*
X166844645Y-76545684D01*
X166830324Y-76528234D01*
X166760707Y-76471100D01*
X166681280Y-76428646D01*
X166659204Y-76421949D01*
X167088372Y-76421949D01*
X168021000Y-77354578D01*
X168021000Y-77405542D01*
X168045403Y-77528223D01*
X168093271Y-77643785D01*
X168162764Y-77747789D01*
X168251211Y-77836236D01*
X168355215Y-77905729D01*
X168470777Y-77953597D01*
X168593458Y-77978000D01*
X168718542Y-77978000D01*
X168841223Y-77953597D01*
X168956785Y-77905729D01*
X169060789Y-77836236D01*
X169149236Y-77747789D01*
X169218729Y-77643785D01*
X169266597Y-77528223D01*
X169291000Y-77405542D01*
X169291000Y-77280458D01*
X169266597Y-77157777D01*
X169218729Y-77042215D01*
X169149236Y-76938211D01*
X169060789Y-76849764D01*
X168956785Y-76780271D01*
X168841223Y-76732403D01*
X168718542Y-76708000D01*
X168667578Y-76708000D01*
X167616923Y-75657346D01*
X167602602Y-75639896D01*
X167532985Y-75582762D01*
X167453558Y-75540308D01*
X167367376Y-75514164D01*
X167300209Y-75507549D01*
X167300199Y-75507549D01*
X167277749Y-75505338D01*
X167255299Y-75507549D01*
X160150701Y-75507549D01*
X160128251Y-75505338D01*
X160105801Y-75507549D01*
X160105791Y-75507549D01*
X160038624Y-75514164D01*
X159952442Y-75540308D01*
X159873015Y-75582762D01*
X159835413Y-75613622D01*
X159803398Y-75639896D01*
X159789081Y-75657341D01*
X158823402Y-76623021D01*
X158772437Y-76623021D01*
X158649756Y-76647424D01*
X158534194Y-76695292D01*
X158430190Y-76764785D01*
X158341743Y-76853232D01*
X158272250Y-76957236D01*
X158224382Y-77072798D01*
X158213211Y-77128956D01*
X158095071Y-77128956D01*
X157972390Y-77153359D01*
X157856828Y-77201227D01*
X157752824Y-77270720D01*
X157664377Y-77359167D01*
X157594884Y-77463171D01*
X157547016Y-77578733D01*
X157522613Y-77701414D01*
X157522613Y-77826498D01*
X157547016Y-77949179D01*
X157594884Y-78064741D01*
X157663116Y-78166859D01*
X157644961Y-78185014D01*
X157575468Y-78289018D01*
X157527600Y-78404580D01*
X157503197Y-78527261D01*
X157503197Y-78652345D01*
X157527600Y-78775026D01*
X157575468Y-78890588D01*
X157644961Y-78994592D01*
X157648761Y-78998392D01*
X157602352Y-79044800D01*
X155458830Y-79044800D01*
X154760983Y-78346954D01*
X154746662Y-78329504D01*
X154677045Y-78272370D01*
X154597618Y-78229916D01*
X154511436Y-78203772D01*
X154444269Y-78197157D01*
X154444259Y-78197157D01*
X154421809Y-78194946D01*
X154399359Y-78197157D01*
X145434556Y-78197157D01*
X145412106Y-78194946D01*
X145389656Y-78197157D01*
X145389647Y-78197157D01*
X145322480Y-78203772D01*
X145236298Y-78229916D01*
X145181468Y-78259223D01*
X145156871Y-78272370D01*
X145129592Y-78294758D01*
X145087254Y-78329504D01*
X145072937Y-78346949D01*
X144849790Y-78570096D01*
X144844242Y-78556702D01*
X144805838Y-78499226D01*
X144826275Y-78478789D01*
X144895768Y-78374785D01*
X144943636Y-78259223D01*
X144968039Y-78136542D01*
X144968039Y-78011458D01*
X144943636Y-77888777D01*
X144895768Y-77773215D01*
X144844136Y-77695941D01*
X144861288Y-77678789D01*
X144930781Y-77574785D01*
X144978649Y-77459223D01*
X145003052Y-77336542D01*
X145003052Y-77211458D01*
X144978649Y-77088777D01*
X144930781Y-76973215D01*
X144861288Y-76869211D01*
X144772841Y-76780764D01*
X144668837Y-76711271D01*
X144553275Y-76663403D01*
X144430594Y-76639000D01*
X144305510Y-76639000D01*
X144182829Y-76663403D01*
X144129075Y-76685669D01*
X138689956Y-76685669D01*
X138653920Y-76649633D01*
X138549916Y-76580140D01*
X138434354Y-76532272D01*
X138311673Y-76507869D01*
X138186589Y-76507869D01*
X138063908Y-76532272D01*
X137948346Y-76580140D01*
X137844342Y-76649633D01*
X137755895Y-76738080D01*
X137686402Y-76842084D01*
X137638534Y-76957646D01*
X137614131Y-77080327D01*
X137614131Y-77205411D01*
X137638534Y-77328092D01*
X137686402Y-77443654D01*
X137755895Y-77547658D01*
X137844342Y-77636105D01*
X137948346Y-77705598D01*
X138031276Y-77739949D01*
X137990944Y-77837318D01*
X137966541Y-77959999D01*
X137966541Y-78085083D01*
X137990944Y-78207764D01*
X138038812Y-78323326D01*
X138108305Y-78427330D01*
X138196752Y-78515777D01*
X138300756Y-78585270D01*
X138357621Y-78608825D01*
X138327403Y-78681777D01*
X138303000Y-78804458D01*
X138303000Y-78929542D01*
X138327403Y-79052223D01*
X138375271Y-79167785D01*
X138444764Y-79271789D01*
X138533211Y-79360236D01*
X138637215Y-79429729D01*
X138747846Y-79475554D01*
X138708403Y-79570777D01*
X138684000Y-79693458D01*
X138684000Y-79818542D01*
X138708403Y-79941223D01*
X138756271Y-80056785D01*
X138825764Y-80160789D01*
X138914211Y-80249236D01*
X139018215Y-80318729D01*
X139133777Y-80366597D01*
X139162946Y-80372399D01*
X139151681Y-80429034D01*
X139151681Y-80554118D01*
X139176084Y-80676799D01*
X139223952Y-80792361D01*
X139293445Y-80896365D01*
X139381892Y-80984812D01*
X139485896Y-81054305D01*
X139601458Y-81102173D01*
X139696777Y-81121133D01*
X139695880Y-81123300D01*
X139671477Y-81245981D01*
X139671477Y-81371065D01*
X139695880Y-81493746D01*
X139743748Y-81609308D01*
X139813241Y-81713312D01*
X139901688Y-81801759D01*
X140005692Y-81871252D01*
X140121254Y-81919120D01*
X140243935Y-81943523D01*
X140369019Y-81943523D01*
X140491700Y-81919120D01*
X140607262Y-81871252D01*
X140711266Y-81801759D01*
X140799713Y-81713312D01*
X140869206Y-81609308D01*
X140917074Y-81493746D01*
X140928006Y-81438788D01*
X140930782Y-81438788D01*
X140928701Y-81449248D01*
X140928701Y-81574332D01*
X140953104Y-81697013D01*
X141000972Y-81812575D01*
X141070465Y-81916579D01*
X141158912Y-82005026D01*
X141262916Y-82074519D01*
X141378478Y-82122387D01*
X141501159Y-82146790D01*
X141626243Y-82146790D01*
X141748924Y-82122387D01*
X141864486Y-82074519D01*
X141968490Y-82005026D01*
X142004526Y-81968990D01*
X142946049Y-81968990D01*
X142568239Y-82346800D01*
X140394825Y-82346800D01*
X140358789Y-82310764D01*
X140254785Y-82241271D01*
X140139223Y-82193403D01*
X140016542Y-82169000D01*
X139891458Y-82169000D01*
X139768777Y-82193403D01*
X139653215Y-82241271D01*
X139549211Y-82310764D01*
X139460764Y-82399211D01*
X139432207Y-82441949D01*
X139357225Y-82427034D01*
X139232141Y-82427034D01*
X139109460Y-82451437D01*
X138993898Y-82499305D01*
X138889894Y-82568798D01*
X138801447Y-82657245D01*
X138731954Y-82761249D01*
X138684086Y-82876811D01*
X138659683Y-82999492D01*
X138659683Y-83124576D01*
X138684086Y-83247257D01*
X138731954Y-83362819D01*
X138801447Y-83466823D01*
X138889894Y-83555270D01*
X138993898Y-83624763D01*
X139109460Y-83672631D01*
X139232141Y-83697034D01*
X139283106Y-83697034D01*
X140613681Y-85027611D01*
X139268189Y-85027611D01*
X138499888Y-84259311D01*
X138499888Y-84195570D01*
X138475485Y-84072889D01*
X138427617Y-83957327D01*
X138358124Y-83853323D01*
X138269677Y-83764876D01*
X138165673Y-83695383D01*
X138050111Y-83647515D01*
X137927430Y-83623112D01*
X137802346Y-83623112D01*
X137679665Y-83647515D01*
X137564103Y-83695383D01*
X137460099Y-83764876D01*
X137371652Y-83853323D01*
X137302159Y-83957327D01*
X137254291Y-84072889D01*
X137229888Y-84195570D01*
X137229888Y-84320654D01*
X137254291Y-84443335D01*
X137302159Y-84558897D01*
X137371652Y-84662901D01*
X137460099Y-84751348D01*
X137564103Y-84820841D01*
X137679665Y-84868709D01*
X137802346Y-84893112D01*
X137840535Y-84893112D01*
X138115005Y-85167582D01*
X138107285Y-85169118D01*
X137991723Y-85216986D01*
X137887719Y-85286479D01*
X137799272Y-85374926D01*
X137729779Y-85478930D01*
X137681911Y-85594492D01*
X137657508Y-85717173D01*
X137657508Y-85842257D01*
X137681911Y-85964938D01*
X137729779Y-86080500D01*
X137799272Y-86184504D01*
X137863035Y-86248267D01*
X137662930Y-86448373D01*
X137611965Y-86448373D01*
X137489284Y-86472776D01*
X137373722Y-86520644D01*
X137269718Y-86590137D01*
X137181271Y-86678584D01*
X137111778Y-86782588D01*
X137063910Y-86898150D01*
X137039507Y-87020831D01*
X137039507Y-87145915D01*
X137063910Y-87268596D01*
X137111778Y-87384158D01*
X137181271Y-87488162D01*
X137269718Y-87576609D01*
X137373722Y-87646102D01*
X137489284Y-87693970D01*
X137530266Y-87702122D01*
X137310519Y-87921869D01*
X137259554Y-87921869D01*
X137136873Y-87946272D01*
X137021311Y-87994140D01*
X136917307Y-88063633D01*
X136828860Y-88152080D01*
X136759367Y-88256084D01*
X136711499Y-88371646D01*
X136687096Y-88494327D01*
X117500000Y-88494327D01*
X117500000Y-75278000D01*
X171443928Y-75278000D01*
X171456188Y-75402482D01*
X171492498Y-75522180D01*
X171551463Y-75632494D01*
X171630815Y-75729185D01*
X171727506Y-75808537D01*
X171837820Y-75867502D01*
X171957518Y-75903812D01*
X172082000Y-75916072D01*
X172321250Y-75913000D01*
X172480000Y-75754250D01*
X172480000Y-74930000D01*
X171605750Y-74930000D01*
X171447000Y-75088750D01*
X171443928Y-75278000D01*
X117500000Y-75278000D01*
X117500000Y-74328000D01*
X171443928Y-74328000D01*
X171447000Y-74517250D01*
X171605750Y-74676000D01*
X172480000Y-74676000D01*
X172480000Y-73851750D01*
X172321250Y-73693000D01*
X172082000Y-73689928D01*
X171957518Y-73702188D01*
X171837820Y-73738498D01*
X171727506Y-73797463D01*
X171630815Y-73876815D01*
X171551463Y-73973506D01*
X171492498Y-74083820D01*
X171456188Y-74203518D01*
X171443928Y-74328000D01*
X117500000Y-74328000D01*
X117500000Y-72923000D01*
X174102979Y-72923000D01*
X174083951Y-72951478D01*
X174083951Y-72951478D01*
G37*
X174083951Y-72951478D02*
X174021723Y-73101710D01*
X173989999Y-73261194D01*
X173989999Y-73423804D01*
X174021723Y-73583288D01*
X174083951Y-73733520D01*
X174174291Y-73868724D01*
X174250724Y-73945157D01*
X174069500Y-73945157D01*
X173948477Y-73957077D01*
X173832105Y-73992378D01*
X173724856Y-74049704D01*
X173709849Y-74062020D01*
X173662537Y-73973506D01*
X173583185Y-73876815D01*
X173486494Y-73797463D01*
X173376180Y-73738498D01*
X173256482Y-73702188D01*
X173132000Y-73689928D01*
X172892750Y-73693000D01*
X172734000Y-73851750D01*
X172734000Y-74676000D01*
X172754000Y-74676000D01*
X172754000Y-74930000D01*
X172734000Y-74930000D01*
X172734000Y-75754250D01*
X172892750Y-75913000D01*
X173132000Y-75916072D01*
X173256482Y-75903812D01*
X173376180Y-75867502D01*
X173486494Y-75808537D01*
X173583185Y-75729185D01*
X173662537Y-75632494D01*
X173709849Y-75543980D01*
X173724856Y-75556296D01*
X173832105Y-75613622D01*
X173948477Y-75648923D01*
X174069500Y-75660843D01*
X174270638Y-75660843D01*
X174199246Y-75767689D01*
X174137018Y-75917921D01*
X174105294Y-76077405D01*
X174105294Y-76240015D01*
X174137018Y-76399499D01*
X174199246Y-76549731D01*
X174289586Y-76684935D01*
X174404569Y-76799918D01*
X174539773Y-76890258D01*
X174690005Y-76952486D01*
X174849489Y-76984210D01*
X175012099Y-76984210D01*
X175171583Y-76952486D01*
X175321815Y-76890258D01*
X175457019Y-76799918D01*
X175572002Y-76684935D01*
X175662342Y-76549731D01*
X175724570Y-76399499D01*
X175756294Y-76240015D01*
X175756294Y-76159393D01*
X176169869Y-75745818D01*
X176115060Y-75827846D01*
X176062406Y-75954965D01*
X176035563Y-76089914D01*
X176035563Y-76227506D01*
X176062406Y-76362455D01*
X176115060Y-76489574D01*
X176191502Y-76603978D01*
X176288795Y-76701271D01*
X176403199Y-76777713D01*
X176530318Y-76830367D01*
X176665267Y-76857210D01*
X176802859Y-76857210D01*
X176937808Y-76830367D01*
X177064927Y-76777713D01*
X177179331Y-76701271D01*
X177276624Y-76603978D01*
X177353066Y-76489574D01*
X177405720Y-76362455D01*
X177432563Y-76227506D01*
X177432563Y-76089914D01*
X177406034Y-75956544D01*
X177701735Y-75660843D01*
X178200500Y-75660843D01*
X178321523Y-75648923D01*
X178437895Y-75613622D01*
X178545144Y-75556296D01*
X178639149Y-75479149D01*
X178716296Y-75385144D01*
X178773622Y-75277895D01*
X178808923Y-75161523D01*
X178820843Y-75040500D01*
X178820843Y-74565500D01*
X178808923Y-74444477D01*
X178773622Y-74328105D01*
X178738278Y-74261980D01*
X185262762Y-74261980D01*
X185262762Y-76801980D01*
X188117238Y-76801980D01*
X188117238Y-74261980D01*
X185262762Y-74261980D01*
X178738278Y-74261980D01*
X178716296Y-74220856D01*
X178639149Y-74126851D01*
X178545144Y-74049704D01*
X178437895Y-73992378D01*
X178321523Y-73957077D01*
X178200500Y-73945157D01*
X177625500Y-73945157D01*
X177504477Y-73957077D01*
X177388105Y-73992378D01*
X177280856Y-74049704D01*
X177186851Y-74126851D01*
X177109704Y-74220856D01*
X177052378Y-74328105D01*
X177038000Y-74375503D01*
X177023622Y-74328105D01*
X176966296Y-74220856D01*
X176889149Y-74126851D01*
X176795144Y-74049704D01*
X176687895Y-73992378D01*
X176571523Y-73957077D01*
X176450500Y-73945157D01*
X176131340Y-73945157D01*
X175635854Y-73449671D01*
X175640999Y-73423804D01*
X175640999Y-73261194D01*
X175609275Y-73101710D01*
X175547047Y-72951478D01*
X175528019Y-72923000D01*
X189713000Y-72923000D01*
X189713001Y-97110241D01*
X189685157Y-97031748D01*
X189536178Y-96781645D01*
X189341269Y-96565412D01*
X189107920Y-96391359D01*
X188845099Y-96266175D01*
X188697890Y-96221524D01*
X188468000Y-96342845D01*
X188468000Y-97536000D01*
X188488000Y-97536000D01*
X188488000Y-97790000D01*
X188468000Y-97790000D01*
X188468000Y-97810000D01*
X188214000Y-97810000D01*
X188214000Y-97790000D01*
X188194000Y-97790000D01*
X188194000Y-97536000D01*
X188214000Y-97536000D01*
X188214000Y-96342845D01*
X187984110Y-96221524D01*
X187836901Y-96266175D01*
X187574080Y-96391359D01*
X187340731Y-96565412D01*
X187145822Y-96781645D01*
X186996843Y-97031748D01*
X186942017Y-97186305D01*
X186829491Y-96975784D01*
X186675660Y-96788340D01*
X186488216Y-96634509D01*
X186274363Y-96520202D01*
X186042318Y-96449812D01*
X185861472Y-96432000D01*
X185740528Y-96432000D01*
X185559682Y-96449812D01*
X185327637Y-96520202D01*
X185113784Y-96634509D01*
X184926340Y-96788340D01*
X184772509Y-96975784D01*
X184658202Y-97189637D01*
X184587812Y-97421682D01*
X184564044Y-97663000D01*
X184587812Y-97904318D01*
X184658202Y-98136363D01*
X184772509Y-98350216D01*
X184926340Y-98537660D01*
X185113784Y-98691491D01*
X185327637Y-98805798D01*
X185559682Y-98876188D01*
X185740528Y-98894000D01*
X185861472Y-98894000D01*
X186042318Y-98876188D01*
X186274363Y-98805798D01*
X186488216Y-98691491D01*
X186675660Y-98537660D01*
X186829491Y-98350216D01*
X186942017Y-98139695D01*
X186996843Y-98294252D01*
X187145822Y-98544355D01*
X187340731Y-98760588D01*
X187574080Y-98934641D01*
X187836901Y-99059825D01*
X187856960Y-99065909D01*
X187653784Y-99174509D01*
X187466340Y-99328340D01*
X187312509Y-99515784D01*
X187198202Y-99729637D01*
X187127812Y-99961682D01*
X187104044Y-100203000D01*
X187127812Y-100444318D01*
X187198202Y-100676363D01*
X187312509Y-100890216D01*
X187466340Y-101077660D01*
X187653784Y-101231491D01*
X187867637Y-101345798D01*
X188099682Y-101416188D01*
X188280528Y-101434000D01*
X188401472Y-101434000D01*
X188582318Y-101416188D01*
X188814363Y-101345798D01*
X189028216Y-101231491D01*
X189215660Y-101077660D01*
X189369491Y-100890216D01*
X189483798Y-100676363D01*
X189554188Y-100444318D01*
X189577956Y-100203000D01*
X189554188Y-99961682D01*
X189483798Y-99729637D01*
X189369491Y-99515784D01*
X189215660Y-99328340D01*
X189028216Y-99174509D01*
X188825040Y-99065909D01*
X188845099Y-99059825D01*
X189107920Y-98934641D01*
X189341269Y-98760588D01*
X189536178Y-98544355D01*
X189685157Y-98294252D01*
X189713001Y-98215759D01*
X189713001Y-103734000D01*
X187325214Y-103734000D01*
X117500000Y-103607734D01*
X117500000Y-100076000D01*
X117762044Y-100076000D01*
X117785812Y-100317318D01*
X117856202Y-100549363D01*
X117970509Y-100763216D01*
X118124340Y-100950660D01*
X118311784Y-101104491D01*
X118525637Y-101218798D01*
X118757682Y-101289188D01*
X118938528Y-101307000D01*
X119059472Y-101307000D01*
X119240318Y-101289188D01*
X119472363Y-101218798D01*
X119686216Y-101104491D01*
X119873660Y-100950660D01*
X120027491Y-100763216D01*
X120141798Y-100549363D01*
X120212188Y-100317318D01*
X120235956Y-100076000D01*
X120302044Y-100076000D01*
X120325812Y-100317318D01*
X120396202Y-100549363D01*
X120510509Y-100763216D01*
X120664340Y-100950660D01*
X120851784Y-101104491D01*
X121065637Y-101218798D01*
X121297682Y-101289188D01*
X121478528Y-101307000D01*
X121599472Y-101307000D01*
X121780318Y-101289188D01*
X122012363Y-101218798D01*
X122226216Y-101104491D01*
X122413660Y-100950660D01*
X122567491Y-100763216D01*
X122681798Y-100549363D01*
X122752188Y-100317318D01*
X122775956Y-100076000D01*
X122752188Y-99834682D01*
X122681798Y-99602637D01*
X122567491Y-99388784D01*
X122413660Y-99201340D01*
X122226216Y-99047509D01*
X122012363Y-98933202D01*
X121780318Y-98862812D01*
X121599472Y-98845000D01*
X121478528Y-98845000D01*
X121297682Y-98862812D01*
X121065637Y-98933202D01*
X120851784Y-99047509D01*
X120664340Y-99201340D01*
X120510509Y-99388784D01*
X120396202Y-99602637D01*
X120325812Y-99834682D01*
X120302044Y-100076000D01*
X120235956Y-100076000D01*
X120212188Y-99834682D01*
X120141798Y-99602637D01*
X120027491Y-99388784D01*
X119873660Y-99201340D01*
X119686216Y-99047509D01*
X119472363Y-98933202D01*
X119240318Y-98862812D01*
X119059472Y-98845000D01*
X118938528Y-98845000D01*
X118757682Y-98862812D01*
X118525637Y-98933202D01*
X118311784Y-99047509D01*
X118124340Y-99201340D01*
X117970509Y-99388784D01*
X117856202Y-99602637D01*
X117785812Y-99834682D01*
X117762044Y-100076000D01*
X117500000Y-100076000D01*
X117500000Y-96686000D01*
X117766157Y-96686000D01*
X117766157Y-98386000D01*
X117773513Y-98460689D01*
X117795299Y-98532508D01*
X117830678Y-98598696D01*
X117878289Y-98656711D01*
X117936304Y-98704322D01*
X118002492Y-98739701D01*
X118074311Y-98761487D01*
X118149000Y-98768843D01*
X119849000Y-98768843D01*
X119923689Y-98761487D01*
X119995508Y-98739701D01*
X120061696Y-98704322D01*
X120119711Y-98656711D01*
X120167322Y-98598696D01*
X120202701Y-98532508D01*
X120224487Y-98460689D01*
X120231843Y-98386000D01*
X120231843Y-97536000D01*
X120302044Y-97536000D01*
X120325812Y-97777318D01*
X120396202Y-98009363D01*
X120510509Y-98223216D01*
X120664340Y-98410660D01*
X120851784Y-98564491D01*
X121065637Y-98678798D01*
X121297682Y-98749188D01*
X121478528Y-98767000D01*
X121599472Y-98767000D01*
X121780318Y-98749188D01*
X122012363Y-98678798D01*
X122226216Y-98564491D01*
X122413660Y-98410660D01*
X122567491Y-98223216D01*
X122681798Y-98009363D01*
X122752188Y-97777318D01*
X122775956Y-97536000D01*
X122842044Y-97536000D01*
X122865812Y-97777318D01*
X122936202Y-98009363D01*
X123050509Y-98223216D01*
X123204340Y-98410660D01*
X123391784Y-98564491D01*
X123605637Y-98678798D01*
X123837682Y-98749188D01*
X124018528Y-98767000D01*
X124139472Y-98767000D01*
X124320318Y-98749188D01*
X124552363Y-98678798D01*
X124766216Y-98564491D01*
X124953660Y-98410660D01*
X125107491Y-98223216D01*
X125220017Y-98012695D01*
X125274843Y-98167252D01*
X125423822Y-98417355D01*
X125618731Y-98633588D01*
X125849880Y-98806000D01*
X125618731Y-98978412D01*
X125423822Y-99194645D01*
X125274843Y-99444748D01*
X125220017Y-99599305D01*
X125107491Y-99388784D01*
X124953660Y-99201340D01*
X124766216Y-99047509D01*
X124552363Y-98933202D01*
X124320318Y-98862812D01*
X124139472Y-98845000D01*
X124018528Y-98845000D01*
X123837682Y-98862812D01*
X123605637Y-98933202D01*
X123391784Y-99047509D01*
X123204340Y-99201340D01*
X123050509Y-99388784D01*
X122936202Y-99602637D01*
X122865812Y-99834682D01*
X122842044Y-100076000D01*
X122865812Y-100317318D01*
X122936202Y-100549363D01*
X123050509Y-100763216D01*
X123204340Y-100950660D01*
X123391784Y-101104491D01*
X123605637Y-101218798D01*
X123837682Y-101289188D01*
X124018528Y-101307000D01*
X124139472Y-101307000D01*
X124320318Y-101289188D01*
X124552363Y-101218798D01*
X124766216Y-101104491D01*
X124953660Y-100950660D01*
X125107491Y-100763216D01*
X125220017Y-100552695D01*
X125274843Y-100707252D01*
X125423822Y-100957355D01*
X125618731Y-101173588D01*
X125852080Y-101347641D01*
X126114901Y-101472825D01*
X126262110Y-101517476D01*
X126492000Y-101396155D01*
X126492000Y-100203000D01*
X126746000Y-100203000D01*
X126746000Y-101396155D01*
X126975890Y-101517476D01*
X127123099Y-101472825D01*
X127385920Y-101347641D01*
X127619269Y-101173588D01*
X127814178Y-100957355D01*
X127889000Y-100831745D01*
X127963822Y-100957355D01*
X128158731Y-101173588D01*
X128392080Y-101347641D01*
X128654901Y-101472825D01*
X128802110Y-101517476D01*
X129032000Y-101396155D01*
X129032000Y-100203000D01*
X129286000Y-100203000D01*
X129286000Y-101396155D01*
X129515890Y-101517476D01*
X129663099Y-101472825D01*
X129925920Y-101347641D01*
X130159269Y-101173588D01*
X130354178Y-100957355D01*
X130503157Y-100707252D01*
X130600481Y-100432891D01*
X130479814Y-100203000D01*
X138844044Y-100203000D01*
X138867812Y-100444318D01*
X138938202Y-100676363D01*
X139052509Y-100890216D01*
X139206340Y-101077660D01*
X139393784Y-101231491D01*
X139607637Y-101345798D01*
X139839682Y-101416188D01*
X140020528Y-101434000D01*
X140141472Y-101434000D01*
X140322318Y-101416188D01*
X140554363Y-101345798D01*
X140768216Y-101231491D01*
X140955660Y-101077660D01*
X141109491Y-100890216D01*
X141223798Y-100676363D01*
X141294188Y-100444318D01*
X141317956Y-100203000D01*
X141384044Y-100203000D01*
X141407812Y-100444318D01*
X141478202Y-100676363D01*
X141592509Y-100890216D01*
X141746340Y-101077660D01*
X141933784Y-101231491D01*
X142147637Y-101345798D01*
X142379682Y-101416188D01*
X142560528Y-101434000D01*
X142681472Y-101434000D01*
X142862318Y-101416188D01*
X143094363Y-101345798D01*
X143308216Y-101231491D01*
X143495660Y-101077660D01*
X143649491Y-100890216D01*
X143763798Y-100676363D01*
X143834188Y-100444318D01*
X143857956Y-100203000D01*
X143924044Y-100203000D01*
X143947812Y-100444318D01*
X144018202Y-100676363D01*
X144132509Y-100890216D01*
X144286340Y-101077660D01*
X144473784Y-101231491D01*
X144687637Y-101345798D01*
X144919682Y-101416188D01*
X145100528Y-101434000D01*
X145221472Y-101434000D01*
X145402318Y-101416188D01*
X145634363Y-101345798D01*
X145848216Y-101231491D01*
X146035660Y-101077660D01*
X146189491Y-100890216D01*
X146303798Y-100676363D01*
X146374188Y-100444318D01*
X146397956Y-100203000D01*
X146464044Y-100203000D01*
X146487812Y-100444318D01*
X146558202Y-100676363D01*
X146672509Y-100890216D01*
X146826340Y-101077660D01*
X147013784Y-101231491D01*
X147227637Y-101345798D01*
X147459682Y-101416188D01*
X147640528Y-101434000D01*
X147761472Y-101434000D01*
X147942318Y-101416188D01*
X148174363Y-101345798D01*
X148388216Y-101231491D01*
X148575660Y-101077660D01*
X148729491Y-100890216D01*
X148843798Y-100676363D01*
X148914188Y-100444318D01*
X148937956Y-100203000D01*
X149004044Y-100203000D01*
X149027812Y-100444318D01*
X149098202Y-100676363D01*
X149212509Y-100890216D01*
X149366340Y-101077660D01*
X149553784Y-101231491D01*
X149767637Y-101345798D01*
X149999682Y-101416188D01*
X150180528Y-101434000D01*
X150301472Y-101434000D01*
X150482318Y-101416188D01*
X150714363Y-101345798D01*
X150928216Y-101231491D01*
X151115660Y-101077660D01*
X151269491Y-100890216D01*
X151383798Y-100676363D01*
X151454188Y-100444318D01*
X151477956Y-100203000D01*
X151544044Y-100203000D01*
X151567812Y-100444318D01*
X151638202Y-100676363D01*
X151752509Y-100890216D01*
X151906340Y-101077660D01*
X152093784Y-101231491D01*
X152307637Y-101345798D01*
X152539682Y-101416188D01*
X152720528Y-101434000D01*
X152841472Y-101434000D01*
X153022318Y-101416188D01*
X153254363Y-101345798D01*
X153468216Y-101231491D01*
X153655660Y-101077660D01*
X153809491Y-100890216D01*
X153923798Y-100676363D01*
X153994188Y-100444318D01*
X154017956Y-100203000D01*
X154084044Y-100203000D01*
X154107812Y-100444318D01*
X154178202Y-100676363D01*
X154292509Y-100890216D01*
X154446340Y-101077660D01*
X154633784Y-101231491D01*
X154847637Y-101345798D01*
X155079682Y-101416188D01*
X155260528Y-101434000D01*
X155381472Y-101434000D01*
X155562318Y-101416188D01*
X155794363Y-101345798D01*
X156008216Y-101231491D01*
X156195660Y-101077660D01*
X156349491Y-100890216D01*
X156463798Y-100676363D01*
X156534188Y-100444318D01*
X156557956Y-100203000D01*
X156624044Y-100203000D01*
X156647812Y-100444318D01*
X156718202Y-100676363D01*
X156832509Y-100890216D01*
X156986340Y-101077660D01*
X157173784Y-101231491D01*
X157387637Y-101345798D01*
X157619682Y-101416188D01*
X157800528Y-101434000D01*
X157921472Y-101434000D01*
X158102318Y-101416188D01*
X158334363Y-101345798D01*
X158548216Y-101231491D01*
X158735660Y-101077660D01*
X158889491Y-100890216D01*
X159003798Y-100676363D01*
X159074188Y-100444318D01*
X159097956Y-100203000D01*
X159164044Y-100203000D01*
X159187812Y-100444318D01*
X159258202Y-100676363D01*
X159372509Y-100890216D01*
X159526340Y-101077660D01*
X159713784Y-101231491D01*
X159927637Y-101345798D01*
X160159682Y-101416188D01*
X160340528Y-101434000D01*
X160461472Y-101434000D01*
X160642318Y-101416188D01*
X160874363Y-101345798D01*
X161088216Y-101231491D01*
X161275660Y-101077660D01*
X161429491Y-100890216D01*
X161543798Y-100676363D01*
X161614188Y-100444318D01*
X161637956Y-100203000D01*
X161704044Y-100203000D01*
X161727812Y-100444318D01*
X161798202Y-100676363D01*
X161912509Y-100890216D01*
X162066340Y-101077660D01*
X162253784Y-101231491D01*
X162467637Y-101345798D01*
X162699682Y-101416188D01*
X162880528Y-101434000D01*
X163001472Y-101434000D01*
X163182318Y-101416188D01*
X163414363Y-101345798D01*
X163628216Y-101231491D01*
X163815660Y-101077660D01*
X163969491Y-100890216D01*
X164083798Y-100676363D01*
X164154188Y-100444318D01*
X164177956Y-100203000D01*
X164244044Y-100203000D01*
X164267812Y-100444318D01*
X164338202Y-100676363D01*
X164452509Y-100890216D01*
X164606340Y-101077660D01*
X164793784Y-101231491D01*
X165007637Y-101345798D01*
X165239682Y-101416188D01*
X165420528Y-101434000D01*
X165541472Y-101434000D01*
X165722318Y-101416188D01*
X165954363Y-101345798D01*
X166168216Y-101231491D01*
X166355660Y-101077660D01*
X166509491Y-100890216D01*
X166623798Y-100676363D01*
X166694188Y-100444318D01*
X166717956Y-100203000D01*
X166784044Y-100203000D01*
X166807812Y-100444318D01*
X166878202Y-100676363D01*
X166992509Y-100890216D01*
X167146340Y-101077660D01*
X167333784Y-101231491D01*
X167547637Y-101345798D01*
X167779682Y-101416188D01*
X167960528Y-101434000D01*
X168081472Y-101434000D01*
X168262318Y-101416188D01*
X168494363Y-101345798D01*
X168708216Y-101231491D01*
X168895660Y-101077660D01*
X169049491Y-100890216D01*
X169163798Y-100676363D01*
X169234188Y-100444318D01*
X169257956Y-100203000D01*
X169324044Y-100203000D01*
X169347812Y-100444318D01*
X169418202Y-100676363D01*
X169532509Y-100890216D01*
X169686340Y-101077660D01*
X169873784Y-101231491D01*
X170087637Y-101345798D01*
X170319682Y-101416188D01*
X170500528Y-101434000D01*
X170621472Y-101434000D01*
X170802318Y-101416188D01*
X171034363Y-101345798D01*
X171248216Y-101231491D01*
X171435660Y-101077660D01*
X171589491Y-100890216D01*
X171703798Y-100676363D01*
X171774188Y-100444318D01*
X171797956Y-100203000D01*
X171864044Y-100203000D01*
X171887812Y-100444318D01*
X171958202Y-100676363D01*
X172072509Y-100890216D01*
X172226340Y-101077660D01*
X172413784Y-101231491D01*
X172627637Y-101345798D01*
X172859682Y-101416188D01*
X173040528Y-101434000D01*
X173161472Y-101434000D01*
X173342318Y-101416188D01*
X173574363Y-101345798D01*
X173788216Y-101231491D01*
X173975660Y-101077660D01*
X174129491Y-100890216D01*
X174243798Y-100676363D01*
X174314188Y-100444318D01*
X174337956Y-100203000D01*
X174314188Y-99961682D01*
X174243798Y-99729637D01*
X174129491Y-99515784D01*
X173975660Y-99328340D01*
X173788216Y-99174509D01*
X173574363Y-99060202D01*
X173342318Y-98989812D01*
X173161472Y-98972000D01*
X173040528Y-98972000D01*
X172859682Y-98989812D01*
X172627637Y-99060202D01*
X172413784Y-99174509D01*
X172226340Y-99328340D01*
X172072509Y-99515784D01*
X171958202Y-99729637D01*
X171887812Y-99961682D01*
X171864044Y-100203000D01*
X171797956Y-100203000D01*
X171774188Y-99961682D01*
X171703798Y-99729637D01*
X171589491Y-99515784D01*
X171435660Y-99328340D01*
X171248216Y-99174509D01*
X171034363Y-99060202D01*
X170802318Y-98989812D01*
X170621472Y-98972000D01*
X170500528Y-98972000D01*
X170319682Y-98989812D01*
X170087637Y-99060202D01*
X169873784Y-99174509D01*
X169686340Y-99328340D01*
X169532509Y-99515784D01*
X169418202Y-99729637D01*
X169347812Y-99961682D01*
X169324044Y-100203000D01*
X169257956Y-100203000D01*
X169234188Y-99961682D01*
X169163798Y-99729637D01*
X169049491Y-99515784D01*
X168895660Y-99328340D01*
X168708216Y-99174509D01*
X168494363Y-99060202D01*
X168262318Y-98989812D01*
X168081472Y-98972000D01*
X167960528Y-98972000D01*
X167779682Y-98989812D01*
X167547637Y-99060202D01*
X167333784Y-99174509D01*
X167146340Y-99328340D01*
X166992509Y-99515784D01*
X166878202Y-99729637D01*
X166807812Y-99961682D01*
X166784044Y-100203000D01*
X166717956Y-100203000D01*
X166694188Y-99961682D01*
X166623798Y-99729637D01*
X166509491Y-99515784D01*
X166355660Y-99328340D01*
X166168216Y-99174509D01*
X165954363Y-99060202D01*
X165722318Y-98989812D01*
X165541472Y-98972000D01*
X165420528Y-98972000D01*
X165239682Y-98989812D01*
X165007637Y-99060202D01*
X164793784Y-99174509D01*
X164606340Y-99328340D01*
X164452509Y-99515784D01*
X164338202Y-99729637D01*
X164267812Y-99961682D01*
X164244044Y-100203000D01*
X164177956Y-100203000D01*
X164154188Y-99961682D01*
X164083798Y-99729637D01*
X163969491Y-99515784D01*
X163815660Y-99328340D01*
X163628216Y-99174509D01*
X163414363Y-99060202D01*
X163182318Y-98989812D01*
X163001472Y-98972000D01*
X162880528Y-98972000D01*
X162699682Y-98989812D01*
X162467637Y-99060202D01*
X162253784Y-99174509D01*
X162066340Y-99328340D01*
X161912509Y-99515784D01*
X161798202Y-99729637D01*
X161727812Y-99961682D01*
X161704044Y-100203000D01*
X161637956Y-100203000D01*
X161614188Y-99961682D01*
X161543798Y-99729637D01*
X161429491Y-99515784D01*
X161275660Y-99328340D01*
X161088216Y-99174509D01*
X160874363Y-99060202D01*
X160642318Y-98989812D01*
X160461472Y-98972000D01*
X160340528Y-98972000D01*
X160159682Y-98989812D01*
X159927637Y-99060202D01*
X159713784Y-99174509D01*
X159526340Y-99328340D01*
X159372509Y-99515784D01*
X159258202Y-99729637D01*
X159187812Y-99961682D01*
X159164044Y-100203000D01*
X159097956Y-100203000D01*
X159074188Y-99961682D01*
X159003798Y-99729637D01*
X158889491Y-99515784D01*
X158735660Y-99328340D01*
X158548216Y-99174509D01*
X158334363Y-99060202D01*
X158102318Y-98989812D01*
X157921472Y-98972000D01*
X157800528Y-98972000D01*
X157619682Y-98989812D01*
X157387637Y-99060202D01*
X157173784Y-99174509D01*
X156986340Y-99328340D01*
X156832509Y-99515784D01*
X156718202Y-99729637D01*
X156647812Y-99961682D01*
X156624044Y-100203000D01*
X156557956Y-100203000D01*
X156534188Y-99961682D01*
X156463798Y-99729637D01*
X156349491Y-99515784D01*
X156195660Y-99328340D01*
X156008216Y-99174509D01*
X155794363Y-99060202D01*
X155562318Y-98989812D01*
X155381472Y-98972000D01*
X155260528Y-98972000D01*
X155079682Y-98989812D01*
X154847637Y-99060202D01*
X154633784Y-99174509D01*
X154446340Y-99328340D01*
X154292509Y-99515784D01*
X154178202Y-99729637D01*
X154107812Y-99961682D01*
X154084044Y-100203000D01*
X154017956Y-100203000D01*
X153994188Y-99961682D01*
X153923798Y-99729637D01*
X153809491Y-99515784D01*
X153655660Y-99328340D01*
X153468216Y-99174509D01*
X153254363Y-99060202D01*
X153022318Y-98989812D01*
X152841472Y-98972000D01*
X152720528Y-98972000D01*
X152539682Y-98989812D01*
X152307637Y-99060202D01*
X152093784Y-99174509D01*
X151906340Y-99328340D01*
X151752509Y-99515784D01*
X151638202Y-99729637D01*
X151567812Y-99961682D01*
X151544044Y-100203000D01*
X151477956Y-100203000D01*
X151454188Y-99961682D01*
X151383798Y-99729637D01*
X151269491Y-99515784D01*
X151115660Y-99328340D01*
X150928216Y-99174509D01*
X150714363Y-99060202D01*
X150482318Y-98989812D01*
X150301472Y-98972000D01*
X150180528Y-98972000D01*
X149999682Y-98989812D01*
X149767637Y-99060202D01*
X149553784Y-99174509D01*
X149366340Y-99328340D01*
X149212509Y-99515784D01*
X149098202Y-99729637D01*
X149027812Y-99961682D01*
X149004044Y-100203000D01*
X148937956Y-100203000D01*
X148914188Y-99961682D01*
X148843798Y-99729637D01*
X148729491Y-99515784D01*
X148575660Y-99328340D01*
X148388216Y-99174509D01*
X148174363Y-99060202D01*
X147942318Y-98989812D01*
X147761472Y-98972000D01*
X147640528Y-98972000D01*
X147459682Y-98989812D01*
X147227637Y-99060202D01*
X147013784Y-99174509D01*
X146826340Y-99328340D01*
X146672509Y-99515784D01*
X146558202Y-99729637D01*
X146487812Y-99961682D01*
X146464044Y-100203000D01*
X146397956Y-100203000D01*
X146374188Y-99961682D01*
X146303798Y-99729637D01*
X146189491Y-99515784D01*
X146035660Y-99328340D01*
X145848216Y-99174509D01*
X145634363Y-99060202D01*
X145402318Y-98989812D01*
X145221472Y-98972000D01*
X145100528Y-98972000D01*
X144919682Y-98989812D01*
X144687637Y-99060202D01*
X144473784Y-99174509D01*
X144286340Y-99328340D01*
X144132509Y-99515784D01*
X144018202Y-99729637D01*
X143947812Y-99961682D01*
X143924044Y-100203000D01*
X143857956Y-100203000D01*
X143834188Y-99961682D01*
X143763798Y-99729637D01*
X143649491Y-99515784D01*
X143495660Y-99328340D01*
X143308216Y-99174509D01*
X143094363Y-99060202D01*
X142862318Y-98989812D01*
X142681472Y-98972000D01*
X142560528Y-98972000D01*
X142379682Y-98989812D01*
X142147637Y-99060202D01*
X141933784Y-99174509D01*
X141746340Y-99328340D01*
X141592509Y-99515784D01*
X141478202Y-99729637D01*
X141407812Y-99961682D01*
X141384044Y-100203000D01*
X141317956Y-100203000D01*
X141294188Y-99961682D01*
X141223798Y-99729637D01*
X141109491Y-99515784D01*
X140955660Y-99328340D01*
X140768216Y-99174509D01*
X140554363Y-99060202D01*
X140322318Y-98989812D01*
X140141472Y-98972000D01*
X140020528Y-98972000D01*
X139839682Y-98989812D01*
X139607637Y-99060202D01*
X139393784Y-99174509D01*
X139206340Y-99328340D01*
X139052509Y-99515784D01*
X138938202Y-99729637D01*
X138867812Y-99961682D01*
X138844044Y-100203000D01*
X130479814Y-100203000D01*
X129286000Y-100203000D01*
X129032000Y-100203000D01*
X126746000Y-100203000D01*
X126492000Y-100203000D01*
X126472000Y-100203000D01*
X126472000Y-99949000D01*
X126492000Y-99949000D01*
X126492000Y-97663000D01*
X126746000Y-97663000D01*
X126746000Y-99949000D01*
X129032000Y-99949000D01*
X129032000Y-97663000D01*
X129286000Y-97663000D01*
X129286000Y-99949000D01*
X130479814Y-99949000D01*
X130600481Y-99719109D01*
X130503157Y-99444748D01*
X130354178Y-99194645D01*
X130159269Y-98978412D01*
X129928120Y-98806000D01*
X130159269Y-98633588D01*
X130354178Y-98417355D01*
X130503157Y-98167252D01*
X130600481Y-97892891D01*
X130479814Y-97663000D01*
X129286000Y-97663000D01*
X129032000Y-97663000D01*
X126746000Y-97663000D01*
X126492000Y-97663000D01*
X126472000Y-97663000D01*
X126472000Y-97409000D01*
X126492000Y-97409000D01*
X126492000Y-96215845D01*
X126746000Y-96215845D01*
X126746000Y-97409000D01*
X129032000Y-97409000D01*
X129032000Y-96215845D01*
X129286000Y-96215845D01*
X129286000Y-97409000D01*
X130479814Y-97409000D01*
X130600481Y-97179109D01*
X130503157Y-96904748D01*
X130448506Y-96813000D01*
X138848157Y-96813000D01*
X138848157Y-98513000D01*
X138855513Y-98587689D01*
X138877299Y-98659508D01*
X138912678Y-98725696D01*
X138960289Y-98783711D01*
X139018304Y-98831322D01*
X139084492Y-98866701D01*
X139156311Y-98888487D01*
X139231000Y-98895843D01*
X140931000Y-98895843D01*
X141005689Y-98888487D01*
X141077508Y-98866701D01*
X141143696Y-98831322D01*
X141201711Y-98783711D01*
X141249322Y-98725696D01*
X141284701Y-98659508D01*
X141306487Y-98587689D01*
X141313843Y-98513000D01*
X141313843Y-97663000D01*
X141384044Y-97663000D01*
X141407812Y-97904318D01*
X141478202Y-98136363D01*
X141592509Y-98350216D01*
X141746340Y-98537660D01*
X141933784Y-98691491D01*
X142147637Y-98805798D01*
X142379682Y-98876188D01*
X142560528Y-98894000D01*
X142681472Y-98894000D01*
X142862318Y-98876188D01*
X143094363Y-98805798D01*
X143308216Y-98691491D01*
X143495660Y-98537660D01*
X143649491Y-98350216D01*
X143763798Y-98136363D01*
X143834188Y-97904318D01*
X143857956Y-97663000D01*
X143924044Y-97663000D01*
X143947812Y-97904318D01*
X144018202Y-98136363D01*
X144132509Y-98350216D01*
X144286340Y-98537660D01*
X144473784Y-98691491D01*
X144687637Y-98805798D01*
X144919682Y-98876188D01*
X145100528Y-98894000D01*
X145221472Y-98894000D01*
X145402318Y-98876188D01*
X145634363Y-98805798D01*
X145848216Y-98691491D01*
X146035660Y-98537660D01*
X146189491Y-98350216D01*
X146303798Y-98136363D01*
X146374188Y-97904318D01*
X146397956Y-97663000D01*
X146464044Y-97663000D01*
X146487812Y-97904318D01*
X146558202Y-98136363D01*
X146672509Y-98350216D01*
X146826340Y-98537660D01*
X147013784Y-98691491D01*
X147227637Y-98805798D01*
X147459682Y-98876188D01*
X147640528Y-98894000D01*
X147761472Y-98894000D01*
X147942318Y-98876188D01*
X148174363Y-98805798D01*
X148388216Y-98691491D01*
X148575660Y-98537660D01*
X148729491Y-98350216D01*
X148843798Y-98136363D01*
X148914188Y-97904318D01*
X148937956Y-97663000D01*
X149004044Y-97663000D01*
X149027812Y-97904318D01*
X149098202Y-98136363D01*
X149212509Y-98350216D01*
X149366340Y-98537660D01*
X149553784Y-98691491D01*
X149767637Y-98805798D01*
X149999682Y-98876188D01*
X150180528Y-98894000D01*
X150301472Y-98894000D01*
X150482318Y-98876188D01*
X150714363Y-98805798D01*
X150928216Y-98691491D01*
X151115660Y-98537660D01*
X151269491Y-98350216D01*
X151383798Y-98136363D01*
X151454188Y-97904318D01*
X151477956Y-97663000D01*
X151544044Y-97663000D01*
X151567812Y-97904318D01*
X151638202Y-98136363D01*
X151752509Y-98350216D01*
X151906340Y-98537660D01*
X152093784Y-98691491D01*
X152307637Y-98805798D01*
X152539682Y-98876188D01*
X152720528Y-98894000D01*
X152841472Y-98894000D01*
X153022318Y-98876188D01*
X153254363Y-98805798D01*
X153468216Y-98691491D01*
X153655660Y-98537660D01*
X153809491Y-98350216D01*
X153923798Y-98136363D01*
X153994188Y-97904318D01*
X154017956Y-97663000D01*
X153994188Y-97421682D01*
X153923798Y-97189637D01*
X153809491Y-96975784D01*
X153655660Y-96788340D01*
X153468216Y-96634509D01*
X153254363Y-96520202D01*
X153022318Y-96449812D01*
X152841472Y-96432000D01*
X152720528Y-96432000D01*
X152539682Y-96449812D01*
X152307637Y-96520202D01*
X152093784Y-96634509D01*
X151906340Y-96788340D01*
X151752509Y-96975784D01*
X151638202Y-97189637D01*
X151567812Y-97421682D01*
X151544044Y-97663000D01*
X151477956Y-97663000D01*
X151454188Y-97421682D01*
X151383798Y-97189637D01*
X151269491Y-96975784D01*
X151115660Y-96788340D01*
X150928216Y-96634509D01*
X150714363Y-96520202D01*
X150482318Y-96449812D01*
X150301472Y-96432000D01*
X150180528Y-96432000D01*
X149999682Y-96449812D01*
X149767637Y-96520202D01*
X149553784Y-96634509D01*
X149366340Y-96788340D01*
X149212509Y-96975784D01*
X149098202Y-97189637D01*
X149027812Y-97421682D01*
X149004044Y-97663000D01*
X148937956Y-97663000D01*
X148914188Y-97421682D01*
X148843798Y-97189637D01*
X148729491Y-96975784D01*
X148575660Y-96788340D01*
X148388216Y-96634509D01*
X148174363Y-96520202D01*
X147942318Y-96449812D01*
X147761472Y-96432000D01*
X147640528Y-96432000D01*
X147459682Y-96449812D01*
X147227637Y-96520202D01*
X147013784Y-96634509D01*
X146826340Y-96788340D01*
X146672509Y-96975784D01*
X146558202Y-97189637D01*
X146487812Y-97421682D01*
X146464044Y-97663000D01*
X146397956Y-97663000D01*
X146374188Y-97421682D01*
X146303798Y-97189637D01*
X146189491Y-96975784D01*
X146035660Y-96788340D01*
X145848216Y-96634509D01*
X145634363Y-96520202D01*
X145402318Y-96449812D01*
X145221472Y-96432000D01*
X145100528Y-96432000D01*
X144919682Y-96449812D01*
X144687637Y-96520202D01*
X144473784Y-96634509D01*
X144286340Y-96788340D01*
X144132509Y-96975784D01*
X144018202Y-97189637D01*
X143947812Y-97421682D01*
X143924044Y-97663000D01*
X143857956Y-97663000D01*
X143834188Y-97421682D01*
X143763798Y-97189637D01*
X143649491Y-96975784D01*
X143495660Y-96788340D01*
X143308216Y-96634509D01*
X143094363Y-96520202D01*
X142862318Y-96449812D01*
X142681472Y-96432000D01*
X142560528Y-96432000D01*
X142379682Y-96449812D01*
X142147637Y-96520202D01*
X141933784Y-96634509D01*
X141746340Y-96788340D01*
X141592509Y-96975784D01*
X141478202Y-97189637D01*
X141407812Y-97421682D01*
X141384044Y-97663000D01*
X141313843Y-97663000D01*
X141313843Y-96813000D01*
X141306487Y-96738311D01*
X141284701Y-96666492D01*
X141249322Y-96600304D01*
X141201711Y-96542289D01*
X141143696Y-96494678D01*
X141077508Y-96459299D01*
X141005689Y-96437513D01*
X140931000Y-96430157D01*
X139231000Y-96430157D01*
X139156311Y-96437513D01*
X139084492Y-96459299D01*
X139018304Y-96494678D01*
X138960289Y-96542289D01*
X138912678Y-96600304D01*
X138877299Y-96666492D01*
X138855513Y-96738311D01*
X138848157Y-96813000D01*
X130448506Y-96813000D01*
X130354178Y-96654645D01*
X130159269Y-96438412D01*
X129925920Y-96264359D01*
X129663099Y-96139175D01*
X129515890Y-96094524D01*
X129286000Y-96215845D01*
X129032000Y-96215845D01*
X128802110Y-96094524D01*
X128654901Y-96139175D01*
X128392080Y-96264359D01*
X128158731Y-96438412D01*
X127963822Y-96654645D01*
X127889000Y-96780255D01*
X127814178Y-96654645D01*
X127619269Y-96438412D01*
X127385920Y-96264359D01*
X127123099Y-96139175D01*
X126975890Y-96094524D01*
X126746000Y-96215845D01*
X126492000Y-96215845D01*
X126262110Y-96094524D01*
X126114901Y-96139175D01*
X125852080Y-96264359D01*
X125618731Y-96438412D01*
X125423822Y-96654645D01*
X125274843Y-96904748D01*
X125220017Y-97059305D01*
X125107491Y-96848784D01*
X124953660Y-96661340D01*
X124766216Y-96507509D01*
X124552363Y-96393202D01*
X124320318Y-96322812D01*
X124139472Y-96305000D01*
X124018528Y-96305000D01*
X123837682Y-96322812D01*
X123605637Y-96393202D01*
X123391784Y-96507509D01*
X123204340Y-96661340D01*
X123050509Y-96848784D01*
X122936202Y-97062637D01*
X122865812Y-97294682D01*
X122842044Y-97536000D01*
X122775956Y-97536000D01*
X122752188Y-97294682D01*
X122681798Y-97062637D01*
X122567491Y-96848784D01*
X122413660Y-96661340D01*
X122226216Y-96507509D01*
X122012363Y-96393202D01*
X121780318Y-96322812D01*
X121599472Y-96305000D01*
X121478528Y-96305000D01*
X121297682Y-96322812D01*
X121065637Y-96393202D01*
X120851784Y-96507509D01*
X120664340Y-96661340D01*
X120510509Y-96848784D01*
X120396202Y-97062637D01*
X120325812Y-97294682D01*
X120302044Y-97536000D01*
X120231843Y-97536000D01*
X120231843Y-96686000D01*
X120224487Y-96611311D01*
X120202701Y-96539492D01*
X120167322Y-96473304D01*
X120119711Y-96415289D01*
X120061696Y-96367678D01*
X119995508Y-96332299D01*
X119923689Y-96310513D01*
X119849000Y-96303157D01*
X118149000Y-96303157D01*
X118074311Y-96310513D01*
X118002492Y-96332299D01*
X117936304Y-96367678D01*
X117878289Y-96415289D01*
X117830678Y-96473304D01*
X117795299Y-96539492D01*
X117773513Y-96611311D01*
X117766157Y-96686000D01*
X117500000Y-96686000D01*
X117500000Y-93177338D01*
X141902665Y-93177338D01*
X141902665Y-93302422D01*
X141927068Y-93425103D01*
X141974936Y-93540665D01*
X142044429Y-93644669D01*
X142080466Y-93680706D01*
X142080466Y-93884738D01*
X142078254Y-93907197D01*
X142080466Y-93929657D01*
X142087081Y-93996824D01*
X142096784Y-94028809D01*
X142113225Y-94083006D01*
X142155678Y-94162432D01*
X142172245Y-94182618D01*
X142212813Y-94232050D01*
X142230258Y-94246367D01*
X143756167Y-95772277D01*
X143770484Y-95789722D01*
X143840101Y-95846856D01*
X143919528Y-95889310D01*
X144005710Y-95915454D01*
X144072877Y-95922069D01*
X144072887Y-95922069D01*
X144095337Y-95924280D01*
X144117787Y-95922069D01*
X154183448Y-95922069D01*
X154178000Y-95949458D01*
X154178000Y-96074542D01*
X154202403Y-96197223D01*
X154250271Y-96312785D01*
X154319764Y-96416789D01*
X154408211Y-96505236D01*
X154512215Y-96574729D01*
X154627777Y-96622597D01*
X154648396Y-96626698D01*
X154633784Y-96634509D01*
X154446340Y-96788340D01*
X154292509Y-96975784D01*
X154178202Y-97189637D01*
X154107812Y-97421682D01*
X154084044Y-97663000D01*
X154107812Y-97904318D01*
X154178202Y-98136363D01*
X154292509Y-98350216D01*
X154446340Y-98537660D01*
X154633784Y-98691491D01*
X154847637Y-98805798D01*
X155079682Y-98876188D01*
X155260528Y-98894000D01*
X155381472Y-98894000D01*
X155562318Y-98876188D01*
X155794363Y-98805798D01*
X156008216Y-98691491D01*
X156195660Y-98537660D01*
X156349491Y-98350216D01*
X156463798Y-98136363D01*
X156534188Y-97904318D01*
X156557956Y-97663000D01*
X156534188Y-97421682D01*
X156463798Y-97189637D01*
X156349491Y-96975784D01*
X156195660Y-96788340D01*
X156008216Y-96634509D01*
X155794363Y-96520202D01*
X155626232Y-96469200D01*
X157555768Y-96469200D01*
X157387637Y-96520202D01*
X157173784Y-96634509D01*
X156986340Y-96788340D01*
X156832509Y-96975784D01*
X156718202Y-97189637D01*
X156647812Y-97421682D01*
X156624044Y-97663000D01*
X156647812Y-97904318D01*
X156718202Y-98136363D01*
X156832509Y-98350216D01*
X156986340Y-98537660D01*
X157173784Y-98691491D01*
X157387637Y-98805798D01*
X157619682Y-98876188D01*
X157800528Y-98894000D01*
X157921472Y-98894000D01*
X158102318Y-98876188D01*
X158334363Y-98805798D01*
X158548216Y-98691491D01*
X158735660Y-98537660D01*
X158889491Y-98350216D01*
X159003798Y-98136363D01*
X159074188Y-97904318D01*
X159097956Y-97663000D01*
X159074188Y-97421682D01*
X159003798Y-97189637D01*
X158889491Y-96975784D01*
X158735660Y-96788340D01*
X158548216Y-96634509D01*
X158334363Y-96520202D01*
X158166232Y-96469200D01*
X160095768Y-96469200D01*
X159927637Y-96520202D01*
X159713784Y-96634509D01*
X159526340Y-96788340D01*
X159372509Y-96975784D01*
X159258202Y-97189637D01*
X159187812Y-97421682D01*
X159164044Y-97663000D01*
X159187812Y-97904318D01*
X159258202Y-98136363D01*
X159372509Y-98350216D01*
X159526340Y-98537660D01*
X159713784Y-98691491D01*
X159927637Y-98805798D01*
X160159682Y-98876188D01*
X160340528Y-98894000D01*
X160461472Y-98894000D01*
X160642318Y-98876188D01*
X160874363Y-98805798D01*
X161088216Y-98691491D01*
X161275660Y-98537660D01*
X161429491Y-98350216D01*
X161543798Y-98136363D01*
X161614188Y-97904318D01*
X161637956Y-97663000D01*
X161614188Y-97421682D01*
X161543798Y-97189637D01*
X161429491Y-96975784D01*
X161275660Y-96788340D01*
X161088216Y-96634509D01*
X160874363Y-96520202D01*
X160706232Y-96469200D01*
X162635768Y-96469200D01*
X162467637Y-96520202D01*
X162253784Y-96634509D01*
X162066340Y-96788340D01*
X161912509Y-96975784D01*
X161798202Y-97189637D01*
X161727812Y-97421682D01*
X161704044Y-97663000D01*
X161727812Y-97904318D01*
X161798202Y-98136363D01*
X161912509Y-98350216D01*
X162066340Y-98537660D01*
X162253784Y-98691491D01*
X162467637Y-98805798D01*
X162699682Y-98876188D01*
X162880528Y-98894000D01*
X163001472Y-98894000D01*
X163182318Y-98876188D01*
X163414363Y-98805798D01*
X163628216Y-98691491D01*
X163815660Y-98537660D01*
X163969491Y-98350216D01*
X164083798Y-98136363D01*
X164154188Y-97904318D01*
X164177956Y-97663000D01*
X164154188Y-97421682D01*
X164083798Y-97189637D01*
X163969491Y-96975784D01*
X163815660Y-96788340D01*
X163628216Y-96634509D01*
X163414363Y-96520202D01*
X163246232Y-96469200D01*
X165175768Y-96469200D01*
X165007637Y-96520202D01*
X164793784Y-96634509D01*
X164606340Y-96788340D01*
X164452509Y-96975784D01*
X164338202Y-97189637D01*
X164267812Y-97421682D01*
X164244044Y-97663000D01*
X164267812Y-97904318D01*
X164338202Y-98136363D01*
X164452509Y-98350216D01*
X164606340Y-98537660D01*
X164793784Y-98691491D01*
X165007637Y-98805798D01*
X165239682Y-98876188D01*
X165420528Y-98894000D01*
X165541472Y-98894000D01*
X165722318Y-98876188D01*
X165954363Y-98805798D01*
X166168216Y-98691491D01*
X166355660Y-98537660D01*
X166509491Y-98350216D01*
X166623798Y-98136363D01*
X166694188Y-97904318D01*
X166717956Y-97663000D01*
X166694188Y-97421682D01*
X166623798Y-97189637D01*
X166509491Y-96975784D01*
X166355660Y-96788340D01*
X166168216Y-96634509D01*
X165954363Y-96520202D01*
X165786232Y-96469200D01*
X167715768Y-96469200D01*
X167547637Y-96520202D01*
X167333784Y-96634509D01*
X167146340Y-96788340D01*
X166992509Y-96975784D01*
X166878202Y-97189637D01*
X166807812Y-97421682D01*
X166784044Y-97663000D01*
X166807812Y-97904318D01*
X166878202Y-98136363D01*
X166992509Y-98350216D01*
X167146340Y-98537660D01*
X167333784Y-98691491D01*
X167547637Y-98805798D01*
X167779682Y-98876188D01*
X167960528Y-98894000D01*
X168081472Y-98894000D01*
X168262318Y-98876188D01*
X168494363Y-98805798D01*
X168708216Y-98691491D01*
X168895660Y-98537660D01*
X169049491Y-98350216D01*
X169163798Y-98136363D01*
X169234188Y-97904318D01*
X169257956Y-97663000D01*
X169234188Y-97421682D01*
X169163798Y-97189637D01*
X169049491Y-96975784D01*
X168895660Y-96788340D01*
X168708216Y-96634509D01*
X168494363Y-96520202D01*
X168326232Y-96469200D01*
X170255768Y-96469200D01*
X170087637Y-96520202D01*
X169873784Y-96634509D01*
X169686340Y-96788340D01*
X169532509Y-96975784D01*
X169418202Y-97189637D01*
X169347812Y-97421682D01*
X169324044Y-97663000D01*
X169347812Y-97904318D01*
X169418202Y-98136363D01*
X169532509Y-98350216D01*
X169686340Y-98537660D01*
X169873784Y-98691491D01*
X170087637Y-98805798D01*
X170319682Y-98876188D01*
X170500528Y-98894000D01*
X170621472Y-98894000D01*
X170802318Y-98876188D01*
X171034363Y-98805798D01*
X171248216Y-98691491D01*
X171435660Y-98537660D01*
X171589491Y-98350216D01*
X171703798Y-98136363D01*
X171774188Y-97904318D01*
X171797956Y-97663000D01*
X171774188Y-97421682D01*
X171703798Y-97189637D01*
X171589491Y-96975784D01*
X171435660Y-96788340D01*
X171248216Y-96634509D01*
X171034363Y-96520202D01*
X170866232Y-96469200D01*
X171588295Y-96469200D01*
X171610095Y-96480852D01*
X171696277Y-96506996D01*
X171763444Y-96513611D01*
X171763454Y-96513611D01*
X171785904Y-96515822D01*
X171808354Y-96513611D01*
X172649365Y-96513611D01*
X172627637Y-96520202D01*
X172413784Y-96634509D01*
X172226340Y-96788340D01*
X172072509Y-96975784D01*
X171958202Y-97189637D01*
X171887812Y-97421682D01*
X171864044Y-97663000D01*
X171887812Y-97904318D01*
X171958202Y-98136363D01*
X172072509Y-98350216D01*
X172226340Y-98537660D01*
X172413784Y-98691491D01*
X172627637Y-98805798D01*
X172859682Y-98876188D01*
X173040528Y-98894000D01*
X173161472Y-98894000D01*
X173342318Y-98876188D01*
X173574363Y-98805798D01*
X173788216Y-98691491D01*
X173975660Y-98537660D01*
X174129491Y-98350216D01*
X174243798Y-98136363D01*
X174314188Y-97904318D01*
X174337956Y-97663000D01*
X174314188Y-97421682D01*
X174243798Y-97189637D01*
X174129491Y-96975784D01*
X173975660Y-96788340D01*
X173788216Y-96634509D01*
X173574363Y-96520202D01*
X173552635Y-96513611D01*
X175189365Y-96513611D01*
X175167637Y-96520202D01*
X174953784Y-96634509D01*
X174766340Y-96788340D01*
X174612509Y-96975784D01*
X174498202Y-97189637D01*
X174427812Y-97421682D01*
X174404044Y-97663000D01*
X174427812Y-97904318D01*
X174498202Y-98136363D01*
X174612509Y-98350216D01*
X174766340Y-98537660D01*
X174953784Y-98691491D01*
X175167637Y-98805798D01*
X175399682Y-98876188D01*
X175580528Y-98894000D01*
X175701472Y-98894000D01*
X175882318Y-98876188D01*
X176114363Y-98805798D01*
X176328216Y-98691491D01*
X176515660Y-98537660D01*
X176669491Y-98350216D01*
X176783798Y-98136363D01*
X176854188Y-97904318D01*
X176877956Y-97663000D01*
X176854188Y-97421682D01*
X176783798Y-97189637D01*
X176669491Y-96975784D01*
X176515660Y-96788340D01*
X176328216Y-96634509D01*
X176114363Y-96520202D01*
X176092635Y-96513611D01*
X177729365Y-96513611D01*
X177707637Y-96520202D01*
X177493784Y-96634509D01*
X177306340Y-96788340D01*
X177152509Y-96975784D01*
X177038202Y-97189637D01*
X176967812Y-97421682D01*
X176944044Y-97663000D01*
X176967812Y-97904318D01*
X177038202Y-98136363D01*
X177152509Y-98350216D01*
X177306340Y-98537660D01*
X177493784Y-98691491D01*
X177696960Y-98800091D01*
X177676901Y-98806175D01*
X177414080Y-98931359D01*
X177180731Y-99105412D01*
X176985822Y-99321645D01*
X176836843Y-99571748D01*
X176782017Y-99726305D01*
X176669491Y-99515784D01*
X176515660Y-99328340D01*
X176328216Y-99174509D01*
X176114363Y-99060202D01*
X175882318Y-98989812D01*
X175701472Y-98972000D01*
X175580528Y-98972000D01*
X175399682Y-98989812D01*
X175167637Y-99060202D01*
X174953784Y-99174509D01*
X174766340Y-99328340D01*
X174612509Y-99515784D01*
X174498202Y-99729637D01*
X174427812Y-99961682D01*
X174404044Y-100203000D01*
X174427812Y-100444318D01*
X174498202Y-100676363D01*
X174612509Y-100890216D01*
X174766340Y-101077660D01*
X174953784Y-101231491D01*
X175167637Y-101345798D01*
X175399682Y-101416188D01*
X175580528Y-101434000D01*
X175701472Y-101434000D01*
X175882318Y-101416188D01*
X176114363Y-101345798D01*
X176328216Y-101231491D01*
X176515660Y-101077660D01*
X176669491Y-100890216D01*
X176782017Y-100679695D01*
X176836843Y-100834252D01*
X176985822Y-101084355D01*
X177180731Y-101300588D01*
X177414080Y-101474641D01*
X177676901Y-101599825D01*
X177824110Y-101644476D01*
X178054000Y-101523155D01*
X178054000Y-100330000D01*
X178034000Y-100330000D01*
X178034000Y-100076000D01*
X178054000Y-100076000D01*
X178054000Y-100056000D01*
X178308000Y-100056000D01*
X178308000Y-100076000D01*
X178328000Y-100076000D01*
X178328000Y-100330000D01*
X178308000Y-100330000D01*
X178308000Y-101523155D01*
X178537890Y-101644476D01*
X178685099Y-101599825D01*
X178947920Y-101474641D01*
X179181269Y-101300588D01*
X179376178Y-101084355D01*
X179525157Y-100834252D01*
X179579983Y-100679695D01*
X179692509Y-100890216D01*
X179846340Y-101077660D01*
X180033784Y-101231491D01*
X180247637Y-101345798D01*
X180479682Y-101416188D01*
X180660528Y-101434000D01*
X180781472Y-101434000D01*
X180962318Y-101416188D01*
X181194363Y-101345798D01*
X181408216Y-101231491D01*
X181595660Y-101077660D01*
X181749491Y-100890216D01*
X181863798Y-100676363D01*
X181934188Y-100444318D01*
X181957956Y-100203000D01*
X182024044Y-100203000D01*
X182047812Y-100444318D01*
X182118202Y-100676363D01*
X182232509Y-100890216D01*
X182386340Y-101077660D01*
X182573784Y-101231491D01*
X182787637Y-101345798D01*
X183019682Y-101416188D01*
X183200528Y-101434000D01*
X183321472Y-101434000D01*
X183502318Y-101416188D01*
X183734363Y-101345798D01*
X183948216Y-101231491D01*
X184135660Y-101077660D01*
X184289491Y-100890216D01*
X184403798Y-100676363D01*
X184474188Y-100444318D01*
X184497956Y-100203000D01*
X184564044Y-100203000D01*
X184587812Y-100444318D01*
X184658202Y-100676363D01*
X184772509Y-100890216D01*
X184926340Y-101077660D01*
X185113784Y-101231491D01*
X185327637Y-101345798D01*
X185559682Y-101416188D01*
X185740528Y-101434000D01*
X185861472Y-101434000D01*
X186042318Y-101416188D01*
X186274363Y-101345798D01*
X186488216Y-101231491D01*
X186675660Y-101077660D01*
X186829491Y-100890216D01*
X186943798Y-100676363D01*
X187014188Y-100444318D01*
X187037956Y-100203000D01*
X187014188Y-99961682D01*
X186943798Y-99729637D01*
X186829491Y-99515784D01*
X186675660Y-99328340D01*
X186488216Y-99174509D01*
X186274363Y-99060202D01*
X186042318Y-98989812D01*
X185861472Y-98972000D01*
X185740528Y-98972000D01*
X185559682Y-98989812D01*
X185327637Y-99060202D01*
X185113784Y-99174509D01*
X184926340Y-99328340D01*
X184772509Y-99515784D01*
X184658202Y-99729637D01*
X184587812Y-99961682D01*
X184564044Y-100203000D01*
X184497956Y-100203000D01*
X184474188Y-99961682D01*
X184403798Y-99729637D01*
X184289491Y-99515784D01*
X184135660Y-99328340D01*
X183948216Y-99174509D01*
X183734363Y-99060202D01*
X183502318Y-98989812D01*
X183321472Y-98972000D01*
X183200528Y-98972000D01*
X183019682Y-98989812D01*
X182787637Y-99060202D01*
X182573784Y-99174509D01*
X182386340Y-99328340D01*
X182232509Y-99515784D01*
X182118202Y-99729637D01*
X182047812Y-99961682D01*
X182024044Y-100203000D01*
X181957956Y-100203000D01*
X181934188Y-99961682D01*
X181863798Y-99729637D01*
X181749491Y-99515784D01*
X181595660Y-99328340D01*
X181408216Y-99174509D01*
X181205040Y-99065909D01*
X181225099Y-99059825D01*
X181487920Y-98934641D01*
X181721269Y-98760588D01*
X181916178Y-98544355D01*
X182065157Y-98294252D01*
X182119983Y-98139695D01*
X182232509Y-98350216D01*
X182386340Y-98537660D01*
X182573784Y-98691491D01*
X182787637Y-98805798D01*
X183019682Y-98876188D01*
X183200528Y-98894000D01*
X183321472Y-98894000D01*
X183502318Y-98876188D01*
X183734363Y-98805798D01*
X183948216Y-98691491D01*
X184135660Y-98537660D01*
X184289491Y-98350216D01*
X184403798Y-98136363D01*
X184474188Y-97904318D01*
X184497956Y-97663000D01*
X184474188Y-97421682D01*
X184403798Y-97189637D01*
X184289491Y-96975784D01*
X184135660Y-96788340D01*
X183948216Y-96634509D01*
X183734363Y-96520202D01*
X183502318Y-96449812D01*
X183321472Y-96432000D01*
X183200528Y-96432000D01*
X183019682Y-96449812D01*
X182787637Y-96520202D01*
X182573784Y-96634509D01*
X182386340Y-96788340D01*
X182232509Y-96975784D01*
X182119983Y-97186305D01*
X182065157Y-97031748D01*
X181916178Y-96781645D01*
X181721269Y-96565412D01*
X181487920Y-96391359D01*
X181225099Y-96266175D01*
X181077890Y-96221524D01*
X180848000Y-96342845D01*
X180848000Y-97536000D01*
X180868000Y-97536000D01*
X180868000Y-97790000D01*
X180848000Y-97790000D01*
X180848000Y-97810000D01*
X180594000Y-97810000D01*
X180594000Y-97790000D01*
X180574000Y-97790000D01*
X180574000Y-97536000D01*
X180594000Y-97536000D01*
X180594000Y-96342845D01*
X180468148Y-96276429D01*
X181257578Y-95487000D01*
X181308542Y-95487000D01*
X181431223Y-95462597D01*
X181546785Y-95414729D01*
X181650789Y-95345236D01*
X181739236Y-95256789D01*
X181808729Y-95152785D01*
X181856597Y-95037223D01*
X181881000Y-94914542D01*
X181881000Y-94789458D01*
X181856597Y-94666777D01*
X181808729Y-94551215D01*
X181739236Y-94447211D01*
X181650789Y-94358764D01*
X181546785Y-94289271D01*
X181431223Y-94241403D01*
X181308542Y-94217000D01*
X181183458Y-94217000D01*
X181060777Y-94241403D01*
X180945215Y-94289271D01*
X180841211Y-94358764D01*
X180752764Y-94447211D01*
X180683271Y-94551215D01*
X180635403Y-94666777D01*
X180611000Y-94789458D01*
X180611000Y-94840422D01*
X179852212Y-95599211D01*
X172627971Y-95599211D01*
X172642253Y-95527411D01*
X172642253Y-95402327D01*
X172639777Y-95389881D01*
X172733485Y-95327268D01*
X172821932Y-95238821D01*
X172891425Y-95134817D01*
X172939293Y-95019255D01*
X172963696Y-94896574D01*
X172963696Y-94771490D01*
X172946456Y-94684822D01*
X173386830Y-94684822D01*
X173427251Y-94782406D01*
X173496744Y-94886410D01*
X173585191Y-94974857D01*
X173689195Y-95044350D01*
X173804757Y-95092218D01*
X173927438Y-95116621D01*
X174052522Y-95116621D01*
X174175203Y-95092218D01*
X174290765Y-95044350D01*
X174394769Y-94974857D01*
X174483216Y-94886410D01*
X174552709Y-94782406D01*
X174600577Y-94666844D01*
X174608447Y-94627281D01*
X174705215Y-94691939D01*
X174820777Y-94739807D01*
X174943458Y-94764210D01*
X175068542Y-94764210D01*
X175191223Y-94739807D01*
X175306785Y-94691939D01*
X175410789Y-94622446D01*
X175499236Y-94533999D01*
X175568729Y-94429995D01*
X175616597Y-94314433D01*
X175641000Y-94191752D01*
X175641000Y-94066668D01*
X175616597Y-93943987D01*
X175598630Y-93900611D01*
X177598615Y-93900611D01*
X177626622Y-93928617D01*
X177640939Y-93946063D01*
X177710556Y-94003197D01*
X177733757Y-94015598D01*
X177789982Y-94045651D01*
X177810041Y-94051736D01*
X177876165Y-94071795D01*
X177877715Y-94071948D01*
X177920213Y-94114446D01*
X178024217Y-94183939D01*
X178139779Y-94231807D01*
X178262460Y-94256210D01*
X178387544Y-94256210D01*
X178510225Y-94231807D01*
X178625787Y-94183939D01*
X178729791Y-94114446D01*
X178818238Y-94025999D01*
X178887731Y-93921995D01*
X178935599Y-93806433D01*
X178960002Y-93683752D01*
X178960002Y-93558668D01*
X178957920Y-93548200D01*
X180825550Y-93548200D01*
X180848000Y-93550411D01*
X180870450Y-93548200D01*
X180870460Y-93548200D01*
X180937627Y-93541585D01*
X181023809Y-93515441D01*
X181103236Y-93472987D01*
X181172853Y-93415853D01*
X181187174Y-93398403D01*
X181370527Y-93215050D01*
X181421492Y-93215050D01*
X181544173Y-93190647D01*
X181659735Y-93142779D01*
X181763739Y-93073286D01*
X181852186Y-92984839D01*
X181921679Y-92880835D01*
X181969547Y-92765273D01*
X181993950Y-92642592D01*
X181993950Y-92517508D01*
X181969547Y-92394827D01*
X181921679Y-92279265D01*
X181852186Y-92175261D01*
X181763739Y-92086814D01*
X181659735Y-92017321D01*
X181544173Y-91969453D01*
X181421492Y-91945050D01*
X181296408Y-91945050D01*
X181173727Y-91969453D01*
X181058165Y-92017321D01*
X180954161Y-92086814D01*
X180865714Y-92175261D01*
X180796221Y-92279265D01*
X180748353Y-92394827D01*
X180723950Y-92517508D01*
X180723950Y-92568473D01*
X180658623Y-92633800D01*
X159444825Y-92633800D01*
X159408789Y-92597764D01*
X159304785Y-92528271D01*
X159189223Y-92480403D01*
X159066542Y-92456000D01*
X158941458Y-92456000D01*
X158818777Y-92480403D01*
X158703215Y-92528271D01*
X158599211Y-92597764D01*
X158510764Y-92686211D01*
X158441271Y-92790215D01*
X158393403Y-92905777D01*
X158369000Y-93028458D01*
X158369000Y-93153542D01*
X158371080Y-93164001D01*
X155956000Y-93164001D01*
X155956000Y-93155458D01*
X155931597Y-93032777D01*
X155883729Y-92917215D01*
X155814236Y-92813211D01*
X155725789Y-92724764D01*
X155621785Y-92655271D01*
X155506223Y-92607403D01*
X155383542Y-92583000D01*
X155258458Y-92583000D01*
X155135777Y-92607403D01*
X155020215Y-92655271D01*
X154916211Y-92724764D01*
X154827764Y-92813211D01*
X154758271Y-92917215D01*
X154710403Y-93032777D01*
X154686000Y-93155458D01*
X154686000Y-93280542D01*
X154710403Y-93403223D01*
X154757288Y-93516412D01*
X145597992Y-93516413D01*
X145415000Y-93333422D01*
X145415000Y-93282458D01*
X145390597Y-93159777D01*
X145342729Y-93044215D01*
X145273236Y-92940211D01*
X145184789Y-92851764D01*
X145080785Y-92782271D01*
X144965223Y-92734403D01*
X144842542Y-92710000D01*
X144717458Y-92710000D01*
X144594777Y-92734403D01*
X144479215Y-92782271D01*
X144375211Y-92851764D01*
X144286764Y-92940211D01*
X144217271Y-93044215D01*
X144169403Y-93159777D01*
X144155694Y-93228694D01*
X144086777Y-93242403D01*
X143971215Y-93290271D01*
X143867211Y-93359764D01*
X143778764Y-93448211D01*
X143750854Y-93489982D01*
X143738260Y-93459578D01*
X143668767Y-93355574D01*
X143580320Y-93267127D01*
X143476316Y-93197634D01*
X143360754Y-93149766D01*
X143238073Y-93125363D01*
X143162326Y-93125363D01*
X143148262Y-93054657D01*
X143100394Y-92939095D01*
X143030901Y-92835091D01*
X142942454Y-92746644D01*
X142838450Y-92677151D01*
X142722888Y-92629283D01*
X142600207Y-92604880D01*
X142475123Y-92604880D01*
X142352442Y-92629283D01*
X142236880Y-92677151D01*
X142132876Y-92746644D01*
X142044429Y-92835091D01*
X141974936Y-92939095D01*
X141927068Y-93054657D01*
X141902665Y-93177338D01*
X117500000Y-93177338D01*
X117500000Y-88494327D01*
X136687096Y-88494327D01*
X136687096Y-88619411D01*
X136711499Y-88742092D01*
X136759367Y-88857654D01*
X136828860Y-88961658D01*
X136917307Y-89050105D01*
X137021311Y-89119598D01*
X137136873Y-89167466D01*
X137259554Y-89191869D01*
X137384638Y-89191869D01*
X137507319Y-89167466D01*
X137622881Y-89119598D01*
X137726885Y-89050105D01*
X137815332Y-88961658D01*
X137884825Y-88857654D01*
X137932693Y-88742092D01*
X137957096Y-88619411D01*
X137957096Y-88568446D01*
X138809428Y-87716115D01*
X138829142Y-87815223D01*
X138877010Y-87930785D01*
X138946503Y-88034789D01*
X139034950Y-88123236D01*
X139138954Y-88192729D01*
X139225159Y-88228437D01*
X139181552Y-88333711D01*
X139157149Y-88456392D01*
X139157149Y-88581476D01*
X139181552Y-88704157D01*
X139229420Y-88819719D01*
X139298913Y-88923723D01*
X139387360Y-89012170D01*
X139491364Y-89081663D01*
X139525736Y-89095900D01*
X139509559Y-89177225D01*
X139509559Y-89302309D01*
X139533962Y-89424990D01*
X139581830Y-89540552D01*
X139651323Y-89644556D01*
X139739770Y-89733003D01*
X139843774Y-89802496D01*
X139915410Y-89832169D01*
X139886383Y-89902245D01*
X139861980Y-90024926D01*
X139861980Y-90150010D01*
X139886383Y-90272691D01*
X139934251Y-90388253D01*
X140003744Y-90492257D01*
X140092191Y-90580704D01*
X140196195Y-90650197D01*
X140265581Y-90678938D01*
X140238793Y-90743608D01*
X140214390Y-90866289D01*
X140214390Y-90991373D01*
X140238793Y-91114054D01*
X140286661Y-91229616D01*
X140356154Y-91333620D01*
X140444601Y-91422067D01*
X140548605Y-91491560D01*
X140664167Y-91539428D01*
X140786848Y-91563831D01*
X140911932Y-91563831D01*
X141034613Y-91539428D01*
X141150175Y-91491560D01*
X141254179Y-91422067D01*
X141290215Y-91386031D01*
X143967429Y-91386031D01*
X144016421Y-91435023D01*
X144120425Y-91504516D01*
X144235987Y-91552384D01*
X144358668Y-91576787D01*
X144483752Y-91576787D01*
X144606433Y-91552384D01*
X144721995Y-91504516D01*
X144825999Y-91435023D01*
X144914446Y-91346576D01*
X144983939Y-91242572D01*
X145031807Y-91127010D01*
X145056210Y-91004329D01*
X145056210Y-90879245D01*
X145031807Y-90756564D01*
X144983939Y-90641002D01*
X144914446Y-90536998D01*
X144885837Y-90508389D01*
X144914446Y-90479779D01*
X144983939Y-90375775D01*
X145031807Y-90260213D01*
X145056210Y-90137532D01*
X145056210Y-90012448D01*
X145031807Y-89889767D01*
X144983939Y-89774205D01*
X144918763Y-89676662D01*
X144983939Y-89579118D01*
X145031807Y-89463556D01*
X145056210Y-89340875D01*
X145056210Y-89215791D01*
X145031807Y-89093110D01*
X144983939Y-88977548D01*
X144914446Y-88873544D01*
X144908797Y-88867895D01*
X144914446Y-88862245D01*
X144983939Y-88758241D01*
X145031807Y-88642679D01*
X145056210Y-88519998D01*
X145056210Y-88394914D01*
X145031807Y-88272233D01*
X144983939Y-88156671D01*
X144931801Y-88078641D01*
X144983939Y-88000611D01*
X145031807Y-87885049D01*
X145056210Y-87762368D01*
X145056210Y-87663787D01*
X146662360Y-89269938D01*
X146676677Y-89287383D01*
X146694122Y-89301700D01*
X146746294Y-89344517D01*
X146825720Y-89386971D01*
X146845295Y-89392909D01*
X146911903Y-89413115D01*
X146979070Y-89419730D01*
X146979080Y-89419730D01*
X147001530Y-89421941D01*
X147023980Y-89419730D01*
X152659488Y-89419730D01*
X152595777Y-89432403D01*
X152480215Y-89480271D01*
X152376211Y-89549764D01*
X152287764Y-89638211D01*
X152218271Y-89742215D01*
X152170403Y-89857777D01*
X152146000Y-89980458D01*
X152146000Y-90105542D01*
X152170403Y-90228223D01*
X152218271Y-90343785D01*
X152287764Y-90447789D01*
X152376211Y-90536236D01*
X152480215Y-90605729D01*
X152595777Y-90653597D01*
X152718458Y-90678000D01*
X152843542Y-90678000D01*
X152966223Y-90653597D01*
X153081785Y-90605729D01*
X153185789Y-90536236D01*
X153221825Y-90500200D01*
X154532779Y-90500200D01*
X154532779Y-90515856D01*
X154557182Y-90638537D01*
X154605050Y-90754099D01*
X154674543Y-90858103D01*
X154762990Y-90946550D01*
X154866994Y-91016043D01*
X154982556Y-91063911D01*
X155105237Y-91088314D01*
X155230321Y-91088314D01*
X155353002Y-91063911D01*
X155468564Y-91016043D01*
X155572568Y-90946550D01*
X155661015Y-90858103D01*
X155730508Y-90754099D01*
X155778376Y-90638537D01*
X155802779Y-90515856D01*
X155802779Y-90390772D01*
X155778376Y-90268091D01*
X155730508Y-90152529D01*
X155661015Y-90048525D01*
X155572568Y-89960078D01*
X155569923Y-89958311D01*
X155576376Y-89955638D01*
X155680380Y-89886145D01*
X155768827Y-89797698D01*
X155838320Y-89693694D01*
X155886188Y-89578132D01*
X155906772Y-89474651D01*
X156372939Y-89940819D01*
X156387256Y-89958264D01*
X156404701Y-89972581D01*
X156456872Y-90015398D01*
X156499326Y-90038089D01*
X156536300Y-90057852D01*
X156622482Y-90083996D01*
X156689649Y-90090611D01*
X156689658Y-90090611D01*
X156712108Y-90092822D01*
X156734558Y-90090611D01*
X165995139Y-90090611D01*
X166017589Y-90092822D01*
X166040039Y-90090611D01*
X166040049Y-90090611D01*
X166107216Y-90083996D01*
X166193398Y-90057852D01*
X166272825Y-90015398D01*
X166342442Y-89958264D01*
X166356763Y-89940814D01*
X167270578Y-89027000D01*
X167321542Y-89027000D01*
X167444223Y-89002597D01*
X167559785Y-88954729D01*
X167663789Y-88885236D01*
X167752236Y-88796789D01*
X167821729Y-88692785D01*
X167869597Y-88577223D01*
X167894000Y-88454542D01*
X167894000Y-88329458D01*
X167869597Y-88206777D01*
X167821729Y-88091215D01*
X167752236Y-87987211D01*
X167663789Y-87898764D01*
X167559785Y-87829271D01*
X167444223Y-87781403D01*
X167321542Y-87757000D01*
X167196458Y-87757000D01*
X167073777Y-87781403D01*
X166958215Y-87829271D01*
X166854211Y-87898764D01*
X166765764Y-87987211D01*
X166696271Y-88091215D01*
X166648403Y-88206777D01*
X166624000Y-88329458D01*
X166624000Y-88380422D01*
X165828212Y-89176211D01*
X163333157Y-89176211D01*
X163506864Y-89002504D01*
X163604449Y-89042925D01*
X163727130Y-89067328D01*
X163852214Y-89067328D01*
X163974895Y-89042925D01*
X164090457Y-88995057D01*
X164194461Y-88925564D01*
X164282908Y-88837117D01*
X164352401Y-88733113D01*
X164400269Y-88617551D01*
X164424672Y-88494870D01*
X164424672Y-88369786D01*
X164400269Y-88247105D01*
X164352401Y-88131543D01*
X164282908Y-88027539D01*
X164194461Y-87939092D01*
X164090457Y-87869599D01*
X163974895Y-87821731D01*
X163852214Y-87797328D01*
X163727130Y-87797328D01*
X163604449Y-87821731D01*
X163488887Y-87869599D01*
X163384883Y-87939092D01*
X163342385Y-87981590D01*
X163340835Y-87981743D01*
X163254653Y-88007887D01*
X163221207Y-88025764D01*
X163175225Y-88050341D01*
X163123054Y-88093158D01*
X163105609Y-88107475D01*
X163091292Y-88124920D01*
X162392413Y-88823800D01*
X160326046Y-88823800D01*
X160328729Y-88819785D01*
X160376597Y-88704223D01*
X160401000Y-88581542D01*
X160401000Y-88456458D01*
X160376597Y-88333777D01*
X160328729Y-88218215D01*
X160314893Y-88197508D01*
X160380671Y-88184424D01*
X160496233Y-88136556D01*
X160600237Y-88067063D01*
X160688684Y-87978616D01*
X160758177Y-87874612D01*
X160806045Y-87759050D01*
X160830448Y-87636369D01*
X160830448Y-87550487D01*
X166865559Y-87550487D01*
X166901595Y-87586523D01*
X167005599Y-87656016D01*
X167121161Y-87703884D01*
X167243842Y-87728287D01*
X167368926Y-87728287D01*
X167491607Y-87703884D01*
X167607169Y-87656016D01*
X167711173Y-87586523D01*
X167799620Y-87498076D01*
X167869113Y-87394072D01*
X167916981Y-87278510D01*
X167941384Y-87155829D01*
X167941384Y-87030745D01*
X167916981Y-86908064D01*
X167869113Y-86792502D01*
X167799620Y-86688498D01*
X167769996Y-86658874D01*
X167802762Y-86579772D01*
X167827165Y-86457091D01*
X167827165Y-86332007D01*
X167822628Y-86309200D01*
X177613175Y-86309200D01*
X177649211Y-86345236D01*
X177753215Y-86414729D01*
X177868777Y-86462597D01*
X177991458Y-86487000D01*
X178116542Y-86487000D01*
X178239223Y-86462597D01*
X178354785Y-86414729D01*
X178458789Y-86345236D01*
X178547236Y-86256789D01*
X178616729Y-86152785D01*
X178664597Y-86037223D01*
X178689000Y-85914542D01*
X178689000Y-85789458D01*
X178664597Y-85666777D01*
X178616729Y-85551215D01*
X178547236Y-85447211D01*
X178458789Y-85358764D01*
X178354785Y-85289271D01*
X178239223Y-85241403D01*
X178116542Y-85217000D01*
X177991458Y-85217000D01*
X177868777Y-85241403D01*
X177753215Y-85289271D01*
X177649211Y-85358764D01*
X177613175Y-85394800D01*
X166994642Y-85394800D01*
X167241857Y-85147586D01*
X167259301Y-85133270D01*
X167299567Y-85084207D01*
X167316435Y-85063654D01*
X167348525Y-85003616D01*
X167358889Y-84984226D01*
X167385033Y-84898044D01*
X167385186Y-84896494D01*
X167427684Y-84853996D01*
X167497177Y-84749992D01*
X167545045Y-84634430D01*
X167569448Y-84511749D01*
X167569448Y-84386665D01*
X167545045Y-84263984D01*
X167497177Y-84148422D01*
X167427684Y-84044418D01*
X167339237Y-83955971D01*
X167235233Y-83886478D01*
X167119671Y-83838610D01*
X166996990Y-83814207D01*
X166871906Y-83814207D01*
X166749225Y-83838610D01*
X166664830Y-83873568D01*
X166769198Y-83769200D01*
X177486175Y-83769200D01*
X177522211Y-83805236D01*
X177626215Y-83874729D01*
X177741777Y-83922597D01*
X177864458Y-83947000D01*
X177989542Y-83947000D01*
X178112223Y-83922597D01*
X178227785Y-83874729D01*
X178331789Y-83805236D01*
X178420236Y-83716789D01*
X178489729Y-83612785D01*
X178537597Y-83497223D01*
X178562000Y-83374542D01*
X178562000Y-83249458D01*
X178537597Y-83126777D01*
X178489729Y-83011215D01*
X178420236Y-82907211D01*
X178331789Y-82818764D01*
X178227785Y-82749271D01*
X178112223Y-82701403D01*
X177989542Y-82677000D01*
X178112223Y-82652597D01*
X178227785Y-82604729D01*
X178331789Y-82535236D01*
X178420236Y-82446789D01*
X178489729Y-82342785D01*
X178537597Y-82227223D01*
X178562000Y-82104542D01*
X178562000Y-81979458D01*
X178537597Y-81856777D01*
X178489729Y-81741215D01*
X178420236Y-81637211D01*
X178331789Y-81548764D01*
X178227785Y-81479271D01*
X178112223Y-81431403D01*
X177989542Y-81407000D01*
X178112223Y-81382597D01*
X178227785Y-81334729D01*
X178331789Y-81265236D01*
X178420236Y-81176789D01*
X178489729Y-81072785D01*
X178537597Y-80957223D01*
X178562000Y-80834542D01*
X178562000Y-80709458D01*
X178537597Y-80586777D01*
X178489729Y-80471215D01*
X178420236Y-80367211D01*
X178331789Y-80278764D01*
X178227785Y-80209271D01*
X178112223Y-80161403D01*
X177989542Y-80137000D01*
X178112223Y-80112597D01*
X178227785Y-80064729D01*
X178331789Y-79995236D01*
X178420236Y-79906789D01*
X178489729Y-79802785D01*
X178537597Y-79687223D01*
X178562000Y-79564542D01*
X178562000Y-79439458D01*
X178537597Y-79316777D01*
X178489729Y-79201215D01*
X178420236Y-79097211D01*
X178331789Y-79008764D01*
X178227785Y-78939271D01*
X178112223Y-78891403D01*
X177989542Y-78867000D01*
X177929438Y-78867000D01*
X177928237Y-78866014D01*
X177848810Y-78823560D01*
X177762628Y-78797416D01*
X177695461Y-78790801D01*
X177695451Y-78790801D01*
X177673001Y-78788590D01*
X177650551Y-78790801D01*
X175894751Y-78790801D01*
X175872301Y-78788590D01*
X175849851Y-78790801D01*
X175849841Y-78790801D01*
X175782674Y-78797416D01*
X175696492Y-78823560D01*
X175617065Y-78866014D01*
X175547448Y-78923148D01*
X175533127Y-78940598D01*
X175428925Y-79044800D01*
X174348074Y-79044800D01*
X174371000Y-78929542D01*
X174371000Y-78804458D01*
X174346597Y-78681777D01*
X174298729Y-78566215D01*
X174229236Y-78462211D01*
X174140789Y-78373764D01*
X174036785Y-78304271D01*
X173921223Y-78256403D01*
X173798542Y-78232000D01*
X173673458Y-78232000D01*
X173550777Y-78256403D01*
X173435215Y-78304271D01*
X173331211Y-78373764D01*
X173295175Y-78409800D01*
X171347037Y-78409800D01*
X171335015Y-78349363D01*
X171287147Y-78233801D01*
X171217654Y-78129797D01*
X171129207Y-78041350D01*
X171025203Y-77971857D01*
X170909641Y-77923989D01*
X170786960Y-77899586D01*
X170661876Y-77899586D01*
X170539195Y-77923989D01*
X170423633Y-77971857D01*
X170319629Y-78041350D01*
X170283593Y-78077386D01*
X168376349Y-78077386D01*
X166844645Y-76545684D01*
X166830324Y-76528234D01*
X166760707Y-76471100D01*
X166681280Y-76428646D01*
X166659204Y-76421949D01*
X167088372Y-76421949D01*
X168021000Y-77354578D01*
X168021000Y-77405542D01*
X168045403Y-77528223D01*
X168093271Y-77643785D01*
X168162764Y-77747789D01*
X168251211Y-77836236D01*
X168355215Y-77905729D01*
X168470777Y-77953597D01*
X168593458Y-77978000D01*
X168718542Y-77978000D01*
X168841223Y-77953597D01*
X168956785Y-77905729D01*
X169060789Y-77836236D01*
X169149236Y-77747789D01*
X169218729Y-77643785D01*
X169266597Y-77528223D01*
X169291000Y-77405542D01*
X169291000Y-77280458D01*
X169266597Y-77157777D01*
X169218729Y-77042215D01*
X169149236Y-76938211D01*
X169060789Y-76849764D01*
X168956785Y-76780271D01*
X168841223Y-76732403D01*
X168718542Y-76708000D01*
X168667578Y-76708000D01*
X167616923Y-75657346D01*
X167602602Y-75639896D01*
X167532985Y-75582762D01*
X167453558Y-75540308D01*
X167367376Y-75514164D01*
X167300209Y-75507549D01*
X167300199Y-75507549D01*
X167277749Y-75505338D01*
X167255299Y-75507549D01*
X160150701Y-75507549D01*
X160128251Y-75505338D01*
X160105801Y-75507549D01*
X160105791Y-75507549D01*
X160038624Y-75514164D01*
X159952442Y-75540308D01*
X159873015Y-75582762D01*
X159835413Y-75613622D01*
X159803398Y-75639896D01*
X159789081Y-75657341D01*
X158823402Y-76623021D01*
X158772437Y-76623021D01*
X158649756Y-76647424D01*
X158534194Y-76695292D01*
X158430190Y-76764785D01*
X158341743Y-76853232D01*
X158272250Y-76957236D01*
X158224382Y-77072798D01*
X158213211Y-77128956D01*
X158095071Y-77128956D01*
X157972390Y-77153359D01*
X157856828Y-77201227D01*
X157752824Y-77270720D01*
X157664377Y-77359167D01*
X157594884Y-77463171D01*
X157547016Y-77578733D01*
X157522613Y-77701414D01*
X157522613Y-77826498D01*
X157547016Y-77949179D01*
X157594884Y-78064741D01*
X157663116Y-78166859D01*
X157644961Y-78185014D01*
X157575468Y-78289018D01*
X157527600Y-78404580D01*
X157503197Y-78527261D01*
X157503197Y-78652345D01*
X157527600Y-78775026D01*
X157575468Y-78890588D01*
X157644961Y-78994592D01*
X157648761Y-78998392D01*
X157602352Y-79044800D01*
X155458830Y-79044800D01*
X154760983Y-78346954D01*
X154746662Y-78329504D01*
X154677045Y-78272370D01*
X154597618Y-78229916D01*
X154511436Y-78203772D01*
X154444269Y-78197157D01*
X154444259Y-78197157D01*
X154421809Y-78194946D01*
X154399359Y-78197157D01*
X145434556Y-78197157D01*
X145412106Y-78194946D01*
X145389656Y-78197157D01*
X145389647Y-78197157D01*
X145322480Y-78203772D01*
X145236298Y-78229916D01*
X145181468Y-78259223D01*
X145156871Y-78272370D01*
X145129592Y-78294758D01*
X145087254Y-78329504D01*
X145072937Y-78346949D01*
X144849790Y-78570096D01*
X144844242Y-78556702D01*
X144805838Y-78499226D01*
X144826275Y-78478789D01*
X144895768Y-78374785D01*
X144943636Y-78259223D01*
X144968039Y-78136542D01*
X144968039Y-78011458D01*
X144943636Y-77888777D01*
X144895768Y-77773215D01*
X144844136Y-77695941D01*
X144861288Y-77678789D01*
X144930781Y-77574785D01*
X144978649Y-77459223D01*
X145003052Y-77336542D01*
X145003052Y-77211458D01*
X144978649Y-77088777D01*
X144930781Y-76973215D01*
X144861288Y-76869211D01*
X144772841Y-76780764D01*
X144668837Y-76711271D01*
X144553275Y-76663403D01*
X144430594Y-76639000D01*
X144305510Y-76639000D01*
X144182829Y-76663403D01*
X144129075Y-76685669D01*
X138689956Y-76685669D01*
X138653920Y-76649633D01*
X138549916Y-76580140D01*
X138434354Y-76532272D01*
X138311673Y-76507869D01*
X138186589Y-76507869D01*
X138063908Y-76532272D01*
X137948346Y-76580140D01*
X137844342Y-76649633D01*
X137755895Y-76738080D01*
X137686402Y-76842084D01*
X137638534Y-76957646D01*
X137614131Y-77080327D01*
X137614131Y-77205411D01*
X137638534Y-77328092D01*
X137686402Y-77443654D01*
X137755895Y-77547658D01*
X137844342Y-77636105D01*
X137948346Y-77705598D01*
X138031276Y-77739949D01*
X137990944Y-77837318D01*
X137966541Y-77959999D01*
X137966541Y-78085083D01*
X137990944Y-78207764D01*
X138038812Y-78323326D01*
X138108305Y-78427330D01*
X138196752Y-78515777D01*
X138300756Y-78585270D01*
X138357621Y-78608825D01*
X138327403Y-78681777D01*
X138303000Y-78804458D01*
X138303000Y-78929542D01*
X138327403Y-79052223D01*
X138375271Y-79167785D01*
X138444764Y-79271789D01*
X138533211Y-79360236D01*
X138637215Y-79429729D01*
X138747846Y-79475554D01*
X138708403Y-79570777D01*
X138684000Y-79693458D01*
X138684000Y-79818542D01*
X138708403Y-79941223D01*
X138756271Y-80056785D01*
X138825764Y-80160789D01*
X138914211Y-80249236D01*
X139018215Y-80318729D01*
X139133777Y-80366597D01*
X139162946Y-80372399D01*
X139151681Y-80429034D01*
X139151681Y-80554118D01*
X139176084Y-80676799D01*
X139223952Y-80792361D01*
X139293445Y-80896365D01*
X139381892Y-80984812D01*
X139485896Y-81054305D01*
X139601458Y-81102173D01*
X139696777Y-81121133D01*
X139695880Y-81123300D01*
X139671477Y-81245981D01*
X139671477Y-81371065D01*
X139695880Y-81493746D01*
X139743748Y-81609308D01*
X139813241Y-81713312D01*
X139901688Y-81801759D01*
X140005692Y-81871252D01*
X140121254Y-81919120D01*
X140243935Y-81943523D01*
X140369019Y-81943523D01*
X140491700Y-81919120D01*
X140607262Y-81871252D01*
X140711266Y-81801759D01*
X140799713Y-81713312D01*
X140869206Y-81609308D01*
X140917074Y-81493746D01*
X140928006Y-81438788D01*
X140930782Y-81438788D01*
X140928701Y-81449248D01*
X140928701Y-81574332D01*
X140953104Y-81697013D01*
X141000972Y-81812575D01*
X141070465Y-81916579D01*
X141158912Y-82005026D01*
X141262916Y-82074519D01*
X141378478Y-82122387D01*
X141501159Y-82146790D01*
X141626243Y-82146790D01*
X141748924Y-82122387D01*
X141864486Y-82074519D01*
X141968490Y-82005026D01*
X142004526Y-81968990D01*
X142946049Y-81968990D01*
X142568239Y-82346800D01*
X140394825Y-82346800D01*
X140358789Y-82310764D01*
X140254785Y-82241271D01*
X140139223Y-82193403D01*
X140016542Y-82169000D01*
X139891458Y-82169000D01*
X139768777Y-82193403D01*
X139653215Y-82241271D01*
X139549211Y-82310764D01*
X139460764Y-82399211D01*
X139432207Y-82441949D01*
X139357225Y-82427034D01*
X139232141Y-82427034D01*
X139109460Y-82451437D01*
X138993898Y-82499305D01*
X138889894Y-82568798D01*
X138801447Y-82657245D01*
X138731954Y-82761249D01*
X138684086Y-82876811D01*
X138659683Y-82999492D01*
X138659683Y-83124576D01*
X138684086Y-83247257D01*
X138731954Y-83362819D01*
X138801447Y-83466823D01*
X138889894Y-83555270D01*
X138993898Y-83624763D01*
X139109460Y-83672631D01*
X139232141Y-83697034D01*
X139283106Y-83697034D01*
X140613681Y-85027611D01*
X139268189Y-85027611D01*
X138499888Y-84259311D01*
X138499888Y-84195570D01*
X138475485Y-84072889D01*
X138427617Y-83957327D01*
X138358124Y-83853323D01*
X138269677Y-83764876D01*
X138165673Y-83695383D01*
X138050111Y-83647515D01*
X137927430Y-83623112D01*
X137802346Y-83623112D01*
X137679665Y-83647515D01*
X137564103Y-83695383D01*
X137460099Y-83764876D01*
X137371652Y-83853323D01*
X137302159Y-83957327D01*
X137254291Y-84072889D01*
X137229888Y-84195570D01*
X137229888Y-84320654D01*
X137254291Y-84443335D01*
X137302159Y-84558897D01*
X137371652Y-84662901D01*
X137460099Y-84751348D01*
X137564103Y-84820841D01*
X137679665Y-84868709D01*
X137802346Y-84893112D01*
X137840535Y-84893112D01*
X138115005Y-85167582D01*
X138107285Y-85169118D01*
X137991723Y-85216986D01*
X137887719Y-85286479D01*
X137799272Y-85374926D01*
X137729779Y-85478930D01*
X137681911Y-85594492D01*
X137657508Y-85717173D01*
X137657508Y-85842257D01*
X137681911Y-85964938D01*
X137729779Y-86080500D01*
X137799272Y-86184504D01*
X137863035Y-86248267D01*
X137662930Y-86448373D01*
X137611965Y-86448373D01*
X137489284Y-86472776D01*
X137373722Y-86520644D01*
X137269718Y-86590137D01*
X137181271Y-86678584D01*
X137111778Y-86782588D01*
X137063910Y-86898150D01*
X137039507Y-87020831D01*
X137039507Y-87145915D01*
X137063910Y-87268596D01*
X137111778Y-87384158D01*
X137181271Y-87488162D01*
X137269718Y-87576609D01*
X137373722Y-87646102D01*
X137489284Y-87693970D01*
X137530266Y-87702122D01*
X137310519Y-87921869D01*
X137259554Y-87921869D01*
X137136873Y-87946272D01*
X137021311Y-87994140D01*
X136917307Y-88063633D01*
X136828860Y-88152080D01*
X136759367Y-88256084D01*
X136711499Y-88371646D01*
X136687096Y-88494327D01*
X117500000Y-88494327D01*
X117500000Y-75278000D01*
X171443928Y-75278000D01*
X171456188Y-75402482D01*
X171492498Y-75522180D01*
X171551463Y-75632494D01*
X171630815Y-75729185D01*
X171727506Y-75808537D01*
X171837820Y-75867502D01*
X171957518Y-75903812D01*
X172082000Y-75916072D01*
X172321250Y-75913000D01*
X172480000Y-75754250D01*
X172480000Y-74930000D01*
X171605750Y-74930000D01*
X171447000Y-75088750D01*
X171443928Y-75278000D01*
X117500000Y-75278000D01*
X117500000Y-74328000D01*
X171443928Y-74328000D01*
X171447000Y-74517250D01*
X171605750Y-74676000D01*
X172480000Y-74676000D01*
X172480000Y-73851750D01*
X172321250Y-73693000D01*
X172082000Y-73689928D01*
X171957518Y-73702188D01*
X171837820Y-73738498D01*
X171727506Y-73797463D01*
X171630815Y-73876815D01*
X171551463Y-73973506D01*
X171492498Y-74083820D01*
X171456188Y-74203518D01*
X171443928Y-74328000D01*
X117500000Y-74328000D01*
X117500000Y-72923000D01*
X174102979Y-72923000D01*
X174083951Y-72951478D01*
G36*
X147796224Y-81293211D02*
G01*
X147764500Y-81452695D01*
X147764500Y-81615305D01*
X147796224Y-81774789D01*
X147858452Y-81925021D01*
X147948792Y-82060225D01*
X148005800Y-82117233D01*
X148005800Y-82321191D01*
X148005155Y-82321720D01*
X147973225Y-82289790D01*
X147838021Y-82199450D01*
X147687789Y-82137222D01*
X147528305Y-82105498D01*
X147365695Y-82105498D01*
X147206211Y-82137222D01*
X147055979Y-82199450D01*
X146920775Y-82289790D01*
X146805792Y-82404773D01*
X146715452Y-82539977D01*
X146653224Y-82690209D01*
X146621500Y-82849693D01*
X146621500Y-83012303D01*
X146653224Y-83171787D01*
X146715452Y-83322019D01*
X146805792Y-83457223D01*
X146920775Y-83572206D01*
X147055979Y-83662546D01*
X147206211Y-83724774D01*
X147365695Y-83756498D01*
X147528305Y-83756498D01*
X147687789Y-83724774D01*
X147730699Y-83707000D01*
X147811077Y-83707000D01*
X147836704Y-83754944D01*
X147849020Y-83769951D01*
X147760506Y-83817263D01*
X147663815Y-83896615D01*
X147584463Y-83993306D01*
X147525498Y-84103620D01*
X147489188Y-84223318D01*
X147476928Y-84347800D01*
X147480000Y-84587050D01*
X147638750Y-84745800D01*
X148463000Y-84745800D01*
X148463000Y-84725800D01*
X148717000Y-84725800D01*
X148717000Y-84745800D01*
X149541250Y-84745800D01*
X149700000Y-84587050D01*
X149703072Y-84347800D01*
X149690812Y-84223318D01*
X149654502Y-84103620D01*
X149595537Y-83993306D01*
X149516185Y-83896615D01*
X149419494Y-83817263D01*
X149330980Y-83769951D01*
X149343296Y-83754944D01*
X149368923Y-83707000D01*
X152390969Y-83707000D01*
X152393792Y-83711225D01*
X152508775Y-83826208D01*
X152643979Y-83916548D01*
X152794211Y-83978776D01*
X152953695Y-84010500D01*
X153116305Y-84010500D01*
X153275789Y-83978776D01*
X153426021Y-83916548D01*
X153561225Y-83826208D01*
X153676208Y-83711225D01*
X153766548Y-83576021D01*
X153828776Y-83425789D01*
X153860500Y-83266305D01*
X153860500Y-83103695D01*
X153828776Y-82944211D01*
X153766548Y-82793979D01*
X153676208Y-82658775D01*
X153561225Y-82543792D01*
X153426021Y-82453452D01*
X153275789Y-82391224D01*
X153116305Y-82359500D01*
X152953695Y-82359500D01*
X152794211Y-82391224D01*
X152643979Y-82453452D01*
X152516545Y-82538600D01*
X149368923Y-82538600D01*
X149343296Y-82490656D01*
X149266149Y-82396651D01*
X149174200Y-82321191D01*
X149174200Y-82117233D01*
X149231208Y-82060225D01*
X149321548Y-81925021D01*
X149383776Y-81774789D01*
X149415500Y-81615305D01*
X149415500Y-81452695D01*
X149383776Y-81293211D01*
X149357262Y-81229200D01*
X153858157Y-81229200D01*
X156745327Y-84116372D01*
X155352195Y-84116372D01*
X155329745Y-84114161D01*
X155307295Y-84116372D01*
X155307286Y-84116372D01*
X155240119Y-84122987D01*
X155153937Y-84149131D01*
X155116963Y-84168894D01*
X155074509Y-84191585D01*
X155034051Y-84224789D01*
X155004893Y-84248719D01*
X154990576Y-84266164D01*
X154302270Y-84954471D01*
X154207986Y-84891472D01*
X154092424Y-84843604D01*
X153969743Y-84819201D01*
X153844659Y-84819201D01*
X153721978Y-84843604D01*
X153606416Y-84891472D01*
X153502412Y-84960965D01*
X153413965Y-85049412D01*
X153344472Y-85153416D01*
X153296604Y-85268978D01*
X153294077Y-85281681D01*
X153291049Y-85281979D01*
X150680908Y-85281979D01*
X150658458Y-85279768D01*
X150636008Y-85281979D01*
X150635999Y-85281979D01*
X150568832Y-85288594D01*
X150482650Y-85314738D01*
X150455724Y-85329130D01*
X150403222Y-85357192D01*
X150367343Y-85386638D01*
X150333606Y-85414326D01*
X150319289Y-85431771D01*
X149848261Y-85902800D01*
X149450611Y-85902800D01*
X149516185Y-85848985D01*
X149595537Y-85752294D01*
X149654502Y-85641980D01*
X149690812Y-85522282D01*
X149703072Y-85397800D01*
X149700000Y-85158550D01*
X149541250Y-84999800D01*
X148717000Y-84999800D01*
X148717000Y-85019800D01*
X148463000Y-85019800D01*
X148463000Y-84999800D01*
X147868924Y-84999800D01*
X147858324Y-84991101D01*
X147778897Y-84948647D01*
X147692715Y-84922503D01*
X147625548Y-84915888D01*
X147625538Y-84915888D01*
X147603088Y-84913677D01*
X147580638Y-84915888D01*
X144490466Y-84915888D01*
X144068332Y-84493755D01*
X144054011Y-84476305D01*
X143984394Y-84419171D01*
X143904967Y-84376717D01*
X143818785Y-84350573D01*
X143751618Y-84343958D01*
X143751608Y-84343958D01*
X143729158Y-84341747D01*
X143706708Y-84343958D01*
X142598810Y-84343958D01*
X142644789Y-84313236D01*
X142733236Y-84224789D01*
X142802729Y-84120785D01*
X142850597Y-84005223D01*
X142875000Y-83882542D01*
X142875000Y-83831577D01*
X145477378Y-81229200D01*
X147822738Y-81229200D01*
X147796224Y-81293211D01*
X147796224Y-81293211D01*
G37*
X147796224Y-81293211D02*
X147764500Y-81452695D01*
X147764500Y-81615305D01*
X147796224Y-81774789D01*
X147858452Y-81925021D01*
X147948792Y-82060225D01*
X148005800Y-82117233D01*
X148005800Y-82321191D01*
X148005155Y-82321720D01*
X147973225Y-82289790D01*
X147838021Y-82199450D01*
X147687789Y-82137222D01*
X147528305Y-82105498D01*
X147365695Y-82105498D01*
X147206211Y-82137222D01*
X147055979Y-82199450D01*
X146920775Y-82289790D01*
X146805792Y-82404773D01*
X146715452Y-82539977D01*
X146653224Y-82690209D01*
X146621500Y-82849693D01*
X146621500Y-83012303D01*
X146653224Y-83171787D01*
X146715452Y-83322019D01*
X146805792Y-83457223D01*
X146920775Y-83572206D01*
X147055979Y-83662546D01*
X147206211Y-83724774D01*
X147365695Y-83756498D01*
X147528305Y-83756498D01*
X147687789Y-83724774D01*
X147730699Y-83707000D01*
X147811077Y-83707000D01*
X147836704Y-83754944D01*
X147849020Y-83769951D01*
X147760506Y-83817263D01*
X147663815Y-83896615D01*
X147584463Y-83993306D01*
X147525498Y-84103620D01*
X147489188Y-84223318D01*
X147476928Y-84347800D01*
X147480000Y-84587050D01*
X147638750Y-84745800D01*
X148463000Y-84745800D01*
X148463000Y-84725800D01*
X148717000Y-84725800D01*
X148717000Y-84745800D01*
X149541250Y-84745800D01*
X149700000Y-84587050D01*
X149703072Y-84347800D01*
X149690812Y-84223318D01*
X149654502Y-84103620D01*
X149595537Y-83993306D01*
X149516185Y-83896615D01*
X149419494Y-83817263D01*
X149330980Y-83769951D01*
X149343296Y-83754944D01*
X149368923Y-83707000D01*
X152390969Y-83707000D01*
X152393792Y-83711225D01*
X152508775Y-83826208D01*
X152643979Y-83916548D01*
X152794211Y-83978776D01*
X152953695Y-84010500D01*
X153116305Y-84010500D01*
X153275789Y-83978776D01*
X153426021Y-83916548D01*
X153561225Y-83826208D01*
X153676208Y-83711225D01*
X153766548Y-83576021D01*
X153828776Y-83425789D01*
X153860500Y-83266305D01*
X153860500Y-83103695D01*
X153828776Y-82944211D01*
X153766548Y-82793979D01*
X153676208Y-82658775D01*
X153561225Y-82543792D01*
X153426021Y-82453452D01*
X153275789Y-82391224D01*
X153116305Y-82359500D01*
X152953695Y-82359500D01*
X152794211Y-82391224D01*
X152643979Y-82453452D01*
X152516545Y-82538600D01*
X149368923Y-82538600D01*
X149343296Y-82490656D01*
X149266149Y-82396651D01*
X149174200Y-82321191D01*
X149174200Y-82117233D01*
X149231208Y-82060225D01*
X149321548Y-81925021D01*
X149383776Y-81774789D01*
X149415500Y-81615305D01*
X149415500Y-81452695D01*
X149383776Y-81293211D01*
X149357262Y-81229200D01*
X153858157Y-81229200D01*
X156745327Y-84116372D01*
X155352195Y-84116372D01*
X155329745Y-84114161D01*
X155307295Y-84116372D01*
X155307286Y-84116372D01*
X155240119Y-84122987D01*
X155153937Y-84149131D01*
X155116963Y-84168894D01*
X155074509Y-84191585D01*
X155034051Y-84224789D01*
X155004893Y-84248719D01*
X154990576Y-84266164D01*
X154302270Y-84954471D01*
X154207986Y-84891472D01*
X154092424Y-84843604D01*
X153969743Y-84819201D01*
X153844659Y-84819201D01*
X153721978Y-84843604D01*
X153606416Y-84891472D01*
X153502412Y-84960965D01*
X153413965Y-85049412D01*
X153344472Y-85153416D01*
X153296604Y-85268978D01*
X153294077Y-85281681D01*
X153291049Y-85281979D01*
X150680908Y-85281979D01*
X150658458Y-85279768D01*
X150636008Y-85281979D01*
X150635999Y-85281979D01*
X150568832Y-85288594D01*
X150482650Y-85314738D01*
X150455724Y-85329130D01*
X150403222Y-85357192D01*
X150367343Y-85386638D01*
X150333606Y-85414326D01*
X150319289Y-85431771D01*
X149848261Y-85902800D01*
X149450611Y-85902800D01*
X149516185Y-85848985D01*
X149595537Y-85752294D01*
X149654502Y-85641980D01*
X149690812Y-85522282D01*
X149703072Y-85397800D01*
X149700000Y-85158550D01*
X149541250Y-84999800D01*
X148717000Y-84999800D01*
X148717000Y-85019800D01*
X148463000Y-85019800D01*
X148463000Y-84999800D01*
X147868924Y-84999800D01*
X147858324Y-84991101D01*
X147778897Y-84948647D01*
X147692715Y-84922503D01*
X147625548Y-84915888D01*
X147625538Y-84915888D01*
X147603088Y-84913677D01*
X147580638Y-84915888D01*
X144490466Y-84915888D01*
X144068332Y-84493755D01*
X144054011Y-84476305D01*
X143984394Y-84419171D01*
X143904967Y-84376717D01*
X143818785Y-84350573D01*
X143751618Y-84343958D01*
X143751608Y-84343958D01*
X143729158Y-84341747D01*
X143706708Y-84343958D01*
X142598810Y-84343958D01*
X142644789Y-84313236D01*
X142733236Y-84224789D01*
X142802729Y-84120785D01*
X142850597Y-84005223D01*
X142875000Y-83882542D01*
X142875000Y-83831577D01*
X145477378Y-81229200D01*
X147822738Y-81229200D01*
X147796224Y-81293211D01*
M02*
