G04 #@! TF.GenerationSoftware,KiCad,Pcbnew,(5.1.2-1)-1*
G04 #@! TF.CreationDate,2019-07-03T01:56:20-07:00*
G04 #@! TF.ProjectId,ram_board,72616d5f-626f-4617-9264-2e6b69636164,rev?*
G04 #@! TF.SameCoordinates,Original*
G04 #@! TF.FileFunction,Soldermask,Top*
G04 #@! TF.FilePolarity,Negative*
%FSLAX46Y46*%
G04 Gerber Fmt 4.6, Leading zero omitted, Abs format (unit mm)*
G04 Created by KiCad (PCBNEW (5.1.2-1)-1) date 2019-07-03 01:56:20*
%MOMM*%
%LPD*%
G04 APERTURE LIST*
%ADD10C,0.100000*%
G04 APERTURE END LIST*
D10*
G36*
X188451443Y-99308519D02*
G01*
X188517627Y-99315037D01*
X188687466Y-99366557D01*
X188843991Y-99450222D01*
X188879729Y-99479552D01*
X188981186Y-99562814D01*
X189064448Y-99664271D01*
X189093778Y-99700009D01*
X189177443Y-99856534D01*
X189228963Y-100026373D01*
X189246359Y-100203000D01*
X189228963Y-100379627D01*
X189177443Y-100549466D01*
X189093778Y-100705991D01*
X189085411Y-100716186D01*
X188981186Y-100843186D01*
X188879729Y-100926448D01*
X188843991Y-100955778D01*
X188687466Y-101039443D01*
X188517627Y-101090963D01*
X188451443Y-101097481D01*
X188385260Y-101104000D01*
X188296740Y-101104000D01*
X188230557Y-101097481D01*
X188164373Y-101090963D01*
X187994534Y-101039443D01*
X187838009Y-100955778D01*
X187802271Y-100926448D01*
X187700814Y-100843186D01*
X187596589Y-100716186D01*
X187588222Y-100705991D01*
X187504557Y-100549466D01*
X187453037Y-100379627D01*
X187435641Y-100203000D01*
X187453037Y-100026373D01*
X187504557Y-99856534D01*
X187588222Y-99700009D01*
X187617552Y-99664271D01*
X187700814Y-99562814D01*
X187802271Y-99479552D01*
X187838009Y-99450222D01*
X187994534Y-99366557D01*
X188164373Y-99315037D01*
X188230557Y-99308519D01*
X188296740Y-99302000D01*
X188385260Y-99302000D01*
X188451443Y-99308519D01*
X188451443Y-99308519D01*
G37*
G36*
X185911443Y-99308519D02*
G01*
X185977627Y-99315037D01*
X186147466Y-99366557D01*
X186303991Y-99450222D01*
X186339729Y-99479552D01*
X186441186Y-99562814D01*
X186524448Y-99664271D01*
X186553778Y-99700009D01*
X186637443Y-99856534D01*
X186688963Y-100026373D01*
X186706359Y-100203000D01*
X186688963Y-100379627D01*
X186637443Y-100549466D01*
X186553778Y-100705991D01*
X186545411Y-100716186D01*
X186441186Y-100843186D01*
X186339729Y-100926448D01*
X186303991Y-100955778D01*
X186147466Y-101039443D01*
X185977627Y-101090963D01*
X185911443Y-101097481D01*
X185845260Y-101104000D01*
X185756740Y-101104000D01*
X185690557Y-101097481D01*
X185624373Y-101090963D01*
X185454534Y-101039443D01*
X185298009Y-100955778D01*
X185262271Y-100926448D01*
X185160814Y-100843186D01*
X185056589Y-100716186D01*
X185048222Y-100705991D01*
X184964557Y-100549466D01*
X184913037Y-100379627D01*
X184895641Y-100203000D01*
X184913037Y-100026373D01*
X184964557Y-99856534D01*
X185048222Y-99700009D01*
X185077552Y-99664271D01*
X185160814Y-99562814D01*
X185262271Y-99479552D01*
X185298009Y-99450222D01*
X185454534Y-99366557D01*
X185624373Y-99315037D01*
X185690557Y-99308519D01*
X185756740Y-99302000D01*
X185845260Y-99302000D01*
X185911443Y-99308519D01*
X185911443Y-99308519D01*
G37*
G36*
X183371443Y-99308519D02*
G01*
X183437627Y-99315037D01*
X183607466Y-99366557D01*
X183763991Y-99450222D01*
X183799729Y-99479552D01*
X183901186Y-99562814D01*
X183984448Y-99664271D01*
X184013778Y-99700009D01*
X184097443Y-99856534D01*
X184148963Y-100026373D01*
X184166359Y-100203000D01*
X184148963Y-100379627D01*
X184097443Y-100549466D01*
X184013778Y-100705991D01*
X184005411Y-100716186D01*
X183901186Y-100843186D01*
X183799729Y-100926448D01*
X183763991Y-100955778D01*
X183607466Y-101039443D01*
X183437627Y-101090963D01*
X183371443Y-101097481D01*
X183305260Y-101104000D01*
X183216740Y-101104000D01*
X183150557Y-101097481D01*
X183084373Y-101090963D01*
X182914534Y-101039443D01*
X182758009Y-100955778D01*
X182722271Y-100926448D01*
X182620814Y-100843186D01*
X182516589Y-100716186D01*
X182508222Y-100705991D01*
X182424557Y-100549466D01*
X182373037Y-100379627D01*
X182355641Y-100203000D01*
X182373037Y-100026373D01*
X182424557Y-99856534D01*
X182508222Y-99700009D01*
X182537552Y-99664271D01*
X182620814Y-99562814D01*
X182722271Y-99479552D01*
X182758009Y-99450222D01*
X182914534Y-99366557D01*
X183084373Y-99315037D01*
X183150557Y-99308519D01*
X183216740Y-99302000D01*
X183305260Y-99302000D01*
X183371443Y-99308519D01*
X183371443Y-99308519D01*
G37*
G36*
X180831443Y-99308519D02*
G01*
X180897627Y-99315037D01*
X181067466Y-99366557D01*
X181223991Y-99450222D01*
X181259729Y-99479552D01*
X181361186Y-99562814D01*
X181444448Y-99664271D01*
X181473778Y-99700009D01*
X181557443Y-99856534D01*
X181608963Y-100026373D01*
X181626359Y-100203000D01*
X181608963Y-100379627D01*
X181557443Y-100549466D01*
X181473778Y-100705991D01*
X181465411Y-100716186D01*
X181361186Y-100843186D01*
X181259729Y-100926448D01*
X181223991Y-100955778D01*
X181067466Y-101039443D01*
X180897627Y-101090963D01*
X180831443Y-101097481D01*
X180765260Y-101104000D01*
X180676740Y-101104000D01*
X180610557Y-101097481D01*
X180544373Y-101090963D01*
X180374534Y-101039443D01*
X180218009Y-100955778D01*
X180182271Y-100926448D01*
X180080814Y-100843186D01*
X179976589Y-100716186D01*
X179968222Y-100705991D01*
X179884557Y-100549466D01*
X179833037Y-100379627D01*
X179815641Y-100203000D01*
X179833037Y-100026373D01*
X179884557Y-99856534D01*
X179968222Y-99700009D01*
X179997552Y-99664271D01*
X180080814Y-99562814D01*
X180182271Y-99479552D01*
X180218009Y-99450222D01*
X180374534Y-99366557D01*
X180544373Y-99315037D01*
X180610557Y-99308519D01*
X180676740Y-99302000D01*
X180765260Y-99302000D01*
X180831443Y-99308519D01*
X180831443Y-99308519D01*
G37*
G36*
X178291443Y-99308519D02*
G01*
X178357627Y-99315037D01*
X178527466Y-99366557D01*
X178683991Y-99450222D01*
X178719729Y-99479552D01*
X178821186Y-99562814D01*
X178904448Y-99664271D01*
X178933778Y-99700009D01*
X179017443Y-99856534D01*
X179068963Y-100026373D01*
X179086359Y-100203000D01*
X179068963Y-100379627D01*
X179017443Y-100549466D01*
X178933778Y-100705991D01*
X178925411Y-100716186D01*
X178821186Y-100843186D01*
X178719729Y-100926448D01*
X178683991Y-100955778D01*
X178527466Y-101039443D01*
X178357627Y-101090963D01*
X178291443Y-101097481D01*
X178225260Y-101104000D01*
X178136740Y-101104000D01*
X178070557Y-101097481D01*
X178004373Y-101090963D01*
X177834534Y-101039443D01*
X177678009Y-100955778D01*
X177642271Y-100926448D01*
X177540814Y-100843186D01*
X177436589Y-100716186D01*
X177428222Y-100705991D01*
X177344557Y-100549466D01*
X177293037Y-100379627D01*
X177275641Y-100203000D01*
X177293037Y-100026373D01*
X177344557Y-99856534D01*
X177428222Y-99700009D01*
X177457552Y-99664271D01*
X177540814Y-99562814D01*
X177642271Y-99479552D01*
X177678009Y-99450222D01*
X177834534Y-99366557D01*
X178004373Y-99315037D01*
X178070557Y-99308519D01*
X178136740Y-99302000D01*
X178225260Y-99302000D01*
X178291443Y-99308519D01*
X178291443Y-99308519D01*
G37*
G36*
X175751443Y-99308519D02*
G01*
X175817627Y-99315037D01*
X175987466Y-99366557D01*
X176143991Y-99450222D01*
X176179729Y-99479552D01*
X176281186Y-99562814D01*
X176364448Y-99664271D01*
X176393778Y-99700009D01*
X176477443Y-99856534D01*
X176528963Y-100026373D01*
X176546359Y-100203000D01*
X176528963Y-100379627D01*
X176477443Y-100549466D01*
X176393778Y-100705991D01*
X176385411Y-100716186D01*
X176281186Y-100843186D01*
X176179729Y-100926448D01*
X176143991Y-100955778D01*
X175987466Y-101039443D01*
X175817627Y-101090963D01*
X175751443Y-101097481D01*
X175685260Y-101104000D01*
X175596740Y-101104000D01*
X175530557Y-101097481D01*
X175464373Y-101090963D01*
X175294534Y-101039443D01*
X175138009Y-100955778D01*
X175102271Y-100926448D01*
X175000814Y-100843186D01*
X174896589Y-100716186D01*
X174888222Y-100705991D01*
X174804557Y-100549466D01*
X174753037Y-100379627D01*
X174735641Y-100203000D01*
X174753037Y-100026373D01*
X174804557Y-99856534D01*
X174888222Y-99700009D01*
X174917552Y-99664271D01*
X175000814Y-99562814D01*
X175102271Y-99479552D01*
X175138009Y-99450222D01*
X175294534Y-99366557D01*
X175464373Y-99315037D01*
X175530557Y-99308519D01*
X175596740Y-99302000D01*
X175685260Y-99302000D01*
X175751443Y-99308519D01*
X175751443Y-99308519D01*
G37*
G36*
X173211443Y-99308519D02*
G01*
X173277627Y-99315037D01*
X173447466Y-99366557D01*
X173603991Y-99450222D01*
X173639729Y-99479552D01*
X173741186Y-99562814D01*
X173824448Y-99664271D01*
X173853778Y-99700009D01*
X173937443Y-99856534D01*
X173988963Y-100026373D01*
X174006359Y-100203000D01*
X173988963Y-100379627D01*
X173937443Y-100549466D01*
X173853778Y-100705991D01*
X173845411Y-100716186D01*
X173741186Y-100843186D01*
X173639729Y-100926448D01*
X173603991Y-100955778D01*
X173447466Y-101039443D01*
X173277627Y-101090963D01*
X173211443Y-101097481D01*
X173145260Y-101104000D01*
X173056740Y-101104000D01*
X172990557Y-101097481D01*
X172924373Y-101090963D01*
X172754534Y-101039443D01*
X172598009Y-100955778D01*
X172562271Y-100926448D01*
X172460814Y-100843186D01*
X172356589Y-100716186D01*
X172348222Y-100705991D01*
X172264557Y-100549466D01*
X172213037Y-100379627D01*
X172195641Y-100203000D01*
X172213037Y-100026373D01*
X172264557Y-99856534D01*
X172348222Y-99700009D01*
X172377552Y-99664271D01*
X172460814Y-99562814D01*
X172562271Y-99479552D01*
X172598009Y-99450222D01*
X172754534Y-99366557D01*
X172924373Y-99315037D01*
X172990557Y-99308519D01*
X173056740Y-99302000D01*
X173145260Y-99302000D01*
X173211443Y-99308519D01*
X173211443Y-99308519D01*
G37*
G36*
X170671443Y-99308519D02*
G01*
X170737627Y-99315037D01*
X170907466Y-99366557D01*
X171063991Y-99450222D01*
X171099729Y-99479552D01*
X171201186Y-99562814D01*
X171284448Y-99664271D01*
X171313778Y-99700009D01*
X171397443Y-99856534D01*
X171448963Y-100026373D01*
X171466359Y-100203000D01*
X171448963Y-100379627D01*
X171397443Y-100549466D01*
X171313778Y-100705991D01*
X171305411Y-100716186D01*
X171201186Y-100843186D01*
X171099729Y-100926448D01*
X171063991Y-100955778D01*
X170907466Y-101039443D01*
X170737627Y-101090963D01*
X170671443Y-101097481D01*
X170605260Y-101104000D01*
X170516740Y-101104000D01*
X170450557Y-101097481D01*
X170384373Y-101090963D01*
X170214534Y-101039443D01*
X170058009Y-100955778D01*
X170022271Y-100926448D01*
X169920814Y-100843186D01*
X169816589Y-100716186D01*
X169808222Y-100705991D01*
X169724557Y-100549466D01*
X169673037Y-100379627D01*
X169655641Y-100203000D01*
X169673037Y-100026373D01*
X169724557Y-99856534D01*
X169808222Y-99700009D01*
X169837552Y-99664271D01*
X169920814Y-99562814D01*
X170022271Y-99479552D01*
X170058009Y-99450222D01*
X170214534Y-99366557D01*
X170384373Y-99315037D01*
X170450557Y-99308519D01*
X170516740Y-99302000D01*
X170605260Y-99302000D01*
X170671443Y-99308519D01*
X170671443Y-99308519D01*
G37*
G36*
X168131443Y-99308519D02*
G01*
X168197627Y-99315037D01*
X168367466Y-99366557D01*
X168523991Y-99450222D01*
X168559729Y-99479552D01*
X168661186Y-99562814D01*
X168744448Y-99664271D01*
X168773778Y-99700009D01*
X168857443Y-99856534D01*
X168908963Y-100026373D01*
X168926359Y-100203000D01*
X168908963Y-100379627D01*
X168857443Y-100549466D01*
X168773778Y-100705991D01*
X168765411Y-100716186D01*
X168661186Y-100843186D01*
X168559729Y-100926448D01*
X168523991Y-100955778D01*
X168367466Y-101039443D01*
X168197627Y-101090963D01*
X168131443Y-101097481D01*
X168065260Y-101104000D01*
X167976740Y-101104000D01*
X167910557Y-101097481D01*
X167844373Y-101090963D01*
X167674534Y-101039443D01*
X167518009Y-100955778D01*
X167482271Y-100926448D01*
X167380814Y-100843186D01*
X167276589Y-100716186D01*
X167268222Y-100705991D01*
X167184557Y-100549466D01*
X167133037Y-100379627D01*
X167115641Y-100203000D01*
X167133037Y-100026373D01*
X167184557Y-99856534D01*
X167268222Y-99700009D01*
X167297552Y-99664271D01*
X167380814Y-99562814D01*
X167482271Y-99479552D01*
X167518009Y-99450222D01*
X167674534Y-99366557D01*
X167844373Y-99315037D01*
X167910557Y-99308519D01*
X167976740Y-99302000D01*
X168065260Y-99302000D01*
X168131443Y-99308519D01*
X168131443Y-99308519D01*
G37*
G36*
X165591443Y-99308519D02*
G01*
X165657627Y-99315037D01*
X165827466Y-99366557D01*
X165983991Y-99450222D01*
X166019729Y-99479552D01*
X166121186Y-99562814D01*
X166204448Y-99664271D01*
X166233778Y-99700009D01*
X166317443Y-99856534D01*
X166368963Y-100026373D01*
X166386359Y-100203000D01*
X166368963Y-100379627D01*
X166317443Y-100549466D01*
X166233778Y-100705991D01*
X166225411Y-100716186D01*
X166121186Y-100843186D01*
X166019729Y-100926448D01*
X165983991Y-100955778D01*
X165827466Y-101039443D01*
X165657627Y-101090963D01*
X165591443Y-101097481D01*
X165525260Y-101104000D01*
X165436740Y-101104000D01*
X165370557Y-101097481D01*
X165304373Y-101090963D01*
X165134534Y-101039443D01*
X164978009Y-100955778D01*
X164942271Y-100926448D01*
X164840814Y-100843186D01*
X164736589Y-100716186D01*
X164728222Y-100705991D01*
X164644557Y-100549466D01*
X164593037Y-100379627D01*
X164575641Y-100203000D01*
X164593037Y-100026373D01*
X164644557Y-99856534D01*
X164728222Y-99700009D01*
X164757552Y-99664271D01*
X164840814Y-99562814D01*
X164942271Y-99479552D01*
X164978009Y-99450222D01*
X165134534Y-99366557D01*
X165304373Y-99315037D01*
X165370557Y-99308519D01*
X165436740Y-99302000D01*
X165525260Y-99302000D01*
X165591443Y-99308519D01*
X165591443Y-99308519D01*
G37*
G36*
X163051443Y-99308519D02*
G01*
X163117627Y-99315037D01*
X163287466Y-99366557D01*
X163443991Y-99450222D01*
X163479729Y-99479552D01*
X163581186Y-99562814D01*
X163664448Y-99664271D01*
X163693778Y-99700009D01*
X163777443Y-99856534D01*
X163828963Y-100026373D01*
X163846359Y-100203000D01*
X163828963Y-100379627D01*
X163777443Y-100549466D01*
X163693778Y-100705991D01*
X163685411Y-100716186D01*
X163581186Y-100843186D01*
X163479729Y-100926448D01*
X163443991Y-100955778D01*
X163287466Y-101039443D01*
X163117627Y-101090963D01*
X163051443Y-101097481D01*
X162985260Y-101104000D01*
X162896740Y-101104000D01*
X162830557Y-101097481D01*
X162764373Y-101090963D01*
X162594534Y-101039443D01*
X162438009Y-100955778D01*
X162402271Y-100926448D01*
X162300814Y-100843186D01*
X162196589Y-100716186D01*
X162188222Y-100705991D01*
X162104557Y-100549466D01*
X162053037Y-100379627D01*
X162035641Y-100203000D01*
X162053037Y-100026373D01*
X162104557Y-99856534D01*
X162188222Y-99700009D01*
X162217552Y-99664271D01*
X162300814Y-99562814D01*
X162402271Y-99479552D01*
X162438009Y-99450222D01*
X162594534Y-99366557D01*
X162764373Y-99315037D01*
X162830557Y-99308519D01*
X162896740Y-99302000D01*
X162985260Y-99302000D01*
X163051443Y-99308519D01*
X163051443Y-99308519D01*
G37*
G36*
X160511443Y-99308519D02*
G01*
X160577627Y-99315037D01*
X160747466Y-99366557D01*
X160903991Y-99450222D01*
X160939729Y-99479552D01*
X161041186Y-99562814D01*
X161124448Y-99664271D01*
X161153778Y-99700009D01*
X161237443Y-99856534D01*
X161288963Y-100026373D01*
X161306359Y-100203000D01*
X161288963Y-100379627D01*
X161237443Y-100549466D01*
X161153778Y-100705991D01*
X161145411Y-100716186D01*
X161041186Y-100843186D01*
X160939729Y-100926448D01*
X160903991Y-100955778D01*
X160747466Y-101039443D01*
X160577627Y-101090963D01*
X160511443Y-101097481D01*
X160445260Y-101104000D01*
X160356740Y-101104000D01*
X160290557Y-101097481D01*
X160224373Y-101090963D01*
X160054534Y-101039443D01*
X159898009Y-100955778D01*
X159862271Y-100926448D01*
X159760814Y-100843186D01*
X159656589Y-100716186D01*
X159648222Y-100705991D01*
X159564557Y-100549466D01*
X159513037Y-100379627D01*
X159495641Y-100203000D01*
X159513037Y-100026373D01*
X159564557Y-99856534D01*
X159648222Y-99700009D01*
X159677552Y-99664271D01*
X159760814Y-99562814D01*
X159862271Y-99479552D01*
X159898009Y-99450222D01*
X160054534Y-99366557D01*
X160224373Y-99315037D01*
X160290557Y-99308519D01*
X160356740Y-99302000D01*
X160445260Y-99302000D01*
X160511443Y-99308519D01*
X160511443Y-99308519D01*
G37*
G36*
X157971443Y-99308519D02*
G01*
X158037627Y-99315037D01*
X158207466Y-99366557D01*
X158363991Y-99450222D01*
X158399729Y-99479552D01*
X158501186Y-99562814D01*
X158584448Y-99664271D01*
X158613778Y-99700009D01*
X158697443Y-99856534D01*
X158748963Y-100026373D01*
X158766359Y-100203000D01*
X158748963Y-100379627D01*
X158697443Y-100549466D01*
X158613778Y-100705991D01*
X158605411Y-100716186D01*
X158501186Y-100843186D01*
X158399729Y-100926448D01*
X158363991Y-100955778D01*
X158207466Y-101039443D01*
X158037627Y-101090963D01*
X157971443Y-101097481D01*
X157905260Y-101104000D01*
X157816740Y-101104000D01*
X157750557Y-101097481D01*
X157684373Y-101090963D01*
X157514534Y-101039443D01*
X157358009Y-100955778D01*
X157322271Y-100926448D01*
X157220814Y-100843186D01*
X157116589Y-100716186D01*
X157108222Y-100705991D01*
X157024557Y-100549466D01*
X156973037Y-100379627D01*
X156955641Y-100203000D01*
X156973037Y-100026373D01*
X157024557Y-99856534D01*
X157108222Y-99700009D01*
X157137552Y-99664271D01*
X157220814Y-99562814D01*
X157322271Y-99479552D01*
X157358009Y-99450222D01*
X157514534Y-99366557D01*
X157684373Y-99315037D01*
X157750557Y-99308519D01*
X157816740Y-99302000D01*
X157905260Y-99302000D01*
X157971443Y-99308519D01*
X157971443Y-99308519D01*
G37*
G36*
X155431443Y-99308519D02*
G01*
X155497627Y-99315037D01*
X155667466Y-99366557D01*
X155823991Y-99450222D01*
X155859729Y-99479552D01*
X155961186Y-99562814D01*
X156044448Y-99664271D01*
X156073778Y-99700009D01*
X156157443Y-99856534D01*
X156208963Y-100026373D01*
X156226359Y-100203000D01*
X156208963Y-100379627D01*
X156157443Y-100549466D01*
X156073778Y-100705991D01*
X156065411Y-100716186D01*
X155961186Y-100843186D01*
X155859729Y-100926448D01*
X155823991Y-100955778D01*
X155667466Y-101039443D01*
X155497627Y-101090963D01*
X155431443Y-101097481D01*
X155365260Y-101104000D01*
X155276740Y-101104000D01*
X155210557Y-101097481D01*
X155144373Y-101090963D01*
X154974534Y-101039443D01*
X154818009Y-100955778D01*
X154782271Y-100926448D01*
X154680814Y-100843186D01*
X154576589Y-100716186D01*
X154568222Y-100705991D01*
X154484557Y-100549466D01*
X154433037Y-100379627D01*
X154415641Y-100203000D01*
X154433037Y-100026373D01*
X154484557Y-99856534D01*
X154568222Y-99700009D01*
X154597552Y-99664271D01*
X154680814Y-99562814D01*
X154782271Y-99479552D01*
X154818009Y-99450222D01*
X154974534Y-99366557D01*
X155144373Y-99315037D01*
X155210557Y-99308519D01*
X155276740Y-99302000D01*
X155365260Y-99302000D01*
X155431443Y-99308519D01*
X155431443Y-99308519D01*
G37*
G36*
X152891443Y-99308519D02*
G01*
X152957627Y-99315037D01*
X153127466Y-99366557D01*
X153283991Y-99450222D01*
X153319729Y-99479552D01*
X153421186Y-99562814D01*
X153504448Y-99664271D01*
X153533778Y-99700009D01*
X153617443Y-99856534D01*
X153668963Y-100026373D01*
X153686359Y-100203000D01*
X153668963Y-100379627D01*
X153617443Y-100549466D01*
X153533778Y-100705991D01*
X153525411Y-100716186D01*
X153421186Y-100843186D01*
X153319729Y-100926448D01*
X153283991Y-100955778D01*
X153127466Y-101039443D01*
X152957627Y-101090963D01*
X152891443Y-101097481D01*
X152825260Y-101104000D01*
X152736740Y-101104000D01*
X152670557Y-101097481D01*
X152604373Y-101090963D01*
X152434534Y-101039443D01*
X152278009Y-100955778D01*
X152242271Y-100926448D01*
X152140814Y-100843186D01*
X152036589Y-100716186D01*
X152028222Y-100705991D01*
X151944557Y-100549466D01*
X151893037Y-100379627D01*
X151875641Y-100203000D01*
X151893037Y-100026373D01*
X151944557Y-99856534D01*
X152028222Y-99700009D01*
X152057552Y-99664271D01*
X152140814Y-99562814D01*
X152242271Y-99479552D01*
X152278009Y-99450222D01*
X152434534Y-99366557D01*
X152604373Y-99315037D01*
X152670557Y-99308519D01*
X152736740Y-99302000D01*
X152825260Y-99302000D01*
X152891443Y-99308519D01*
X152891443Y-99308519D01*
G37*
G36*
X150351443Y-99308519D02*
G01*
X150417627Y-99315037D01*
X150587466Y-99366557D01*
X150743991Y-99450222D01*
X150779729Y-99479552D01*
X150881186Y-99562814D01*
X150964448Y-99664271D01*
X150993778Y-99700009D01*
X151077443Y-99856534D01*
X151128963Y-100026373D01*
X151146359Y-100203000D01*
X151128963Y-100379627D01*
X151077443Y-100549466D01*
X150993778Y-100705991D01*
X150985411Y-100716186D01*
X150881186Y-100843186D01*
X150779729Y-100926448D01*
X150743991Y-100955778D01*
X150587466Y-101039443D01*
X150417627Y-101090963D01*
X150351443Y-101097481D01*
X150285260Y-101104000D01*
X150196740Y-101104000D01*
X150130557Y-101097481D01*
X150064373Y-101090963D01*
X149894534Y-101039443D01*
X149738009Y-100955778D01*
X149702271Y-100926448D01*
X149600814Y-100843186D01*
X149496589Y-100716186D01*
X149488222Y-100705991D01*
X149404557Y-100549466D01*
X149353037Y-100379627D01*
X149335641Y-100203000D01*
X149353037Y-100026373D01*
X149404557Y-99856534D01*
X149488222Y-99700009D01*
X149517552Y-99664271D01*
X149600814Y-99562814D01*
X149702271Y-99479552D01*
X149738009Y-99450222D01*
X149894534Y-99366557D01*
X150064373Y-99315037D01*
X150130557Y-99308519D01*
X150196740Y-99302000D01*
X150285260Y-99302000D01*
X150351443Y-99308519D01*
X150351443Y-99308519D01*
G37*
G36*
X147811443Y-99308519D02*
G01*
X147877627Y-99315037D01*
X148047466Y-99366557D01*
X148203991Y-99450222D01*
X148239729Y-99479552D01*
X148341186Y-99562814D01*
X148424448Y-99664271D01*
X148453778Y-99700009D01*
X148537443Y-99856534D01*
X148588963Y-100026373D01*
X148606359Y-100203000D01*
X148588963Y-100379627D01*
X148537443Y-100549466D01*
X148453778Y-100705991D01*
X148445411Y-100716186D01*
X148341186Y-100843186D01*
X148239729Y-100926448D01*
X148203991Y-100955778D01*
X148047466Y-101039443D01*
X147877627Y-101090963D01*
X147811443Y-101097481D01*
X147745260Y-101104000D01*
X147656740Y-101104000D01*
X147590557Y-101097481D01*
X147524373Y-101090963D01*
X147354534Y-101039443D01*
X147198009Y-100955778D01*
X147162271Y-100926448D01*
X147060814Y-100843186D01*
X146956589Y-100716186D01*
X146948222Y-100705991D01*
X146864557Y-100549466D01*
X146813037Y-100379627D01*
X146795641Y-100203000D01*
X146813037Y-100026373D01*
X146864557Y-99856534D01*
X146948222Y-99700009D01*
X146977552Y-99664271D01*
X147060814Y-99562814D01*
X147162271Y-99479552D01*
X147198009Y-99450222D01*
X147354534Y-99366557D01*
X147524373Y-99315037D01*
X147590557Y-99308519D01*
X147656740Y-99302000D01*
X147745260Y-99302000D01*
X147811443Y-99308519D01*
X147811443Y-99308519D01*
G37*
G36*
X145271443Y-99308519D02*
G01*
X145337627Y-99315037D01*
X145507466Y-99366557D01*
X145663991Y-99450222D01*
X145699729Y-99479552D01*
X145801186Y-99562814D01*
X145884448Y-99664271D01*
X145913778Y-99700009D01*
X145997443Y-99856534D01*
X146048963Y-100026373D01*
X146066359Y-100203000D01*
X146048963Y-100379627D01*
X145997443Y-100549466D01*
X145913778Y-100705991D01*
X145905411Y-100716186D01*
X145801186Y-100843186D01*
X145699729Y-100926448D01*
X145663991Y-100955778D01*
X145507466Y-101039443D01*
X145337627Y-101090963D01*
X145271443Y-101097481D01*
X145205260Y-101104000D01*
X145116740Y-101104000D01*
X145050557Y-101097481D01*
X144984373Y-101090963D01*
X144814534Y-101039443D01*
X144658009Y-100955778D01*
X144622271Y-100926448D01*
X144520814Y-100843186D01*
X144416589Y-100716186D01*
X144408222Y-100705991D01*
X144324557Y-100549466D01*
X144273037Y-100379627D01*
X144255641Y-100203000D01*
X144273037Y-100026373D01*
X144324557Y-99856534D01*
X144408222Y-99700009D01*
X144437552Y-99664271D01*
X144520814Y-99562814D01*
X144622271Y-99479552D01*
X144658009Y-99450222D01*
X144814534Y-99366557D01*
X144984373Y-99315037D01*
X145050557Y-99308519D01*
X145116740Y-99302000D01*
X145205260Y-99302000D01*
X145271443Y-99308519D01*
X145271443Y-99308519D01*
G37*
G36*
X142731443Y-99308519D02*
G01*
X142797627Y-99315037D01*
X142967466Y-99366557D01*
X143123991Y-99450222D01*
X143159729Y-99479552D01*
X143261186Y-99562814D01*
X143344448Y-99664271D01*
X143373778Y-99700009D01*
X143457443Y-99856534D01*
X143508963Y-100026373D01*
X143526359Y-100203000D01*
X143508963Y-100379627D01*
X143457443Y-100549466D01*
X143373778Y-100705991D01*
X143365411Y-100716186D01*
X143261186Y-100843186D01*
X143159729Y-100926448D01*
X143123991Y-100955778D01*
X142967466Y-101039443D01*
X142797627Y-101090963D01*
X142731443Y-101097481D01*
X142665260Y-101104000D01*
X142576740Y-101104000D01*
X142510557Y-101097481D01*
X142444373Y-101090963D01*
X142274534Y-101039443D01*
X142118009Y-100955778D01*
X142082271Y-100926448D01*
X141980814Y-100843186D01*
X141876589Y-100716186D01*
X141868222Y-100705991D01*
X141784557Y-100549466D01*
X141733037Y-100379627D01*
X141715641Y-100203000D01*
X141733037Y-100026373D01*
X141784557Y-99856534D01*
X141868222Y-99700009D01*
X141897552Y-99664271D01*
X141980814Y-99562814D01*
X142082271Y-99479552D01*
X142118009Y-99450222D01*
X142274534Y-99366557D01*
X142444373Y-99315037D01*
X142510557Y-99308519D01*
X142576740Y-99302000D01*
X142665260Y-99302000D01*
X142731443Y-99308519D01*
X142731443Y-99308519D01*
G37*
G36*
X140191443Y-99308519D02*
G01*
X140257627Y-99315037D01*
X140427466Y-99366557D01*
X140583991Y-99450222D01*
X140619729Y-99479552D01*
X140721186Y-99562814D01*
X140804448Y-99664271D01*
X140833778Y-99700009D01*
X140917443Y-99856534D01*
X140968963Y-100026373D01*
X140986359Y-100203000D01*
X140968963Y-100379627D01*
X140917443Y-100549466D01*
X140833778Y-100705991D01*
X140825411Y-100716186D01*
X140721186Y-100843186D01*
X140619729Y-100926448D01*
X140583991Y-100955778D01*
X140427466Y-101039443D01*
X140257627Y-101090963D01*
X140191443Y-101097481D01*
X140125260Y-101104000D01*
X140036740Y-101104000D01*
X139970557Y-101097481D01*
X139904373Y-101090963D01*
X139734534Y-101039443D01*
X139578009Y-100955778D01*
X139542271Y-100926448D01*
X139440814Y-100843186D01*
X139336589Y-100716186D01*
X139328222Y-100705991D01*
X139244557Y-100549466D01*
X139193037Y-100379627D01*
X139175641Y-100203000D01*
X139193037Y-100026373D01*
X139244557Y-99856534D01*
X139328222Y-99700009D01*
X139357552Y-99664271D01*
X139440814Y-99562814D01*
X139542271Y-99479552D01*
X139578009Y-99450222D01*
X139734534Y-99366557D01*
X139904373Y-99315037D01*
X139970557Y-99308519D01*
X140036740Y-99302000D01*
X140125260Y-99302000D01*
X140191443Y-99308519D01*
X140191443Y-99308519D01*
G37*
G36*
X129269442Y-99181518D02*
G01*
X129335627Y-99188037D01*
X129505466Y-99239557D01*
X129661991Y-99323222D01*
X129697729Y-99352552D01*
X129799186Y-99435814D01*
X129882448Y-99537271D01*
X129911778Y-99573009D01*
X129995443Y-99729534D01*
X130046963Y-99899373D01*
X130064359Y-100076000D01*
X130046963Y-100252627D01*
X129995443Y-100422466D01*
X129911778Y-100578991D01*
X129882448Y-100614729D01*
X129799186Y-100716186D01*
X129697729Y-100799448D01*
X129661991Y-100828778D01*
X129505466Y-100912443D01*
X129335627Y-100963963D01*
X129269442Y-100970482D01*
X129203260Y-100977000D01*
X129114740Y-100977000D01*
X129048558Y-100970482D01*
X128982373Y-100963963D01*
X128812534Y-100912443D01*
X128656009Y-100828778D01*
X128620271Y-100799448D01*
X128518814Y-100716186D01*
X128435552Y-100614729D01*
X128406222Y-100578991D01*
X128322557Y-100422466D01*
X128271037Y-100252627D01*
X128253641Y-100076000D01*
X128271037Y-99899373D01*
X128322557Y-99729534D01*
X128406222Y-99573009D01*
X128435552Y-99537271D01*
X128518814Y-99435814D01*
X128620271Y-99352552D01*
X128656009Y-99323222D01*
X128812534Y-99239557D01*
X128982373Y-99188037D01*
X129048558Y-99181518D01*
X129114740Y-99175000D01*
X129203260Y-99175000D01*
X129269442Y-99181518D01*
X129269442Y-99181518D01*
G37*
G36*
X126729442Y-99181518D02*
G01*
X126795627Y-99188037D01*
X126965466Y-99239557D01*
X127121991Y-99323222D01*
X127157729Y-99352552D01*
X127259186Y-99435814D01*
X127342448Y-99537271D01*
X127371778Y-99573009D01*
X127455443Y-99729534D01*
X127506963Y-99899373D01*
X127524359Y-100076000D01*
X127506963Y-100252627D01*
X127455443Y-100422466D01*
X127371778Y-100578991D01*
X127342448Y-100614729D01*
X127259186Y-100716186D01*
X127157729Y-100799448D01*
X127121991Y-100828778D01*
X126965466Y-100912443D01*
X126795627Y-100963963D01*
X126729442Y-100970482D01*
X126663260Y-100977000D01*
X126574740Y-100977000D01*
X126508558Y-100970482D01*
X126442373Y-100963963D01*
X126272534Y-100912443D01*
X126116009Y-100828778D01*
X126080271Y-100799448D01*
X125978814Y-100716186D01*
X125895552Y-100614729D01*
X125866222Y-100578991D01*
X125782557Y-100422466D01*
X125731037Y-100252627D01*
X125713641Y-100076000D01*
X125731037Y-99899373D01*
X125782557Y-99729534D01*
X125866222Y-99573009D01*
X125895552Y-99537271D01*
X125978814Y-99435814D01*
X126080271Y-99352552D01*
X126116009Y-99323222D01*
X126272534Y-99239557D01*
X126442373Y-99188037D01*
X126508558Y-99181518D01*
X126574740Y-99175000D01*
X126663260Y-99175000D01*
X126729442Y-99181518D01*
X126729442Y-99181518D01*
G37*
G36*
X124189442Y-99181518D02*
G01*
X124255627Y-99188037D01*
X124425466Y-99239557D01*
X124581991Y-99323222D01*
X124617729Y-99352552D01*
X124719186Y-99435814D01*
X124802448Y-99537271D01*
X124831778Y-99573009D01*
X124915443Y-99729534D01*
X124966963Y-99899373D01*
X124984359Y-100076000D01*
X124966963Y-100252627D01*
X124915443Y-100422466D01*
X124831778Y-100578991D01*
X124802448Y-100614729D01*
X124719186Y-100716186D01*
X124617729Y-100799448D01*
X124581991Y-100828778D01*
X124425466Y-100912443D01*
X124255627Y-100963963D01*
X124189442Y-100970482D01*
X124123260Y-100977000D01*
X124034740Y-100977000D01*
X123968558Y-100970482D01*
X123902373Y-100963963D01*
X123732534Y-100912443D01*
X123576009Y-100828778D01*
X123540271Y-100799448D01*
X123438814Y-100716186D01*
X123355552Y-100614729D01*
X123326222Y-100578991D01*
X123242557Y-100422466D01*
X123191037Y-100252627D01*
X123173641Y-100076000D01*
X123191037Y-99899373D01*
X123242557Y-99729534D01*
X123326222Y-99573009D01*
X123355552Y-99537271D01*
X123438814Y-99435814D01*
X123540271Y-99352552D01*
X123576009Y-99323222D01*
X123732534Y-99239557D01*
X123902373Y-99188037D01*
X123968558Y-99181518D01*
X124034740Y-99175000D01*
X124123260Y-99175000D01*
X124189442Y-99181518D01*
X124189442Y-99181518D01*
G37*
G36*
X121649442Y-99181518D02*
G01*
X121715627Y-99188037D01*
X121885466Y-99239557D01*
X122041991Y-99323222D01*
X122077729Y-99352552D01*
X122179186Y-99435814D01*
X122262448Y-99537271D01*
X122291778Y-99573009D01*
X122375443Y-99729534D01*
X122426963Y-99899373D01*
X122444359Y-100076000D01*
X122426963Y-100252627D01*
X122375443Y-100422466D01*
X122291778Y-100578991D01*
X122262448Y-100614729D01*
X122179186Y-100716186D01*
X122077729Y-100799448D01*
X122041991Y-100828778D01*
X121885466Y-100912443D01*
X121715627Y-100963963D01*
X121649442Y-100970482D01*
X121583260Y-100977000D01*
X121494740Y-100977000D01*
X121428558Y-100970482D01*
X121362373Y-100963963D01*
X121192534Y-100912443D01*
X121036009Y-100828778D01*
X121000271Y-100799448D01*
X120898814Y-100716186D01*
X120815552Y-100614729D01*
X120786222Y-100578991D01*
X120702557Y-100422466D01*
X120651037Y-100252627D01*
X120633641Y-100076000D01*
X120651037Y-99899373D01*
X120702557Y-99729534D01*
X120786222Y-99573009D01*
X120815552Y-99537271D01*
X120898814Y-99435814D01*
X121000271Y-99352552D01*
X121036009Y-99323222D01*
X121192534Y-99239557D01*
X121362373Y-99188037D01*
X121428558Y-99181518D01*
X121494740Y-99175000D01*
X121583260Y-99175000D01*
X121649442Y-99181518D01*
X121649442Y-99181518D01*
G37*
G36*
X119109442Y-99181518D02*
G01*
X119175627Y-99188037D01*
X119345466Y-99239557D01*
X119501991Y-99323222D01*
X119537729Y-99352552D01*
X119639186Y-99435814D01*
X119722448Y-99537271D01*
X119751778Y-99573009D01*
X119835443Y-99729534D01*
X119886963Y-99899373D01*
X119904359Y-100076000D01*
X119886963Y-100252627D01*
X119835443Y-100422466D01*
X119751778Y-100578991D01*
X119722448Y-100614729D01*
X119639186Y-100716186D01*
X119537729Y-100799448D01*
X119501991Y-100828778D01*
X119345466Y-100912443D01*
X119175627Y-100963963D01*
X119109442Y-100970482D01*
X119043260Y-100977000D01*
X118954740Y-100977000D01*
X118888558Y-100970482D01*
X118822373Y-100963963D01*
X118652534Y-100912443D01*
X118496009Y-100828778D01*
X118460271Y-100799448D01*
X118358814Y-100716186D01*
X118275552Y-100614729D01*
X118246222Y-100578991D01*
X118162557Y-100422466D01*
X118111037Y-100252627D01*
X118093641Y-100076000D01*
X118111037Y-99899373D01*
X118162557Y-99729534D01*
X118246222Y-99573009D01*
X118275552Y-99537271D01*
X118358814Y-99435814D01*
X118460271Y-99352552D01*
X118496009Y-99323222D01*
X118652534Y-99239557D01*
X118822373Y-99188037D01*
X118888558Y-99181518D01*
X118954740Y-99175000D01*
X119043260Y-99175000D01*
X119109442Y-99181518D01*
X119109442Y-99181518D01*
G37*
G36*
X163051442Y-96768518D02*
G01*
X163117627Y-96775037D01*
X163287466Y-96826557D01*
X163443991Y-96910222D01*
X163479729Y-96939552D01*
X163581186Y-97022814D01*
X163664448Y-97124271D01*
X163693778Y-97160009D01*
X163777443Y-97316534D01*
X163828963Y-97486373D01*
X163846359Y-97663000D01*
X163828963Y-97839627D01*
X163777443Y-98009466D01*
X163693778Y-98165991D01*
X163685411Y-98176186D01*
X163581186Y-98303186D01*
X163479729Y-98386448D01*
X163443991Y-98415778D01*
X163287466Y-98499443D01*
X163117627Y-98550963D01*
X163051442Y-98557482D01*
X162985260Y-98564000D01*
X162896740Y-98564000D01*
X162830558Y-98557482D01*
X162764373Y-98550963D01*
X162594534Y-98499443D01*
X162438009Y-98415778D01*
X162402271Y-98386448D01*
X162300814Y-98303186D01*
X162196589Y-98176186D01*
X162188222Y-98165991D01*
X162104557Y-98009466D01*
X162053037Y-97839627D01*
X162035641Y-97663000D01*
X162053037Y-97486373D01*
X162104557Y-97316534D01*
X162188222Y-97160009D01*
X162217552Y-97124271D01*
X162300814Y-97022814D01*
X162402271Y-96939552D01*
X162438009Y-96910222D01*
X162594534Y-96826557D01*
X162764373Y-96775037D01*
X162830558Y-96768518D01*
X162896740Y-96762000D01*
X162985260Y-96762000D01*
X163051442Y-96768518D01*
X163051442Y-96768518D01*
G37*
G36*
X157971442Y-96768518D02*
G01*
X158037627Y-96775037D01*
X158207466Y-96826557D01*
X158363991Y-96910222D01*
X158399729Y-96939552D01*
X158501186Y-97022814D01*
X158584448Y-97124271D01*
X158613778Y-97160009D01*
X158697443Y-97316534D01*
X158748963Y-97486373D01*
X158766359Y-97663000D01*
X158748963Y-97839627D01*
X158697443Y-98009466D01*
X158613778Y-98165991D01*
X158605411Y-98176186D01*
X158501186Y-98303186D01*
X158399729Y-98386448D01*
X158363991Y-98415778D01*
X158207466Y-98499443D01*
X158037627Y-98550963D01*
X157971442Y-98557482D01*
X157905260Y-98564000D01*
X157816740Y-98564000D01*
X157750558Y-98557482D01*
X157684373Y-98550963D01*
X157514534Y-98499443D01*
X157358009Y-98415778D01*
X157322271Y-98386448D01*
X157220814Y-98303186D01*
X157116589Y-98176186D01*
X157108222Y-98165991D01*
X157024557Y-98009466D01*
X156973037Y-97839627D01*
X156955641Y-97663000D01*
X156973037Y-97486373D01*
X157024557Y-97316534D01*
X157108222Y-97160009D01*
X157137552Y-97124271D01*
X157220814Y-97022814D01*
X157322271Y-96939552D01*
X157358009Y-96910222D01*
X157514534Y-96826557D01*
X157684373Y-96775037D01*
X157750558Y-96768518D01*
X157816740Y-96762000D01*
X157905260Y-96762000D01*
X157971442Y-96768518D01*
X157971442Y-96768518D01*
G37*
G36*
X188451442Y-96768518D02*
G01*
X188517627Y-96775037D01*
X188687466Y-96826557D01*
X188843991Y-96910222D01*
X188879729Y-96939552D01*
X188981186Y-97022814D01*
X189064448Y-97124271D01*
X189093778Y-97160009D01*
X189177443Y-97316534D01*
X189228963Y-97486373D01*
X189246359Y-97663000D01*
X189228963Y-97839627D01*
X189177443Y-98009466D01*
X189093778Y-98165991D01*
X189085411Y-98176186D01*
X188981186Y-98303186D01*
X188879729Y-98386448D01*
X188843991Y-98415778D01*
X188687466Y-98499443D01*
X188517627Y-98550963D01*
X188451442Y-98557482D01*
X188385260Y-98564000D01*
X188296740Y-98564000D01*
X188230558Y-98557482D01*
X188164373Y-98550963D01*
X187994534Y-98499443D01*
X187838009Y-98415778D01*
X187802271Y-98386448D01*
X187700814Y-98303186D01*
X187596589Y-98176186D01*
X187588222Y-98165991D01*
X187504557Y-98009466D01*
X187453037Y-97839627D01*
X187435641Y-97663000D01*
X187453037Y-97486373D01*
X187504557Y-97316534D01*
X187588222Y-97160009D01*
X187617552Y-97124271D01*
X187700814Y-97022814D01*
X187802271Y-96939552D01*
X187838009Y-96910222D01*
X187994534Y-96826557D01*
X188164373Y-96775037D01*
X188230558Y-96768518D01*
X188296740Y-96762000D01*
X188385260Y-96762000D01*
X188451442Y-96768518D01*
X188451442Y-96768518D01*
G37*
G36*
X183371442Y-96768518D02*
G01*
X183437627Y-96775037D01*
X183607466Y-96826557D01*
X183763991Y-96910222D01*
X183799729Y-96939552D01*
X183901186Y-97022814D01*
X183984448Y-97124271D01*
X184013778Y-97160009D01*
X184097443Y-97316534D01*
X184148963Y-97486373D01*
X184166359Y-97663000D01*
X184148963Y-97839627D01*
X184097443Y-98009466D01*
X184013778Y-98165991D01*
X184005411Y-98176186D01*
X183901186Y-98303186D01*
X183799729Y-98386448D01*
X183763991Y-98415778D01*
X183607466Y-98499443D01*
X183437627Y-98550963D01*
X183371442Y-98557482D01*
X183305260Y-98564000D01*
X183216740Y-98564000D01*
X183150558Y-98557482D01*
X183084373Y-98550963D01*
X182914534Y-98499443D01*
X182758009Y-98415778D01*
X182722271Y-98386448D01*
X182620814Y-98303186D01*
X182516589Y-98176186D01*
X182508222Y-98165991D01*
X182424557Y-98009466D01*
X182373037Y-97839627D01*
X182355641Y-97663000D01*
X182373037Y-97486373D01*
X182424557Y-97316534D01*
X182508222Y-97160009D01*
X182537552Y-97124271D01*
X182620814Y-97022814D01*
X182722271Y-96939552D01*
X182758009Y-96910222D01*
X182914534Y-96826557D01*
X183084373Y-96775037D01*
X183150558Y-96768518D01*
X183216740Y-96762000D01*
X183305260Y-96762000D01*
X183371442Y-96768518D01*
X183371442Y-96768518D01*
G37*
G36*
X185911442Y-96768518D02*
G01*
X185977627Y-96775037D01*
X186147466Y-96826557D01*
X186303991Y-96910222D01*
X186339729Y-96939552D01*
X186441186Y-97022814D01*
X186524448Y-97124271D01*
X186553778Y-97160009D01*
X186637443Y-97316534D01*
X186688963Y-97486373D01*
X186706359Y-97663000D01*
X186688963Y-97839627D01*
X186637443Y-98009466D01*
X186553778Y-98165991D01*
X186545411Y-98176186D01*
X186441186Y-98303186D01*
X186339729Y-98386448D01*
X186303991Y-98415778D01*
X186147466Y-98499443D01*
X185977627Y-98550963D01*
X185911442Y-98557482D01*
X185845260Y-98564000D01*
X185756740Y-98564000D01*
X185690558Y-98557482D01*
X185624373Y-98550963D01*
X185454534Y-98499443D01*
X185298009Y-98415778D01*
X185262271Y-98386448D01*
X185160814Y-98303186D01*
X185056589Y-98176186D01*
X185048222Y-98165991D01*
X184964557Y-98009466D01*
X184913037Y-97839627D01*
X184895641Y-97663000D01*
X184913037Y-97486373D01*
X184964557Y-97316534D01*
X185048222Y-97160009D01*
X185077552Y-97124271D01*
X185160814Y-97022814D01*
X185262271Y-96939552D01*
X185298009Y-96910222D01*
X185454534Y-96826557D01*
X185624373Y-96775037D01*
X185690558Y-96768518D01*
X185756740Y-96762000D01*
X185845260Y-96762000D01*
X185911442Y-96768518D01*
X185911442Y-96768518D01*
G37*
G36*
X180831442Y-96768518D02*
G01*
X180897627Y-96775037D01*
X181067466Y-96826557D01*
X181223991Y-96910222D01*
X181259729Y-96939552D01*
X181361186Y-97022814D01*
X181444448Y-97124271D01*
X181473778Y-97160009D01*
X181557443Y-97316534D01*
X181608963Y-97486373D01*
X181626359Y-97663000D01*
X181608963Y-97839627D01*
X181557443Y-98009466D01*
X181473778Y-98165991D01*
X181465411Y-98176186D01*
X181361186Y-98303186D01*
X181259729Y-98386448D01*
X181223991Y-98415778D01*
X181067466Y-98499443D01*
X180897627Y-98550963D01*
X180831442Y-98557482D01*
X180765260Y-98564000D01*
X180676740Y-98564000D01*
X180610558Y-98557482D01*
X180544373Y-98550963D01*
X180374534Y-98499443D01*
X180218009Y-98415778D01*
X180182271Y-98386448D01*
X180080814Y-98303186D01*
X179976589Y-98176186D01*
X179968222Y-98165991D01*
X179884557Y-98009466D01*
X179833037Y-97839627D01*
X179815641Y-97663000D01*
X179833037Y-97486373D01*
X179884557Y-97316534D01*
X179968222Y-97160009D01*
X179997552Y-97124271D01*
X180080814Y-97022814D01*
X180182271Y-96939552D01*
X180218009Y-96910222D01*
X180374534Y-96826557D01*
X180544373Y-96775037D01*
X180610558Y-96768518D01*
X180676740Y-96762000D01*
X180765260Y-96762000D01*
X180831442Y-96768518D01*
X180831442Y-96768518D01*
G37*
G36*
X178291442Y-96768518D02*
G01*
X178357627Y-96775037D01*
X178527466Y-96826557D01*
X178683991Y-96910222D01*
X178719729Y-96939552D01*
X178821186Y-97022814D01*
X178904448Y-97124271D01*
X178933778Y-97160009D01*
X179017443Y-97316534D01*
X179068963Y-97486373D01*
X179086359Y-97663000D01*
X179068963Y-97839627D01*
X179017443Y-98009466D01*
X178933778Y-98165991D01*
X178925411Y-98176186D01*
X178821186Y-98303186D01*
X178719729Y-98386448D01*
X178683991Y-98415778D01*
X178527466Y-98499443D01*
X178357627Y-98550963D01*
X178291442Y-98557482D01*
X178225260Y-98564000D01*
X178136740Y-98564000D01*
X178070558Y-98557482D01*
X178004373Y-98550963D01*
X177834534Y-98499443D01*
X177678009Y-98415778D01*
X177642271Y-98386448D01*
X177540814Y-98303186D01*
X177436589Y-98176186D01*
X177428222Y-98165991D01*
X177344557Y-98009466D01*
X177293037Y-97839627D01*
X177275641Y-97663000D01*
X177293037Y-97486373D01*
X177344557Y-97316534D01*
X177428222Y-97160009D01*
X177457552Y-97124271D01*
X177540814Y-97022814D01*
X177642271Y-96939552D01*
X177678009Y-96910222D01*
X177834534Y-96826557D01*
X178004373Y-96775037D01*
X178070558Y-96768518D01*
X178136740Y-96762000D01*
X178225260Y-96762000D01*
X178291442Y-96768518D01*
X178291442Y-96768518D01*
G37*
G36*
X140982000Y-98564000D02*
G01*
X139180000Y-98564000D01*
X139180000Y-96762000D01*
X140982000Y-96762000D01*
X140982000Y-98564000D01*
X140982000Y-98564000D01*
G37*
G36*
X175751442Y-96768518D02*
G01*
X175817627Y-96775037D01*
X175987466Y-96826557D01*
X176143991Y-96910222D01*
X176179729Y-96939552D01*
X176281186Y-97022814D01*
X176364448Y-97124271D01*
X176393778Y-97160009D01*
X176477443Y-97316534D01*
X176528963Y-97486373D01*
X176546359Y-97663000D01*
X176528963Y-97839627D01*
X176477443Y-98009466D01*
X176393778Y-98165991D01*
X176385411Y-98176186D01*
X176281186Y-98303186D01*
X176179729Y-98386448D01*
X176143991Y-98415778D01*
X175987466Y-98499443D01*
X175817627Y-98550963D01*
X175751442Y-98557482D01*
X175685260Y-98564000D01*
X175596740Y-98564000D01*
X175530558Y-98557482D01*
X175464373Y-98550963D01*
X175294534Y-98499443D01*
X175138009Y-98415778D01*
X175102271Y-98386448D01*
X175000814Y-98303186D01*
X174896589Y-98176186D01*
X174888222Y-98165991D01*
X174804557Y-98009466D01*
X174753037Y-97839627D01*
X174735641Y-97663000D01*
X174753037Y-97486373D01*
X174804557Y-97316534D01*
X174888222Y-97160009D01*
X174917552Y-97124271D01*
X175000814Y-97022814D01*
X175102271Y-96939552D01*
X175138009Y-96910222D01*
X175294534Y-96826557D01*
X175464373Y-96775037D01*
X175530558Y-96768518D01*
X175596740Y-96762000D01*
X175685260Y-96762000D01*
X175751442Y-96768518D01*
X175751442Y-96768518D01*
G37*
G36*
X142731442Y-96768518D02*
G01*
X142797627Y-96775037D01*
X142967466Y-96826557D01*
X143123991Y-96910222D01*
X143159729Y-96939552D01*
X143261186Y-97022814D01*
X143344448Y-97124271D01*
X143373778Y-97160009D01*
X143457443Y-97316534D01*
X143508963Y-97486373D01*
X143526359Y-97663000D01*
X143508963Y-97839627D01*
X143457443Y-98009466D01*
X143373778Y-98165991D01*
X143365411Y-98176186D01*
X143261186Y-98303186D01*
X143159729Y-98386448D01*
X143123991Y-98415778D01*
X142967466Y-98499443D01*
X142797627Y-98550963D01*
X142731442Y-98557482D01*
X142665260Y-98564000D01*
X142576740Y-98564000D01*
X142510558Y-98557482D01*
X142444373Y-98550963D01*
X142274534Y-98499443D01*
X142118009Y-98415778D01*
X142082271Y-98386448D01*
X141980814Y-98303186D01*
X141876589Y-98176186D01*
X141868222Y-98165991D01*
X141784557Y-98009466D01*
X141733037Y-97839627D01*
X141715641Y-97663000D01*
X141733037Y-97486373D01*
X141784557Y-97316534D01*
X141868222Y-97160009D01*
X141897552Y-97124271D01*
X141980814Y-97022814D01*
X142082271Y-96939552D01*
X142118009Y-96910222D01*
X142274534Y-96826557D01*
X142444373Y-96775037D01*
X142510558Y-96768518D01*
X142576740Y-96762000D01*
X142665260Y-96762000D01*
X142731442Y-96768518D01*
X142731442Y-96768518D01*
G37*
G36*
X173211442Y-96768518D02*
G01*
X173277627Y-96775037D01*
X173447466Y-96826557D01*
X173603991Y-96910222D01*
X173639729Y-96939552D01*
X173741186Y-97022814D01*
X173824448Y-97124271D01*
X173853778Y-97160009D01*
X173937443Y-97316534D01*
X173988963Y-97486373D01*
X174006359Y-97663000D01*
X173988963Y-97839627D01*
X173937443Y-98009466D01*
X173853778Y-98165991D01*
X173845411Y-98176186D01*
X173741186Y-98303186D01*
X173639729Y-98386448D01*
X173603991Y-98415778D01*
X173447466Y-98499443D01*
X173277627Y-98550963D01*
X173211442Y-98557482D01*
X173145260Y-98564000D01*
X173056740Y-98564000D01*
X172990558Y-98557482D01*
X172924373Y-98550963D01*
X172754534Y-98499443D01*
X172598009Y-98415778D01*
X172562271Y-98386448D01*
X172460814Y-98303186D01*
X172356589Y-98176186D01*
X172348222Y-98165991D01*
X172264557Y-98009466D01*
X172213037Y-97839627D01*
X172195641Y-97663000D01*
X172213037Y-97486373D01*
X172264557Y-97316534D01*
X172348222Y-97160009D01*
X172377552Y-97124271D01*
X172460814Y-97022814D01*
X172562271Y-96939552D01*
X172598009Y-96910222D01*
X172754534Y-96826557D01*
X172924373Y-96775037D01*
X172990558Y-96768518D01*
X173056740Y-96762000D01*
X173145260Y-96762000D01*
X173211442Y-96768518D01*
X173211442Y-96768518D01*
G37*
G36*
X145271442Y-96768518D02*
G01*
X145337627Y-96775037D01*
X145507466Y-96826557D01*
X145663991Y-96910222D01*
X145699729Y-96939552D01*
X145801186Y-97022814D01*
X145884448Y-97124271D01*
X145913778Y-97160009D01*
X145997443Y-97316534D01*
X146048963Y-97486373D01*
X146066359Y-97663000D01*
X146048963Y-97839627D01*
X145997443Y-98009466D01*
X145913778Y-98165991D01*
X145905411Y-98176186D01*
X145801186Y-98303186D01*
X145699729Y-98386448D01*
X145663991Y-98415778D01*
X145507466Y-98499443D01*
X145337627Y-98550963D01*
X145271442Y-98557482D01*
X145205260Y-98564000D01*
X145116740Y-98564000D01*
X145050558Y-98557482D01*
X144984373Y-98550963D01*
X144814534Y-98499443D01*
X144658009Y-98415778D01*
X144622271Y-98386448D01*
X144520814Y-98303186D01*
X144416589Y-98176186D01*
X144408222Y-98165991D01*
X144324557Y-98009466D01*
X144273037Y-97839627D01*
X144255641Y-97663000D01*
X144273037Y-97486373D01*
X144324557Y-97316534D01*
X144408222Y-97160009D01*
X144437552Y-97124271D01*
X144520814Y-97022814D01*
X144622271Y-96939552D01*
X144658009Y-96910222D01*
X144814534Y-96826557D01*
X144984373Y-96775037D01*
X145050558Y-96768518D01*
X145116740Y-96762000D01*
X145205260Y-96762000D01*
X145271442Y-96768518D01*
X145271442Y-96768518D01*
G37*
G36*
X170671442Y-96768518D02*
G01*
X170737627Y-96775037D01*
X170907466Y-96826557D01*
X171063991Y-96910222D01*
X171099729Y-96939552D01*
X171201186Y-97022814D01*
X171284448Y-97124271D01*
X171313778Y-97160009D01*
X171397443Y-97316534D01*
X171448963Y-97486373D01*
X171466359Y-97663000D01*
X171448963Y-97839627D01*
X171397443Y-98009466D01*
X171313778Y-98165991D01*
X171305411Y-98176186D01*
X171201186Y-98303186D01*
X171099729Y-98386448D01*
X171063991Y-98415778D01*
X170907466Y-98499443D01*
X170737627Y-98550963D01*
X170671442Y-98557482D01*
X170605260Y-98564000D01*
X170516740Y-98564000D01*
X170450558Y-98557482D01*
X170384373Y-98550963D01*
X170214534Y-98499443D01*
X170058009Y-98415778D01*
X170022271Y-98386448D01*
X169920814Y-98303186D01*
X169816589Y-98176186D01*
X169808222Y-98165991D01*
X169724557Y-98009466D01*
X169673037Y-97839627D01*
X169655641Y-97663000D01*
X169673037Y-97486373D01*
X169724557Y-97316534D01*
X169808222Y-97160009D01*
X169837552Y-97124271D01*
X169920814Y-97022814D01*
X170022271Y-96939552D01*
X170058009Y-96910222D01*
X170214534Y-96826557D01*
X170384373Y-96775037D01*
X170450558Y-96768518D01*
X170516740Y-96762000D01*
X170605260Y-96762000D01*
X170671442Y-96768518D01*
X170671442Y-96768518D01*
G37*
G36*
X147811442Y-96768518D02*
G01*
X147877627Y-96775037D01*
X148047466Y-96826557D01*
X148203991Y-96910222D01*
X148239729Y-96939552D01*
X148341186Y-97022814D01*
X148424448Y-97124271D01*
X148453778Y-97160009D01*
X148537443Y-97316534D01*
X148588963Y-97486373D01*
X148606359Y-97663000D01*
X148588963Y-97839627D01*
X148537443Y-98009466D01*
X148453778Y-98165991D01*
X148445411Y-98176186D01*
X148341186Y-98303186D01*
X148239729Y-98386448D01*
X148203991Y-98415778D01*
X148047466Y-98499443D01*
X147877627Y-98550963D01*
X147811442Y-98557482D01*
X147745260Y-98564000D01*
X147656740Y-98564000D01*
X147590558Y-98557482D01*
X147524373Y-98550963D01*
X147354534Y-98499443D01*
X147198009Y-98415778D01*
X147162271Y-98386448D01*
X147060814Y-98303186D01*
X146956589Y-98176186D01*
X146948222Y-98165991D01*
X146864557Y-98009466D01*
X146813037Y-97839627D01*
X146795641Y-97663000D01*
X146813037Y-97486373D01*
X146864557Y-97316534D01*
X146948222Y-97160009D01*
X146977552Y-97124271D01*
X147060814Y-97022814D01*
X147162271Y-96939552D01*
X147198009Y-96910222D01*
X147354534Y-96826557D01*
X147524373Y-96775037D01*
X147590558Y-96768518D01*
X147656740Y-96762000D01*
X147745260Y-96762000D01*
X147811442Y-96768518D01*
X147811442Y-96768518D01*
G37*
G36*
X168131442Y-96768518D02*
G01*
X168197627Y-96775037D01*
X168367466Y-96826557D01*
X168523991Y-96910222D01*
X168559729Y-96939552D01*
X168661186Y-97022814D01*
X168744448Y-97124271D01*
X168773778Y-97160009D01*
X168857443Y-97316534D01*
X168908963Y-97486373D01*
X168926359Y-97663000D01*
X168908963Y-97839627D01*
X168857443Y-98009466D01*
X168773778Y-98165991D01*
X168765411Y-98176186D01*
X168661186Y-98303186D01*
X168559729Y-98386448D01*
X168523991Y-98415778D01*
X168367466Y-98499443D01*
X168197627Y-98550963D01*
X168131442Y-98557482D01*
X168065260Y-98564000D01*
X167976740Y-98564000D01*
X167910558Y-98557482D01*
X167844373Y-98550963D01*
X167674534Y-98499443D01*
X167518009Y-98415778D01*
X167482271Y-98386448D01*
X167380814Y-98303186D01*
X167276589Y-98176186D01*
X167268222Y-98165991D01*
X167184557Y-98009466D01*
X167133037Y-97839627D01*
X167115641Y-97663000D01*
X167133037Y-97486373D01*
X167184557Y-97316534D01*
X167268222Y-97160009D01*
X167297552Y-97124271D01*
X167380814Y-97022814D01*
X167482271Y-96939552D01*
X167518009Y-96910222D01*
X167674534Y-96826557D01*
X167844373Y-96775037D01*
X167910558Y-96768518D01*
X167976740Y-96762000D01*
X168065260Y-96762000D01*
X168131442Y-96768518D01*
X168131442Y-96768518D01*
G37*
G36*
X150351442Y-96768518D02*
G01*
X150417627Y-96775037D01*
X150587466Y-96826557D01*
X150743991Y-96910222D01*
X150779729Y-96939552D01*
X150881186Y-97022814D01*
X150964448Y-97124271D01*
X150993778Y-97160009D01*
X151077443Y-97316534D01*
X151128963Y-97486373D01*
X151146359Y-97663000D01*
X151128963Y-97839627D01*
X151077443Y-98009466D01*
X150993778Y-98165991D01*
X150985411Y-98176186D01*
X150881186Y-98303186D01*
X150779729Y-98386448D01*
X150743991Y-98415778D01*
X150587466Y-98499443D01*
X150417627Y-98550963D01*
X150351442Y-98557482D01*
X150285260Y-98564000D01*
X150196740Y-98564000D01*
X150130558Y-98557482D01*
X150064373Y-98550963D01*
X149894534Y-98499443D01*
X149738009Y-98415778D01*
X149702271Y-98386448D01*
X149600814Y-98303186D01*
X149496589Y-98176186D01*
X149488222Y-98165991D01*
X149404557Y-98009466D01*
X149353037Y-97839627D01*
X149335641Y-97663000D01*
X149353037Y-97486373D01*
X149404557Y-97316534D01*
X149488222Y-97160009D01*
X149517552Y-97124271D01*
X149600814Y-97022814D01*
X149702271Y-96939552D01*
X149738009Y-96910222D01*
X149894534Y-96826557D01*
X150064373Y-96775037D01*
X150130558Y-96768518D01*
X150196740Y-96762000D01*
X150285260Y-96762000D01*
X150351442Y-96768518D01*
X150351442Y-96768518D01*
G37*
G36*
X165591442Y-96768518D02*
G01*
X165657627Y-96775037D01*
X165827466Y-96826557D01*
X165983991Y-96910222D01*
X166019729Y-96939552D01*
X166121186Y-97022814D01*
X166204448Y-97124271D01*
X166233778Y-97160009D01*
X166317443Y-97316534D01*
X166368963Y-97486373D01*
X166386359Y-97663000D01*
X166368963Y-97839627D01*
X166317443Y-98009466D01*
X166233778Y-98165991D01*
X166225411Y-98176186D01*
X166121186Y-98303186D01*
X166019729Y-98386448D01*
X165983991Y-98415778D01*
X165827466Y-98499443D01*
X165657627Y-98550963D01*
X165591442Y-98557482D01*
X165525260Y-98564000D01*
X165436740Y-98564000D01*
X165370558Y-98557482D01*
X165304373Y-98550963D01*
X165134534Y-98499443D01*
X164978009Y-98415778D01*
X164942271Y-98386448D01*
X164840814Y-98303186D01*
X164736589Y-98176186D01*
X164728222Y-98165991D01*
X164644557Y-98009466D01*
X164593037Y-97839627D01*
X164575641Y-97663000D01*
X164593037Y-97486373D01*
X164644557Y-97316534D01*
X164728222Y-97160009D01*
X164757552Y-97124271D01*
X164840814Y-97022814D01*
X164942271Y-96939552D01*
X164978009Y-96910222D01*
X165134534Y-96826557D01*
X165304373Y-96775037D01*
X165370558Y-96768518D01*
X165436740Y-96762000D01*
X165525260Y-96762000D01*
X165591442Y-96768518D01*
X165591442Y-96768518D01*
G37*
G36*
X152891442Y-96768518D02*
G01*
X152957627Y-96775037D01*
X153127466Y-96826557D01*
X153283991Y-96910222D01*
X153319729Y-96939552D01*
X153421186Y-97022814D01*
X153504448Y-97124271D01*
X153533778Y-97160009D01*
X153617443Y-97316534D01*
X153668963Y-97486373D01*
X153686359Y-97663000D01*
X153668963Y-97839627D01*
X153617443Y-98009466D01*
X153533778Y-98165991D01*
X153525411Y-98176186D01*
X153421186Y-98303186D01*
X153319729Y-98386448D01*
X153283991Y-98415778D01*
X153127466Y-98499443D01*
X152957627Y-98550963D01*
X152891442Y-98557482D01*
X152825260Y-98564000D01*
X152736740Y-98564000D01*
X152670558Y-98557482D01*
X152604373Y-98550963D01*
X152434534Y-98499443D01*
X152278009Y-98415778D01*
X152242271Y-98386448D01*
X152140814Y-98303186D01*
X152036589Y-98176186D01*
X152028222Y-98165991D01*
X151944557Y-98009466D01*
X151893037Y-97839627D01*
X151875641Y-97663000D01*
X151893037Y-97486373D01*
X151944557Y-97316534D01*
X152028222Y-97160009D01*
X152057552Y-97124271D01*
X152140814Y-97022814D01*
X152242271Y-96939552D01*
X152278009Y-96910222D01*
X152434534Y-96826557D01*
X152604373Y-96775037D01*
X152670558Y-96768518D01*
X152736740Y-96762000D01*
X152825260Y-96762000D01*
X152891442Y-96768518D01*
X152891442Y-96768518D01*
G37*
G36*
X155431442Y-96768518D02*
G01*
X155497627Y-96775037D01*
X155667466Y-96826557D01*
X155823991Y-96910222D01*
X155859729Y-96939552D01*
X155961186Y-97022814D01*
X156044448Y-97124271D01*
X156073778Y-97160009D01*
X156157443Y-97316534D01*
X156208963Y-97486373D01*
X156226359Y-97663000D01*
X156208963Y-97839627D01*
X156157443Y-98009466D01*
X156073778Y-98165991D01*
X156065411Y-98176186D01*
X155961186Y-98303186D01*
X155859729Y-98386448D01*
X155823991Y-98415778D01*
X155667466Y-98499443D01*
X155497627Y-98550963D01*
X155431442Y-98557482D01*
X155365260Y-98564000D01*
X155276740Y-98564000D01*
X155210558Y-98557482D01*
X155144373Y-98550963D01*
X154974534Y-98499443D01*
X154818009Y-98415778D01*
X154782271Y-98386448D01*
X154680814Y-98303186D01*
X154576589Y-98176186D01*
X154568222Y-98165991D01*
X154484557Y-98009466D01*
X154433037Y-97839627D01*
X154415641Y-97663000D01*
X154433037Y-97486373D01*
X154484557Y-97316534D01*
X154568222Y-97160009D01*
X154597552Y-97124271D01*
X154680814Y-97022814D01*
X154782271Y-96939552D01*
X154818009Y-96910222D01*
X154974534Y-96826557D01*
X155144373Y-96775037D01*
X155210558Y-96768518D01*
X155276740Y-96762000D01*
X155365260Y-96762000D01*
X155431442Y-96768518D01*
X155431442Y-96768518D01*
G37*
G36*
X160511442Y-96768518D02*
G01*
X160577627Y-96775037D01*
X160747466Y-96826557D01*
X160903991Y-96910222D01*
X160939729Y-96939552D01*
X161041186Y-97022814D01*
X161124448Y-97124271D01*
X161153778Y-97160009D01*
X161237443Y-97316534D01*
X161288963Y-97486373D01*
X161306359Y-97663000D01*
X161288963Y-97839627D01*
X161237443Y-98009466D01*
X161153778Y-98165991D01*
X161145411Y-98176186D01*
X161041186Y-98303186D01*
X160939729Y-98386448D01*
X160903991Y-98415778D01*
X160747466Y-98499443D01*
X160577627Y-98550963D01*
X160511442Y-98557482D01*
X160445260Y-98564000D01*
X160356740Y-98564000D01*
X160290558Y-98557482D01*
X160224373Y-98550963D01*
X160054534Y-98499443D01*
X159898009Y-98415778D01*
X159862271Y-98386448D01*
X159760814Y-98303186D01*
X159656589Y-98176186D01*
X159648222Y-98165991D01*
X159564557Y-98009466D01*
X159513037Y-97839627D01*
X159495641Y-97663000D01*
X159513037Y-97486373D01*
X159564557Y-97316534D01*
X159648222Y-97160009D01*
X159677552Y-97124271D01*
X159760814Y-97022814D01*
X159862271Y-96939552D01*
X159898009Y-96910222D01*
X160054534Y-96826557D01*
X160224373Y-96775037D01*
X160290558Y-96768518D01*
X160356740Y-96762000D01*
X160445260Y-96762000D01*
X160511442Y-96768518D01*
X160511442Y-96768518D01*
G37*
G36*
X129269442Y-96641518D02*
G01*
X129335627Y-96648037D01*
X129505466Y-96699557D01*
X129661991Y-96783222D01*
X129697729Y-96812552D01*
X129799186Y-96895814D01*
X129882448Y-96997271D01*
X129911778Y-97033009D01*
X129995443Y-97189534D01*
X130046963Y-97359373D01*
X130064359Y-97536000D01*
X130046963Y-97712627D01*
X129995443Y-97882466D01*
X129911778Y-98038991D01*
X129882448Y-98074729D01*
X129799186Y-98176186D01*
X129697729Y-98259448D01*
X129661991Y-98288778D01*
X129505466Y-98372443D01*
X129335627Y-98423963D01*
X129269443Y-98430481D01*
X129203260Y-98437000D01*
X129114740Y-98437000D01*
X129048558Y-98430482D01*
X128982373Y-98423963D01*
X128812534Y-98372443D01*
X128656009Y-98288778D01*
X128620271Y-98259448D01*
X128518814Y-98176186D01*
X128435552Y-98074729D01*
X128406222Y-98038991D01*
X128322557Y-97882466D01*
X128271037Y-97712627D01*
X128253641Y-97536000D01*
X128271037Y-97359373D01*
X128322557Y-97189534D01*
X128406222Y-97033009D01*
X128435552Y-96997271D01*
X128518814Y-96895814D01*
X128620271Y-96812552D01*
X128656009Y-96783222D01*
X128812534Y-96699557D01*
X128982373Y-96648037D01*
X129048557Y-96641519D01*
X129114740Y-96635000D01*
X129203260Y-96635000D01*
X129269442Y-96641518D01*
X129269442Y-96641518D01*
G37*
G36*
X119900000Y-98437000D02*
G01*
X118098000Y-98437000D01*
X118098000Y-96635000D01*
X119900000Y-96635000D01*
X119900000Y-98437000D01*
X119900000Y-98437000D01*
G37*
G36*
X126729442Y-96641518D02*
G01*
X126795627Y-96648037D01*
X126965466Y-96699557D01*
X127121991Y-96783222D01*
X127157729Y-96812552D01*
X127259186Y-96895814D01*
X127342448Y-96997271D01*
X127371778Y-97033009D01*
X127455443Y-97189534D01*
X127506963Y-97359373D01*
X127524359Y-97536000D01*
X127506963Y-97712627D01*
X127455443Y-97882466D01*
X127371778Y-98038991D01*
X127342448Y-98074729D01*
X127259186Y-98176186D01*
X127157729Y-98259448D01*
X127121991Y-98288778D01*
X126965466Y-98372443D01*
X126795627Y-98423963D01*
X126729443Y-98430481D01*
X126663260Y-98437000D01*
X126574740Y-98437000D01*
X126508558Y-98430482D01*
X126442373Y-98423963D01*
X126272534Y-98372443D01*
X126116009Y-98288778D01*
X126080271Y-98259448D01*
X125978814Y-98176186D01*
X125895552Y-98074729D01*
X125866222Y-98038991D01*
X125782557Y-97882466D01*
X125731037Y-97712627D01*
X125713641Y-97536000D01*
X125731037Y-97359373D01*
X125782557Y-97189534D01*
X125866222Y-97033009D01*
X125895552Y-96997271D01*
X125978814Y-96895814D01*
X126080271Y-96812552D01*
X126116009Y-96783222D01*
X126272534Y-96699557D01*
X126442373Y-96648037D01*
X126508557Y-96641519D01*
X126574740Y-96635000D01*
X126663260Y-96635000D01*
X126729442Y-96641518D01*
X126729442Y-96641518D01*
G37*
G36*
X121649442Y-96641518D02*
G01*
X121715627Y-96648037D01*
X121885466Y-96699557D01*
X122041991Y-96783222D01*
X122077729Y-96812552D01*
X122179186Y-96895814D01*
X122262448Y-96997271D01*
X122291778Y-97033009D01*
X122375443Y-97189534D01*
X122426963Y-97359373D01*
X122444359Y-97536000D01*
X122426963Y-97712627D01*
X122375443Y-97882466D01*
X122291778Y-98038991D01*
X122262448Y-98074729D01*
X122179186Y-98176186D01*
X122077729Y-98259448D01*
X122041991Y-98288778D01*
X121885466Y-98372443D01*
X121715627Y-98423963D01*
X121649443Y-98430481D01*
X121583260Y-98437000D01*
X121494740Y-98437000D01*
X121428558Y-98430482D01*
X121362373Y-98423963D01*
X121192534Y-98372443D01*
X121036009Y-98288778D01*
X121000271Y-98259448D01*
X120898814Y-98176186D01*
X120815552Y-98074729D01*
X120786222Y-98038991D01*
X120702557Y-97882466D01*
X120651037Y-97712627D01*
X120633641Y-97536000D01*
X120651037Y-97359373D01*
X120702557Y-97189534D01*
X120786222Y-97033009D01*
X120815552Y-96997271D01*
X120898814Y-96895814D01*
X121000271Y-96812552D01*
X121036009Y-96783222D01*
X121192534Y-96699557D01*
X121362373Y-96648037D01*
X121428557Y-96641519D01*
X121494740Y-96635000D01*
X121583260Y-96635000D01*
X121649442Y-96641518D01*
X121649442Y-96641518D01*
G37*
G36*
X124189442Y-96641518D02*
G01*
X124255627Y-96648037D01*
X124425466Y-96699557D01*
X124581991Y-96783222D01*
X124617729Y-96812552D01*
X124719186Y-96895814D01*
X124802448Y-96997271D01*
X124831778Y-97033009D01*
X124915443Y-97189534D01*
X124966963Y-97359373D01*
X124984359Y-97536000D01*
X124966963Y-97712627D01*
X124915443Y-97882466D01*
X124831778Y-98038991D01*
X124802448Y-98074729D01*
X124719186Y-98176186D01*
X124617729Y-98259448D01*
X124581991Y-98288778D01*
X124425466Y-98372443D01*
X124255627Y-98423963D01*
X124189443Y-98430481D01*
X124123260Y-98437000D01*
X124034740Y-98437000D01*
X123968558Y-98430482D01*
X123902373Y-98423963D01*
X123732534Y-98372443D01*
X123576009Y-98288778D01*
X123540271Y-98259448D01*
X123438814Y-98176186D01*
X123355552Y-98074729D01*
X123326222Y-98038991D01*
X123242557Y-97882466D01*
X123191037Y-97712627D01*
X123173641Y-97536000D01*
X123191037Y-97359373D01*
X123242557Y-97189534D01*
X123326222Y-97033009D01*
X123355552Y-96997271D01*
X123438814Y-96895814D01*
X123540271Y-96812552D01*
X123576009Y-96783222D01*
X123732534Y-96699557D01*
X123902373Y-96648037D01*
X123968557Y-96641519D01*
X124034740Y-96635000D01*
X124123260Y-96635000D01*
X124189442Y-96641518D01*
X124189442Y-96641518D01*
G37*
G36*
X123077562Y-93058181D02*
G01*
X123112481Y-93068774D01*
X123144663Y-93085976D01*
X123172873Y-93109127D01*
X123196024Y-93137337D01*
X123213226Y-93169519D01*
X123223819Y-93204438D01*
X123228000Y-93246895D01*
X123228000Y-94713105D01*
X123223819Y-94755562D01*
X123213226Y-94790481D01*
X123196024Y-94822663D01*
X123172873Y-94850873D01*
X123144663Y-94874024D01*
X123112481Y-94891226D01*
X123077562Y-94901819D01*
X123035105Y-94906000D01*
X121893895Y-94906000D01*
X121851438Y-94901819D01*
X121816519Y-94891226D01*
X121784337Y-94874024D01*
X121756127Y-94850873D01*
X121732976Y-94822663D01*
X121715774Y-94790481D01*
X121705181Y-94755562D01*
X121701000Y-94713105D01*
X121701000Y-93246895D01*
X121705181Y-93204438D01*
X121715774Y-93169519D01*
X121732976Y-93137337D01*
X121756127Y-93109127D01*
X121784337Y-93085976D01*
X121816519Y-93068774D01*
X121851438Y-93058181D01*
X121893895Y-93054000D01*
X123035105Y-93054000D01*
X123077562Y-93058181D01*
X123077562Y-93058181D01*
G37*
G36*
X126052562Y-93058181D02*
G01*
X126087481Y-93068774D01*
X126119663Y-93085976D01*
X126147873Y-93109127D01*
X126171024Y-93137337D01*
X126188226Y-93169519D01*
X126198819Y-93204438D01*
X126203000Y-93246895D01*
X126203000Y-94713105D01*
X126198819Y-94755562D01*
X126188226Y-94790481D01*
X126171024Y-94822663D01*
X126147873Y-94850873D01*
X126119663Y-94874024D01*
X126087481Y-94891226D01*
X126052562Y-94901819D01*
X126010105Y-94906000D01*
X124868895Y-94906000D01*
X124826438Y-94901819D01*
X124791519Y-94891226D01*
X124759337Y-94874024D01*
X124731127Y-94850873D01*
X124707976Y-94822663D01*
X124690774Y-94790481D01*
X124680181Y-94755562D01*
X124676000Y-94713105D01*
X124676000Y-93246895D01*
X124680181Y-93204438D01*
X124690774Y-93169519D01*
X124707976Y-93137337D01*
X124731127Y-93109127D01*
X124759337Y-93085976D01*
X124791519Y-93068774D01*
X124826438Y-93058181D01*
X124868895Y-93054000D01*
X126010105Y-93054000D01*
X126052562Y-93058181D01*
X126052562Y-93058181D01*
G37*
G36*
X157576987Y-75350524D02*
G01*
X157595730Y-75356210D01*
X157612997Y-75365439D01*
X157628136Y-75377864D01*
X157640561Y-75393003D01*
X157649790Y-75410270D01*
X157655476Y-75429013D01*
X157658000Y-75454640D01*
X157658000Y-75893360D01*
X157655476Y-75918987D01*
X157649790Y-75937730D01*
X157640561Y-75954997D01*
X157628135Y-75970138D01*
X157619317Y-75977375D01*
X157601990Y-75994702D01*
X157588377Y-76015076D01*
X157578999Y-76037715D01*
X157574219Y-76061748D01*
X157574219Y-76086252D01*
X157578999Y-76110285D01*
X157588377Y-76132924D01*
X157601991Y-76153299D01*
X157619317Y-76170625D01*
X157628135Y-76177862D01*
X157640561Y-76193003D01*
X157649790Y-76210270D01*
X157655476Y-76229013D01*
X157658000Y-76254640D01*
X157658000Y-76693360D01*
X157655476Y-76718987D01*
X157649790Y-76737730D01*
X157640561Y-76754997D01*
X157628135Y-76770138D01*
X157619317Y-76777375D01*
X157601990Y-76794702D01*
X157588377Y-76815076D01*
X157578999Y-76837715D01*
X157574219Y-76861748D01*
X157574219Y-76886252D01*
X157578999Y-76910285D01*
X157588377Y-76932924D01*
X157601991Y-76953299D01*
X157619317Y-76970625D01*
X157628135Y-76977862D01*
X157640561Y-76993003D01*
X157649790Y-77010270D01*
X157655476Y-77029013D01*
X157658000Y-77054640D01*
X157658000Y-77493360D01*
X157655476Y-77518987D01*
X157649790Y-77537730D01*
X157640561Y-77554997D01*
X157628135Y-77570138D01*
X157619317Y-77577375D01*
X157601990Y-77594702D01*
X157588377Y-77615076D01*
X157578999Y-77637715D01*
X157574219Y-77661748D01*
X157574219Y-77686252D01*
X157578999Y-77710285D01*
X157588377Y-77732924D01*
X157601991Y-77753299D01*
X157619317Y-77770625D01*
X157628135Y-77777862D01*
X157640561Y-77793003D01*
X157649790Y-77810270D01*
X157655476Y-77829013D01*
X157658000Y-77854640D01*
X157658000Y-78293360D01*
X157655476Y-78318987D01*
X157649790Y-78337730D01*
X157640561Y-78354997D01*
X157628135Y-78370138D01*
X157619317Y-78377375D01*
X157601990Y-78394702D01*
X157588377Y-78415076D01*
X157578999Y-78437715D01*
X157574219Y-78461748D01*
X157574219Y-78486252D01*
X157578999Y-78510285D01*
X157588377Y-78532924D01*
X157601991Y-78553299D01*
X157619317Y-78570625D01*
X157628135Y-78577862D01*
X157640561Y-78593003D01*
X157649790Y-78610270D01*
X157655476Y-78629013D01*
X157658000Y-78654640D01*
X157658000Y-79093360D01*
X157655476Y-79118987D01*
X157649790Y-79137730D01*
X157640561Y-79154997D01*
X157628135Y-79170138D01*
X157619317Y-79177375D01*
X157601990Y-79194702D01*
X157588377Y-79215076D01*
X157578999Y-79237715D01*
X157574219Y-79261748D01*
X157574219Y-79286252D01*
X157578999Y-79310285D01*
X157588377Y-79332924D01*
X157601991Y-79353299D01*
X157619317Y-79370625D01*
X157628135Y-79377862D01*
X157640561Y-79393003D01*
X157649790Y-79410270D01*
X157655476Y-79429013D01*
X157658000Y-79454640D01*
X157658000Y-79893360D01*
X157655476Y-79918987D01*
X157649790Y-79937730D01*
X157640561Y-79954997D01*
X157628135Y-79970138D01*
X157619317Y-79977375D01*
X157601990Y-79994702D01*
X157588377Y-80015076D01*
X157578999Y-80037715D01*
X157574219Y-80061748D01*
X157574219Y-80086252D01*
X157578999Y-80110285D01*
X157588377Y-80132924D01*
X157601991Y-80153299D01*
X157619317Y-80170625D01*
X157628135Y-80177862D01*
X157640561Y-80193003D01*
X157649790Y-80210270D01*
X157655476Y-80229013D01*
X157658000Y-80254640D01*
X157658000Y-80693360D01*
X157655476Y-80718987D01*
X157649790Y-80737730D01*
X157640561Y-80754997D01*
X157628135Y-80770138D01*
X157619317Y-80777375D01*
X157601990Y-80794702D01*
X157588377Y-80815076D01*
X157578999Y-80837715D01*
X157574219Y-80861748D01*
X157574219Y-80886252D01*
X157578999Y-80910285D01*
X157588377Y-80932924D01*
X157601991Y-80953299D01*
X157619317Y-80970625D01*
X157628135Y-80977862D01*
X157640561Y-80993003D01*
X157649790Y-81010270D01*
X157655476Y-81029013D01*
X157658000Y-81054640D01*
X157658000Y-81493360D01*
X157655476Y-81518987D01*
X157649790Y-81537730D01*
X157640561Y-81554997D01*
X157628135Y-81570138D01*
X157619317Y-81577375D01*
X157601990Y-81594702D01*
X157588377Y-81615076D01*
X157578999Y-81637715D01*
X157574219Y-81661748D01*
X157574219Y-81686252D01*
X157578999Y-81710285D01*
X157588377Y-81732924D01*
X157601991Y-81753299D01*
X157619317Y-81770625D01*
X157628135Y-81777862D01*
X157640561Y-81793003D01*
X157649790Y-81810270D01*
X157655476Y-81829013D01*
X157658000Y-81854640D01*
X157658000Y-82293360D01*
X157655476Y-82318987D01*
X157649790Y-82337730D01*
X157640561Y-82354997D01*
X157628135Y-82370138D01*
X157619317Y-82377375D01*
X157601990Y-82394702D01*
X157588377Y-82415076D01*
X157578999Y-82437715D01*
X157574219Y-82461748D01*
X157574219Y-82486252D01*
X157578999Y-82510285D01*
X157588377Y-82532924D01*
X157601991Y-82553299D01*
X157619317Y-82570625D01*
X157628135Y-82577862D01*
X157640561Y-82593003D01*
X157649790Y-82610270D01*
X157655476Y-82629013D01*
X157658000Y-82654640D01*
X157658000Y-83093360D01*
X157655476Y-83118987D01*
X157649790Y-83137730D01*
X157640561Y-83154997D01*
X157628135Y-83170138D01*
X157619317Y-83177375D01*
X157601990Y-83194702D01*
X157588377Y-83215076D01*
X157578999Y-83237715D01*
X157574219Y-83261748D01*
X157574219Y-83286252D01*
X157578999Y-83310285D01*
X157588377Y-83332924D01*
X157601991Y-83353299D01*
X157619317Y-83370625D01*
X157628135Y-83377862D01*
X157640561Y-83393003D01*
X157649790Y-83410270D01*
X157655476Y-83429013D01*
X157658000Y-83454640D01*
X157658000Y-83893360D01*
X157655476Y-83918987D01*
X157649790Y-83937730D01*
X157640561Y-83954997D01*
X157628135Y-83970138D01*
X157619317Y-83977375D01*
X157601990Y-83994702D01*
X157588377Y-84015076D01*
X157578999Y-84037715D01*
X157574219Y-84061748D01*
X157574219Y-84086252D01*
X157578999Y-84110285D01*
X157588377Y-84132924D01*
X157601991Y-84153299D01*
X157619317Y-84170625D01*
X157628135Y-84177862D01*
X157640561Y-84193003D01*
X157649790Y-84210270D01*
X157655476Y-84229013D01*
X157658000Y-84254640D01*
X157658000Y-84693360D01*
X157655476Y-84718987D01*
X157649790Y-84737730D01*
X157640561Y-84754997D01*
X157628135Y-84770138D01*
X157619317Y-84777375D01*
X157601990Y-84794702D01*
X157588377Y-84815076D01*
X157578999Y-84837715D01*
X157574219Y-84861748D01*
X157574219Y-84886252D01*
X157578999Y-84910285D01*
X157588377Y-84932924D01*
X157601991Y-84953299D01*
X157619317Y-84970625D01*
X157628135Y-84977862D01*
X157640561Y-84993003D01*
X157649790Y-85010270D01*
X157655476Y-85029013D01*
X157658000Y-85054640D01*
X157658000Y-85493360D01*
X157655476Y-85518987D01*
X157649790Y-85537730D01*
X157640561Y-85554997D01*
X157628135Y-85570138D01*
X157619317Y-85577375D01*
X157601990Y-85594702D01*
X157588377Y-85615076D01*
X157578999Y-85637715D01*
X157574219Y-85661748D01*
X157574219Y-85686252D01*
X157578999Y-85710285D01*
X157588377Y-85732924D01*
X157601991Y-85753299D01*
X157619317Y-85770625D01*
X157628135Y-85777862D01*
X157640561Y-85793003D01*
X157649790Y-85810270D01*
X157655476Y-85829013D01*
X157658000Y-85854640D01*
X157658000Y-86293360D01*
X157655476Y-86318987D01*
X157649790Y-86337730D01*
X157640561Y-86354997D01*
X157628135Y-86370138D01*
X157619317Y-86377375D01*
X157601990Y-86394702D01*
X157588377Y-86415076D01*
X157578999Y-86437715D01*
X157574219Y-86461748D01*
X157574219Y-86486252D01*
X157578999Y-86510285D01*
X157588377Y-86532924D01*
X157601991Y-86553299D01*
X157619317Y-86570625D01*
X157628135Y-86577862D01*
X157640561Y-86593003D01*
X157649790Y-86610270D01*
X157655476Y-86629013D01*
X157658000Y-86654640D01*
X157658000Y-87093360D01*
X157655476Y-87118987D01*
X157649790Y-87137730D01*
X157640561Y-87154997D01*
X157628135Y-87170138D01*
X157619317Y-87177375D01*
X157601990Y-87194702D01*
X157588377Y-87215076D01*
X157578999Y-87237715D01*
X157574219Y-87261748D01*
X157574219Y-87286252D01*
X157578999Y-87310285D01*
X157588377Y-87332924D01*
X157601991Y-87353299D01*
X157619317Y-87370625D01*
X157628135Y-87377862D01*
X157640561Y-87393003D01*
X157649790Y-87410270D01*
X157655476Y-87429013D01*
X157658000Y-87454640D01*
X157658000Y-87893360D01*
X157655476Y-87918987D01*
X157649790Y-87937730D01*
X157640561Y-87954997D01*
X157628135Y-87970138D01*
X157619317Y-87977375D01*
X157601990Y-87994702D01*
X157588377Y-88015076D01*
X157578999Y-88037715D01*
X157574219Y-88061748D01*
X157574219Y-88086252D01*
X157578999Y-88110285D01*
X157588377Y-88132924D01*
X157601991Y-88153299D01*
X157619317Y-88170625D01*
X157628135Y-88177862D01*
X157640561Y-88193003D01*
X157649790Y-88210270D01*
X157655476Y-88229013D01*
X157658000Y-88254640D01*
X157658000Y-88693360D01*
X157655476Y-88718987D01*
X157649790Y-88737730D01*
X157640561Y-88754997D01*
X157628135Y-88770138D01*
X157619317Y-88777375D01*
X157601990Y-88794702D01*
X157588377Y-88815076D01*
X157578999Y-88837715D01*
X157574219Y-88861748D01*
X157574219Y-88886252D01*
X157578999Y-88910285D01*
X157588377Y-88932924D01*
X157601991Y-88953299D01*
X157619317Y-88970625D01*
X157628135Y-88977862D01*
X157640561Y-88993003D01*
X157649790Y-89010270D01*
X157655476Y-89029013D01*
X157658000Y-89054640D01*
X157658000Y-89493360D01*
X157655476Y-89518987D01*
X157649790Y-89537730D01*
X157640561Y-89554997D01*
X157628135Y-89570138D01*
X157619317Y-89577375D01*
X157601990Y-89594702D01*
X157588377Y-89615076D01*
X157578999Y-89637715D01*
X157574219Y-89661748D01*
X157574219Y-89686252D01*
X157578999Y-89710285D01*
X157588377Y-89732924D01*
X157601991Y-89753299D01*
X157619317Y-89770625D01*
X157628135Y-89777862D01*
X157640561Y-89793003D01*
X157649790Y-89810270D01*
X157655476Y-89829013D01*
X157658000Y-89854640D01*
X157658000Y-90293360D01*
X157655476Y-90318987D01*
X157649790Y-90337730D01*
X157640561Y-90354997D01*
X157628135Y-90370138D01*
X157619317Y-90377375D01*
X157601990Y-90394702D01*
X157588377Y-90415076D01*
X157578999Y-90437715D01*
X157574219Y-90461748D01*
X157574219Y-90486252D01*
X157578999Y-90510285D01*
X157588377Y-90532924D01*
X157601991Y-90553299D01*
X157619317Y-90570625D01*
X157628135Y-90577862D01*
X157640561Y-90593003D01*
X157649790Y-90610270D01*
X157655476Y-90629013D01*
X157658000Y-90654640D01*
X157658000Y-91093360D01*
X157655476Y-91118987D01*
X157649790Y-91137730D01*
X157640561Y-91154997D01*
X157628135Y-91170138D01*
X157619317Y-91177375D01*
X157601990Y-91194702D01*
X157588377Y-91215076D01*
X157578999Y-91237715D01*
X157574219Y-91261748D01*
X157574219Y-91286252D01*
X157578999Y-91310285D01*
X157588377Y-91332924D01*
X157601991Y-91353299D01*
X157619317Y-91370625D01*
X157628135Y-91377862D01*
X157640561Y-91393003D01*
X157649790Y-91410270D01*
X157655476Y-91429013D01*
X157658000Y-91454640D01*
X157658000Y-91893360D01*
X157655476Y-91918987D01*
X157649790Y-91937730D01*
X157640561Y-91954997D01*
X157628135Y-91970138D01*
X157619317Y-91977375D01*
X157601990Y-91994702D01*
X157588377Y-92015076D01*
X157578999Y-92037715D01*
X157574219Y-92061748D01*
X157574219Y-92086252D01*
X157578999Y-92110285D01*
X157588377Y-92132924D01*
X157601991Y-92153299D01*
X157619317Y-92170625D01*
X157628135Y-92177862D01*
X157640561Y-92193003D01*
X157649790Y-92210270D01*
X157655476Y-92229013D01*
X157658000Y-92254640D01*
X157658000Y-92693360D01*
X157655476Y-92718987D01*
X157649790Y-92737730D01*
X157640561Y-92754997D01*
X157628136Y-92770136D01*
X157612997Y-92782561D01*
X157595730Y-92791790D01*
X157576987Y-92797476D01*
X157551360Y-92800000D01*
X156137640Y-92800000D01*
X156112013Y-92797476D01*
X156093270Y-92791790D01*
X156076003Y-92782561D01*
X156060864Y-92770136D01*
X156048439Y-92754997D01*
X156039210Y-92737730D01*
X156033524Y-92718987D01*
X156031000Y-92693360D01*
X156031000Y-92254640D01*
X156033524Y-92229013D01*
X156039210Y-92210270D01*
X156048439Y-92193003D01*
X156060865Y-92177862D01*
X156069683Y-92170625D01*
X156087010Y-92153298D01*
X156100623Y-92132924D01*
X156110001Y-92110285D01*
X156114781Y-92086252D01*
X156114781Y-92061748D01*
X156110001Y-92037715D01*
X156100623Y-92015076D01*
X156087009Y-91994701D01*
X156069683Y-91977375D01*
X156060865Y-91970138D01*
X156048439Y-91954997D01*
X156039210Y-91937730D01*
X156033524Y-91918987D01*
X156031000Y-91893360D01*
X156031000Y-91454640D01*
X156033524Y-91429013D01*
X156039210Y-91410270D01*
X156048439Y-91393003D01*
X156060865Y-91377862D01*
X156069683Y-91370625D01*
X156087010Y-91353298D01*
X156100623Y-91332924D01*
X156110001Y-91310285D01*
X156114781Y-91286252D01*
X156114781Y-91261748D01*
X156110001Y-91237715D01*
X156100623Y-91215076D01*
X156087009Y-91194701D01*
X156069683Y-91177375D01*
X156060865Y-91170138D01*
X156048439Y-91154997D01*
X156039210Y-91137730D01*
X156033524Y-91118987D01*
X156031000Y-91093360D01*
X156031000Y-90654640D01*
X156033524Y-90629013D01*
X156039210Y-90610270D01*
X156048439Y-90593003D01*
X156060865Y-90577862D01*
X156069683Y-90570625D01*
X156087010Y-90553298D01*
X156100623Y-90532924D01*
X156110001Y-90510285D01*
X156114781Y-90486252D01*
X156114781Y-90461748D01*
X156110001Y-90437715D01*
X156100623Y-90415076D01*
X156087009Y-90394701D01*
X156069683Y-90377375D01*
X156060865Y-90370138D01*
X156048439Y-90354997D01*
X156039210Y-90337730D01*
X156033524Y-90318987D01*
X156031000Y-90293360D01*
X156031000Y-89854640D01*
X156033524Y-89829013D01*
X156039210Y-89810270D01*
X156048439Y-89793003D01*
X156060865Y-89777862D01*
X156069683Y-89770625D01*
X156087010Y-89753298D01*
X156100623Y-89732924D01*
X156110001Y-89710285D01*
X156114781Y-89686252D01*
X156114781Y-89661748D01*
X156110001Y-89637715D01*
X156100623Y-89615076D01*
X156087009Y-89594701D01*
X156069683Y-89577375D01*
X156060865Y-89570138D01*
X156048439Y-89554997D01*
X156039210Y-89537730D01*
X156033524Y-89518987D01*
X156031000Y-89493360D01*
X156031000Y-89054640D01*
X156033524Y-89029013D01*
X156039210Y-89010270D01*
X156048439Y-88993003D01*
X156060865Y-88977862D01*
X156069683Y-88970625D01*
X156087010Y-88953298D01*
X156100623Y-88932924D01*
X156110001Y-88910285D01*
X156114781Y-88886252D01*
X156114781Y-88861748D01*
X156110001Y-88837715D01*
X156100623Y-88815076D01*
X156087009Y-88794701D01*
X156069683Y-88777375D01*
X156060865Y-88770138D01*
X156048439Y-88754997D01*
X156039210Y-88737730D01*
X156033524Y-88718987D01*
X156031000Y-88693360D01*
X156031000Y-88254640D01*
X156033524Y-88229013D01*
X156039210Y-88210270D01*
X156048439Y-88193003D01*
X156060865Y-88177862D01*
X156069683Y-88170625D01*
X156087010Y-88153298D01*
X156100623Y-88132924D01*
X156110001Y-88110285D01*
X156114781Y-88086252D01*
X156114781Y-88061748D01*
X156110001Y-88037715D01*
X156100623Y-88015076D01*
X156087009Y-87994701D01*
X156069683Y-87977375D01*
X156060865Y-87970138D01*
X156048439Y-87954997D01*
X156039210Y-87937730D01*
X156033524Y-87918987D01*
X156031000Y-87893360D01*
X156031000Y-87454640D01*
X156033524Y-87429013D01*
X156039210Y-87410270D01*
X156048439Y-87393003D01*
X156060865Y-87377862D01*
X156069683Y-87370625D01*
X156087010Y-87353298D01*
X156100623Y-87332924D01*
X156110001Y-87310285D01*
X156114781Y-87286252D01*
X156114781Y-87261748D01*
X156110001Y-87237715D01*
X156100623Y-87215076D01*
X156087009Y-87194701D01*
X156069683Y-87177375D01*
X156060865Y-87170138D01*
X156048439Y-87154997D01*
X156039210Y-87137730D01*
X156033524Y-87118987D01*
X156031000Y-87093360D01*
X156031000Y-86654640D01*
X156033524Y-86629013D01*
X156039210Y-86610270D01*
X156048439Y-86593003D01*
X156060865Y-86577862D01*
X156069683Y-86570625D01*
X156087010Y-86553298D01*
X156100623Y-86532924D01*
X156110001Y-86510285D01*
X156114781Y-86486252D01*
X156114781Y-86461748D01*
X156110001Y-86437715D01*
X156100623Y-86415076D01*
X156087009Y-86394701D01*
X156069683Y-86377375D01*
X156060865Y-86370138D01*
X156048439Y-86354997D01*
X156039210Y-86337730D01*
X156033524Y-86318987D01*
X156031000Y-86293360D01*
X156031000Y-85854640D01*
X156033524Y-85829013D01*
X156039210Y-85810270D01*
X156048439Y-85793003D01*
X156060865Y-85777862D01*
X156069683Y-85770625D01*
X156087010Y-85753298D01*
X156100623Y-85732924D01*
X156110001Y-85710285D01*
X156114781Y-85686252D01*
X156114781Y-85661748D01*
X156110001Y-85637715D01*
X156100623Y-85615076D01*
X156087009Y-85594701D01*
X156069683Y-85577375D01*
X156060865Y-85570138D01*
X156048439Y-85554997D01*
X156039210Y-85537730D01*
X156033524Y-85518987D01*
X156031000Y-85493360D01*
X156031000Y-85054640D01*
X156033524Y-85029013D01*
X156039210Y-85010270D01*
X156048439Y-84993003D01*
X156060865Y-84977862D01*
X156069683Y-84970625D01*
X156087010Y-84953298D01*
X156100623Y-84932924D01*
X156110001Y-84910285D01*
X156114781Y-84886252D01*
X156114781Y-84861748D01*
X156110001Y-84837715D01*
X156100623Y-84815076D01*
X156087009Y-84794701D01*
X156069683Y-84777375D01*
X156060865Y-84770138D01*
X156048439Y-84754997D01*
X156039210Y-84737730D01*
X156033524Y-84718987D01*
X156031000Y-84693360D01*
X156031000Y-84254640D01*
X156033524Y-84229013D01*
X156039210Y-84210270D01*
X156048439Y-84193003D01*
X156060865Y-84177862D01*
X156069683Y-84170625D01*
X156087010Y-84153298D01*
X156100623Y-84132924D01*
X156110001Y-84110285D01*
X156114781Y-84086252D01*
X156114781Y-84061748D01*
X156110001Y-84037715D01*
X156100623Y-84015076D01*
X156087009Y-83994701D01*
X156069683Y-83977375D01*
X156060865Y-83970138D01*
X156048439Y-83954997D01*
X156039210Y-83937730D01*
X156033524Y-83918987D01*
X156031000Y-83893360D01*
X156031000Y-83454640D01*
X156033524Y-83429013D01*
X156039210Y-83410270D01*
X156048439Y-83393003D01*
X156060865Y-83377862D01*
X156069683Y-83370625D01*
X156087010Y-83353298D01*
X156100623Y-83332924D01*
X156110001Y-83310285D01*
X156114781Y-83286252D01*
X156114781Y-83261748D01*
X156110001Y-83237715D01*
X156100623Y-83215076D01*
X156087009Y-83194701D01*
X156069683Y-83177375D01*
X156060865Y-83170138D01*
X156048439Y-83154997D01*
X156039210Y-83137730D01*
X156033524Y-83118987D01*
X156031000Y-83093360D01*
X156031000Y-82654640D01*
X156033524Y-82629013D01*
X156039210Y-82610270D01*
X156048439Y-82593003D01*
X156060865Y-82577862D01*
X156069683Y-82570625D01*
X156087010Y-82553298D01*
X156100623Y-82532924D01*
X156110001Y-82510285D01*
X156114781Y-82486252D01*
X156114781Y-82461748D01*
X156110001Y-82437715D01*
X156100623Y-82415076D01*
X156087009Y-82394701D01*
X156069683Y-82377375D01*
X156060865Y-82370138D01*
X156048439Y-82354997D01*
X156039210Y-82337730D01*
X156033524Y-82318987D01*
X156031000Y-82293360D01*
X156031000Y-81854640D01*
X156033524Y-81829013D01*
X156039210Y-81810270D01*
X156048439Y-81793003D01*
X156060865Y-81777862D01*
X156069683Y-81770625D01*
X156087010Y-81753298D01*
X156100623Y-81732924D01*
X156110001Y-81710285D01*
X156114781Y-81686252D01*
X156114781Y-81661748D01*
X156110001Y-81637715D01*
X156100623Y-81615076D01*
X156087009Y-81594701D01*
X156069683Y-81577375D01*
X156060865Y-81570138D01*
X156048439Y-81554997D01*
X156039210Y-81537730D01*
X156033524Y-81518987D01*
X156031000Y-81493360D01*
X156031000Y-81054640D01*
X156033524Y-81029013D01*
X156039210Y-81010270D01*
X156048439Y-80993003D01*
X156060865Y-80977862D01*
X156069683Y-80970625D01*
X156087010Y-80953298D01*
X156100623Y-80932924D01*
X156110001Y-80910285D01*
X156114781Y-80886252D01*
X156114781Y-80861748D01*
X156110001Y-80837715D01*
X156100623Y-80815076D01*
X156087009Y-80794701D01*
X156069683Y-80777375D01*
X156060865Y-80770138D01*
X156048439Y-80754997D01*
X156039210Y-80737730D01*
X156033524Y-80718987D01*
X156031000Y-80693360D01*
X156031000Y-80254640D01*
X156033524Y-80229013D01*
X156039210Y-80210270D01*
X156048439Y-80193003D01*
X156060865Y-80177862D01*
X156069683Y-80170625D01*
X156087010Y-80153298D01*
X156100623Y-80132924D01*
X156110001Y-80110285D01*
X156114781Y-80086252D01*
X156114781Y-80061748D01*
X156110001Y-80037715D01*
X156100623Y-80015076D01*
X156087009Y-79994701D01*
X156069683Y-79977375D01*
X156060865Y-79970138D01*
X156048439Y-79954997D01*
X156039210Y-79937730D01*
X156033524Y-79918987D01*
X156031000Y-79893360D01*
X156031000Y-79454640D01*
X156033524Y-79429013D01*
X156039210Y-79410270D01*
X156048439Y-79393003D01*
X156060865Y-79377862D01*
X156069683Y-79370625D01*
X156087010Y-79353298D01*
X156100623Y-79332924D01*
X156110001Y-79310285D01*
X156114781Y-79286252D01*
X156114781Y-79261748D01*
X156110001Y-79237715D01*
X156100623Y-79215076D01*
X156087009Y-79194701D01*
X156069683Y-79177375D01*
X156060865Y-79170138D01*
X156048439Y-79154997D01*
X156039210Y-79137730D01*
X156033524Y-79118987D01*
X156031000Y-79093360D01*
X156031000Y-78654640D01*
X156033524Y-78629013D01*
X156039210Y-78610270D01*
X156048439Y-78593003D01*
X156060865Y-78577862D01*
X156069683Y-78570625D01*
X156087010Y-78553298D01*
X156100623Y-78532924D01*
X156110001Y-78510285D01*
X156114781Y-78486252D01*
X156114781Y-78461748D01*
X156110001Y-78437715D01*
X156100623Y-78415076D01*
X156087009Y-78394701D01*
X156069683Y-78377375D01*
X156060865Y-78370138D01*
X156048439Y-78354997D01*
X156039210Y-78337730D01*
X156033524Y-78318987D01*
X156031000Y-78293360D01*
X156031000Y-77854640D01*
X156033524Y-77829013D01*
X156039210Y-77810270D01*
X156048439Y-77793003D01*
X156060865Y-77777862D01*
X156069683Y-77770625D01*
X156087010Y-77753298D01*
X156100623Y-77732924D01*
X156110001Y-77710285D01*
X156114781Y-77686252D01*
X156114781Y-77661748D01*
X156110001Y-77637715D01*
X156100623Y-77615076D01*
X156087009Y-77594701D01*
X156069683Y-77577375D01*
X156060865Y-77570138D01*
X156048439Y-77554997D01*
X156039210Y-77537730D01*
X156033524Y-77518987D01*
X156031000Y-77493360D01*
X156031000Y-77054640D01*
X156033524Y-77029013D01*
X156039210Y-77010270D01*
X156048439Y-76993003D01*
X156060865Y-76977862D01*
X156069683Y-76970625D01*
X156087010Y-76953298D01*
X156100623Y-76932924D01*
X156110001Y-76910285D01*
X156114781Y-76886252D01*
X156114781Y-76861748D01*
X156110001Y-76837715D01*
X156100623Y-76815076D01*
X156087009Y-76794701D01*
X156069683Y-76777375D01*
X156060865Y-76770138D01*
X156048439Y-76754997D01*
X156039210Y-76737730D01*
X156033524Y-76718987D01*
X156031000Y-76693360D01*
X156031000Y-76254640D01*
X156033524Y-76229013D01*
X156039210Y-76210270D01*
X156048439Y-76193003D01*
X156060865Y-76177862D01*
X156069683Y-76170625D01*
X156087010Y-76153298D01*
X156100623Y-76132924D01*
X156110001Y-76110285D01*
X156114781Y-76086252D01*
X156114781Y-76061748D01*
X156110001Y-76037715D01*
X156100623Y-76015076D01*
X156087009Y-75994701D01*
X156069683Y-75977375D01*
X156060865Y-75970138D01*
X156048439Y-75954997D01*
X156039210Y-75937730D01*
X156033524Y-75918987D01*
X156031000Y-75893360D01*
X156031000Y-75454640D01*
X156033524Y-75429013D01*
X156039210Y-75410270D01*
X156048439Y-75393003D01*
X156060864Y-75377864D01*
X156076003Y-75365439D01*
X156093270Y-75356210D01*
X156112013Y-75350524D01*
X156137640Y-75348000D01*
X157551360Y-75348000D01*
X157576987Y-75350524D01*
X157576987Y-75350524D01*
G37*
G36*
X146401987Y-75350524D02*
G01*
X146420730Y-75356210D01*
X146437997Y-75365439D01*
X146453136Y-75377864D01*
X146465561Y-75393003D01*
X146474790Y-75410270D01*
X146480476Y-75429013D01*
X146483000Y-75454640D01*
X146483000Y-75893360D01*
X146480476Y-75918987D01*
X146474790Y-75937730D01*
X146465561Y-75954997D01*
X146453135Y-75970138D01*
X146444317Y-75977375D01*
X146426990Y-75994702D01*
X146413377Y-76015076D01*
X146403999Y-76037715D01*
X146399219Y-76061748D01*
X146399219Y-76086252D01*
X146403999Y-76110285D01*
X146413377Y-76132924D01*
X146426991Y-76153299D01*
X146444317Y-76170625D01*
X146453135Y-76177862D01*
X146465561Y-76193003D01*
X146474790Y-76210270D01*
X146480476Y-76229013D01*
X146483000Y-76254640D01*
X146483000Y-76693360D01*
X146480476Y-76718987D01*
X146474790Y-76737730D01*
X146465561Y-76754997D01*
X146453135Y-76770138D01*
X146444317Y-76777375D01*
X146426990Y-76794702D01*
X146413377Y-76815076D01*
X146403999Y-76837715D01*
X146399219Y-76861748D01*
X146399219Y-76886252D01*
X146403999Y-76910285D01*
X146413377Y-76932924D01*
X146426991Y-76953299D01*
X146444317Y-76970625D01*
X146453135Y-76977862D01*
X146465561Y-76993003D01*
X146474790Y-77010270D01*
X146480476Y-77029013D01*
X146483000Y-77054640D01*
X146483000Y-77493360D01*
X146480476Y-77518987D01*
X146474790Y-77537730D01*
X146465561Y-77554997D01*
X146453135Y-77570138D01*
X146444317Y-77577375D01*
X146426990Y-77594702D01*
X146413377Y-77615076D01*
X146403999Y-77637715D01*
X146399219Y-77661748D01*
X146399219Y-77686252D01*
X146403999Y-77710285D01*
X146413377Y-77732924D01*
X146426991Y-77753299D01*
X146444317Y-77770625D01*
X146453135Y-77777862D01*
X146465561Y-77793003D01*
X146474790Y-77810270D01*
X146480476Y-77829013D01*
X146483000Y-77854640D01*
X146483000Y-78293360D01*
X146480476Y-78318987D01*
X146474790Y-78337730D01*
X146465561Y-78354997D01*
X146453135Y-78370138D01*
X146444317Y-78377375D01*
X146426990Y-78394702D01*
X146413377Y-78415076D01*
X146403999Y-78437715D01*
X146399219Y-78461748D01*
X146399219Y-78486252D01*
X146403999Y-78510285D01*
X146413377Y-78532924D01*
X146426991Y-78553299D01*
X146444317Y-78570625D01*
X146453135Y-78577862D01*
X146465561Y-78593003D01*
X146474790Y-78610270D01*
X146480476Y-78629013D01*
X146483000Y-78654640D01*
X146483000Y-79093360D01*
X146480476Y-79118987D01*
X146474790Y-79137730D01*
X146465561Y-79154997D01*
X146453135Y-79170138D01*
X146444317Y-79177375D01*
X146426990Y-79194702D01*
X146413377Y-79215076D01*
X146403999Y-79237715D01*
X146399219Y-79261748D01*
X146399219Y-79286252D01*
X146403999Y-79310285D01*
X146413377Y-79332924D01*
X146426991Y-79353299D01*
X146444317Y-79370625D01*
X146453135Y-79377862D01*
X146465561Y-79393003D01*
X146474790Y-79410270D01*
X146480476Y-79429013D01*
X146483000Y-79454640D01*
X146483000Y-79893360D01*
X146480476Y-79918987D01*
X146474790Y-79937730D01*
X146465561Y-79954997D01*
X146453135Y-79970138D01*
X146444317Y-79977375D01*
X146426990Y-79994702D01*
X146413377Y-80015076D01*
X146403999Y-80037715D01*
X146399219Y-80061748D01*
X146399219Y-80086252D01*
X146403999Y-80110285D01*
X146413377Y-80132924D01*
X146426991Y-80153299D01*
X146444317Y-80170625D01*
X146453135Y-80177862D01*
X146465561Y-80193003D01*
X146474790Y-80210270D01*
X146480476Y-80229013D01*
X146483000Y-80254640D01*
X146483000Y-80693360D01*
X146480476Y-80718987D01*
X146474790Y-80737730D01*
X146465561Y-80754997D01*
X146453135Y-80770138D01*
X146444317Y-80777375D01*
X146426990Y-80794702D01*
X146413377Y-80815076D01*
X146403999Y-80837715D01*
X146399219Y-80861748D01*
X146399219Y-80886252D01*
X146403999Y-80910285D01*
X146413377Y-80932924D01*
X146426991Y-80953299D01*
X146444317Y-80970625D01*
X146453135Y-80977862D01*
X146465561Y-80993003D01*
X146474790Y-81010270D01*
X146480476Y-81029013D01*
X146483000Y-81054640D01*
X146483000Y-81493360D01*
X146480476Y-81518987D01*
X146474790Y-81537730D01*
X146465561Y-81554997D01*
X146453135Y-81570138D01*
X146444317Y-81577375D01*
X146426990Y-81594702D01*
X146413377Y-81615076D01*
X146403999Y-81637715D01*
X146399219Y-81661748D01*
X146399219Y-81686252D01*
X146403999Y-81710285D01*
X146413377Y-81732924D01*
X146426991Y-81753299D01*
X146444317Y-81770625D01*
X146453135Y-81777862D01*
X146465561Y-81793003D01*
X146474790Y-81810270D01*
X146480476Y-81829013D01*
X146483000Y-81854640D01*
X146483000Y-82293360D01*
X146480476Y-82318987D01*
X146474790Y-82337730D01*
X146465561Y-82354997D01*
X146453135Y-82370138D01*
X146444317Y-82377375D01*
X146426990Y-82394702D01*
X146413377Y-82415076D01*
X146403999Y-82437715D01*
X146399219Y-82461748D01*
X146399219Y-82486252D01*
X146403999Y-82510285D01*
X146413377Y-82532924D01*
X146426991Y-82553299D01*
X146444317Y-82570625D01*
X146453135Y-82577862D01*
X146465561Y-82593003D01*
X146474790Y-82610270D01*
X146480476Y-82629013D01*
X146483000Y-82654640D01*
X146483000Y-83093360D01*
X146480476Y-83118987D01*
X146474790Y-83137730D01*
X146465561Y-83154997D01*
X146453135Y-83170138D01*
X146444317Y-83177375D01*
X146426990Y-83194702D01*
X146413377Y-83215076D01*
X146403999Y-83237715D01*
X146399219Y-83261748D01*
X146399219Y-83286252D01*
X146403999Y-83310285D01*
X146413377Y-83332924D01*
X146426991Y-83353299D01*
X146444317Y-83370625D01*
X146453135Y-83377862D01*
X146465561Y-83393003D01*
X146474790Y-83410270D01*
X146480476Y-83429013D01*
X146483000Y-83454640D01*
X146483000Y-83893360D01*
X146480476Y-83918987D01*
X146474790Y-83937730D01*
X146465561Y-83954997D01*
X146453135Y-83970138D01*
X146444317Y-83977375D01*
X146426990Y-83994702D01*
X146413377Y-84015076D01*
X146403999Y-84037715D01*
X146399219Y-84061748D01*
X146399219Y-84086252D01*
X146403999Y-84110285D01*
X146413377Y-84132924D01*
X146426991Y-84153299D01*
X146444317Y-84170625D01*
X146453135Y-84177862D01*
X146465561Y-84193003D01*
X146474790Y-84210270D01*
X146480476Y-84229013D01*
X146483000Y-84254640D01*
X146483000Y-84693360D01*
X146480476Y-84718987D01*
X146474790Y-84737730D01*
X146465561Y-84754997D01*
X146453135Y-84770138D01*
X146444317Y-84777375D01*
X146426990Y-84794702D01*
X146413377Y-84815076D01*
X146403999Y-84837715D01*
X146399219Y-84861748D01*
X146399219Y-84886252D01*
X146403999Y-84910285D01*
X146413377Y-84932924D01*
X146426991Y-84953299D01*
X146444317Y-84970625D01*
X146453135Y-84977862D01*
X146465561Y-84993003D01*
X146474790Y-85010270D01*
X146480476Y-85029013D01*
X146483000Y-85054640D01*
X146483000Y-85493360D01*
X146480476Y-85518987D01*
X146474790Y-85537730D01*
X146465561Y-85554997D01*
X146453135Y-85570138D01*
X146444317Y-85577375D01*
X146426990Y-85594702D01*
X146413377Y-85615076D01*
X146403999Y-85637715D01*
X146399219Y-85661748D01*
X146399219Y-85686252D01*
X146403999Y-85710285D01*
X146413377Y-85732924D01*
X146426991Y-85753299D01*
X146444317Y-85770625D01*
X146453135Y-85777862D01*
X146465561Y-85793003D01*
X146474790Y-85810270D01*
X146480476Y-85829013D01*
X146483000Y-85854640D01*
X146483000Y-86293360D01*
X146480476Y-86318987D01*
X146474790Y-86337730D01*
X146465561Y-86354997D01*
X146453135Y-86370138D01*
X146444317Y-86377375D01*
X146426990Y-86394702D01*
X146413377Y-86415076D01*
X146403999Y-86437715D01*
X146399219Y-86461748D01*
X146399219Y-86486252D01*
X146403999Y-86510285D01*
X146413377Y-86532924D01*
X146426991Y-86553299D01*
X146444317Y-86570625D01*
X146453135Y-86577862D01*
X146465561Y-86593003D01*
X146474790Y-86610270D01*
X146480476Y-86629013D01*
X146483000Y-86654640D01*
X146483000Y-87093360D01*
X146480476Y-87118987D01*
X146474790Y-87137730D01*
X146465561Y-87154997D01*
X146453135Y-87170138D01*
X146444317Y-87177375D01*
X146426990Y-87194702D01*
X146413377Y-87215076D01*
X146403999Y-87237715D01*
X146399219Y-87261748D01*
X146399219Y-87286252D01*
X146403999Y-87310285D01*
X146413377Y-87332924D01*
X146426991Y-87353299D01*
X146444317Y-87370625D01*
X146453135Y-87377862D01*
X146465561Y-87393003D01*
X146474790Y-87410270D01*
X146480476Y-87429013D01*
X146483000Y-87454640D01*
X146483000Y-87893360D01*
X146480476Y-87918987D01*
X146474790Y-87937730D01*
X146465561Y-87954997D01*
X146453135Y-87970138D01*
X146444317Y-87977375D01*
X146426990Y-87994702D01*
X146413377Y-88015076D01*
X146403999Y-88037715D01*
X146399219Y-88061748D01*
X146399219Y-88086252D01*
X146403999Y-88110285D01*
X146413377Y-88132924D01*
X146426991Y-88153299D01*
X146444317Y-88170625D01*
X146453135Y-88177862D01*
X146465561Y-88193003D01*
X146474790Y-88210270D01*
X146480476Y-88229013D01*
X146483000Y-88254640D01*
X146483000Y-88693360D01*
X146480476Y-88718987D01*
X146474790Y-88737730D01*
X146465561Y-88754997D01*
X146453135Y-88770138D01*
X146444317Y-88777375D01*
X146426990Y-88794702D01*
X146413377Y-88815076D01*
X146403999Y-88837715D01*
X146399219Y-88861748D01*
X146399219Y-88886252D01*
X146403999Y-88910285D01*
X146413377Y-88932924D01*
X146426991Y-88953299D01*
X146444317Y-88970625D01*
X146453135Y-88977862D01*
X146465561Y-88993003D01*
X146474790Y-89010270D01*
X146480476Y-89029013D01*
X146483000Y-89054640D01*
X146483000Y-89493360D01*
X146480476Y-89518987D01*
X146474790Y-89537730D01*
X146465561Y-89554997D01*
X146453135Y-89570138D01*
X146444317Y-89577375D01*
X146426990Y-89594702D01*
X146413377Y-89615076D01*
X146403999Y-89637715D01*
X146399219Y-89661748D01*
X146399219Y-89686252D01*
X146403999Y-89710285D01*
X146413377Y-89732924D01*
X146426991Y-89753299D01*
X146444317Y-89770625D01*
X146453135Y-89777862D01*
X146465561Y-89793003D01*
X146474790Y-89810270D01*
X146480476Y-89829013D01*
X146483000Y-89854640D01*
X146483000Y-90293360D01*
X146480476Y-90318987D01*
X146474790Y-90337730D01*
X146465561Y-90354997D01*
X146453135Y-90370138D01*
X146444317Y-90377375D01*
X146426990Y-90394702D01*
X146413377Y-90415076D01*
X146403999Y-90437715D01*
X146399219Y-90461748D01*
X146399219Y-90486252D01*
X146403999Y-90510285D01*
X146413377Y-90532924D01*
X146426991Y-90553299D01*
X146444317Y-90570625D01*
X146453135Y-90577862D01*
X146465561Y-90593003D01*
X146474790Y-90610270D01*
X146480476Y-90629013D01*
X146483000Y-90654640D01*
X146483000Y-91093360D01*
X146480476Y-91118987D01*
X146474790Y-91137730D01*
X146465561Y-91154997D01*
X146453135Y-91170138D01*
X146444317Y-91177375D01*
X146426990Y-91194702D01*
X146413377Y-91215076D01*
X146403999Y-91237715D01*
X146399219Y-91261748D01*
X146399219Y-91286252D01*
X146403999Y-91310285D01*
X146413377Y-91332924D01*
X146426991Y-91353299D01*
X146444317Y-91370625D01*
X146453135Y-91377862D01*
X146465561Y-91393003D01*
X146474790Y-91410270D01*
X146480476Y-91429013D01*
X146483000Y-91454640D01*
X146483000Y-91893360D01*
X146480476Y-91918987D01*
X146474790Y-91937730D01*
X146465561Y-91954997D01*
X146453135Y-91970138D01*
X146444317Y-91977375D01*
X146426990Y-91994702D01*
X146413377Y-92015076D01*
X146403999Y-92037715D01*
X146399219Y-92061748D01*
X146399219Y-92086252D01*
X146403999Y-92110285D01*
X146413377Y-92132924D01*
X146426991Y-92153299D01*
X146444317Y-92170625D01*
X146453135Y-92177862D01*
X146465561Y-92193003D01*
X146474790Y-92210270D01*
X146480476Y-92229013D01*
X146483000Y-92254640D01*
X146483000Y-92693360D01*
X146480476Y-92718987D01*
X146474790Y-92737730D01*
X146465561Y-92754997D01*
X146453136Y-92770136D01*
X146437997Y-92782561D01*
X146420730Y-92791790D01*
X146401987Y-92797476D01*
X146376360Y-92800000D01*
X144962640Y-92800000D01*
X144937013Y-92797476D01*
X144918270Y-92791790D01*
X144901003Y-92782561D01*
X144885864Y-92770136D01*
X144873439Y-92754997D01*
X144864210Y-92737730D01*
X144858524Y-92718987D01*
X144856000Y-92693360D01*
X144856000Y-92254640D01*
X144858524Y-92229013D01*
X144864210Y-92210270D01*
X144873439Y-92193003D01*
X144885865Y-92177862D01*
X144894683Y-92170625D01*
X144912010Y-92153298D01*
X144925623Y-92132924D01*
X144935001Y-92110285D01*
X144939781Y-92086252D01*
X144939781Y-92061748D01*
X144935001Y-92037715D01*
X144925623Y-92015076D01*
X144912009Y-91994701D01*
X144894683Y-91977375D01*
X144885865Y-91970138D01*
X144873439Y-91954997D01*
X144864210Y-91937730D01*
X144858524Y-91918987D01*
X144856000Y-91893360D01*
X144856000Y-91454640D01*
X144858524Y-91429013D01*
X144864210Y-91410270D01*
X144873439Y-91393003D01*
X144885865Y-91377862D01*
X144894683Y-91370625D01*
X144912010Y-91353298D01*
X144925623Y-91332924D01*
X144935001Y-91310285D01*
X144939781Y-91286252D01*
X144939781Y-91261748D01*
X144935001Y-91237715D01*
X144925623Y-91215076D01*
X144912009Y-91194701D01*
X144894683Y-91177375D01*
X144885865Y-91170138D01*
X144873439Y-91154997D01*
X144864210Y-91137730D01*
X144858524Y-91118987D01*
X144856000Y-91093360D01*
X144856000Y-90654640D01*
X144858524Y-90629013D01*
X144864210Y-90610270D01*
X144873439Y-90593003D01*
X144885865Y-90577862D01*
X144894683Y-90570625D01*
X144912010Y-90553298D01*
X144925623Y-90532924D01*
X144935001Y-90510285D01*
X144939781Y-90486252D01*
X144939781Y-90461748D01*
X144935001Y-90437715D01*
X144925623Y-90415076D01*
X144912009Y-90394701D01*
X144894683Y-90377375D01*
X144885865Y-90370138D01*
X144873439Y-90354997D01*
X144864210Y-90337730D01*
X144858524Y-90318987D01*
X144856000Y-90293360D01*
X144856000Y-89854640D01*
X144858524Y-89829013D01*
X144864210Y-89810270D01*
X144873439Y-89793003D01*
X144885865Y-89777862D01*
X144894683Y-89770625D01*
X144912010Y-89753298D01*
X144925623Y-89732924D01*
X144935001Y-89710285D01*
X144939781Y-89686252D01*
X144939781Y-89661748D01*
X144935001Y-89637715D01*
X144925623Y-89615076D01*
X144912009Y-89594701D01*
X144894683Y-89577375D01*
X144885865Y-89570138D01*
X144873439Y-89554997D01*
X144864210Y-89537730D01*
X144858524Y-89518987D01*
X144856000Y-89493360D01*
X144856000Y-89054640D01*
X144858524Y-89029013D01*
X144864210Y-89010270D01*
X144873439Y-88993003D01*
X144885865Y-88977862D01*
X144894683Y-88970625D01*
X144912010Y-88953298D01*
X144925623Y-88932924D01*
X144935001Y-88910285D01*
X144939781Y-88886252D01*
X144939781Y-88861748D01*
X144935001Y-88837715D01*
X144925623Y-88815076D01*
X144912009Y-88794701D01*
X144894683Y-88777375D01*
X144885865Y-88770138D01*
X144873439Y-88754997D01*
X144864210Y-88737730D01*
X144858524Y-88718987D01*
X144856000Y-88693360D01*
X144856000Y-88254640D01*
X144858524Y-88229013D01*
X144864210Y-88210270D01*
X144873439Y-88193003D01*
X144885865Y-88177862D01*
X144894683Y-88170625D01*
X144912010Y-88153298D01*
X144925623Y-88132924D01*
X144935001Y-88110285D01*
X144939781Y-88086252D01*
X144939781Y-88061748D01*
X144935001Y-88037715D01*
X144925623Y-88015076D01*
X144912009Y-87994701D01*
X144894683Y-87977375D01*
X144885865Y-87970138D01*
X144873439Y-87954997D01*
X144864210Y-87937730D01*
X144858524Y-87918987D01*
X144856000Y-87893360D01*
X144856000Y-87454640D01*
X144858524Y-87429013D01*
X144864210Y-87410270D01*
X144873439Y-87393003D01*
X144885865Y-87377862D01*
X144894683Y-87370625D01*
X144912010Y-87353298D01*
X144925623Y-87332924D01*
X144935001Y-87310285D01*
X144939781Y-87286252D01*
X144939781Y-87261748D01*
X144935001Y-87237715D01*
X144925623Y-87215076D01*
X144912009Y-87194701D01*
X144894683Y-87177375D01*
X144885865Y-87170138D01*
X144873439Y-87154997D01*
X144864210Y-87137730D01*
X144858524Y-87118987D01*
X144856000Y-87093360D01*
X144856000Y-86654640D01*
X144858524Y-86629013D01*
X144864210Y-86610270D01*
X144873439Y-86593003D01*
X144885865Y-86577862D01*
X144894683Y-86570625D01*
X144912010Y-86553298D01*
X144925623Y-86532924D01*
X144935001Y-86510285D01*
X144939781Y-86486252D01*
X144939781Y-86461748D01*
X144935001Y-86437715D01*
X144925623Y-86415076D01*
X144912009Y-86394701D01*
X144894683Y-86377375D01*
X144885865Y-86370138D01*
X144873439Y-86354997D01*
X144864210Y-86337730D01*
X144858524Y-86318987D01*
X144856000Y-86293360D01*
X144856000Y-85854640D01*
X144858524Y-85829013D01*
X144864210Y-85810270D01*
X144873439Y-85793003D01*
X144885865Y-85777862D01*
X144894683Y-85770625D01*
X144912010Y-85753298D01*
X144925623Y-85732924D01*
X144935001Y-85710285D01*
X144939781Y-85686252D01*
X144939781Y-85661748D01*
X144935001Y-85637715D01*
X144925623Y-85615076D01*
X144912009Y-85594701D01*
X144894683Y-85577375D01*
X144885865Y-85570138D01*
X144873439Y-85554997D01*
X144864210Y-85537730D01*
X144858524Y-85518987D01*
X144856000Y-85493360D01*
X144856000Y-85054640D01*
X144858524Y-85029013D01*
X144864210Y-85010270D01*
X144873439Y-84993003D01*
X144885865Y-84977862D01*
X144894683Y-84970625D01*
X144912010Y-84953298D01*
X144925623Y-84932924D01*
X144935001Y-84910285D01*
X144939781Y-84886252D01*
X144939781Y-84861748D01*
X144935001Y-84837715D01*
X144925623Y-84815076D01*
X144912009Y-84794701D01*
X144894683Y-84777375D01*
X144885865Y-84770138D01*
X144873439Y-84754997D01*
X144864210Y-84737730D01*
X144858524Y-84718987D01*
X144856000Y-84693360D01*
X144856000Y-84254640D01*
X144858524Y-84229013D01*
X144864210Y-84210270D01*
X144873439Y-84193003D01*
X144885865Y-84177862D01*
X144894683Y-84170625D01*
X144912010Y-84153298D01*
X144925623Y-84132924D01*
X144935001Y-84110285D01*
X144939781Y-84086252D01*
X144939781Y-84061748D01*
X144935001Y-84037715D01*
X144925623Y-84015076D01*
X144912009Y-83994701D01*
X144894683Y-83977375D01*
X144885865Y-83970138D01*
X144873439Y-83954997D01*
X144864210Y-83937730D01*
X144858524Y-83918987D01*
X144856000Y-83893360D01*
X144856000Y-83454640D01*
X144858524Y-83429013D01*
X144864210Y-83410270D01*
X144873439Y-83393003D01*
X144885865Y-83377862D01*
X144894683Y-83370625D01*
X144912010Y-83353298D01*
X144925623Y-83332924D01*
X144935001Y-83310285D01*
X144939781Y-83286252D01*
X144939781Y-83261748D01*
X144935001Y-83237715D01*
X144925623Y-83215076D01*
X144912009Y-83194701D01*
X144894683Y-83177375D01*
X144885865Y-83170138D01*
X144873439Y-83154997D01*
X144864210Y-83137730D01*
X144858524Y-83118987D01*
X144856000Y-83093360D01*
X144856000Y-82654640D01*
X144858524Y-82629013D01*
X144864210Y-82610270D01*
X144873439Y-82593003D01*
X144885865Y-82577862D01*
X144894683Y-82570625D01*
X144912010Y-82553298D01*
X144925623Y-82532924D01*
X144935001Y-82510285D01*
X144939781Y-82486252D01*
X144939781Y-82461748D01*
X144935001Y-82437715D01*
X144925623Y-82415076D01*
X144912009Y-82394701D01*
X144894683Y-82377375D01*
X144885865Y-82370138D01*
X144873439Y-82354997D01*
X144864210Y-82337730D01*
X144858524Y-82318987D01*
X144856000Y-82293360D01*
X144856000Y-81854640D01*
X144858524Y-81829013D01*
X144864210Y-81810270D01*
X144873439Y-81793003D01*
X144885865Y-81777862D01*
X144894683Y-81770625D01*
X144912010Y-81753298D01*
X144925623Y-81732924D01*
X144935001Y-81710285D01*
X144939781Y-81686252D01*
X144939781Y-81661748D01*
X144935001Y-81637715D01*
X144925623Y-81615076D01*
X144912009Y-81594701D01*
X144894683Y-81577375D01*
X144885865Y-81570138D01*
X144873439Y-81554997D01*
X144864210Y-81537730D01*
X144858524Y-81518987D01*
X144856000Y-81493360D01*
X144856000Y-81054640D01*
X144858524Y-81029013D01*
X144864210Y-81010270D01*
X144873439Y-80993003D01*
X144885865Y-80977862D01*
X144894683Y-80970625D01*
X144912010Y-80953298D01*
X144925623Y-80932924D01*
X144935001Y-80910285D01*
X144939781Y-80886252D01*
X144939781Y-80861748D01*
X144935001Y-80837715D01*
X144925623Y-80815076D01*
X144912009Y-80794701D01*
X144894683Y-80777375D01*
X144885865Y-80770138D01*
X144873439Y-80754997D01*
X144864210Y-80737730D01*
X144858524Y-80718987D01*
X144856000Y-80693360D01*
X144856000Y-80254640D01*
X144858524Y-80229013D01*
X144864210Y-80210270D01*
X144873439Y-80193003D01*
X144885865Y-80177862D01*
X144894683Y-80170625D01*
X144912010Y-80153298D01*
X144925623Y-80132924D01*
X144935001Y-80110285D01*
X144939781Y-80086252D01*
X144939781Y-80061748D01*
X144935001Y-80037715D01*
X144925623Y-80015076D01*
X144912009Y-79994701D01*
X144894683Y-79977375D01*
X144885865Y-79970138D01*
X144873439Y-79954997D01*
X144864210Y-79937730D01*
X144858524Y-79918987D01*
X144856000Y-79893360D01*
X144856000Y-79454640D01*
X144858524Y-79429013D01*
X144864210Y-79410270D01*
X144873439Y-79393003D01*
X144885865Y-79377862D01*
X144894683Y-79370625D01*
X144912010Y-79353298D01*
X144925623Y-79332924D01*
X144935001Y-79310285D01*
X144939781Y-79286252D01*
X144939781Y-79261748D01*
X144935001Y-79237715D01*
X144925623Y-79215076D01*
X144912009Y-79194701D01*
X144894683Y-79177375D01*
X144885865Y-79170138D01*
X144873439Y-79154997D01*
X144864210Y-79137730D01*
X144858524Y-79118987D01*
X144856000Y-79093360D01*
X144856000Y-78654640D01*
X144858524Y-78629013D01*
X144864210Y-78610270D01*
X144873439Y-78593003D01*
X144885865Y-78577862D01*
X144894683Y-78570625D01*
X144912010Y-78553298D01*
X144925623Y-78532924D01*
X144935001Y-78510285D01*
X144939781Y-78486252D01*
X144939781Y-78461748D01*
X144935001Y-78437715D01*
X144925623Y-78415076D01*
X144912009Y-78394701D01*
X144894683Y-78377375D01*
X144885865Y-78370138D01*
X144873439Y-78354997D01*
X144864210Y-78337730D01*
X144858524Y-78318987D01*
X144856000Y-78293360D01*
X144856000Y-77854640D01*
X144858524Y-77829013D01*
X144864210Y-77810270D01*
X144873439Y-77793003D01*
X144885865Y-77777862D01*
X144894683Y-77770625D01*
X144912010Y-77753298D01*
X144925623Y-77732924D01*
X144935001Y-77710285D01*
X144939781Y-77686252D01*
X144939781Y-77661748D01*
X144935001Y-77637715D01*
X144925623Y-77615076D01*
X144912009Y-77594701D01*
X144894683Y-77577375D01*
X144885865Y-77570138D01*
X144873439Y-77554997D01*
X144864210Y-77537730D01*
X144858524Y-77518987D01*
X144856000Y-77493360D01*
X144856000Y-77054640D01*
X144858524Y-77029013D01*
X144864210Y-77010270D01*
X144873439Y-76993003D01*
X144885865Y-76977862D01*
X144894683Y-76970625D01*
X144912010Y-76953298D01*
X144925623Y-76932924D01*
X144935001Y-76910285D01*
X144939781Y-76886252D01*
X144939781Y-76861748D01*
X144935001Y-76837715D01*
X144925623Y-76815076D01*
X144912009Y-76794701D01*
X144894683Y-76777375D01*
X144885865Y-76770138D01*
X144873439Y-76754997D01*
X144864210Y-76737730D01*
X144858524Y-76718987D01*
X144856000Y-76693360D01*
X144856000Y-76254640D01*
X144858524Y-76229013D01*
X144864210Y-76210270D01*
X144873439Y-76193003D01*
X144885865Y-76177862D01*
X144894683Y-76170625D01*
X144912010Y-76153298D01*
X144925623Y-76132924D01*
X144935001Y-76110285D01*
X144939781Y-76086252D01*
X144939781Y-76061748D01*
X144935001Y-76037715D01*
X144925623Y-76015076D01*
X144912009Y-75994701D01*
X144894683Y-75977375D01*
X144885865Y-75970138D01*
X144873439Y-75954997D01*
X144864210Y-75937730D01*
X144858524Y-75918987D01*
X144856000Y-75893360D01*
X144856000Y-75454640D01*
X144858524Y-75429013D01*
X144864210Y-75410270D01*
X144873439Y-75393003D01*
X144885864Y-75377864D01*
X144901003Y-75365439D01*
X144918270Y-75356210D01*
X144937013Y-75350524D01*
X144962640Y-75348000D01*
X146376360Y-75348000D01*
X146401987Y-75350524D01*
X146401987Y-75350524D01*
G37*
G36*
X179217000Y-91553000D02*
G01*
X178415000Y-91553000D01*
X178415000Y-89526000D01*
X179217000Y-89526000D01*
X179217000Y-91553000D01*
X179217000Y-91553000D01*
G37*
G36*
X177947000Y-91553000D02*
G01*
X177145000Y-91553000D01*
X177145000Y-89526000D01*
X177947000Y-89526000D01*
X177947000Y-91553000D01*
X177947000Y-91553000D01*
G37*
G36*
X176677000Y-91553000D02*
G01*
X175875000Y-91553000D01*
X175875000Y-89526000D01*
X176677000Y-89526000D01*
X176677000Y-91553000D01*
X176677000Y-91553000D01*
G37*
G36*
X175407000Y-91553000D02*
G01*
X174605000Y-91553000D01*
X174605000Y-89526000D01*
X175407000Y-89526000D01*
X175407000Y-91553000D01*
X175407000Y-91553000D01*
G37*
G36*
X174137000Y-91553000D02*
G01*
X173335000Y-91553000D01*
X173335000Y-89526000D01*
X174137000Y-89526000D01*
X174137000Y-91553000D01*
X174137000Y-91553000D01*
G37*
G36*
X172867000Y-91553000D02*
G01*
X172065000Y-91553000D01*
X172065000Y-89526000D01*
X172867000Y-89526000D01*
X172867000Y-91553000D01*
X172867000Y-91553000D01*
G37*
G36*
X171597000Y-91553000D02*
G01*
X170795000Y-91553000D01*
X170795000Y-89526000D01*
X171597000Y-89526000D01*
X171597000Y-91553000D01*
X171597000Y-91553000D01*
G37*
G36*
X170327000Y-91553000D02*
G01*
X169525000Y-91553000D01*
X169525000Y-89526000D01*
X170327000Y-89526000D01*
X170327000Y-91553000D01*
X170327000Y-91553000D01*
G37*
G36*
X125241499Y-90156445D02*
G01*
X125278995Y-90167820D01*
X125313554Y-90186292D01*
X125343847Y-90211153D01*
X125368708Y-90241446D01*
X125387180Y-90276005D01*
X125398555Y-90313501D01*
X125403000Y-90358638D01*
X125403000Y-90997362D01*
X125398555Y-91042499D01*
X125387180Y-91079995D01*
X125368708Y-91114554D01*
X125343847Y-91144847D01*
X125313554Y-91169708D01*
X125278995Y-91188180D01*
X125241499Y-91199555D01*
X125196362Y-91204000D01*
X124457638Y-91204000D01*
X124412501Y-91199555D01*
X124375005Y-91188180D01*
X124340446Y-91169708D01*
X124310153Y-91144847D01*
X124285292Y-91114554D01*
X124266820Y-91079995D01*
X124255445Y-91042499D01*
X124251000Y-90997362D01*
X124251000Y-90358638D01*
X124255445Y-90313501D01*
X124266820Y-90276005D01*
X124285292Y-90241446D01*
X124310153Y-90211153D01*
X124340446Y-90186292D01*
X124375005Y-90167820D01*
X124412501Y-90156445D01*
X124457638Y-90152000D01*
X125196362Y-90152000D01*
X125241499Y-90156445D01*
X125241499Y-90156445D01*
G37*
G36*
X123491499Y-90156445D02*
G01*
X123528995Y-90167820D01*
X123563554Y-90186292D01*
X123593847Y-90211153D01*
X123618708Y-90241446D01*
X123637180Y-90276005D01*
X123648555Y-90313501D01*
X123653000Y-90358638D01*
X123653000Y-90997362D01*
X123648555Y-91042499D01*
X123637180Y-91079995D01*
X123618708Y-91114554D01*
X123593847Y-91144847D01*
X123563554Y-91169708D01*
X123528995Y-91188180D01*
X123491499Y-91199555D01*
X123446362Y-91204000D01*
X122707638Y-91204000D01*
X122662501Y-91199555D01*
X122625005Y-91188180D01*
X122590446Y-91169708D01*
X122560153Y-91144847D01*
X122535292Y-91114554D01*
X122516820Y-91079995D01*
X122505445Y-91042499D01*
X122501000Y-90997362D01*
X122501000Y-90358638D01*
X122505445Y-90313501D01*
X122516820Y-90276005D01*
X122535292Y-90241446D01*
X122560153Y-90211153D01*
X122590446Y-90186292D01*
X122625005Y-90167820D01*
X122662501Y-90156445D01*
X122707638Y-90152000D01*
X123446362Y-90152000D01*
X123491499Y-90156445D01*
X123491499Y-90156445D01*
G37*
G36*
X170062000Y-88793000D02*
G01*
X168035000Y-88793000D01*
X168035000Y-87991000D01*
X170062000Y-87991000D01*
X170062000Y-88793000D01*
X170062000Y-88793000D01*
G37*
G36*
X180707000Y-88793000D02*
G01*
X178680000Y-88793000D01*
X178680000Y-87991000D01*
X180707000Y-87991000D01*
X180707000Y-88793000D01*
X180707000Y-88793000D01*
G37*
G36*
X180707000Y-87523000D02*
G01*
X178680000Y-87523000D01*
X178680000Y-86721000D01*
X180707000Y-86721000D01*
X180707000Y-87523000D01*
X180707000Y-87523000D01*
G37*
G36*
X170062000Y-87523000D02*
G01*
X168035000Y-87523000D01*
X168035000Y-86721000D01*
X170062000Y-86721000D01*
X170062000Y-87523000D01*
X170062000Y-87523000D01*
G37*
G36*
X170062000Y-86253000D02*
G01*
X168035000Y-86253000D01*
X168035000Y-85451000D01*
X170062000Y-85451000D01*
X170062000Y-86253000D01*
X170062000Y-86253000D01*
G37*
G36*
X180707000Y-86253000D02*
G01*
X178680000Y-86253000D01*
X178680000Y-85451000D01*
X180707000Y-85451000D01*
X180707000Y-86253000D01*
X180707000Y-86253000D01*
G37*
G36*
X180707000Y-84983000D02*
G01*
X178680000Y-84983000D01*
X178680000Y-84181000D01*
X180707000Y-84181000D01*
X180707000Y-84983000D01*
X180707000Y-84983000D01*
G37*
G36*
X170062000Y-84983000D02*
G01*
X168035000Y-84983000D01*
X168035000Y-84181000D01*
X170062000Y-84181000D01*
X170062000Y-84983000D01*
X170062000Y-84983000D01*
G37*
G36*
X170062000Y-83713000D02*
G01*
X168035000Y-83713000D01*
X168035000Y-82911000D01*
X170062000Y-82911000D01*
X170062000Y-83713000D01*
X170062000Y-83713000D01*
G37*
G36*
X180707000Y-83713000D02*
G01*
X178680000Y-83713000D01*
X178680000Y-82911000D01*
X180707000Y-82911000D01*
X180707000Y-83713000D01*
X180707000Y-83713000D01*
G37*
G36*
X180707000Y-82443000D02*
G01*
X178680000Y-82443000D01*
X178680000Y-81641000D01*
X180707000Y-81641000D01*
X180707000Y-82443000D01*
X180707000Y-82443000D01*
G37*
G36*
X170062000Y-82443000D02*
G01*
X168035000Y-82443000D01*
X168035000Y-81641000D01*
X170062000Y-81641000D01*
X170062000Y-82443000D01*
X170062000Y-82443000D01*
G37*
G36*
X170062000Y-81173000D02*
G01*
X168035000Y-81173000D01*
X168035000Y-80371000D01*
X170062000Y-80371000D01*
X170062000Y-81173000D01*
X170062000Y-81173000D01*
G37*
G36*
X180707000Y-81173000D02*
G01*
X178680000Y-81173000D01*
X178680000Y-80371000D01*
X180707000Y-80371000D01*
X180707000Y-81173000D01*
X180707000Y-81173000D01*
G37*
G36*
X180707000Y-79903000D02*
G01*
X178680000Y-79903000D01*
X178680000Y-79101000D01*
X180707000Y-79101000D01*
X180707000Y-79903000D01*
X180707000Y-79903000D01*
G37*
G36*
X170062000Y-79903000D02*
G01*
X168035000Y-79903000D01*
X168035000Y-79101000D01*
X170062000Y-79101000D01*
X170062000Y-79903000D01*
X170062000Y-79903000D01*
G37*
G36*
X179217000Y-78368000D02*
G01*
X178415000Y-78368000D01*
X178415000Y-76341000D01*
X179217000Y-76341000D01*
X179217000Y-78368000D01*
X179217000Y-78368000D01*
G37*
G36*
X170327000Y-78368000D02*
G01*
X169525000Y-78368000D01*
X169525000Y-76341000D01*
X170327000Y-76341000D01*
X170327000Y-78368000D01*
X170327000Y-78368000D01*
G37*
G36*
X171597000Y-78368000D02*
G01*
X170795000Y-78368000D01*
X170795000Y-76341000D01*
X171597000Y-76341000D01*
X171597000Y-78368000D01*
X171597000Y-78368000D01*
G37*
G36*
X177947000Y-78368000D02*
G01*
X177145000Y-78368000D01*
X177145000Y-76341000D01*
X177947000Y-76341000D01*
X177947000Y-78368000D01*
X177947000Y-78368000D01*
G37*
G36*
X176677000Y-78368000D02*
G01*
X175875000Y-78368000D01*
X175875000Y-76341000D01*
X176677000Y-76341000D01*
X176677000Y-78368000D01*
X176677000Y-78368000D01*
G37*
G36*
X175407000Y-78368000D02*
G01*
X174605000Y-78368000D01*
X174605000Y-76341000D01*
X175407000Y-76341000D01*
X175407000Y-78368000D01*
X175407000Y-78368000D01*
G37*
G36*
X172867000Y-78368000D02*
G01*
X172065000Y-78368000D01*
X172065000Y-76341000D01*
X172867000Y-76341000D01*
X172867000Y-78368000D01*
X172867000Y-78368000D01*
G37*
G36*
X174137000Y-78368000D02*
G01*
X173335000Y-78368000D01*
X173335000Y-76341000D01*
X174137000Y-76341000D01*
X174137000Y-78368000D01*
X174137000Y-78368000D01*
G37*
G36*
X133251499Y-76440445D02*
G01*
X133288995Y-76451820D01*
X133323554Y-76470292D01*
X133353847Y-76495153D01*
X133378708Y-76525446D01*
X133397180Y-76560005D01*
X133408555Y-76597501D01*
X133413000Y-76642638D01*
X133413000Y-77281362D01*
X133408555Y-77326499D01*
X133397180Y-77363995D01*
X133378708Y-77398554D01*
X133353847Y-77428847D01*
X133323554Y-77453708D01*
X133288995Y-77472180D01*
X133251499Y-77483555D01*
X133206362Y-77488000D01*
X132467638Y-77488000D01*
X132422501Y-77483555D01*
X132385005Y-77472180D01*
X132350446Y-77453708D01*
X132320153Y-77428847D01*
X132295292Y-77398554D01*
X132276820Y-77363995D01*
X132265445Y-77326499D01*
X132261000Y-77281362D01*
X132261000Y-76642638D01*
X132265445Y-76597501D01*
X132276820Y-76560005D01*
X132295292Y-76525446D01*
X132320153Y-76495153D01*
X132350446Y-76470292D01*
X132385005Y-76451820D01*
X132422501Y-76440445D01*
X132467638Y-76436000D01*
X133206362Y-76436000D01*
X133251499Y-76440445D01*
X133251499Y-76440445D01*
G37*
G36*
X131501499Y-76440445D02*
G01*
X131538995Y-76451820D01*
X131573554Y-76470292D01*
X131603847Y-76495153D01*
X131628708Y-76525446D01*
X131647180Y-76560005D01*
X131658555Y-76597501D01*
X131663000Y-76642638D01*
X131663000Y-77281362D01*
X131658555Y-77326499D01*
X131647180Y-77363995D01*
X131628708Y-77398554D01*
X131603847Y-77428847D01*
X131573554Y-77453708D01*
X131538995Y-77472180D01*
X131501499Y-77483555D01*
X131456362Y-77488000D01*
X130717638Y-77488000D01*
X130672501Y-77483555D01*
X130635005Y-77472180D01*
X130600446Y-77453708D01*
X130570153Y-77428847D01*
X130545292Y-77398554D01*
X130526820Y-77363995D01*
X130515445Y-77326499D01*
X130511000Y-77281362D01*
X130511000Y-76642638D01*
X130515445Y-76597501D01*
X130526820Y-76560005D01*
X130545292Y-76525446D01*
X130570153Y-76495153D01*
X130600446Y-76470292D01*
X130635005Y-76451820D01*
X130672501Y-76440445D01*
X130717638Y-76436000D01*
X131456362Y-76436000D01*
X131501499Y-76440445D01*
X131501499Y-76440445D01*
G37*
G36*
X134921499Y-76440445D02*
G01*
X134958995Y-76451820D01*
X134993554Y-76470292D01*
X135023847Y-76495153D01*
X135048708Y-76525446D01*
X135067180Y-76560005D01*
X135078555Y-76597501D01*
X135083000Y-76642638D01*
X135083000Y-77281362D01*
X135078555Y-77326499D01*
X135067180Y-77363995D01*
X135048708Y-77398554D01*
X135023847Y-77428847D01*
X134993554Y-77453708D01*
X134958995Y-77472180D01*
X134921499Y-77483555D01*
X134876362Y-77488000D01*
X134137638Y-77488000D01*
X134092501Y-77483555D01*
X134055005Y-77472180D01*
X134020446Y-77453708D01*
X133990153Y-77428847D01*
X133965292Y-77398554D01*
X133946820Y-77363995D01*
X133935445Y-77326499D01*
X133931000Y-77281362D01*
X133931000Y-76642638D01*
X133935445Y-76597501D01*
X133946820Y-76560005D01*
X133965292Y-76525446D01*
X133990153Y-76495153D01*
X134020446Y-76470292D01*
X134055005Y-76451820D01*
X134092501Y-76440445D01*
X134137638Y-76436000D01*
X134876362Y-76436000D01*
X134921499Y-76440445D01*
X134921499Y-76440445D01*
G37*
G36*
X136671499Y-76440445D02*
G01*
X136708995Y-76451820D01*
X136743554Y-76470292D01*
X136773847Y-76495153D01*
X136798708Y-76525446D01*
X136817180Y-76560005D01*
X136828555Y-76597501D01*
X136833000Y-76642638D01*
X136833000Y-77281362D01*
X136828555Y-77326499D01*
X136817180Y-77363995D01*
X136798708Y-77398554D01*
X136773847Y-77428847D01*
X136743554Y-77453708D01*
X136708995Y-77472180D01*
X136671499Y-77483555D01*
X136626362Y-77488000D01*
X135887638Y-77488000D01*
X135842501Y-77483555D01*
X135805005Y-77472180D01*
X135770446Y-77453708D01*
X135740153Y-77428847D01*
X135715292Y-77398554D01*
X135696820Y-77363995D01*
X135685445Y-77326499D01*
X135681000Y-77281362D01*
X135681000Y-76642638D01*
X135685445Y-76597501D01*
X135696820Y-76560005D01*
X135715292Y-76525446D01*
X135740153Y-76495153D01*
X135770446Y-76470292D01*
X135805005Y-76451820D01*
X135842501Y-76440445D01*
X135887638Y-76436000D01*
X136626362Y-76436000D01*
X136671499Y-76440445D01*
X136671499Y-76440445D01*
G37*
M02*
