G04 #@! TF.GenerationSoftware,KiCad,Pcbnew,(5.1.2-1)-1*
G04 #@! TF.CreationDate,2019-07-09T00:43:20-07:00*
G04 #@! TF.ProjectId,ram_board,72616d5f-626f-4617-9264-2e6b69636164,rev?*
G04 #@! TF.SameCoordinates,Original*
G04 #@! TF.FileFunction,Soldermask,Bot*
G04 #@! TF.FilePolarity,Negative*
%FSLAX46Y46*%
G04 Gerber Fmt 4.6, Leading zero omitted, Abs format (unit mm)*
G04 Created by KiCad (PCBNEW (5.1.2-1)-1) date 2019-07-09 00:43:20*
%MOMM*%
%LPD*%
G04 APERTURE LIST*
%ADD10C,0.100000*%
G04 APERTURE END LIST*
D10*
G36*
X188451443Y-99308519D02*
G01*
X188517627Y-99315037D01*
X188687466Y-99366557D01*
X188843991Y-99450222D01*
X188879729Y-99479552D01*
X188981186Y-99562814D01*
X189064448Y-99664271D01*
X189093778Y-99700009D01*
X189177443Y-99856534D01*
X189228963Y-100026373D01*
X189246359Y-100203000D01*
X189228963Y-100379627D01*
X189177443Y-100549466D01*
X189093778Y-100705991D01*
X189064448Y-100741729D01*
X188981186Y-100843186D01*
X188879729Y-100926448D01*
X188843991Y-100955778D01*
X188687466Y-101039443D01*
X188517627Y-101090963D01*
X188451443Y-101097481D01*
X188385260Y-101104000D01*
X188296740Y-101104000D01*
X188230557Y-101097481D01*
X188164373Y-101090963D01*
X187994534Y-101039443D01*
X187838009Y-100955778D01*
X187802271Y-100926448D01*
X187700814Y-100843186D01*
X187617552Y-100741729D01*
X187588222Y-100705991D01*
X187504557Y-100549466D01*
X187453037Y-100379627D01*
X187435641Y-100203000D01*
X187453037Y-100026373D01*
X187504557Y-99856534D01*
X187588222Y-99700009D01*
X187617552Y-99664271D01*
X187700814Y-99562814D01*
X187802271Y-99479552D01*
X187838009Y-99450222D01*
X187994534Y-99366557D01*
X188164373Y-99315037D01*
X188230557Y-99308519D01*
X188296740Y-99302000D01*
X188385260Y-99302000D01*
X188451443Y-99308519D01*
X188451443Y-99308519D01*
G37*
G36*
X185911443Y-99308519D02*
G01*
X185977627Y-99315037D01*
X186147466Y-99366557D01*
X186303991Y-99450222D01*
X186339729Y-99479552D01*
X186441186Y-99562814D01*
X186524448Y-99664271D01*
X186553778Y-99700009D01*
X186637443Y-99856534D01*
X186688963Y-100026373D01*
X186706359Y-100203000D01*
X186688963Y-100379627D01*
X186637443Y-100549466D01*
X186553778Y-100705991D01*
X186524448Y-100741729D01*
X186441186Y-100843186D01*
X186339729Y-100926448D01*
X186303991Y-100955778D01*
X186147466Y-101039443D01*
X185977627Y-101090963D01*
X185911443Y-101097481D01*
X185845260Y-101104000D01*
X185756740Y-101104000D01*
X185690557Y-101097481D01*
X185624373Y-101090963D01*
X185454534Y-101039443D01*
X185298009Y-100955778D01*
X185262271Y-100926448D01*
X185160814Y-100843186D01*
X185077552Y-100741729D01*
X185048222Y-100705991D01*
X184964557Y-100549466D01*
X184913037Y-100379627D01*
X184895641Y-100203000D01*
X184913037Y-100026373D01*
X184964557Y-99856534D01*
X185048222Y-99700009D01*
X185077552Y-99664271D01*
X185160814Y-99562814D01*
X185262271Y-99479552D01*
X185298009Y-99450222D01*
X185454534Y-99366557D01*
X185624373Y-99315037D01*
X185690557Y-99308519D01*
X185756740Y-99302000D01*
X185845260Y-99302000D01*
X185911443Y-99308519D01*
X185911443Y-99308519D01*
G37*
G36*
X183371443Y-99308519D02*
G01*
X183437627Y-99315037D01*
X183607466Y-99366557D01*
X183763991Y-99450222D01*
X183799729Y-99479552D01*
X183901186Y-99562814D01*
X183984448Y-99664271D01*
X184013778Y-99700009D01*
X184097443Y-99856534D01*
X184148963Y-100026373D01*
X184166359Y-100203000D01*
X184148963Y-100379627D01*
X184097443Y-100549466D01*
X184013778Y-100705991D01*
X183984448Y-100741729D01*
X183901186Y-100843186D01*
X183799729Y-100926448D01*
X183763991Y-100955778D01*
X183607466Y-101039443D01*
X183437627Y-101090963D01*
X183371443Y-101097481D01*
X183305260Y-101104000D01*
X183216740Y-101104000D01*
X183150557Y-101097481D01*
X183084373Y-101090963D01*
X182914534Y-101039443D01*
X182758009Y-100955778D01*
X182722271Y-100926448D01*
X182620814Y-100843186D01*
X182537552Y-100741729D01*
X182508222Y-100705991D01*
X182424557Y-100549466D01*
X182373037Y-100379627D01*
X182355641Y-100203000D01*
X182373037Y-100026373D01*
X182424557Y-99856534D01*
X182508222Y-99700009D01*
X182537552Y-99664271D01*
X182620814Y-99562814D01*
X182722271Y-99479552D01*
X182758009Y-99450222D01*
X182914534Y-99366557D01*
X183084373Y-99315037D01*
X183150557Y-99308519D01*
X183216740Y-99302000D01*
X183305260Y-99302000D01*
X183371443Y-99308519D01*
X183371443Y-99308519D01*
G37*
G36*
X180831443Y-99308519D02*
G01*
X180897627Y-99315037D01*
X181067466Y-99366557D01*
X181223991Y-99450222D01*
X181259729Y-99479552D01*
X181361186Y-99562814D01*
X181444448Y-99664271D01*
X181473778Y-99700009D01*
X181557443Y-99856534D01*
X181608963Y-100026373D01*
X181626359Y-100203000D01*
X181608963Y-100379627D01*
X181557443Y-100549466D01*
X181473778Y-100705991D01*
X181444448Y-100741729D01*
X181361186Y-100843186D01*
X181259729Y-100926448D01*
X181223991Y-100955778D01*
X181067466Y-101039443D01*
X180897627Y-101090963D01*
X180831443Y-101097481D01*
X180765260Y-101104000D01*
X180676740Y-101104000D01*
X180610557Y-101097481D01*
X180544373Y-101090963D01*
X180374534Y-101039443D01*
X180218009Y-100955778D01*
X180182271Y-100926448D01*
X180080814Y-100843186D01*
X179997552Y-100741729D01*
X179968222Y-100705991D01*
X179884557Y-100549466D01*
X179833037Y-100379627D01*
X179815641Y-100203000D01*
X179833037Y-100026373D01*
X179884557Y-99856534D01*
X179968222Y-99700009D01*
X179997552Y-99664271D01*
X180080814Y-99562814D01*
X180182271Y-99479552D01*
X180218009Y-99450222D01*
X180374534Y-99366557D01*
X180544373Y-99315037D01*
X180610557Y-99308519D01*
X180676740Y-99302000D01*
X180765260Y-99302000D01*
X180831443Y-99308519D01*
X180831443Y-99308519D01*
G37*
G36*
X178291443Y-99308519D02*
G01*
X178357627Y-99315037D01*
X178527466Y-99366557D01*
X178683991Y-99450222D01*
X178719729Y-99479552D01*
X178821186Y-99562814D01*
X178904448Y-99664271D01*
X178933778Y-99700009D01*
X179017443Y-99856534D01*
X179068963Y-100026373D01*
X179086359Y-100203000D01*
X179068963Y-100379627D01*
X179017443Y-100549466D01*
X178933778Y-100705991D01*
X178904448Y-100741729D01*
X178821186Y-100843186D01*
X178719729Y-100926448D01*
X178683991Y-100955778D01*
X178527466Y-101039443D01*
X178357627Y-101090963D01*
X178291443Y-101097481D01*
X178225260Y-101104000D01*
X178136740Y-101104000D01*
X178070557Y-101097481D01*
X178004373Y-101090963D01*
X177834534Y-101039443D01*
X177678009Y-100955778D01*
X177642271Y-100926448D01*
X177540814Y-100843186D01*
X177457552Y-100741729D01*
X177428222Y-100705991D01*
X177344557Y-100549466D01*
X177293037Y-100379627D01*
X177275641Y-100203000D01*
X177293037Y-100026373D01*
X177344557Y-99856534D01*
X177428222Y-99700009D01*
X177457552Y-99664271D01*
X177540814Y-99562814D01*
X177642271Y-99479552D01*
X177678009Y-99450222D01*
X177834534Y-99366557D01*
X178004373Y-99315037D01*
X178070557Y-99308519D01*
X178136740Y-99302000D01*
X178225260Y-99302000D01*
X178291443Y-99308519D01*
X178291443Y-99308519D01*
G37*
G36*
X175751443Y-99308519D02*
G01*
X175817627Y-99315037D01*
X175987466Y-99366557D01*
X176143991Y-99450222D01*
X176179729Y-99479552D01*
X176281186Y-99562814D01*
X176364448Y-99664271D01*
X176393778Y-99700009D01*
X176477443Y-99856534D01*
X176528963Y-100026373D01*
X176546359Y-100203000D01*
X176528963Y-100379627D01*
X176477443Y-100549466D01*
X176393778Y-100705991D01*
X176364448Y-100741729D01*
X176281186Y-100843186D01*
X176179729Y-100926448D01*
X176143991Y-100955778D01*
X175987466Y-101039443D01*
X175817627Y-101090963D01*
X175751443Y-101097481D01*
X175685260Y-101104000D01*
X175596740Y-101104000D01*
X175530557Y-101097481D01*
X175464373Y-101090963D01*
X175294534Y-101039443D01*
X175138009Y-100955778D01*
X175102271Y-100926448D01*
X175000814Y-100843186D01*
X174917552Y-100741729D01*
X174888222Y-100705991D01*
X174804557Y-100549466D01*
X174753037Y-100379627D01*
X174735641Y-100203000D01*
X174753037Y-100026373D01*
X174804557Y-99856534D01*
X174888222Y-99700009D01*
X174917552Y-99664271D01*
X175000814Y-99562814D01*
X175102271Y-99479552D01*
X175138009Y-99450222D01*
X175294534Y-99366557D01*
X175464373Y-99315037D01*
X175530557Y-99308519D01*
X175596740Y-99302000D01*
X175685260Y-99302000D01*
X175751443Y-99308519D01*
X175751443Y-99308519D01*
G37*
G36*
X173211443Y-99308519D02*
G01*
X173277627Y-99315037D01*
X173447466Y-99366557D01*
X173603991Y-99450222D01*
X173639729Y-99479552D01*
X173741186Y-99562814D01*
X173824448Y-99664271D01*
X173853778Y-99700009D01*
X173937443Y-99856534D01*
X173988963Y-100026373D01*
X174006359Y-100203000D01*
X173988963Y-100379627D01*
X173937443Y-100549466D01*
X173853778Y-100705991D01*
X173824448Y-100741729D01*
X173741186Y-100843186D01*
X173639729Y-100926448D01*
X173603991Y-100955778D01*
X173447466Y-101039443D01*
X173277627Y-101090963D01*
X173211443Y-101097481D01*
X173145260Y-101104000D01*
X173056740Y-101104000D01*
X172990557Y-101097481D01*
X172924373Y-101090963D01*
X172754534Y-101039443D01*
X172598009Y-100955778D01*
X172562271Y-100926448D01*
X172460814Y-100843186D01*
X172377552Y-100741729D01*
X172348222Y-100705991D01*
X172264557Y-100549466D01*
X172213037Y-100379627D01*
X172195641Y-100203000D01*
X172213037Y-100026373D01*
X172264557Y-99856534D01*
X172348222Y-99700009D01*
X172377552Y-99664271D01*
X172460814Y-99562814D01*
X172562271Y-99479552D01*
X172598009Y-99450222D01*
X172754534Y-99366557D01*
X172924373Y-99315037D01*
X172990557Y-99308519D01*
X173056740Y-99302000D01*
X173145260Y-99302000D01*
X173211443Y-99308519D01*
X173211443Y-99308519D01*
G37*
G36*
X170671443Y-99308519D02*
G01*
X170737627Y-99315037D01*
X170907466Y-99366557D01*
X171063991Y-99450222D01*
X171099729Y-99479552D01*
X171201186Y-99562814D01*
X171284448Y-99664271D01*
X171313778Y-99700009D01*
X171397443Y-99856534D01*
X171448963Y-100026373D01*
X171466359Y-100203000D01*
X171448963Y-100379627D01*
X171397443Y-100549466D01*
X171313778Y-100705991D01*
X171284448Y-100741729D01*
X171201186Y-100843186D01*
X171099729Y-100926448D01*
X171063991Y-100955778D01*
X170907466Y-101039443D01*
X170737627Y-101090963D01*
X170671443Y-101097481D01*
X170605260Y-101104000D01*
X170516740Y-101104000D01*
X170450557Y-101097481D01*
X170384373Y-101090963D01*
X170214534Y-101039443D01*
X170058009Y-100955778D01*
X170022271Y-100926448D01*
X169920814Y-100843186D01*
X169837552Y-100741729D01*
X169808222Y-100705991D01*
X169724557Y-100549466D01*
X169673037Y-100379627D01*
X169655641Y-100203000D01*
X169673037Y-100026373D01*
X169724557Y-99856534D01*
X169808222Y-99700009D01*
X169837552Y-99664271D01*
X169920814Y-99562814D01*
X170022271Y-99479552D01*
X170058009Y-99450222D01*
X170214534Y-99366557D01*
X170384373Y-99315037D01*
X170450557Y-99308519D01*
X170516740Y-99302000D01*
X170605260Y-99302000D01*
X170671443Y-99308519D01*
X170671443Y-99308519D01*
G37*
G36*
X168131443Y-99308519D02*
G01*
X168197627Y-99315037D01*
X168367466Y-99366557D01*
X168523991Y-99450222D01*
X168559729Y-99479552D01*
X168661186Y-99562814D01*
X168744448Y-99664271D01*
X168773778Y-99700009D01*
X168857443Y-99856534D01*
X168908963Y-100026373D01*
X168926359Y-100203000D01*
X168908963Y-100379627D01*
X168857443Y-100549466D01*
X168773778Y-100705991D01*
X168744448Y-100741729D01*
X168661186Y-100843186D01*
X168559729Y-100926448D01*
X168523991Y-100955778D01*
X168367466Y-101039443D01*
X168197627Y-101090963D01*
X168131443Y-101097481D01*
X168065260Y-101104000D01*
X167976740Y-101104000D01*
X167910557Y-101097481D01*
X167844373Y-101090963D01*
X167674534Y-101039443D01*
X167518009Y-100955778D01*
X167482271Y-100926448D01*
X167380814Y-100843186D01*
X167297552Y-100741729D01*
X167268222Y-100705991D01*
X167184557Y-100549466D01*
X167133037Y-100379627D01*
X167115641Y-100203000D01*
X167133037Y-100026373D01*
X167184557Y-99856534D01*
X167268222Y-99700009D01*
X167297552Y-99664271D01*
X167380814Y-99562814D01*
X167482271Y-99479552D01*
X167518009Y-99450222D01*
X167674534Y-99366557D01*
X167844373Y-99315037D01*
X167910557Y-99308519D01*
X167976740Y-99302000D01*
X168065260Y-99302000D01*
X168131443Y-99308519D01*
X168131443Y-99308519D01*
G37*
G36*
X165591443Y-99308519D02*
G01*
X165657627Y-99315037D01*
X165827466Y-99366557D01*
X165983991Y-99450222D01*
X166019729Y-99479552D01*
X166121186Y-99562814D01*
X166204448Y-99664271D01*
X166233778Y-99700009D01*
X166317443Y-99856534D01*
X166368963Y-100026373D01*
X166386359Y-100203000D01*
X166368963Y-100379627D01*
X166317443Y-100549466D01*
X166233778Y-100705991D01*
X166204448Y-100741729D01*
X166121186Y-100843186D01*
X166019729Y-100926448D01*
X165983991Y-100955778D01*
X165827466Y-101039443D01*
X165657627Y-101090963D01*
X165591443Y-101097481D01*
X165525260Y-101104000D01*
X165436740Y-101104000D01*
X165370557Y-101097481D01*
X165304373Y-101090963D01*
X165134534Y-101039443D01*
X164978009Y-100955778D01*
X164942271Y-100926448D01*
X164840814Y-100843186D01*
X164757552Y-100741729D01*
X164728222Y-100705991D01*
X164644557Y-100549466D01*
X164593037Y-100379627D01*
X164575641Y-100203000D01*
X164593037Y-100026373D01*
X164644557Y-99856534D01*
X164728222Y-99700009D01*
X164757552Y-99664271D01*
X164840814Y-99562814D01*
X164942271Y-99479552D01*
X164978009Y-99450222D01*
X165134534Y-99366557D01*
X165304373Y-99315037D01*
X165370557Y-99308519D01*
X165436740Y-99302000D01*
X165525260Y-99302000D01*
X165591443Y-99308519D01*
X165591443Y-99308519D01*
G37*
G36*
X163051443Y-99308519D02*
G01*
X163117627Y-99315037D01*
X163287466Y-99366557D01*
X163443991Y-99450222D01*
X163479729Y-99479552D01*
X163581186Y-99562814D01*
X163664448Y-99664271D01*
X163693778Y-99700009D01*
X163777443Y-99856534D01*
X163828963Y-100026373D01*
X163846359Y-100203000D01*
X163828963Y-100379627D01*
X163777443Y-100549466D01*
X163693778Y-100705991D01*
X163664448Y-100741729D01*
X163581186Y-100843186D01*
X163479729Y-100926448D01*
X163443991Y-100955778D01*
X163287466Y-101039443D01*
X163117627Y-101090963D01*
X163051443Y-101097481D01*
X162985260Y-101104000D01*
X162896740Y-101104000D01*
X162830557Y-101097481D01*
X162764373Y-101090963D01*
X162594534Y-101039443D01*
X162438009Y-100955778D01*
X162402271Y-100926448D01*
X162300814Y-100843186D01*
X162217552Y-100741729D01*
X162188222Y-100705991D01*
X162104557Y-100549466D01*
X162053037Y-100379627D01*
X162035641Y-100203000D01*
X162053037Y-100026373D01*
X162104557Y-99856534D01*
X162188222Y-99700009D01*
X162217552Y-99664271D01*
X162300814Y-99562814D01*
X162402271Y-99479552D01*
X162438009Y-99450222D01*
X162594534Y-99366557D01*
X162764373Y-99315037D01*
X162830557Y-99308519D01*
X162896740Y-99302000D01*
X162985260Y-99302000D01*
X163051443Y-99308519D01*
X163051443Y-99308519D01*
G37*
G36*
X160511443Y-99308519D02*
G01*
X160577627Y-99315037D01*
X160747466Y-99366557D01*
X160903991Y-99450222D01*
X160939729Y-99479552D01*
X161041186Y-99562814D01*
X161124448Y-99664271D01*
X161153778Y-99700009D01*
X161237443Y-99856534D01*
X161288963Y-100026373D01*
X161306359Y-100203000D01*
X161288963Y-100379627D01*
X161237443Y-100549466D01*
X161153778Y-100705991D01*
X161124448Y-100741729D01*
X161041186Y-100843186D01*
X160939729Y-100926448D01*
X160903991Y-100955778D01*
X160747466Y-101039443D01*
X160577627Y-101090963D01*
X160511443Y-101097481D01*
X160445260Y-101104000D01*
X160356740Y-101104000D01*
X160290557Y-101097481D01*
X160224373Y-101090963D01*
X160054534Y-101039443D01*
X159898009Y-100955778D01*
X159862271Y-100926448D01*
X159760814Y-100843186D01*
X159677552Y-100741729D01*
X159648222Y-100705991D01*
X159564557Y-100549466D01*
X159513037Y-100379627D01*
X159495641Y-100203000D01*
X159513037Y-100026373D01*
X159564557Y-99856534D01*
X159648222Y-99700009D01*
X159677552Y-99664271D01*
X159760814Y-99562814D01*
X159862271Y-99479552D01*
X159898009Y-99450222D01*
X160054534Y-99366557D01*
X160224373Y-99315037D01*
X160290557Y-99308519D01*
X160356740Y-99302000D01*
X160445260Y-99302000D01*
X160511443Y-99308519D01*
X160511443Y-99308519D01*
G37*
G36*
X157971443Y-99308519D02*
G01*
X158037627Y-99315037D01*
X158207466Y-99366557D01*
X158363991Y-99450222D01*
X158399729Y-99479552D01*
X158501186Y-99562814D01*
X158584448Y-99664271D01*
X158613778Y-99700009D01*
X158697443Y-99856534D01*
X158748963Y-100026373D01*
X158766359Y-100203000D01*
X158748963Y-100379627D01*
X158697443Y-100549466D01*
X158613778Y-100705991D01*
X158584448Y-100741729D01*
X158501186Y-100843186D01*
X158399729Y-100926448D01*
X158363991Y-100955778D01*
X158207466Y-101039443D01*
X158037627Y-101090963D01*
X157971443Y-101097481D01*
X157905260Y-101104000D01*
X157816740Y-101104000D01*
X157750557Y-101097481D01*
X157684373Y-101090963D01*
X157514534Y-101039443D01*
X157358009Y-100955778D01*
X157322271Y-100926448D01*
X157220814Y-100843186D01*
X157137552Y-100741729D01*
X157108222Y-100705991D01*
X157024557Y-100549466D01*
X156973037Y-100379627D01*
X156955641Y-100203000D01*
X156973037Y-100026373D01*
X157024557Y-99856534D01*
X157108222Y-99700009D01*
X157137552Y-99664271D01*
X157220814Y-99562814D01*
X157322271Y-99479552D01*
X157358009Y-99450222D01*
X157514534Y-99366557D01*
X157684373Y-99315037D01*
X157750557Y-99308519D01*
X157816740Y-99302000D01*
X157905260Y-99302000D01*
X157971443Y-99308519D01*
X157971443Y-99308519D01*
G37*
G36*
X155431443Y-99308519D02*
G01*
X155497627Y-99315037D01*
X155667466Y-99366557D01*
X155823991Y-99450222D01*
X155859729Y-99479552D01*
X155961186Y-99562814D01*
X156044448Y-99664271D01*
X156073778Y-99700009D01*
X156157443Y-99856534D01*
X156208963Y-100026373D01*
X156226359Y-100203000D01*
X156208963Y-100379627D01*
X156157443Y-100549466D01*
X156073778Y-100705991D01*
X156044448Y-100741729D01*
X155961186Y-100843186D01*
X155859729Y-100926448D01*
X155823991Y-100955778D01*
X155667466Y-101039443D01*
X155497627Y-101090963D01*
X155431443Y-101097481D01*
X155365260Y-101104000D01*
X155276740Y-101104000D01*
X155210557Y-101097481D01*
X155144373Y-101090963D01*
X154974534Y-101039443D01*
X154818009Y-100955778D01*
X154782271Y-100926448D01*
X154680814Y-100843186D01*
X154597552Y-100741729D01*
X154568222Y-100705991D01*
X154484557Y-100549466D01*
X154433037Y-100379627D01*
X154415641Y-100203000D01*
X154433037Y-100026373D01*
X154484557Y-99856534D01*
X154568222Y-99700009D01*
X154597552Y-99664271D01*
X154680814Y-99562814D01*
X154782271Y-99479552D01*
X154818009Y-99450222D01*
X154974534Y-99366557D01*
X155144373Y-99315037D01*
X155210557Y-99308519D01*
X155276740Y-99302000D01*
X155365260Y-99302000D01*
X155431443Y-99308519D01*
X155431443Y-99308519D01*
G37*
G36*
X152891443Y-99308519D02*
G01*
X152957627Y-99315037D01*
X153127466Y-99366557D01*
X153283991Y-99450222D01*
X153319729Y-99479552D01*
X153421186Y-99562814D01*
X153504448Y-99664271D01*
X153533778Y-99700009D01*
X153617443Y-99856534D01*
X153668963Y-100026373D01*
X153686359Y-100203000D01*
X153668963Y-100379627D01*
X153617443Y-100549466D01*
X153533778Y-100705991D01*
X153504448Y-100741729D01*
X153421186Y-100843186D01*
X153319729Y-100926448D01*
X153283991Y-100955778D01*
X153127466Y-101039443D01*
X152957627Y-101090963D01*
X152891443Y-101097481D01*
X152825260Y-101104000D01*
X152736740Y-101104000D01*
X152670557Y-101097481D01*
X152604373Y-101090963D01*
X152434534Y-101039443D01*
X152278009Y-100955778D01*
X152242271Y-100926448D01*
X152140814Y-100843186D01*
X152057552Y-100741729D01*
X152028222Y-100705991D01*
X151944557Y-100549466D01*
X151893037Y-100379627D01*
X151875641Y-100203000D01*
X151893037Y-100026373D01*
X151944557Y-99856534D01*
X152028222Y-99700009D01*
X152057552Y-99664271D01*
X152140814Y-99562814D01*
X152242271Y-99479552D01*
X152278009Y-99450222D01*
X152434534Y-99366557D01*
X152604373Y-99315037D01*
X152670557Y-99308519D01*
X152736740Y-99302000D01*
X152825260Y-99302000D01*
X152891443Y-99308519D01*
X152891443Y-99308519D01*
G37*
G36*
X150351443Y-99308519D02*
G01*
X150417627Y-99315037D01*
X150587466Y-99366557D01*
X150743991Y-99450222D01*
X150779729Y-99479552D01*
X150881186Y-99562814D01*
X150964448Y-99664271D01*
X150993778Y-99700009D01*
X151077443Y-99856534D01*
X151128963Y-100026373D01*
X151146359Y-100203000D01*
X151128963Y-100379627D01*
X151077443Y-100549466D01*
X150993778Y-100705991D01*
X150964448Y-100741729D01*
X150881186Y-100843186D01*
X150779729Y-100926448D01*
X150743991Y-100955778D01*
X150587466Y-101039443D01*
X150417627Y-101090963D01*
X150351443Y-101097481D01*
X150285260Y-101104000D01*
X150196740Y-101104000D01*
X150130557Y-101097481D01*
X150064373Y-101090963D01*
X149894534Y-101039443D01*
X149738009Y-100955778D01*
X149702271Y-100926448D01*
X149600814Y-100843186D01*
X149517552Y-100741729D01*
X149488222Y-100705991D01*
X149404557Y-100549466D01*
X149353037Y-100379627D01*
X149335641Y-100203000D01*
X149353037Y-100026373D01*
X149404557Y-99856534D01*
X149488222Y-99700009D01*
X149517552Y-99664271D01*
X149600814Y-99562814D01*
X149702271Y-99479552D01*
X149738009Y-99450222D01*
X149894534Y-99366557D01*
X150064373Y-99315037D01*
X150130557Y-99308519D01*
X150196740Y-99302000D01*
X150285260Y-99302000D01*
X150351443Y-99308519D01*
X150351443Y-99308519D01*
G37*
G36*
X147811443Y-99308519D02*
G01*
X147877627Y-99315037D01*
X148047466Y-99366557D01*
X148203991Y-99450222D01*
X148239729Y-99479552D01*
X148341186Y-99562814D01*
X148424448Y-99664271D01*
X148453778Y-99700009D01*
X148537443Y-99856534D01*
X148588963Y-100026373D01*
X148606359Y-100203000D01*
X148588963Y-100379627D01*
X148537443Y-100549466D01*
X148453778Y-100705991D01*
X148424448Y-100741729D01*
X148341186Y-100843186D01*
X148239729Y-100926448D01*
X148203991Y-100955778D01*
X148047466Y-101039443D01*
X147877627Y-101090963D01*
X147811443Y-101097481D01*
X147745260Y-101104000D01*
X147656740Y-101104000D01*
X147590557Y-101097481D01*
X147524373Y-101090963D01*
X147354534Y-101039443D01*
X147198009Y-100955778D01*
X147162271Y-100926448D01*
X147060814Y-100843186D01*
X146977552Y-100741729D01*
X146948222Y-100705991D01*
X146864557Y-100549466D01*
X146813037Y-100379627D01*
X146795641Y-100203000D01*
X146813037Y-100026373D01*
X146864557Y-99856534D01*
X146948222Y-99700009D01*
X146977552Y-99664271D01*
X147060814Y-99562814D01*
X147162271Y-99479552D01*
X147198009Y-99450222D01*
X147354534Y-99366557D01*
X147524373Y-99315037D01*
X147590557Y-99308519D01*
X147656740Y-99302000D01*
X147745260Y-99302000D01*
X147811443Y-99308519D01*
X147811443Y-99308519D01*
G37*
G36*
X145271443Y-99308519D02*
G01*
X145337627Y-99315037D01*
X145507466Y-99366557D01*
X145663991Y-99450222D01*
X145699729Y-99479552D01*
X145801186Y-99562814D01*
X145884448Y-99664271D01*
X145913778Y-99700009D01*
X145997443Y-99856534D01*
X146048963Y-100026373D01*
X146066359Y-100203000D01*
X146048963Y-100379627D01*
X145997443Y-100549466D01*
X145913778Y-100705991D01*
X145884448Y-100741729D01*
X145801186Y-100843186D01*
X145699729Y-100926448D01*
X145663991Y-100955778D01*
X145507466Y-101039443D01*
X145337627Y-101090963D01*
X145271443Y-101097481D01*
X145205260Y-101104000D01*
X145116740Y-101104000D01*
X145050557Y-101097481D01*
X144984373Y-101090963D01*
X144814534Y-101039443D01*
X144658009Y-100955778D01*
X144622271Y-100926448D01*
X144520814Y-100843186D01*
X144437552Y-100741729D01*
X144408222Y-100705991D01*
X144324557Y-100549466D01*
X144273037Y-100379627D01*
X144255641Y-100203000D01*
X144273037Y-100026373D01*
X144324557Y-99856534D01*
X144408222Y-99700009D01*
X144437552Y-99664271D01*
X144520814Y-99562814D01*
X144622271Y-99479552D01*
X144658009Y-99450222D01*
X144814534Y-99366557D01*
X144984373Y-99315037D01*
X145050557Y-99308519D01*
X145116740Y-99302000D01*
X145205260Y-99302000D01*
X145271443Y-99308519D01*
X145271443Y-99308519D01*
G37*
G36*
X142731443Y-99308519D02*
G01*
X142797627Y-99315037D01*
X142967466Y-99366557D01*
X143123991Y-99450222D01*
X143159729Y-99479552D01*
X143261186Y-99562814D01*
X143344448Y-99664271D01*
X143373778Y-99700009D01*
X143457443Y-99856534D01*
X143508963Y-100026373D01*
X143526359Y-100203000D01*
X143508963Y-100379627D01*
X143457443Y-100549466D01*
X143373778Y-100705991D01*
X143344448Y-100741729D01*
X143261186Y-100843186D01*
X143159729Y-100926448D01*
X143123991Y-100955778D01*
X142967466Y-101039443D01*
X142797627Y-101090963D01*
X142731443Y-101097481D01*
X142665260Y-101104000D01*
X142576740Y-101104000D01*
X142510557Y-101097481D01*
X142444373Y-101090963D01*
X142274534Y-101039443D01*
X142118009Y-100955778D01*
X142082271Y-100926448D01*
X141980814Y-100843186D01*
X141897552Y-100741729D01*
X141868222Y-100705991D01*
X141784557Y-100549466D01*
X141733037Y-100379627D01*
X141715641Y-100203000D01*
X141733037Y-100026373D01*
X141784557Y-99856534D01*
X141868222Y-99700009D01*
X141897552Y-99664271D01*
X141980814Y-99562814D01*
X142082271Y-99479552D01*
X142118009Y-99450222D01*
X142274534Y-99366557D01*
X142444373Y-99315037D01*
X142510557Y-99308519D01*
X142576740Y-99302000D01*
X142665260Y-99302000D01*
X142731443Y-99308519D01*
X142731443Y-99308519D01*
G37*
G36*
X140191443Y-99308519D02*
G01*
X140257627Y-99315037D01*
X140427466Y-99366557D01*
X140583991Y-99450222D01*
X140619729Y-99479552D01*
X140721186Y-99562814D01*
X140804448Y-99664271D01*
X140833778Y-99700009D01*
X140917443Y-99856534D01*
X140968963Y-100026373D01*
X140986359Y-100203000D01*
X140968963Y-100379627D01*
X140917443Y-100549466D01*
X140833778Y-100705991D01*
X140804448Y-100741729D01*
X140721186Y-100843186D01*
X140619729Y-100926448D01*
X140583991Y-100955778D01*
X140427466Y-101039443D01*
X140257627Y-101090963D01*
X140191443Y-101097481D01*
X140125260Y-101104000D01*
X140036740Y-101104000D01*
X139970557Y-101097481D01*
X139904373Y-101090963D01*
X139734534Y-101039443D01*
X139578009Y-100955778D01*
X139542271Y-100926448D01*
X139440814Y-100843186D01*
X139357552Y-100741729D01*
X139328222Y-100705991D01*
X139244557Y-100549466D01*
X139193037Y-100379627D01*
X139175641Y-100203000D01*
X139193037Y-100026373D01*
X139244557Y-99856534D01*
X139328222Y-99700009D01*
X139357552Y-99664271D01*
X139440814Y-99562814D01*
X139542271Y-99479552D01*
X139578009Y-99450222D01*
X139734534Y-99366557D01*
X139904373Y-99315037D01*
X139970557Y-99308519D01*
X140036740Y-99302000D01*
X140125260Y-99302000D01*
X140191443Y-99308519D01*
X140191443Y-99308519D01*
G37*
G36*
X130031443Y-99308519D02*
G01*
X130097627Y-99315037D01*
X130267466Y-99366557D01*
X130423991Y-99450222D01*
X130459729Y-99479552D01*
X130561186Y-99562814D01*
X130644448Y-99664271D01*
X130673778Y-99700009D01*
X130757443Y-99856534D01*
X130808963Y-100026373D01*
X130826359Y-100203000D01*
X130808963Y-100379627D01*
X130757443Y-100549466D01*
X130673778Y-100705991D01*
X130644448Y-100741729D01*
X130561186Y-100843186D01*
X130459729Y-100926448D01*
X130423991Y-100955778D01*
X130267466Y-101039443D01*
X130097627Y-101090963D01*
X130031443Y-101097481D01*
X129965260Y-101104000D01*
X129876740Y-101104000D01*
X129810557Y-101097481D01*
X129744373Y-101090963D01*
X129574534Y-101039443D01*
X129418009Y-100955778D01*
X129382271Y-100926448D01*
X129280814Y-100843186D01*
X129197552Y-100741729D01*
X129168222Y-100705991D01*
X129084557Y-100549466D01*
X129033037Y-100379627D01*
X129015641Y-100203000D01*
X129033037Y-100026373D01*
X129084557Y-99856534D01*
X129168222Y-99700009D01*
X129197552Y-99664271D01*
X129280814Y-99562814D01*
X129382271Y-99479552D01*
X129418009Y-99450222D01*
X129574534Y-99366557D01*
X129744373Y-99315037D01*
X129810557Y-99308519D01*
X129876740Y-99302000D01*
X129965260Y-99302000D01*
X130031443Y-99308519D01*
X130031443Y-99308519D01*
G37*
G36*
X127491443Y-99308519D02*
G01*
X127557627Y-99315037D01*
X127727466Y-99366557D01*
X127883991Y-99450222D01*
X127919729Y-99479552D01*
X128021186Y-99562814D01*
X128104448Y-99664271D01*
X128133778Y-99700009D01*
X128217443Y-99856534D01*
X128268963Y-100026373D01*
X128286359Y-100203000D01*
X128268963Y-100379627D01*
X128217443Y-100549466D01*
X128133778Y-100705991D01*
X128104448Y-100741729D01*
X128021186Y-100843186D01*
X127919729Y-100926448D01*
X127883991Y-100955778D01*
X127727466Y-101039443D01*
X127557627Y-101090963D01*
X127491443Y-101097481D01*
X127425260Y-101104000D01*
X127336740Y-101104000D01*
X127270557Y-101097481D01*
X127204373Y-101090963D01*
X127034534Y-101039443D01*
X126878009Y-100955778D01*
X126842271Y-100926448D01*
X126740814Y-100843186D01*
X126657552Y-100741729D01*
X126628222Y-100705991D01*
X126544557Y-100549466D01*
X126493037Y-100379627D01*
X126475641Y-100203000D01*
X126493037Y-100026373D01*
X126544557Y-99856534D01*
X126628222Y-99700009D01*
X126657552Y-99664271D01*
X126740814Y-99562814D01*
X126842271Y-99479552D01*
X126878009Y-99450222D01*
X127034534Y-99366557D01*
X127204373Y-99315037D01*
X127270557Y-99308519D01*
X127336740Y-99302000D01*
X127425260Y-99302000D01*
X127491443Y-99308519D01*
X127491443Y-99308519D01*
G37*
G36*
X124951443Y-99308519D02*
G01*
X125017627Y-99315037D01*
X125187466Y-99366557D01*
X125343991Y-99450222D01*
X125379729Y-99479552D01*
X125481186Y-99562814D01*
X125564448Y-99664271D01*
X125593778Y-99700009D01*
X125677443Y-99856534D01*
X125728963Y-100026373D01*
X125746359Y-100203000D01*
X125728963Y-100379627D01*
X125677443Y-100549466D01*
X125593778Y-100705991D01*
X125564448Y-100741729D01*
X125481186Y-100843186D01*
X125379729Y-100926448D01*
X125343991Y-100955778D01*
X125187466Y-101039443D01*
X125017627Y-101090963D01*
X124951443Y-101097481D01*
X124885260Y-101104000D01*
X124796740Y-101104000D01*
X124730557Y-101097481D01*
X124664373Y-101090963D01*
X124494534Y-101039443D01*
X124338009Y-100955778D01*
X124302271Y-100926448D01*
X124200814Y-100843186D01*
X124117552Y-100741729D01*
X124088222Y-100705991D01*
X124004557Y-100549466D01*
X123953037Y-100379627D01*
X123935641Y-100203000D01*
X123953037Y-100026373D01*
X124004557Y-99856534D01*
X124088222Y-99700009D01*
X124117552Y-99664271D01*
X124200814Y-99562814D01*
X124302271Y-99479552D01*
X124338009Y-99450222D01*
X124494534Y-99366557D01*
X124664373Y-99315037D01*
X124730557Y-99308519D01*
X124796740Y-99302000D01*
X124885260Y-99302000D01*
X124951443Y-99308519D01*
X124951443Y-99308519D01*
G37*
G36*
X122411443Y-99308519D02*
G01*
X122477627Y-99315037D01*
X122647466Y-99366557D01*
X122803991Y-99450222D01*
X122839729Y-99479552D01*
X122941186Y-99562814D01*
X123024448Y-99664271D01*
X123053778Y-99700009D01*
X123137443Y-99856534D01*
X123188963Y-100026373D01*
X123206359Y-100203000D01*
X123188963Y-100379627D01*
X123137443Y-100549466D01*
X123053778Y-100705991D01*
X123024448Y-100741729D01*
X122941186Y-100843186D01*
X122839729Y-100926448D01*
X122803991Y-100955778D01*
X122647466Y-101039443D01*
X122477627Y-101090963D01*
X122411443Y-101097481D01*
X122345260Y-101104000D01*
X122256740Y-101104000D01*
X122190557Y-101097481D01*
X122124373Y-101090963D01*
X121954534Y-101039443D01*
X121798009Y-100955778D01*
X121762271Y-100926448D01*
X121660814Y-100843186D01*
X121577552Y-100741729D01*
X121548222Y-100705991D01*
X121464557Y-100549466D01*
X121413037Y-100379627D01*
X121395641Y-100203000D01*
X121413037Y-100026373D01*
X121464557Y-99856534D01*
X121548222Y-99700009D01*
X121577552Y-99664271D01*
X121660814Y-99562814D01*
X121762271Y-99479552D01*
X121798009Y-99450222D01*
X121954534Y-99366557D01*
X122124373Y-99315037D01*
X122190557Y-99308519D01*
X122256740Y-99302000D01*
X122345260Y-99302000D01*
X122411443Y-99308519D01*
X122411443Y-99308519D01*
G37*
G36*
X119871443Y-99308519D02*
G01*
X119937627Y-99315037D01*
X120107466Y-99366557D01*
X120263991Y-99450222D01*
X120299729Y-99479552D01*
X120401186Y-99562814D01*
X120484448Y-99664271D01*
X120513778Y-99700009D01*
X120597443Y-99856534D01*
X120648963Y-100026373D01*
X120666359Y-100203000D01*
X120648963Y-100379627D01*
X120597443Y-100549466D01*
X120513778Y-100705991D01*
X120484448Y-100741729D01*
X120401186Y-100843186D01*
X120299729Y-100926448D01*
X120263991Y-100955778D01*
X120107466Y-101039443D01*
X119937627Y-101090963D01*
X119871443Y-101097481D01*
X119805260Y-101104000D01*
X119716740Y-101104000D01*
X119650557Y-101097481D01*
X119584373Y-101090963D01*
X119414534Y-101039443D01*
X119258009Y-100955778D01*
X119222271Y-100926448D01*
X119120814Y-100843186D01*
X119037552Y-100741729D01*
X119008222Y-100705991D01*
X118924557Y-100549466D01*
X118873037Y-100379627D01*
X118855641Y-100203000D01*
X118873037Y-100026373D01*
X118924557Y-99856534D01*
X119008222Y-99700009D01*
X119037552Y-99664271D01*
X119120814Y-99562814D01*
X119222271Y-99479552D01*
X119258009Y-99450222D01*
X119414534Y-99366557D01*
X119584373Y-99315037D01*
X119650557Y-99308519D01*
X119716740Y-99302000D01*
X119805260Y-99302000D01*
X119871443Y-99308519D01*
X119871443Y-99308519D01*
G37*
G36*
X120662000Y-98564000D02*
G01*
X118860000Y-98564000D01*
X118860000Y-96762000D01*
X120662000Y-96762000D01*
X120662000Y-98564000D01*
X120662000Y-98564000D01*
G37*
G36*
X183371442Y-96768518D02*
G01*
X183437627Y-96775037D01*
X183607466Y-96826557D01*
X183763991Y-96910222D01*
X183799729Y-96939552D01*
X183901186Y-97022814D01*
X183984448Y-97124271D01*
X184013778Y-97160009D01*
X184097443Y-97316534D01*
X184148963Y-97486373D01*
X184166359Y-97663000D01*
X184148963Y-97839627D01*
X184097443Y-98009466D01*
X184013778Y-98165991D01*
X183984448Y-98201729D01*
X183901186Y-98303186D01*
X183799729Y-98386448D01*
X183763991Y-98415778D01*
X183607466Y-98499443D01*
X183437627Y-98550963D01*
X183371442Y-98557482D01*
X183305260Y-98564000D01*
X183216740Y-98564000D01*
X183150558Y-98557482D01*
X183084373Y-98550963D01*
X182914534Y-98499443D01*
X182758009Y-98415778D01*
X182722271Y-98386448D01*
X182620814Y-98303186D01*
X182537552Y-98201729D01*
X182508222Y-98165991D01*
X182424557Y-98009466D01*
X182373037Y-97839627D01*
X182355641Y-97663000D01*
X182373037Y-97486373D01*
X182424557Y-97316534D01*
X182508222Y-97160009D01*
X182537552Y-97124271D01*
X182620814Y-97022814D01*
X182722271Y-96939552D01*
X182758009Y-96910222D01*
X182914534Y-96826557D01*
X183084373Y-96775037D01*
X183150558Y-96768518D01*
X183216740Y-96762000D01*
X183305260Y-96762000D01*
X183371442Y-96768518D01*
X183371442Y-96768518D01*
G37*
G36*
X188451442Y-96768518D02*
G01*
X188517627Y-96775037D01*
X188687466Y-96826557D01*
X188843991Y-96910222D01*
X188879729Y-96939552D01*
X188981186Y-97022814D01*
X189064448Y-97124271D01*
X189093778Y-97160009D01*
X189177443Y-97316534D01*
X189228963Y-97486373D01*
X189246359Y-97663000D01*
X189228963Y-97839627D01*
X189177443Y-98009466D01*
X189093778Y-98165991D01*
X189064448Y-98201729D01*
X188981186Y-98303186D01*
X188879729Y-98386448D01*
X188843991Y-98415778D01*
X188687466Y-98499443D01*
X188517627Y-98550963D01*
X188451442Y-98557482D01*
X188385260Y-98564000D01*
X188296740Y-98564000D01*
X188230558Y-98557482D01*
X188164373Y-98550963D01*
X187994534Y-98499443D01*
X187838009Y-98415778D01*
X187802271Y-98386448D01*
X187700814Y-98303186D01*
X187617552Y-98201729D01*
X187588222Y-98165991D01*
X187504557Y-98009466D01*
X187453037Y-97839627D01*
X187435641Y-97663000D01*
X187453037Y-97486373D01*
X187504557Y-97316534D01*
X187588222Y-97160009D01*
X187617552Y-97124271D01*
X187700814Y-97022814D01*
X187802271Y-96939552D01*
X187838009Y-96910222D01*
X187994534Y-96826557D01*
X188164373Y-96775037D01*
X188230558Y-96768518D01*
X188296740Y-96762000D01*
X188385260Y-96762000D01*
X188451442Y-96768518D01*
X188451442Y-96768518D01*
G37*
G36*
X122411442Y-96768518D02*
G01*
X122477627Y-96775037D01*
X122647466Y-96826557D01*
X122803991Y-96910222D01*
X122839729Y-96939552D01*
X122941186Y-97022814D01*
X123024448Y-97124271D01*
X123053778Y-97160009D01*
X123137443Y-97316534D01*
X123188963Y-97486373D01*
X123206359Y-97663000D01*
X123188963Y-97839627D01*
X123137443Y-98009466D01*
X123053778Y-98165991D01*
X123024448Y-98201729D01*
X122941186Y-98303186D01*
X122839729Y-98386448D01*
X122803991Y-98415778D01*
X122647466Y-98499443D01*
X122477627Y-98550963D01*
X122411442Y-98557482D01*
X122345260Y-98564000D01*
X122256740Y-98564000D01*
X122190558Y-98557482D01*
X122124373Y-98550963D01*
X121954534Y-98499443D01*
X121798009Y-98415778D01*
X121762271Y-98386448D01*
X121660814Y-98303186D01*
X121577552Y-98201729D01*
X121548222Y-98165991D01*
X121464557Y-98009466D01*
X121413037Y-97839627D01*
X121395641Y-97663000D01*
X121413037Y-97486373D01*
X121464557Y-97316534D01*
X121548222Y-97160009D01*
X121577552Y-97124271D01*
X121660814Y-97022814D01*
X121762271Y-96939552D01*
X121798009Y-96910222D01*
X121954534Y-96826557D01*
X122124373Y-96775037D01*
X122190558Y-96768518D01*
X122256740Y-96762000D01*
X122345260Y-96762000D01*
X122411442Y-96768518D01*
X122411442Y-96768518D01*
G37*
G36*
X185911442Y-96768518D02*
G01*
X185977627Y-96775037D01*
X186147466Y-96826557D01*
X186303991Y-96910222D01*
X186339729Y-96939552D01*
X186441186Y-97022814D01*
X186524448Y-97124271D01*
X186553778Y-97160009D01*
X186637443Y-97316534D01*
X186688963Y-97486373D01*
X186706359Y-97663000D01*
X186688963Y-97839627D01*
X186637443Y-98009466D01*
X186553778Y-98165991D01*
X186524448Y-98201729D01*
X186441186Y-98303186D01*
X186339729Y-98386448D01*
X186303991Y-98415778D01*
X186147466Y-98499443D01*
X185977627Y-98550963D01*
X185911442Y-98557482D01*
X185845260Y-98564000D01*
X185756740Y-98564000D01*
X185690558Y-98557482D01*
X185624373Y-98550963D01*
X185454534Y-98499443D01*
X185298009Y-98415778D01*
X185262271Y-98386448D01*
X185160814Y-98303186D01*
X185077552Y-98201729D01*
X185048222Y-98165991D01*
X184964557Y-98009466D01*
X184913037Y-97839627D01*
X184895641Y-97663000D01*
X184913037Y-97486373D01*
X184964557Y-97316534D01*
X185048222Y-97160009D01*
X185077552Y-97124271D01*
X185160814Y-97022814D01*
X185262271Y-96939552D01*
X185298009Y-96910222D01*
X185454534Y-96826557D01*
X185624373Y-96775037D01*
X185690558Y-96768518D01*
X185756740Y-96762000D01*
X185845260Y-96762000D01*
X185911442Y-96768518D01*
X185911442Y-96768518D01*
G37*
G36*
X124951442Y-96768518D02*
G01*
X125017627Y-96775037D01*
X125187466Y-96826557D01*
X125343991Y-96910222D01*
X125379729Y-96939552D01*
X125481186Y-97022814D01*
X125564448Y-97124271D01*
X125593778Y-97160009D01*
X125677443Y-97316534D01*
X125728963Y-97486373D01*
X125746359Y-97663000D01*
X125728963Y-97839627D01*
X125677443Y-98009466D01*
X125593778Y-98165991D01*
X125564448Y-98201729D01*
X125481186Y-98303186D01*
X125379729Y-98386448D01*
X125343991Y-98415778D01*
X125187466Y-98499443D01*
X125017627Y-98550963D01*
X124951442Y-98557482D01*
X124885260Y-98564000D01*
X124796740Y-98564000D01*
X124730558Y-98557482D01*
X124664373Y-98550963D01*
X124494534Y-98499443D01*
X124338009Y-98415778D01*
X124302271Y-98386448D01*
X124200814Y-98303186D01*
X124117552Y-98201729D01*
X124088222Y-98165991D01*
X124004557Y-98009466D01*
X123953037Y-97839627D01*
X123935641Y-97663000D01*
X123953037Y-97486373D01*
X124004557Y-97316534D01*
X124088222Y-97160009D01*
X124117552Y-97124271D01*
X124200814Y-97022814D01*
X124302271Y-96939552D01*
X124338009Y-96910222D01*
X124494534Y-96826557D01*
X124664373Y-96775037D01*
X124730558Y-96768518D01*
X124796740Y-96762000D01*
X124885260Y-96762000D01*
X124951442Y-96768518D01*
X124951442Y-96768518D01*
G37*
G36*
X127491442Y-96768518D02*
G01*
X127557627Y-96775037D01*
X127727466Y-96826557D01*
X127883991Y-96910222D01*
X127919729Y-96939552D01*
X128021186Y-97022814D01*
X128104448Y-97124271D01*
X128133778Y-97160009D01*
X128217443Y-97316534D01*
X128268963Y-97486373D01*
X128286359Y-97663000D01*
X128268963Y-97839627D01*
X128217443Y-98009466D01*
X128133778Y-98165991D01*
X128104448Y-98201729D01*
X128021186Y-98303186D01*
X127919729Y-98386448D01*
X127883991Y-98415778D01*
X127727466Y-98499443D01*
X127557627Y-98550963D01*
X127491442Y-98557482D01*
X127425260Y-98564000D01*
X127336740Y-98564000D01*
X127270558Y-98557482D01*
X127204373Y-98550963D01*
X127034534Y-98499443D01*
X126878009Y-98415778D01*
X126842271Y-98386448D01*
X126740814Y-98303186D01*
X126657552Y-98201729D01*
X126628222Y-98165991D01*
X126544557Y-98009466D01*
X126493037Y-97839627D01*
X126475641Y-97663000D01*
X126493037Y-97486373D01*
X126544557Y-97316534D01*
X126628222Y-97160009D01*
X126657552Y-97124271D01*
X126740814Y-97022814D01*
X126842271Y-96939552D01*
X126878009Y-96910222D01*
X127034534Y-96826557D01*
X127204373Y-96775037D01*
X127270558Y-96768518D01*
X127336740Y-96762000D01*
X127425260Y-96762000D01*
X127491442Y-96768518D01*
X127491442Y-96768518D01*
G37*
G36*
X180831442Y-96768518D02*
G01*
X180897627Y-96775037D01*
X181067466Y-96826557D01*
X181223991Y-96910222D01*
X181259729Y-96939552D01*
X181361186Y-97022814D01*
X181444448Y-97124271D01*
X181473778Y-97160009D01*
X181557443Y-97316534D01*
X181608963Y-97486373D01*
X181626359Y-97663000D01*
X181608963Y-97839627D01*
X181557443Y-98009466D01*
X181473778Y-98165991D01*
X181444448Y-98201729D01*
X181361186Y-98303186D01*
X181259729Y-98386448D01*
X181223991Y-98415778D01*
X181067466Y-98499443D01*
X180897627Y-98550963D01*
X180831442Y-98557482D01*
X180765260Y-98564000D01*
X180676740Y-98564000D01*
X180610558Y-98557482D01*
X180544373Y-98550963D01*
X180374534Y-98499443D01*
X180218009Y-98415778D01*
X180182271Y-98386448D01*
X180080814Y-98303186D01*
X179997552Y-98201729D01*
X179968222Y-98165991D01*
X179884557Y-98009466D01*
X179833037Y-97839627D01*
X179815641Y-97663000D01*
X179833037Y-97486373D01*
X179884557Y-97316534D01*
X179968222Y-97160009D01*
X179997552Y-97124271D01*
X180080814Y-97022814D01*
X180182271Y-96939552D01*
X180218009Y-96910222D01*
X180374534Y-96826557D01*
X180544373Y-96775037D01*
X180610558Y-96768518D01*
X180676740Y-96762000D01*
X180765260Y-96762000D01*
X180831442Y-96768518D01*
X180831442Y-96768518D01*
G37*
G36*
X130031442Y-96768518D02*
G01*
X130097627Y-96775037D01*
X130267466Y-96826557D01*
X130423991Y-96910222D01*
X130459729Y-96939552D01*
X130561186Y-97022814D01*
X130644448Y-97124271D01*
X130673778Y-97160009D01*
X130757443Y-97316534D01*
X130808963Y-97486373D01*
X130826359Y-97663000D01*
X130808963Y-97839627D01*
X130757443Y-98009466D01*
X130673778Y-98165991D01*
X130644448Y-98201729D01*
X130561186Y-98303186D01*
X130459729Y-98386448D01*
X130423991Y-98415778D01*
X130267466Y-98499443D01*
X130097627Y-98550963D01*
X130031442Y-98557482D01*
X129965260Y-98564000D01*
X129876740Y-98564000D01*
X129810558Y-98557482D01*
X129744373Y-98550963D01*
X129574534Y-98499443D01*
X129418009Y-98415778D01*
X129382271Y-98386448D01*
X129280814Y-98303186D01*
X129197552Y-98201729D01*
X129168222Y-98165991D01*
X129084557Y-98009466D01*
X129033037Y-97839627D01*
X129015641Y-97663000D01*
X129033037Y-97486373D01*
X129084557Y-97316534D01*
X129168222Y-97160009D01*
X129197552Y-97124271D01*
X129280814Y-97022814D01*
X129382271Y-96939552D01*
X129418009Y-96910222D01*
X129574534Y-96826557D01*
X129744373Y-96775037D01*
X129810558Y-96768518D01*
X129876740Y-96762000D01*
X129965260Y-96762000D01*
X130031442Y-96768518D01*
X130031442Y-96768518D01*
G37*
G36*
X178291442Y-96768518D02*
G01*
X178357627Y-96775037D01*
X178527466Y-96826557D01*
X178683991Y-96910222D01*
X178719729Y-96939552D01*
X178821186Y-97022814D01*
X178904448Y-97124271D01*
X178933778Y-97160009D01*
X179017443Y-97316534D01*
X179068963Y-97486373D01*
X179086359Y-97663000D01*
X179068963Y-97839627D01*
X179017443Y-98009466D01*
X178933778Y-98165991D01*
X178904448Y-98201729D01*
X178821186Y-98303186D01*
X178719729Y-98386448D01*
X178683991Y-98415778D01*
X178527466Y-98499443D01*
X178357627Y-98550963D01*
X178291442Y-98557482D01*
X178225260Y-98564000D01*
X178136740Y-98564000D01*
X178070558Y-98557482D01*
X178004373Y-98550963D01*
X177834534Y-98499443D01*
X177678009Y-98415778D01*
X177642271Y-98386448D01*
X177540814Y-98303186D01*
X177457552Y-98201729D01*
X177428222Y-98165991D01*
X177344557Y-98009466D01*
X177293037Y-97839627D01*
X177275641Y-97663000D01*
X177293037Y-97486373D01*
X177344557Y-97316534D01*
X177428222Y-97160009D01*
X177457552Y-97124271D01*
X177540814Y-97022814D01*
X177642271Y-96939552D01*
X177678009Y-96910222D01*
X177834534Y-96826557D01*
X178004373Y-96775037D01*
X178070558Y-96768518D01*
X178136740Y-96762000D01*
X178225260Y-96762000D01*
X178291442Y-96768518D01*
X178291442Y-96768518D01*
G37*
G36*
X140982000Y-98564000D02*
G01*
X139180000Y-98564000D01*
X139180000Y-96762000D01*
X140982000Y-96762000D01*
X140982000Y-98564000D01*
X140982000Y-98564000D01*
G37*
G36*
X175751442Y-96768518D02*
G01*
X175817627Y-96775037D01*
X175987466Y-96826557D01*
X176143991Y-96910222D01*
X176179729Y-96939552D01*
X176281186Y-97022814D01*
X176364448Y-97124271D01*
X176393778Y-97160009D01*
X176477443Y-97316534D01*
X176528963Y-97486373D01*
X176546359Y-97663000D01*
X176528963Y-97839627D01*
X176477443Y-98009466D01*
X176393778Y-98165991D01*
X176364448Y-98201729D01*
X176281186Y-98303186D01*
X176179729Y-98386448D01*
X176143991Y-98415778D01*
X175987466Y-98499443D01*
X175817627Y-98550963D01*
X175751442Y-98557482D01*
X175685260Y-98564000D01*
X175596740Y-98564000D01*
X175530558Y-98557482D01*
X175464373Y-98550963D01*
X175294534Y-98499443D01*
X175138009Y-98415778D01*
X175102271Y-98386448D01*
X175000814Y-98303186D01*
X174917552Y-98201729D01*
X174888222Y-98165991D01*
X174804557Y-98009466D01*
X174753037Y-97839627D01*
X174735641Y-97663000D01*
X174753037Y-97486373D01*
X174804557Y-97316534D01*
X174888222Y-97160009D01*
X174917552Y-97124271D01*
X175000814Y-97022814D01*
X175102271Y-96939552D01*
X175138009Y-96910222D01*
X175294534Y-96826557D01*
X175464373Y-96775037D01*
X175530558Y-96768518D01*
X175596740Y-96762000D01*
X175685260Y-96762000D01*
X175751442Y-96768518D01*
X175751442Y-96768518D01*
G37*
G36*
X142731442Y-96768518D02*
G01*
X142797627Y-96775037D01*
X142967466Y-96826557D01*
X143123991Y-96910222D01*
X143159729Y-96939552D01*
X143261186Y-97022814D01*
X143344448Y-97124271D01*
X143373778Y-97160009D01*
X143457443Y-97316534D01*
X143508963Y-97486373D01*
X143526359Y-97663000D01*
X143508963Y-97839627D01*
X143457443Y-98009466D01*
X143373778Y-98165991D01*
X143344448Y-98201729D01*
X143261186Y-98303186D01*
X143159729Y-98386448D01*
X143123991Y-98415778D01*
X142967466Y-98499443D01*
X142797627Y-98550963D01*
X142731442Y-98557482D01*
X142665260Y-98564000D01*
X142576740Y-98564000D01*
X142510558Y-98557482D01*
X142444373Y-98550963D01*
X142274534Y-98499443D01*
X142118009Y-98415778D01*
X142082271Y-98386448D01*
X141980814Y-98303186D01*
X141897552Y-98201729D01*
X141868222Y-98165991D01*
X141784557Y-98009466D01*
X141733037Y-97839627D01*
X141715641Y-97663000D01*
X141733037Y-97486373D01*
X141784557Y-97316534D01*
X141868222Y-97160009D01*
X141897552Y-97124271D01*
X141980814Y-97022814D01*
X142082271Y-96939552D01*
X142118009Y-96910222D01*
X142274534Y-96826557D01*
X142444373Y-96775037D01*
X142510558Y-96768518D01*
X142576740Y-96762000D01*
X142665260Y-96762000D01*
X142731442Y-96768518D01*
X142731442Y-96768518D01*
G37*
G36*
X173211442Y-96768518D02*
G01*
X173277627Y-96775037D01*
X173447466Y-96826557D01*
X173603991Y-96910222D01*
X173639729Y-96939552D01*
X173741186Y-97022814D01*
X173824448Y-97124271D01*
X173853778Y-97160009D01*
X173937443Y-97316534D01*
X173988963Y-97486373D01*
X174006359Y-97663000D01*
X173988963Y-97839627D01*
X173937443Y-98009466D01*
X173853778Y-98165991D01*
X173824448Y-98201729D01*
X173741186Y-98303186D01*
X173639729Y-98386448D01*
X173603991Y-98415778D01*
X173447466Y-98499443D01*
X173277627Y-98550963D01*
X173211442Y-98557482D01*
X173145260Y-98564000D01*
X173056740Y-98564000D01*
X172990558Y-98557482D01*
X172924373Y-98550963D01*
X172754534Y-98499443D01*
X172598009Y-98415778D01*
X172562271Y-98386448D01*
X172460814Y-98303186D01*
X172377552Y-98201729D01*
X172348222Y-98165991D01*
X172264557Y-98009466D01*
X172213037Y-97839627D01*
X172195641Y-97663000D01*
X172213037Y-97486373D01*
X172264557Y-97316534D01*
X172348222Y-97160009D01*
X172377552Y-97124271D01*
X172460814Y-97022814D01*
X172562271Y-96939552D01*
X172598009Y-96910222D01*
X172754534Y-96826557D01*
X172924373Y-96775037D01*
X172990558Y-96768518D01*
X173056740Y-96762000D01*
X173145260Y-96762000D01*
X173211442Y-96768518D01*
X173211442Y-96768518D01*
G37*
G36*
X145271442Y-96768518D02*
G01*
X145337627Y-96775037D01*
X145507466Y-96826557D01*
X145663991Y-96910222D01*
X145699729Y-96939552D01*
X145801186Y-97022814D01*
X145884448Y-97124271D01*
X145913778Y-97160009D01*
X145997443Y-97316534D01*
X146048963Y-97486373D01*
X146066359Y-97663000D01*
X146048963Y-97839627D01*
X145997443Y-98009466D01*
X145913778Y-98165991D01*
X145884448Y-98201729D01*
X145801186Y-98303186D01*
X145699729Y-98386448D01*
X145663991Y-98415778D01*
X145507466Y-98499443D01*
X145337627Y-98550963D01*
X145271442Y-98557482D01*
X145205260Y-98564000D01*
X145116740Y-98564000D01*
X145050558Y-98557482D01*
X144984373Y-98550963D01*
X144814534Y-98499443D01*
X144658009Y-98415778D01*
X144622271Y-98386448D01*
X144520814Y-98303186D01*
X144437552Y-98201729D01*
X144408222Y-98165991D01*
X144324557Y-98009466D01*
X144273037Y-97839627D01*
X144255641Y-97663000D01*
X144273037Y-97486373D01*
X144324557Y-97316534D01*
X144408222Y-97160009D01*
X144437552Y-97124271D01*
X144520814Y-97022814D01*
X144622271Y-96939552D01*
X144658009Y-96910222D01*
X144814534Y-96826557D01*
X144984373Y-96775037D01*
X145050558Y-96768518D01*
X145116740Y-96762000D01*
X145205260Y-96762000D01*
X145271442Y-96768518D01*
X145271442Y-96768518D01*
G37*
G36*
X170671442Y-96768518D02*
G01*
X170737627Y-96775037D01*
X170907466Y-96826557D01*
X171063991Y-96910222D01*
X171099729Y-96939552D01*
X171201186Y-97022814D01*
X171284448Y-97124271D01*
X171313778Y-97160009D01*
X171397443Y-97316534D01*
X171448963Y-97486373D01*
X171466359Y-97663000D01*
X171448963Y-97839627D01*
X171397443Y-98009466D01*
X171313778Y-98165991D01*
X171284448Y-98201729D01*
X171201186Y-98303186D01*
X171099729Y-98386448D01*
X171063991Y-98415778D01*
X170907466Y-98499443D01*
X170737627Y-98550963D01*
X170671442Y-98557482D01*
X170605260Y-98564000D01*
X170516740Y-98564000D01*
X170450558Y-98557482D01*
X170384373Y-98550963D01*
X170214534Y-98499443D01*
X170058009Y-98415778D01*
X170022271Y-98386448D01*
X169920814Y-98303186D01*
X169837552Y-98201729D01*
X169808222Y-98165991D01*
X169724557Y-98009466D01*
X169673037Y-97839627D01*
X169655641Y-97663000D01*
X169673037Y-97486373D01*
X169724557Y-97316534D01*
X169808222Y-97160009D01*
X169837552Y-97124271D01*
X169920814Y-97022814D01*
X170022271Y-96939552D01*
X170058009Y-96910222D01*
X170214534Y-96826557D01*
X170384373Y-96775037D01*
X170450558Y-96768518D01*
X170516740Y-96762000D01*
X170605260Y-96762000D01*
X170671442Y-96768518D01*
X170671442Y-96768518D01*
G37*
G36*
X147811442Y-96768518D02*
G01*
X147877627Y-96775037D01*
X148047466Y-96826557D01*
X148203991Y-96910222D01*
X148239729Y-96939552D01*
X148341186Y-97022814D01*
X148424448Y-97124271D01*
X148453778Y-97160009D01*
X148537443Y-97316534D01*
X148588963Y-97486373D01*
X148606359Y-97663000D01*
X148588963Y-97839627D01*
X148537443Y-98009466D01*
X148453778Y-98165991D01*
X148424448Y-98201729D01*
X148341186Y-98303186D01*
X148239729Y-98386448D01*
X148203991Y-98415778D01*
X148047466Y-98499443D01*
X147877627Y-98550963D01*
X147811442Y-98557482D01*
X147745260Y-98564000D01*
X147656740Y-98564000D01*
X147590558Y-98557482D01*
X147524373Y-98550963D01*
X147354534Y-98499443D01*
X147198009Y-98415778D01*
X147162271Y-98386448D01*
X147060814Y-98303186D01*
X146977552Y-98201729D01*
X146948222Y-98165991D01*
X146864557Y-98009466D01*
X146813037Y-97839627D01*
X146795641Y-97663000D01*
X146813037Y-97486373D01*
X146864557Y-97316534D01*
X146948222Y-97160009D01*
X146977552Y-97124271D01*
X147060814Y-97022814D01*
X147162271Y-96939552D01*
X147198009Y-96910222D01*
X147354534Y-96826557D01*
X147524373Y-96775037D01*
X147590558Y-96768518D01*
X147656740Y-96762000D01*
X147745260Y-96762000D01*
X147811442Y-96768518D01*
X147811442Y-96768518D01*
G37*
G36*
X168131442Y-96768518D02*
G01*
X168197627Y-96775037D01*
X168367466Y-96826557D01*
X168523991Y-96910222D01*
X168559729Y-96939552D01*
X168661186Y-97022814D01*
X168744448Y-97124271D01*
X168773778Y-97160009D01*
X168857443Y-97316534D01*
X168908963Y-97486373D01*
X168926359Y-97663000D01*
X168908963Y-97839627D01*
X168857443Y-98009466D01*
X168773778Y-98165991D01*
X168744448Y-98201729D01*
X168661186Y-98303186D01*
X168559729Y-98386448D01*
X168523991Y-98415778D01*
X168367466Y-98499443D01*
X168197627Y-98550963D01*
X168131442Y-98557482D01*
X168065260Y-98564000D01*
X167976740Y-98564000D01*
X167910558Y-98557482D01*
X167844373Y-98550963D01*
X167674534Y-98499443D01*
X167518009Y-98415778D01*
X167482271Y-98386448D01*
X167380814Y-98303186D01*
X167297552Y-98201729D01*
X167268222Y-98165991D01*
X167184557Y-98009466D01*
X167133037Y-97839627D01*
X167115641Y-97663000D01*
X167133037Y-97486373D01*
X167184557Y-97316534D01*
X167268222Y-97160009D01*
X167297552Y-97124271D01*
X167380814Y-97022814D01*
X167482271Y-96939552D01*
X167518009Y-96910222D01*
X167674534Y-96826557D01*
X167844373Y-96775037D01*
X167910558Y-96768518D01*
X167976740Y-96762000D01*
X168065260Y-96762000D01*
X168131442Y-96768518D01*
X168131442Y-96768518D01*
G37*
G36*
X150351442Y-96768518D02*
G01*
X150417627Y-96775037D01*
X150587466Y-96826557D01*
X150743991Y-96910222D01*
X150779729Y-96939552D01*
X150881186Y-97022814D01*
X150964448Y-97124271D01*
X150993778Y-97160009D01*
X151077443Y-97316534D01*
X151128963Y-97486373D01*
X151146359Y-97663000D01*
X151128963Y-97839627D01*
X151077443Y-98009466D01*
X150993778Y-98165991D01*
X150964448Y-98201729D01*
X150881186Y-98303186D01*
X150779729Y-98386448D01*
X150743991Y-98415778D01*
X150587466Y-98499443D01*
X150417627Y-98550963D01*
X150351442Y-98557482D01*
X150285260Y-98564000D01*
X150196740Y-98564000D01*
X150130558Y-98557482D01*
X150064373Y-98550963D01*
X149894534Y-98499443D01*
X149738009Y-98415778D01*
X149702271Y-98386448D01*
X149600814Y-98303186D01*
X149517552Y-98201729D01*
X149488222Y-98165991D01*
X149404557Y-98009466D01*
X149353037Y-97839627D01*
X149335641Y-97663000D01*
X149353037Y-97486373D01*
X149404557Y-97316534D01*
X149488222Y-97160009D01*
X149517552Y-97124271D01*
X149600814Y-97022814D01*
X149702271Y-96939552D01*
X149738009Y-96910222D01*
X149894534Y-96826557D01*
X150064373Y-96775037D01*
X150130558Y-96768518D01*
X150196740Y-96762000D01*
X150285260Y-96762000D01*
X150351442Y-96768518D01*
X150351442Y-96768518D01*
G37*
G36*
X165591442Y-96768518D02*
G01*
X165657627Y-96775037D01*
X165827466Y-96826557D01*
X165983991Y-96910222D01*
X166019729Y-96939552D01*
X166121186Y-97022814D01*
X166204448Y-97124271D01*
X166233778Y-97160009D01*
X166317443Y-97316534D01*
X166368963Y-97486373D01*
X166386359Y-97663000D01*
X166368963Y-97839627D01*
X166317443Y-98009466D01*
X166233778Y-98165991D01*
X166204448Y-98201729D01*
X166121186Y-98303186D01*
X166019729Y-98386448D01*
X165983991Y-98415778D01*
X165827466Y-98499443D01*
X165657627Y-98550963D01*
X165591442Y-98557482D01*
X165525260Y-98564000D01*
X165436740Y-98564000D01*
X165370558Y-98557482D01*
X165304373Y-98550963D01*
X165134534Y-98499443D01*
X164978009Y-98415778D01*
X164942271Y-98386448D01*
X164840814Y-98303186D01*
X164757552Y-98201729D01*
X164728222Y-98165991D01*
X164644557Y-98009466D01*
X164593037Y-97839627D01*
X164575641Y-97663000D01*
X164593037Y-97486373D01*
X164644557Y-97316534D01*
X164728222Y-97160009D01*
X164757552Y-97124271D01*
X164840814Y-97022814D01*
X164942271Y-96939552D01*
X164978009Y-96910222D01*
X165134534Y-96826557D01*
X165304373Y-96775037D01*
X165370558Y-96768518D01*
X165436740Y-96762000D01*
X165525260Y-96762000D01*
X165591442Y-96768518D01*
X165591442Y-96768518D01*
G37*
G36*
X152891442Y-96768518D02*
G01*
X152957627Y-96775037D01*
X153127466Y-96826557D01*
X153283991Y-96910222D01*
X153319729Y-96939552D01*
X153421186Y-97022814D01*
X153504448Y-97124271D01*
X153533778Y-97160009D01*
X153617443Y-97316534D01*
X153668963Y-97486373D01*
X153686359Y-97663000D01*
X153668963Y-97839627D01*
X153617443Y-98009466D01*
X153533778Y-98165991D01*
X153504448Y-98201729D01*
X153421186Y-98303186D01*
X153319729Y-98386448D01*
X153283991Y-98415778D01*
X153127466Y-98499443D01*
X152957627Y-98550963D01*
X152891442Y-98557482D01*
X152825260Y-98564000D01*
X152736740Y-98564000D01*
X152670558Y-98557482D01*
X152604373Y-98550963D01*
X152434534Y-98499443D01*
X152278009Y-98415778D01*
X152242271Y-98386448D01*
X152140814Y-98303186D01*
X152057552Y-98201729D01*
X152028222Y-98165991D01*
X151944557Y-98009466D01*
X151893037Y-97839627D01*
X151875641Y-97663000D01*
X151893037Y-97486373D01*
X151944557Y-97316534D01*
X152028222Y-97160009D01*
X152057552Y-97124271D01*
X152140814Y-97022814D01*
X152242271Y-96939552D01*
X152278009Y-96910222D01*
X152434534Y-96826557D01*
X152604373Y-96775037D01*
X152670558Y-96768518D01*
X152736740Y-96762000D01*
X152825260Y-96762000D01*
X152891442Y-96768518D01*
X152891442Y-96768518D01*
G37*
G36*
X163051442Y-96768518D02*
G01*
X163117627Y-96775037D01*
X163287466Y-96826557D01*
X163443991Y-96910222D01*
X163479729Y-96939552D01*
X163581186Y-97022814D01*
X163664448Y-97124271D01*
X163693778Y-97160009D01*
X163777443Y-97316534D01*
X163828963Y-97486373D01*
X163846359Y-97663000D01*
X163828963Y-97839627D01*
X163777443Y-98009466D01*
X163693778Y-98165991D01*
X163664448Y-98201729D01*
X163581186Y-98303186D01*
X163479729Y-98386448D01*
X163443991Y-98415778D01*
X163287466Y-98499443D01*
X163117627Y-98550963D01*
X163051442Y-98557482D01*
X162985260Y-98564000D01*
X162896740Y-98564000D01*
X162830558Y-98557482D01*
X162764373Y-98550963D01*
X162594534Y-98499443D01*
X162438009Y-98415778D01*
X162402271Y-98386448D01*
X162300814Y-98303186D01*
X162217552Y-98201729D01*
X162188222Y-98165991D01*
X162104557Y-98009466D01*
X162053037Y-97839627D01*
X162035641Y-97663000D01*
X162053037Y-97486373D01*
X162104557Y-97316534D01*
X162188222Y-97160009D01*
X162217552Y-97124271D01*
X162300814Y-97022814D01*
X162402271Y-96939552D01*
X162438009Y-96910222D01*
X162594534Y-96826557D01*
X162764373Y-96775037D01*
X162830558Y-96768518D01*
X162896740Y-96762000D01*
X162985260Y-96762000D01*
X163051442Y-96768518D01*
X163051442Y-96768518D01*
G37*
G36*
X155431442Y-96768518D02*
G01*
X155497627Y-96775037D01*
X155667466Y-96826557D01*
X155823991Y-96910222D01*
X155859729Y-96939552D01*
X155961186Y-97022814D01*
X156044448Y-97124271D01*
X156073778Y-97160009D01*
X156157443Y-97316534D01*
X156208963Y-97486373D01*
X156226359Y-97663000D01*
X156208963Y-97839627D01*
X156157443Y-98009466D01*
X156073778Y-98165991D01*
X156044448Y-98201729D01*
X155961186Y-98303186D01*
X155859729Y-98386448D01*
X155823991Y-98415778D01*
X155667466Y-98499443D01*
X155497627Y-98550963D01*
X155431442Y-98557482D01*
X155365260Y-98564000D01*
X155276740Y-98564000D01*
X155210558Y-98557482D01*
X155144373Y-98550963D01*
X154974534Y-98499443D01*
X154818009Y-98415778D01*
X154782271Y-98386448D01*
X154680814Y-98303186D01*
X154597552Y-98201729D01*
X154568222Y-98165991D01*
X154484557Y-98009466D01*
X154433037Y-97839627D01*
X154415641Y-97663000D01*
X154433037Y-97486373D01*
X154484557Y-97316534D01*
X154568222Y-97160009D01*
X154597552Y-97124271D01*
X154680814Y-97022814D01*
X154782271Y-96939552D01*
X154818009Y-96910222D01*
X154974534Y-96826557D01*
X155144373Y-96775037D01*
X155210558Y-96768518D01*
X155276740Y-96762000D01*
X155365260Y-96762000D01*
X155431442Y-96768518D01*
X155431442Y-96768518D01*
G37*
G36*
X160511442Y-96768518D02*
G01*
X160577627Y-96775037D01*
X160747466Y-96826557D01*
X160903991Y-96910222D01*
X160939729Y-96939552D01*
X161041186Y-97022814D01*
X161124448Y-97124271D01*
X161153778Y-97160009D01*
X161237443Y-97316534D01*
X161288963Y-97486373D01*
X161306359Y-97663000D01*
X161288963Y-97839627D01*
X161237443Y-98009466D01*
X161153778Y-98165991D01*
X161124448Y-98201729D01*
X161041186Y-98303186D01*
X160939729Y-98386448D01*
X160903991Y-98415778D01*
X160747466Y-98499443D01*
X160577627Y-98550963D01*
X160511442Y-98557482D01*
X160445260Y-98564000D01*
X160356740Y-98564000D01*
X160290558Y-98557482D01*
X160224373Y-98550963D01*
X160054534Y-98499443D01*
X159898009Y-98415778D01*
X159862271Y-98386448D01*
X159760814Y-98303186D01*
X159677552Y-98201729D01*
X159648222Y-98165991D01*
X159564557Y-98009466D01*
X159513037Y-97839627D01*
X159495641Y-97663000D01*
X159513037Y-97486373D01*
X159564557Y-97316534D01*
X159648222Y-97160009D01*
X159677552Y-97124271D01*
X159760814Y-97022814D01*
X159862271Y-96939552D01*
X159898009Y-96910222D01*
X160054534Y-96826557D01*
X160224373Y-96775037D01*
X160290558Y-96768518D01*
X160356740Y-96762000D01*
X160445260Y-96762000D01*
X160511442Y-96768518D01*
X160511442Y-96768518D01*
G37*
G36*
X157971442Y-96768518D02*
G01*
X158037627Y-96775037D01*
X158207466Y-96826557D01*
X158363991Y-96910222D01*
X158399729Y-96939552D01*
X158501186Y-97022814D01*
X158584448Y-97124271D01*
X158613778Y-97160009D01*
X158697443Y-97316534D01*
X158748963Y-97486373D01*
X158766359Y-97663000D01*
X158748963Y-97839627D01*
X158697443Y-98009466D01*
X158613778Y-98165991D01*
X158584448Y-98201729D01*
X158501186Y-98303186D01*
X158399729Y-98386448D01*
X158363991Y-98415778D01*
X158207466Y-98499443D01*
X158037627Y-98550963D01*
X157971442Y-98557482D01*
X157905260Y-98564000D01*
X157816740Y-98564000D01*
X157750558Y-98557482D01*
X157684373Y-98550963D01*
X157514534Y-98499443D01*
X157358009Y-98415778D01*
X157322271Y-98386448D01*
X157220814Y-98303186D01*
X157137552Y-98201729D01*
X157108222Y-98165991D01*
X157024557Y-98009466D01*
X156973037Y-97839627D01*
X156955641Y-97663000D01*
X156973037Y-97486373D01*
X157024557Y-97316534D01*
X157108222Y-97160009D01*
X157137552Y-97124271D01*
X157220814Y-97022814D01*
X157322271Y-96939552D01*
X157358009Y-96910222D01*
X157514534Y-96826557D01*
X157684373Y-96775037D01*
X157750558Y-96768518D01*
X157816740Y-96762000D01*
X157905260Y-96762000D01*
X157971442Y-96768518D01*
X157971442Y-96768518D01*
G37*
G36*
X134892000Y-92679000D02*
G01*
X133890000Y-92679000D01*
X133890000Y-91677000D01*
X134892000Y-91677000D01*
X134892000Y-92679000D01*
X134892000Y-92679000D01*
G37*
G36*
X133572000Y-92679000D02*
G01*
X132570000Y-92679000D01*
X132570000Y-91677000D01*
X133572000Y-91677000D01*
X133572000Y-92679000D01*
X133572000Y-92679000D01*
G37*
G36*
X132232000Y-92679000D02*
G01*
X131230000Y-92679000D01*
X131230000Y-91677000D01*
X132232000Y-91677000D01*
X132232000Y-92679000D01*
X132232000Y-92679000D01*
G37*
G36*
X136232000Y-92679000D02*
G01*
X135230000Y-92679000D01*
X135230000Y-91677000D01*
X136232000Y-91677000D01*
X136232000Y-92679000D01*
X136232000Y-92679000D01*
G37*
G36*
X133572000Y-89679000D02*
G01*
X132570000Y-89679000D01*
X132570000Y-88677000D01*
X133572000Y-88677000D01*
X133572000Y-89679000D01*
X133572000Y-89679000D01*
G37*
G36*
X136232000Y-89679000D02*
G01*
X135230000Y-89679000D01*
X135230000Y-88677000D01*
X136232000Y-88677000D01*
X136232000Y-89679000D01*
X136232000Y-89679000D01*
G37*
G36*
X134892000Y-89679000D02*
G01*
X133890000Y-89679000D01*
X133890000Y-88677000D01*
X134892000Y-88677000D01*
X134892000Y-89679000D01*
X134892000Y-89679000D01*
G37*
G36*
X132232000Y-89679000D02*
G01*
X131230000Y-89679000D01*
X131230000Y-88677000D01*
X132232000Y-88677000D01*
X132232000Y-89679000D01*
X132232000Y-89679000D01*
G37*
G36*
X130768099Y-85926845D02*
G01*
X130805595Y-85938220D01*
X130840154Y-85956692D01*
X130870447Y-85981553D01*
X130895308Y-86011846D01*
X130913780Y-86046405D01*
X130925155Y-86083901D01*
X130929600Y-86129038D01*
X130929600Y-86867762D01*
X130925155Y-86912899D01*
X130913780Y-86950395D01*
X130895308Y-86984954D01*
X130870447Y-87015247D01*
X130840154Y-87040108D01*
X130805595Y-87058580D01*
X130768099Y-87069955D01*
X130722962Y-87074400D01*
X130084238Y-87074400D01*
X130039101Y-87069955D01*
X130001605Y-87058580D01*
X129967046Y-87040108D01*
X129936753Y-87015247D01*
X129911892Y-86984954D01*
X129893420Y-86950395D01*
X129882045Y-86912899D01*
X129877600Y-86867762D01*
X129877600Y-86129038D01*
X129882045Y-86083901D01*
X129893420Y-86046405D01*
X129911892Y-86011846D01*
X129936753Y-85981553D01*
X129967046Y-85956692D01*
X130001605Y-85938220D01*
X130039101Y-85926845D01*
X130084238Y-85922400D01*
X130722962Y-85922400D01*
X130768099Y-85926845D01*
X130768099Y-85926845D01*
G37*
G36*
X148954499Y-84250445D02*
G01*
X148991995Y-84261820D01*
X149026554Y-84280292D01*
X149056847Y-84305153D01*
X149081708Y-84335446D01*
X149100180Y-84370005D01*
X149111555Y-84407501D01*
X149116000Y-84452638D01*
X149116000Y-85191362D01*
X149111555Y-85236499D01*
X149100180Y-85273995D01*
X149081708Y-85308554D01*
X149056847Y-85338847D01*
X149026554Y-85363708D01*
X148991995Y-85382180D01*
X148954499Y-85393555D01*
X148909362Y-85398000D01*
X148270638Y-85398000D01*
X148225501Y-85393555D01*
X148188005Y-85382180D01*
X148153446Y-85363708D01*
X148123153Y-85338847D01*
X148098292Y-85308554D01*
X148079820Y-85273995D01*
X148068445Y-85236499D01*
X148064000Y-85191362D01*
X148064000Y-84452638D01*
X148068445Y-84407501D01*
X148079820Y-84370005D01*
X148098292Y-84335446D01*
X148123153Y-84305153D01*
X148153446Y-84280292D01*
X148188005Y-84261820D01*
X148225501Y-84250445D01*
X148270638Y-84246000D01*
X148909362Y-84246000D01*
X148954499Y-84250445D01*
X148954499Y-84250445D01*
G37*
G36*
X130768099Y-84176845D02*
G01*
X130805595Y-84188220D01*
X130840154Y-84206692D01*
X130870447Y-84231553D01*
X130895308Y-84261846D01*
X130913780Y-84296405D01*
X130925155Y-84333901D01*
X130929600Y-84379038D01*
X130929600Y-85117762D01*
X130925155Y-85162899D01*
X130913780Y-85200395D01*
X130895308Y-85234954D01*
X130870447Y-85265247D01*
X130840154Y-85290108D01*
X130805595Y-85308580D01*
X130768099Y-85319955D01*
X130722962Y-85324400D01*
X130084238Y-85324400D01*
X130039101Y-85319955D01*
X130001605Y-85308580D01*
X129967046Y-85290108D01*
X129936753Y-85265247D01*
X129911892Y-85234954D01*
X129893420Y-85200395D01*
X129882045Y-85162899D01*
X129877600Y-85117762D01*
X129877600Y-84379038D01*
X129882045Y-84333901D01*
X129893420Y-84296405D01*
X129911892Y-84261846D01*
X129936753Y-84231553D01*
X129967046Y-84206692D01*
X130001605Y-84188220D01*
X130039101Y-84176845D01*
X130084238Y-84172400D01*
X130722962Y-84172400D01*
X130768099Y-84176845D01*
X130768099Y-84176845D01*
G37*
G36*
X148954499Y-82500445D02*
G01*
X148991995Y-82511820D01*
X149026554Y-82530292D01*
X149056847Y-82555153D01*
X149081708Y-82585446D01*
X149100180Y-82620005D01*
X149111555Y-82657501D01*
X149116000Y-82702638D01*
X149116000Y-83441362D01*
X149111555Y-83486499D01*
X149100180Y-83523995D01*
X149081708Y-83558554D01*
X149056847Y-83588847D01*
X149026554Y-83613708D01*
X148991995Y-83632180D01*
X148954499Y-83643555D01*
X148909362Y-83648000D01*
X148270638Y-83648000D01*
X148225501Y-83643555D01*
X148188005Y-83632180D01*
X148153446Y-83613708D01*
X148123153Y-83588847D01*
X148098292Y-83558554D01*
X148079820Y-83523995D01*
X148068445Y-83486499D01*
X148064000Y-83441362D01*
X148064000Y-82702638D01*
X148068445Y-82657501D01*
X148079820Y-82620005D01*
X148098292Y-82585446D01*
X148123153Y-82555153D01*
X148153446Y-82530292D01*
X148188005Y-82511820D01*
X148225501Y-82500445D01*
X148270638Y-82496000D01*
X148909362Y-82496000D01*
X148954499Y-82500445D01*
X148954499Y-82500445D01*
G37*
G36*
X122577099Y-81164845D02*
G01*
X122614595Y-81176220D01*
X122649154Y-81194692D01*
X122679447Y-81219553D01*
X122704308Y-81249846D01*
X122722780Y-81284405D01*
X122734155Y-81321901D01*
X122738600Y-81367038D01*
X122738600Y-82005762D01*
X122734155Y-82050899D01*
X122722780Y-82088395D01*
X122704308Y-82122954D01*
X122679447Y-82153247D01*
X122649154Y-82178108D01*
X122614595Y-82196580D01*
X122577099Y-82207955D01*
X122531962Y-82212400D01*
X121793238Y-82212400D01*
X121748101Y-82207955D01*
X121710605Y-82196580D01*
X121676046Y-82178108D01*
X121645753Y-82153247D01*
X121620892Y-82122954D01*
X121602420Y-82088395D01*
X121591045Y-82050899D01*
X121586600Y-82005762D01*
X121586600Y-81367038D01*
X121591045Y-81321901D01*
X121602420Y-81284405D01*
X121620892Y-81249846D01*
X121645753Y-81219553D01*
X121676046Y-81194692D01*
X121710605Y-81176220D01*
X121748101Y-81164845D01*
X121793238Y-81160400D01*
X122531962Y-81160400D01*
X122577099Y-81164845D01*
X122577099Y-81164845D01*
G37*
G36*
X124327099Y-81164845D02*
G01*
X124364595Y-81176220D01*
X124399154Y-81194692D01*
X124429447Y-81219553D01*
X124454308Y-81249846D01*
X124472780Y-81284405D01*
X124484155Y-81321901D01*
X124488600Y-81367038D01*
X124488600Y-82005762D01*
X124484155Y-82050899D01*
X124472780Y-82088395D01*
X124454308Y-82122954D01*
X124429447Y-82153247D01*
X124399154Y-82178108D01*
X124364595Y-82196580D01*
X124327099Y-82207955D01*
X124281962Y-82212400D01*
X123543238Y-82212400D01*
X123498101Y-82207955D01*
X123460605Y-82196580D01*
X123426046Y-82178108D01*
X123395753Y-82153247D01*
X123370892Y-82122954D01*
X123352420Y-82088395D01*
X123341045Y-82050899D01*
X123336600Y-82005762D01*
X123336600Y-81367038D01*
X123341045Y-81321901D01*
X123352420Y-81284405D01*
X123370892Y-81249846D01*
X123395753Y-81219553D01*
X123426046Y-81194692D01*
X123460605Y-81176220D01*
X123498101Y-81164845D01*
X123543238Y-81160400D01*
X124281962Y-81160400D01*
X124327099Y-81164845D01*
X124327099Y-81164845D01*
G37*
G36*
X126133099Y-81114045D02*
G01*
X126170595Y-81125420D01*
X126205154Y-81143892D01*
X126235447Y-81168753D01*
X126260308Y-81199046D01*
X126278780Y-81233605D01*
X126290155Y-81271101D01*
X126294600Y-81316238D01*
X126294600Y-81954962D01*
X126290155Y-82000099D01*
X126278780Y-82037595D01*
X126260308Y-82072154D01*
X126235447Y-82102447D01*
X126205154Y-82127308D01*
X126170595Y-82145780D01*
X126133099Y-82157155D01*
X126087962Y-82161600D01*
X125349238Y-82161600D01*
X125304101Y-82157155D01*
X125266605Y-82145780D01*
X125232046Y-82127308D01*
X125201753Y-82102447D01*
X125176892Y-82072154D01*
X125158420Y-82037595D01*
X125147045Y-82000099D01*
X125142600Y-81954962D01*
X125142600Y-81316238D01*
X125147045Y-81271101D01*
X125158420Y-81233605D01*
X125176892Y-81199046D01*
X125201753Y-81168753D01*
X125232046Y-81143892D01*
X125266605Y-81125420D01*
X125304101Y-81114045D01*
X125349238Y-81109600D01*
X126087962Y-81109600D01*
X126133099Y-81114045D01*
X126133099Y-81114045D01*
G37*
G36*
X127883099Y-81114045D02*
G01*
X127920595Y-81125420D01*
X127955154Y-81143892D01*
X127985447Y-81168753D01*
X128010308Y-81199046D01*
X128028780Y-81233605D01*
X128040155Y-81271101D01*
X128044600Y-81316238D01*
X128044600Y-81954962D01*
X128040155Y-82000099D01*
X128028780Y-82037595D01*
X128010308Y-82072154D01*
X127985447Y-82102447D01*
X127955154Y-82127308D01*
X127920595Y-82145780D01*
X127883099Y-82157155D01*
X127837962Y-82161600D01*
X127099238Y-82161600D01*
X127054101Y-82157155D01*
X127016605Y-82145780D01*
X126982046Y-82127308D01*
X126951753Y-82102447D01*
X126926892Y-82072154D01*
X126908420Y-82037595D01*
X126897045Y-82000099D01*
X126892600Y-81954962D01*
X126892600Y-81316238D01*
X126897045Y-81271101D01*
X126908420Y-81233605D01*
X126926892Y-81199046D01*
X126951753Y-81168753D01*
X126982046Y-81143892D01*
X127016605Y-81125420D01*
X127054101Y-81114045D01*
X127099238Y-81109600D01*
X127837962Y-81109600D01*
X127883099Y-81114045D01*
X127883099Y-81114045D01*
G37*
G36*
X122577099Y-77354845D02*
G01*
X122614595Y-77366220D01*
X122649154Y-77384692D01*
X122679447Y-77409553D01*
X122704308Y-77439846D01*
X122722780Y-77474405D01*
X122734155Y-77511901D01*
X122738600Y-77557038D01*
X122738600Y-78195762D01*
X122734155Y-78240899D01*
X122722780Y-78278395D01*
X122704308Y-78312954D01*
X122679447Y-78343247D01*
X122649154Y-78368108D01*
X122614595Y-78386580D01*
X122577099Y-78397955D01*
X122531962Y-78402400D01*
X121793238Y-78402400D01*
X121748101Y-78397955D01*
X121710605Y-78386580D01*
X121676046Y-78368108D01*
X121645753Y-78343247D01*
X121620892Y-78312954D01*
X121602420Y-78278395D01*
X121591045Y-78240899D01*
X121586600Y-78195762D01*
X121586600Y-77557038D01*
X121591045Y-77511901D01*
X121602420Y-77474405D01*
X121620892Y-77439846D01*
X121645753Y-77409553D01*
X121676046Y-77384692D01*
X121710605Y-77366220D01*
X121748101Y-77354845D01*
X121793238Y-77350400D01*
X122531962Y-77350400D01*
X122577099Y-77354845D01*
X122577099Y-77354845D01*
G37*
G36*
X124327099Y-77354845D02*
G01*
X124364595Y-77366220D01*
X124399154Y-77384692D01*
X124429447Y-77409553D01*
X124454308Y-77439846D01*
X124472780Y-77474405D01*
X124484155Y-77511901D01*
X124488600Y-77557038D01*
X124488600Y-78195762D01*
X124484155Y-78240899D01*
X124472780Y-78278395D01*
X124454308Y-78312954D01*
X124429447Y-78343247D01*
X124399154Y-78368108D01*
X124364595Y-78386580D01*
X124327099Y-78397955D01*
X124281962Y-78402400D01*
X123543238Y-78402400D01*
X123498101Y-78397955D01*
X123460605Y-78386580D01*
X123426046Y-78368108D01*
X123395753Y-78343247D01*
X123370892Y-78312954D01*
X123352420Y-78278395D01*
X123341045Y-78240899D01*
X123336600Y-78195762D01*
X123336600Y-77557038D01*
X123341045Y-77511901D01*
X123352420Y-77474405D01*
X123370892Y-77439846D01*
X123395753Y-77409553D01*
X123426046Y-77384692D01*
X123460605Y-77366220D01*
X123498101Y-77354845D01*
X123543238Y-77350400D01*
X124281962Y-77350400D01*
X124327099Y-77354845D01*
X124327099Y-77354845D01*
G37*
G36*
X126119099Y-77354845D02*
G01*
X126156595Y-77366220D01*
X126191154Y-77384692D01*
X126221447Y-77409553D01*
X126246308Y-77439846D01*
X126264780Y-77474405D01*
X126276155Y-77511901D01*
X126280600Y-77557038D01*
X126280600Y-78195762D01*
X126276155Y-78240899D01*
X126264780Y-78278395D01*
X126246308Y-78312954D01*
X126221447Y-78343247D01*
X126191154Y-78368108D01*
X126156595Y-78386580D01*
X126119099Y-78397955D01*
X126073962Y-78402400D01*
X125335238Y-78402400D01*
X125290101Y-78397955D01*
X125252605Y-78386580D01*
X125218046Y-78368108D01*
X125187753Y-78343247D01*
X125162892Y-78312954D01*
X125144420Y-78278395D01*
X125133045Y-78240899D01*
X125128600Y-78195762D01*
X125128600Y-77557038D01*
X125133045Y-77511901D01*
X125144420Y-77474405D01*
X125162892Y-77439846D01*
X125187753Y-77409553D01*
X125218046Y-77384692D01*
X125252605Y-77366220D01*
X125290101Y-77354845D01*
X125335238Y-77350400D01*
X126073962Y-77350400D01*
X126119099Y-77354845D01*
X126119099Y-77354845D01*
G37*
G36*
X127869099Y-77354845D02*
G01*
X127906595Y-77366220D01*
X127941154Y-77384692D01*
X127971447Y-77409553D01*
X127996308Y-77439846D01*
X128014780Y-77474405D01*
X128026155Y-77511901D01*
X128030600Y-77557038D01*
X128030600Y-78195762D01*
X128026155Y-78240899D01*
X128014780Y-78278395D01*
X127996308Y-78312954D01*
X127971447Y-78343247D01*
X127941154Y-78368108D01*
X127906595Y-78386580D01*
X127869099Y-78397955D01*
X127823962Y-78402400D01*
X127085238Y-78402400D01*
X127040101Y-78397955D01*
X127002605Y-78386580D01*
X126968046Y-78368108D01*
X126937753Y-78343247D01*
X126912892Y-78312954D01*
X126894420Y-78278395D01*
X126883045Y-78240899D01*
X126878600Y-78195762D01*
X126878600Y-77557038D01*
X126883045Y-77511901D01*
X126894420Y-77474405D01*
X126912892Y-77439846D01*
X126937753Y-77409553D01*
X126968046Y-77384692D01*
X127002605Y-77366220D01*
X127040101Y-77354845D01*
X127085238Y-77350400D01*
X127823962Y-77350400D01*
X127869099Y-77354845D01*
X127869099Y-77354845D01*
G37*
G36*
X176577499Y-74281445D02*
G01*
X176614995Y-74292820D01*
X176649554Y-74311292D01*
X176679847Y-74336153D01*
X176704708Y-74366446D01*
X176723180Y-74401005D01*
X176734555Y-74438501D01*
X176739000Y-74483638D01*
X176739000Y-75122362D01*
X176734555Y-75167499D01*
X176723180Y-75204995D01*
X176704708Y-75239554D01*
X176679847Y-75269847D01*
X176649554Y-75294708D01*
X176614995Y-75313180D01*
X176577499Y-75324555D01*
X176532362Y-75329000D01*
X175793638Y-75329000D01*
X175748501Y-75324555D01*
X175711005Y-75313180D01*
X175676446Y-75294708D01*
X175646153Y-75269847D01*
X175621292Y-75239554D01*
X175602820Y-75204995D01*
X175591445Y-75167499D01*
X175587000Y-75122362D01*
X175587000Y-74483638D01*
X175591445Y-74438501D01*
X175602820Y-74401005D01*
X175621292Y-74366446D01*
X175646153Y-74336153D01*
X175676446Y-74311292D01*
X175711005Y-74292820D01*
X175748501Y-74281445D01*
X175793638Y-74277000D01*
X176532362Y-74277000D01*
X176577499Y-74281445D01*
X176577499Y-74281445D01*
G37*
G36*
X174898499Y-74281445D02*
G01*
X174935995Y-74292820D01*
X174970554Y-74311292D01*
X175000847Y-74336153D01*
X175025708Y-74366446D01*
X175044180Y-74401005D01*
X175055555Y-74438501D01*
X175060000Y-74483638D01*
X175060000Y-75122362D01*
X175055555Y-75167499D01*
X175044180Y-75204995D01*
X175025708Y-75239554D01*
X175000847Y-75269847D01*
X174970554Y-75294708D01*
X174935995Y-75313180D01*
X174898499Y-75324555D01*
X174853362Y-75329000D01*
X174114638Y-75329000D01*
X174069501Y-75324555D01*
X174032005Y-75313180D01*
X173997446Y-75294708D01*
X173967153Y-75269847D01*
X173942292Y-75239554D01*
X173923820Y-75204995D01*
X173912445Y-75167499D01*
X173908000Y-75122362D01*
X173908000Y-74483638D01*
X173912445Y-74438501D01*
X173923820Y-74401005D01*
X173942292Y-74366446D01*
X173967153Y-74336153D01*
X173997446Y-74311292D01*
X174032005Y-74292820D01*
X174069501Y-74281445D01*
X174114638Y-74277000D01*
X174853362Y-74277000D01*
X174898499Y-74281445D01*
X174898499Y-74281445D01*
G37*
G36*
X178327499Y-74281445D02*
G01*
X178364995Y-74292820D01*
X178399554Y-74311292D01*
X178429847Y-74336153D01*
X178454708Y-74366446D01*
X178473180Y-74401005D01*
X178484555Y-74438501D01*
X178489000Y-74483638D01*
X178489000Y-75122362D01*
X178484555Y-75167499D01*
X178473180Y-75204995D01*
X178454708Y-75239554D01*
X178429847Y-75269847D01*
X178399554Y-75294708D01*
X178364995Y-75313180D01*
X178327499Y-75324555D01*
X178282362Y-75329000D01*
X177543638Y-75329000D01*
X177498501Y-75324555D01*
X177461005Y-75313180D01*
X177426446Y-75294708D01*
X177396153Y-75269847D01*
X177371292Y-75239554D01*
X177352820Y-75204995D01*
X177341445Y-75167499D01*
X177337000Y-75122362D01*
X177337000Y-74483638D01*
X177341445Y-74438501D01*
X177352820Y-74401005D01*
X177371292Y-74366446D01*
X177396153Y-74336153D01*
X177426446Y-74311292D01*
X177461005Y-74292820D01*
X177498501Y-74281445D01*
X177543638Y-74277000D01*
X178282362Y-74277000D01*
X178327499Y-74281445D01*
X178327499Y-74281445D01*
G37*
G36*
X173148499Y-74281445D02*
G01*
X173185995Y-74292820D01*
X173220554Y-74311292D01*
X173250847Y-74336153D01*
X173275708Y-74366446D01*
X173294180Y-74401005D01*
X173305555Y-74438501D01*
X173310000Y-74483638D01*
X173310000Y-75122362D01*
X173305555Y-75167499D01*
X173294180Y-75204995D01*
X173275708Y-75239554D01*
X173250847Y-75269847D01*
X173220554Y-75294708D01*
X173185995Y-75313180D01*
X173148499Y-75324555D01*
X173103362Y-75329000D01*
X172364638Y-75329000D01*
X172319501Y-75324555D01*
X172282005Y-75313180D01*
X172247446Y-75294708D01*
X172217153Y-75269847D01*
X172192292Y-75239554D01*
X172173820Y-75204995D01*
X172162445Y-75167499D01*
X172158000Y-75122362D01*
X172158000Y-74483638D01*
X172162445Y-74438501D01*
X172173820Y-74401005D01*
X172192292Y-74366446D01*
X172217153Y-74336153D01*
X172247446Y-74311292D01*
X172282005Y-74292820D01*
X172319501Y-74281445D01*
X172364638Y-74277000D01*
X173103362Y-74277000D01*
X173148499Y-74281445D01*
X173148499Y-74281445D01*
G37*
M02*
