M48
; DRILL file {KiCad (5.1.2-1)-1} date Wednesday, July 03, 2019 at 01:56:17 AM
; FORMAT={-:-/ absolute / inch / decimal}
; #@! TF.CreationDate,2019-07-03T01:56:17-07:00
; #@! TF.GenerationSoftware,Kicad,Pcbnew,(5.1.2-1)-1
; #@! TF.FileFunction,Plated,1,2,PTH
FMAT,2
INCH
T1C0.0100
T2C0.0120
T3C0.0130
T4C0.0170
T5C0.0394
%
G90
G05
T1
X5.4064Y-3.4865
X5.4203Y-3.4285
X5.4278Y-3.3172
X5.4429Y-3.0371
X5.4446Y-3.3772
X5.4568Y-3.0718
X5.47Y-3.105
X5.484Y-3.2702
X5.485Y-3.14
X5.4898Y-3.45
X5.5034Y-3.169
X5.5036Y-3.485
X5.51Y-3.26
X5.5175Y-3.5134
X5.5239Y-3.2011
X5.5314Y-3.5468
X5.5453Y-3.5799
X5.55Y-3.13
X5.5734Y-3.2091
X5.6Y-3.3
X5.6117Y-3.6709
X5.619Y-3.139
X5.6368Y-3.6914
X5.6466Y-3.1566
X5.68Y-3.695
X5.6804Y-3.1046
X5.6824Y-3.0738
X5.6838Y-3.0423
X5.6859Y-3.4527
X5.6859Y-3.4826
X5.6859Y-3.5149
X5.6859Y-3.5463
X5.6859Y-3.5804
X5.7Y-3.675
X5.7866Y-3.425
X5.7897Y-3.1314
X5.97Y-3.4128
X6.015Y-3.545
X6.0576Y-3.5143
X6.0593Y-3.3643
X6.095Y-3.78
X6.109Y-3.5612
X6.1132Y-3.5194
X6.115Y-3.67
X6.2218Y-3.2423
X6.2222Y-3.4556
X6.225Y-3.485
X6.2259Y-3.0941
X6.2267Y-3.0616
X6.229Y-3.4
X6.2336Y-3.1437
X6.2411Y-3.1874
X6.2533Y-3.0417
X6.2579Y-3.2185
X6.26Y-3.665
X6.2742Y-3.1048
X6.29Y-3.485
X6.3069Y-3.4478
X6.3178Y-3.0472
X6.3197Y-3.3922
X6.3323Y-3.2207
X6.3339Y-3.0924
X6.3346Y-3.1759
X6.3429Y-3.1342
X6.374Y-3.2245
X6.388Y-3.0466
X6.4217Y-3.2154
X6.4484Y-3.4816
X6.5259Y-3.1541
X6.5403Y-3.3346
X6.5541Y-3.1541
X6.5603Y-3.2259
X6.5722Y-3.3248
X6.5811Y-3.1472
X6.5824Y-3.4014
X6.585Y-3.48
X6.5869Y-3.4289
X6.64Y-3.045
X6.7214Y-3.0919
X6.7719Y-3.7585
X6.7846Y-3.7336
X6.7899Y-3.1259
X6.84Y-3.105
X6.85Y-3.7197
X6.89Y-3.7059
X6.93Y-3.145
X6.96Y-3.165
X7.005Y-3.13
X7.005Y-3.18
X7.005Y-3.23
X7.005Y-3.28
X7.01Y-3.38
X7.0207Y-3.6859
X7.1357Y-3.7343
X7.1401Y-3.6449
T2
X6.958Y-2.9984
T3
X6.235Y-3.605
T4
X4.97Y-3.57
X4.995Y-3.7
X5.365Y-2.975
X5.8Y-3.33
X5.805Y-3.265
X5.85Y-3.21
X6.025Y-3.275
X6.0987Y-3.3043
X6.635Y-2.985
X6.74Y-2.9241
X6.84Y-3.635
X6.8825Y-2.8875
X6.887Y-2.9984
X6.975Y-3.715
X7.195Y-3.48
T5
X5.515Y-3.845
X5.515Y-3.945
X5.615Y-3.845
X5.615Y-3.945
X5.715Y-3.845
X5.715Y-3.945
X5.815Y-3.845
X5.815Y-3.945
X5.915Y-3.845
X5.915Y-3.945
X6.015Y-3.845
X6.015Y-3.945
X6.115Y-3.845
X6.115Y-3.945
X6.215Y-3.845
X6.215Y-3.945
X6.315Y-3.845
X6.315Y-3.945
X6.415Y-3.845
X6.415Y-3.945
X6.515Y-3.845
X6.515Y-3.945
X6.615Y-3.845
X6.615Y-3.945
X6.715Y-3.845
X6.715Y-3.945
X6.815Y-3.845
X6.815Y-3.945
X6.915Y-3.845
X6.915Y-3.945
X7.015Y-3.845
X7.015Y-3.945
X7.115Y-3.845
X7.115Y-3.945
X7.215Y-3.845
X7.215Y-3.945
X7.315Y-3.845
X7.315Y-3.945
X7.415Y-3.845
X7.415Y-3.945
X4.685Y-3.84
X4.685Y-3.94
X4.785Y-3.84
X4.785Y-3.94
X4.885Y-3.84
X4.885Y-3.94
X4.985Y-3.84
X4.985Y-3.94
X5.085Y-3.84
X5.085Y-3.94
T0
M30
