M48
; DRILL file {KiCad (5.1.2-1)-1} date Tuesday, July 09, 2019 at 12:42:17 AM
; FORMAT={-:-/ absolute / inch / decimal}
; #@! TF.CreationDate,2019-07-09T00:42:17-07:00
; #@! TF.GenerationSoftware,Kicad,Pcbnew,(5.1.2-1)-1
; #@! TF.FileFunction,Plated,1,4,PTH
FMAT,2
INCH
T1C0.0100
T2C0.0120
T3C0.0130
T4C0.0170
T5C0.0394
%
G90
G05
T1
X4.76Y-3.265
X4.839Y-3.461
X4.8467Y-3.3337
X4.879Y-3.101
X4.879Y-3.181
X4.969Y-3.461
X5.009Y-3.5919
X5.019Y-3.101
X5.019Y-3.181
X5.19Y-3.675
X5.19Y-4.006
X5.225Y-3.2
X5.24Y-3.37
X5.24Y-3.37
X5.24Y-3.675
X5.24Y-4.021
X5.265Y-3.865
X5.29Y-3.425
X5.29Y-3.675
X5.29Y-4.022
X5.34Y-4.0616
X5.345Y-3.675
X5.3968Y-3.486
X5.4197Y-3.4285
X5.4346Y-3.3199
X5.4429Y-3.0371
X5.4446Y-3.3772
X5.4568Y-3.0718
X5.465Y-3.23
X5.47Y-3.105
X5.485Y-3.14
X5.4892Y-3.4485
X5.4994Y-3.4744
X5.5007Y-3.3008
X5.5034Y-3.169
X5.5079Y-3.501
X5.5213Y-3.2802
X5.5239Y-3.1931
X5.5291Y-3.5191
X5.5493Y-3.1238
X5.557Y-3.5191
X5.5734Y-3.1931
X5.6Y-3.3
X5.6117Y-3.6709
X5.619Y-3.139
X5.6368Y-3.6914
X5.6466Y-3.1566
X5.675Y-3.215
X5.68Y-3.695
X5.6804Y-3.1046
X5.6824Y-3.0738
X5.6838Y-3.0423
X5.6859Y-3.4527
X5.6859Y-3.4824
X5.6859Y-3.5103
X5.6859Y-3.5431
X5.6859Y-3.5731
X5.7Y-3.675
X5.7866Y-3.425
X5.7897Y-3.1314
X5.89Y-3.545
X5.95Y-2.96
X5.97Y-3.4259
X6.015Y-3.5431
X6.0554Y-3.5131
X6.0593Y-3.3643
X6.095Y-3.78
X6.109Y-3.5431
X6.1149Y-3.5109
X6.115Y-3.67
X6.2218Y-3.2423
X6.2222Y-3.4556
X6.225Y-3.485
X6.2259Y-3.0941
X6.2267Y-3.0616
X6.229Y-3.4
X6.2336Y-3.1437
X6.235Y-3.56
X6.2411Y-3.1874
X6.2533Y-3.0417
X6.2579Y-3.2185
X6.2591Y-3.665
X6.2742Y-3.1048
X6.28Y-3.485
X6.3023Y-3.4473
X6.3178Y-3.0472
X6.3198Y-3.3917
X6.3278Y-3.4722
X6.3323Y-3.2207
X6.3339Y-3.0924
X6.3346Y-3.1759
X6.3429Y-3.1342
X6.374Y-3.2245
X6.388Y-3.0466
X6.413Y-4.0
X6.4217Y-3.2154
X6.4484Y-3.4816
X6.465Y-3.405
X6.514Y-3.9983
X6.515Y-3.485
X6.5259Y-3.1541
X6.5403Y-3.3346
X6.5541Y-3.1541
X6.5603Y-3.2259
X6.565Y-3.63
X6.5722Y-3.3248
X6.5811Y-3.1472
X6.5824Y-3.4014
X6.585Y-3.48
X6.5869Y-3.4289
X6.618Y-3.515
X6.618Y-4.0121
X6.64Y-3.045
X6.707Y-4.046
X6.7214Y-3.0919
X6.7719Y-3.7585
X6.7846Y-3.7336
X6.7899Y-3.1259
X6.815Y-3.42
X6.84Y-3.105
X6.85Y-3.7197
X6.882Y-3.494
X6.89Y-3.7059
X6.9511Y-3.4544
X6.9609Y-3.1409
X6.9747Y-3.2016
X6.99Y-3.745
X7.0Y-3.325
X7.005Y-3.1807
X7.005Y-3.425
X7.0059Y-3.2309
X7.006Y-3.1529
X7.01Y-3.38
X7.0164Y-3.2748
X7.0207Y-3.6859
X7.1357Y-3.7343
X7.14Y-3.695
X7.1401Y-3.6449
X7.18Y-3.465
X7.18Y-3.55
X7.205Y-3.665
X7.255Y-3.12
T2
X6.965Y-2.986
T3
X5.079Y-3.336
X5.079Y-3.411
T4
X4.714Y-3.491
X4.726Y-3.623
X4.756Y-3.744
X4.809Y-3.006
X4.809Y-3.263
X4.949Y-3.006
X4.95Y-3.26
X4.9541Y-3.3809
X4.969Y-3.623
X5.135Y-3.51
X5.8Y-3.33
X5.805Y-3.265
X6.043Y-3.326
X6.0909Y-3.2904
X6.745Y-2.946
X6.841Y-3.486
X6.9Y-2.98
T5
X4.715Y-3.845
X4.715Y-3.945
X4.815Y-3.845
X4.815Y-3.945
X4.915Y-3.845
X4.915Y-3.945
X5.015Y-3.845
X5.015Y-3.945
X5.115Y-3.845
X5.115Y-3.945
X5.515Y-3.845
X5.515Y-3.945
X5.615Y-3.845
X5.615Y-3.945
X5.715Y-3.845
X5.715Y-3.945
X5.815Y-3.845
X5.815Y-3.945
X5.915Y-3.845
X5.915Y-3.945
X6.015Y-3.845
X6.015Y-3.945
X6.115Y-3.845
X6.115Y-3.945
X6.215Y-3.845
X6.215Y-3.945
X6.315Y-3.845
X6.315Y-3.945
X6.415Y-3.845
X6.415Y-3.945
X6.515Y-3.845
X6.515Y-3.945
X6.615Y-3.845
X6.615Y-3.945
X6.715Y-3.845
X6.715Y-3.945
X6.815Y-3.845
X6.815Y-3.945
X6.915Y-3.845
X6.915Y-3.945
X7.015Y-3.845
X7.015Y-3.945
X7.115Y-3.845
X7.115Y-3.945
X7.215Y-3.845
X7.215Y-3.945
X7.315Y-3.845
X7.315Y-3.945
X7.415Y-3.845
X7.415Y-3.945
T0
M30
