G04 #@! TF.GenerationSoftware,KiCad,Pcbnew,(5.1.2-1)-1*
G04 #@! TF.CreationDate,2019-07-03T01:56:20-07:00*
G04 #@! TF.ProjectId,ram_board,72616d5f-626f-4617-9264-2e6b69636164,rev?*
G04 #@! TF.SameCoordinates,Original*
G04 #@! TF.FileFunction,Legend,Top*
G04 #@! TF.FilePolarity,Positive*
%FSLAX46Y46*%
G04 Gerber Fmt 4.6, Leading zero omitted, Abs format (unit mm)*
G04 Created by KiCad (PCBNEW (5.1.2-1)-1) date 2019-07-03 01:56:20*
%MOMM*%
%LPD*%
G04 APERTURE LIST*
%ADD10C,0.120000*%
%ADD11C,0.100000*%
%ADD12C,0.150000*%
G04 APERTURE END LIST*
D10*
X138751000Y-97663000D02*
X138751000Y-96553000D01*
X138751000Y-96553000D02*
X140081000Y-96553000D01*
X138751000Y-110293000D02*
X189671000Y-110293000D01*
X189671000Y-110293000D02*
X189671000Y-101663000D01*
X138751000Y-101663000D02*
X189671000Y-101663000D01*
X138751000Y-110293000D02*
X138751000Y-101663000D01*
X187071000Y-110293000D02*
X187071000Y-101663000D01*
X184531000Y-110293000D02*
X184531000Y-101663000D01*
X181991000Y-110293000D02*
X181991000Y-101663000D01*
X179451000Y-110293000D02*
X179451000Y-101663000D01*
X176911000Y-110293000D02*
X176911000Y-101663000D01*
X174371000Y-110293000D02*
X174371000Y-101663000D01*
X171831000Y-110293000D02*
X171831000Y-101663000D01*
X169291000Y-110293000D02*
X169291000Y-101663000D01*
X166751000Y-110293000D02*
X166751000Y-101663000D01*
X164211000Y-110293000D02*
X164211000Y-101663000D01*
X161671000Y-110293000D02*
X161671000Y-101663000D01*
X159131000Y-110293000D02*
X159131000Y-101663000D01*
X156591000Y-110293000D02*
X156591000Y-101663000D01*
X154051000Y-110293000D02*
X154051000Y-101663000D01*
X151511000Y-110293000D02*
X151511000Y-101663000D01*
X148971000Y-110293000D02*
X148971000Y-101663000D01*
X146431000Y-110293000D02*
X146431000Y-101663000D01*
X143891000Y-110293000D02*
X143891000Y-101663000D01*
X141351000Y-110293000D02*
X141351000Y-101663000D01*
X188701000Y-99153000D02*
X188701000Y-98713000D01*
X188701000Y-101663000D02*
X188701000Y-101253000D01*
X187981000Y-99153000D02*
X187981000Y-98713000D01*
X187981000Y-101663000D02*
X187981000Y-101253000D01*
X186161000Y-99153000D02*
X186161000Y-98713000D01*
X186161000Y-101663000D02*
X186161000Y-101253000D01*
X185441000Y-99153000D02*
X185441000Y-98713000D01*
X185441000Y-101663000D02*
X185441000Y-101253000D01*
X183621000Y-99153000D02*
X183621000Y-98713000D01*
X183621000Y-101663000D02*
X183621000Y-101253000D01*
X182901000Y-99153000D02*
X182901000Y-98713000D01*
X182901000Y-101663000D02*
X182901000Y-101253000D01*
X181081000Y-99153000D02*
X181081000Y-98713000D01*
X181081000Y-101663000D02*
X181081000Y-101253000D01*
X180361000Y-99153000D02*
X180361000Y-98713000D01*
X180361000Y-101663000D02*
X180361000Y-101253000D01*
X178541000Y-99153000D02*
X178541000Y-98713000D01*
X178541000Y-101663000D02*
X178541000Y-101253000D01*
X177821000Y-99153000D02*
X177821000Y-98713000D01*
X177821000Y-101663000D02*
X177821000Y-101253000D01*
X176001000Y-99153000D02*
X176001000Y-98713000D01*
X176001000Y-101663000D02*
X176001000Y-101253000D01*
X175281000Y-99153000D02*
X175281000Y-98713000D01*
X175281000Y-101663000D02*
X175281000Y-101253000D01*
X173461000Y-99153000D02*
X173461000Y-98713000D01*
X173461000Y-101663000D02*
X173461000Y-101253000D01*
X172741000Y-99153000D02*
X172741000Y-98713000D01*
X172741000Y-101663000D02*
X172741000Y-101253000D01*
X170921000Y-99153000D02*
X170921000Y-98713000D01*
X170921000Y-101663000D02*
X170921000Y-101253000D01*
X170201000Y-99153000D02*
X170201000Y-98713000D01*
X170201000Y-101663000D02*
X170201000Y-101253000D01*
X168381000Y-99153000D02*
X168381000Y-98713000D01*
X168381000Y-101663000D02*
X168381000Y-101253000D01*
X167661000Y-99153000D02*
X167661000Y-98713000D01*
X167661000Y-101663000D02*
X167661000Y-101253000D01*
X165841000Y-99153000D02*
X165841000Y-98713000D01*
X165841000Y-101663000D02*
X165841000Y-101253000D01*
X165121000Y-99153000D02*
X165121000Y-98713000D01*
X165121000Y-101663000D02*
X165121000Y-101253000D01*
X163301000Y-99153000D02*
X163301000Y-98713000D01*
X163301000Y-101663000D02*
X163301000Y-101253000D01*
X162581000Y-99153000D02*
X162581000Y-98713000D01*
X162581000Y-101663000D02*
X162581000Y-101253000D01*
X160761000Y-99153000D02*
X160761000Y-98713000D01*
X160761000Y-101663000D02*
X160761000Y-101253000D01*
X160041000Y-99153000D02*
X160041000Y-98713000D01*
X160041000Y-101663000D02*
X160041000Y-101253000D01*
X158221000Y-99153000D02*
X158221000Y-98713000D01*
X158221000Y-101663000D02*
X158221000Y-101253000D01*
X157501000Y-99153000D02*
X157501000Y-98713000D01*
X157501000Y-101663000D02*
X157501000Y-101253000D01*
X155681000Y-99153000D02*
X155681000Y-98713000D01*
X155681000Y-101663000D02*
X155681000Y-101253000D01*
X154961000Y-99153000D02*
X154961000Y-98713000D01*
X154961000Y-101663000D02*
X154961000Y-101253000D01*
X153141000Y-99153000D02*
X153141000Y-98713000D01*
X153141000Y-101663000D02*
X153141000Y-101253000D01*
X152421000Y-99153000D02*
X152421000Y-98713000D01*
X152421000Y-101663000D02*
X152421000Y-101253000D01*
X150601000Y-99153000D02*
X150601000Y-98713000D01*
X150601000Y-101663000D02*
X150601000Y-101253000D01*
X149881000Y-99153000D02*
X149881000Y-98713000D01*
X149881000Y-101663000D02*
X149881000Y-101253000D01*
X148061000Y-99153000D02*
X148061000Y-98713000D01*
X148061000Y-101663000D02*
X148061000Y-101253000D01*
X147341000Y-99153000D02*
X147341000Y-98713000D01*
X147341000Y-101663000D02*
X147341000Y-101253000D01*
X145521000Y-99153000D02*
X145521000Y-98713000D01*
X145521000Y-101663000D02*
X145521000Y-101253000D01*
X144801000Y-99153000D02*
X144801000Y-98713000D01*
X144801000Y-101663000D02*
X144801000Y-101253000D01*
X142981000Y-99153000D02*
X142981000Y-98713000D01*
X142981000Y-101663000D02*
X142981000Y-101253000D01*
X142261000Y-99153000D02*
X142261000Y-98713000D01*
X142261000Y-101663000D02*
X142261000Y-101253000D01*
X140441000Y-99153000D02*
X140441000Y-98773000D01*
X140441000Y-101663000D02*
X140441000Y-101253000D01*
X139721000Y-99153000D02*
X139721000Y-98773000D01*
X139721000Y-101663000D02*
X139721000Y-101253000D01*
X141232900Y-110293000D02*
X141232900Y-101663000D01*
X141114805Y-110293000D02*
X141114805Y-101663000D01*
X140996710Y-110293000D02*
X140996710Y-101663000D01*
X140878615Y-110293000D02*
X140878615Y-101663000D01*
X140760520Y-110293000D02*
X140760520Y-101663000D01*
X140642425Y-110293000D02*
X140642425Y-101663000D01*
X140524330Y-110293000D02*
X140524330Y-101663000D01*
X140406235Y-110293000D02*
X140406235Y-101663000D01*
X140288140Y-110293000D02*
X140288140Y-101663000D01*
X140170045Y-110293000D02*
X140170045Y-101663000D01*
X140051950Y-110293000D02*
X140051950Y-101663000D01*
X139933855Y-110293000D02*
X139933855Y-101663000D01*
X139815760Y-110293000D02*
X139815760Y-101663000D01*
X139697665Y-110293000D02*
X139697665Y-101663000D01*
X139579570Y-110293000D02*
X139579570Y-101663000D01*
X139461475Y-110293000D02*
X139461475Y-101663000D01*
X139343380Y-110293000D02*
X139343380Y-101663000D01*
X139225285Y-110293000D02*
X139225285Y-101663000D01*
X139107190Y-110293000D02*
X139107190Y-101663000D01*
X138989095Y-110293000D02*
X138989095Y-101663000D01*
X138871000Y-110293000D02*
X138871000Y-101663000D01*
X132133267Y-76452000D02*
X131790733Y-76452000D01*
X132133267Y-77472000D02*
X131790733Y-77472000D01*
X137042000Y-76227000D02*
X134582000Y-76227000D01*
X137042000Y-77697000D02*
X137042000Y-76227000D01*
X134582000Y-77697000D02*
X137042000Y-77697000D01*
X123349936Y-94890000D02*
X124554064Y-94890000D01*
X123349936Y-93070000D02*
X124554064Y-93070000D01*
X123780733Y-91188000D02*
X124123267Y-91188000D01*
X123780733Y-90168000D02*
X124123267Y-90168000D01*
X173371000Y-73422000D02*
X166131000Y-73422000D01*
X166131000Y-73422000D02*
X165131000Y-74422000D01*
X165131000Y-74422000D02*
X165131000Y-94472000D01*
X165131000Y-94472000D02*
X183611000Y-94472000D01*
X183611000Y-94472000D02*
X183611000Y-73422000D01*
X183611000Y-73422000D02*
X175371000Y-73422000D01*
D11*
X169586000Y-76242000D02*
X169086000Y-76242000D01*
X169086000Y-76242000D02*
X167936000Y-77392000D01*
X167936000Y-77392000D02*
X167936000Y-77892000D01*
X179156000Y-76242000D02*
X180806000Y-76242000D01*
X180806000Y-76242000D02*
X180806000Y-77892000D01*
X169586000Y-91652000D02*
X167936000Y-91652000D01*
X167936000Y-91652000D02*
X167936000Y-90002000D01*
X179156000Y-91652000D02*
X180806000Y-91652000D01*
X180806000Y-91652000D02*
X180806000Y-90002000D01*
D10*
X146067000Y-75139000D02*
X144907000Y-75139000D01*
X146067000Y-74759000D02*
X146067000Y-75139000D01*
X151257000Y-74759000D02*
X146067000Y-74759000D01*
X156447000Y-74759000D02*
X156447000Y-75139000D01*
X151257000Y-74759000D02*
X156447000Y-74759000D01*
X146067000Y-93389000D02*
X146067000Y-93009000D01*
X151257000Y-93389000D02*
X146067000Y-93389000D01*
X156447000Y-93389000D02*
X156447000Y-93009000D01*
X151257000Y-93389000D02*
X156447000Y-93389000D01*
X117669000Y-97536000D02*
X117669000Y-96426000D01*
X117669000Y-96426000D02*
X118999000Y-96426000D01*
X117669000Y-110166000D02*
X130489000Y-110166000D01*
X130489000Y-110166000D02*
X130489000Y-101536000D01*
X117669000Y-101536000D02*
X130489000Y-101536000D01*
X117669000Y-110166000D02*
X117669000Y-101536000D01*
X127889000Y-110166000D02*
X127889000Y-101536000D01*
X125349000Y-110166000D02*
X125349000Y-101536000D01*
X122809000Y-110166000D02*
X122809000Y-101536000D01*
X120269000Y-110166000D02*
X120269000Y-101536000D01*
X129519000Y-99026000D02*
X129519000Y-98586000D01*
X129519000Y-101536000D02*
X129519000Y-101126000D01*
X128799000Y-99026000D02*
X128799000Y-98586000D01*
X128799000Y-101536000D02*
X128799000Y-101126000D01*
X126979000Y-99026000D02*
X126979000Y-98586000D01*
X126979000Y-101536000D02*
X126979000Y-101126000D01*
X126259000Y-99026000D02*
X126259000Y-98586000D01*
X126259000Y-101536000D02*
X126259000Y-101126000D01*
X124439000Y-99026000D02*
X124439000Y-98586000D01*
X124439000Y-101536000D02*
X124439000Y-101126000D01*
X123719000Y-99026000D02*
X123719000Y-98586000D01*
X123719000Y-101536000D02*
X123719000Y-101126000D01*
X121899000Y-99026000D02*
X121899000Y-98586000D01*
X121899000Y-101536000D02*
X121899000Y-101126000D01*
X121179000Y-99026000D02*
X121179000Y-98586000D01*
X121179000Y-101536000D02*
X121179000Y-101126000D01*
X119359000Y-99026000D02*
X119359000Y-98646000D01*
X119359000Y-101536000D02*
X119359000Y-101126000D01*
X118639000Y-99026000D02*
X118639000Y-98646000D01*
X118639000Y-101536000D02*
X118639000Y-101126000D01*
X120150900Y-110166000D02*
X120150900Y-101536000D01*
X120032805Y-110166000D02*
X120032805Y-101536000D01*
X119914710Y-110166000D02*
X119914710Y-101536000D01*
X119796615Y-110166000D02*
X119796615Y-101536000D01*
X119678520Y-110166000D02*
X119678520Y-101536000D01*
X119560425Y-110166000D02*
X119560425Y-101536000D01*
X119442330Y-110166000D02*
X119442330Y-101536000D01*
X119324235Y-110166000D02*
X119324235Y-101536000D01*
X119206140Y-110166000D02*
X119206140Y-101536000D01*
X119088045Y-110166000D02*
X119088045Y-101536000D01*
X118969950Y-110166000D02*
X118969950Y-101536000D01*
X118851855Y-110166000D02*
X118851855Y-101536000D01*
X118733760Y-110166000D02*
X118733760Y-101536000D01*
X118615665Y-110166000D02*
X118615665Y-101536000D01*
X118497570Y-110166000D02*
X118497570Y-101536000D01*
X118379475Y-110166000D02*
X118379475Y-101536000D01*
X118261380Y-110166000D02*
X118261380Y-101536000D01*
X118143285Y-110166000D02*
X118143285Y-101536000D01*
X118025190Y-110166000D02*
X118025190Y-101536000D01*
X117907095Y-110166000D02*
X117907095Y-101536000D01*
X117789000Y-110166000D02*
X117789000Y-101536000D01*
D12*
X131795333Y-78844380D02*
X131462000Y-78368190D01*
X131223904Y-78844380D02*
X131223904Y-77844380D01*
X131604857Y-77844380D01*
X131700095Y-77892000D01*
X131747714Y-77939619D01*
X131795333Y-78034857D01*
X131795333Y-78177714D01*
X131747714Y-78272952D01*
X131700095Y-78320571D01*
X131604857Y-78368190D01*
X131223904Y-78368190D01*
X132747714Y-78844380D02*
X132176285Y-78844380D01*
X132462000Y-78844380D02*
X132462000Y-77844380D01*
X132366761Y-77987238D01*
X132271523Y-78082476D01*
X132176285Y-78130095D01*
X134643904Y-78844380D02*
X134643904Y-77844380D01*
X134882000Y-77844380D01*
X135024857Y-77892000D01*
X135120095Y-77987238D01*
X135167714Y-78082476D01*
X135215333Y-78272952D01*
X135215333Y-78415809D01*
X135167714Y-78606285D01*
X135120095Y-78701523D01*
X135024857Y-78796761D01*
X134882000Y-78844380D01*
X134643904Y-78844380D01*
X136167714Y-78844380D02*
X135596285Y-78844380D01*
X135882000Y-78844380D02*
X135882000Y-77844380D01*
X135786761Y-77987238D01*
X135691523Y-78082476D01*
X135596285Y-78130095D01*
X123785333Y-92517142D02*
X123737714Y-92564761D01*
X123594857Y-92612380D01*
X123499619Y-92612380D01*
X123356761Y-92564761D01*
X123261523Y-92469523D01*
X123213904Y-92374285D01*
X123166285Y-92183809D01*
X123166285Y-92040952D01*
X123213904Y-91850476D01*
X123261523Y-91755238D01*
X123356761Y-91660000D01*
X123499619Y-91612380D01*
X123594857Y-91612380D01*
X123737714Y-91660000D01*
X123785333Y-91707619D01*
X124642476Y-91945714D02*
X124642476Y-92612380D01*
X124404380Y-91564761D02*
X124166285Y-92279047D01*
X124785333Y-92279047D01*
X123785333Y-89605142D02*
X123737714Y-89652761D01*
X123594857Y-89700380D01*
X123499619Y-89700380D01*
X123356761Y-89652761D01*
X123261523Y-89557523D01*
X123213904Y-89462285D01*
X123166285Y-89271809D01*
X123166285Y-89128952D01*
X123213904Y-88938476D01*
X123261523Y-88843238D01*
X123356761Y-88748000D01*
X123499619Y-88700380D01*
X123594857Y-88700380D01*
X123737714Y-88748000D01*
X123785333Y-88795619D01*
X124118666Y-88700380D02*
X124737714Y-88700380D01*
X124404380Y-89081333D01*
X124547238Y-89081333D01*
X124642476Y-89128952D01*
X124690095Y-89176571D01*
X124737714Y-89271809D01*
X124737714Y-89509904D01*
X124690095Y-89605142D01*
X124642476Y-89652761D01*
X124547238Y-89700380D01*
X124261523Y-89700380D01*
X124166285Y-89652761D01*
X124118666Y-89605142D01*
X173482095Y-83145380D02*
X173482095Y-83954904D01*
X173529714Y-84050142D01*
X173577333Y-84097761D01*
X173672571Y-84145380D01*
X173863047Y-84145380D01*
X173958285Y-84097761D01*
X174005904Y-84050142D01*
X174053523Y-83954904D01*
X174053523Y-83145380D01*
X174482095Y-83240619D02*
X174529714Y-83193000D01*
X174624952Y-83145380D01*
X174863047Y-83145380D01*
X174958285Y-83193000D01*
X175005904Y-83240619D01*
X175053523Y-83335857D01*
X175053523Y-83431095D01*
X175005904Y-83573952D01*
X174434476Y-84145380D01*
X175053523Y-84145380D01*
X150495095Y-83660380D02*
X150495095Y-84469904D01*
X150542714Y-84565142D01*
X150590333Y-84612761D01*
X150685571Y-84660380D01*
X150876047Y-84660380D01*
X150971285Y-84612761D01*
X151018904Y-84565142D01*
X151066523Y-84469904D01*
X151066523Y-83660380D01*
X152066523Y-84660380D02*
X151495095Y-84660380D01*
X151780809Y-84660380D02*
X151780809Y-83660380D01*
X151685571Y-83803238D01*
X151590333Y-83898476D01*
X151495095Y-83946095D01*
M02*
