M48
; DRILL file {KiCad (5.1.2-1)-1} date Friday, July 05, 2019 at 02:29:42 AM
; FORMAT={-:-/ absolute / inch / decimal}
; #@! TF.CreationDate,2019-07-05T02:29:42-07:00
; #@! TF.GenerationSoftware,Kicad,Pcbnew,(5.1.2-1)-1
; #@! TF.FileFunction,Plated,1,2,PTH
FMAT,2
INCH
T1C0.0100
T2C0.0120
T3C0.0130
T4C0.0170
T5C0.0394
%
G90
G05
T1
X5.03Y-3.385
X5.0377Y-3.2577
X5.07Y-3.025
X5.07Y-3.105
X5.16Y-3.385
X5.2Y-3.58
X5.21Y-3.025
X5.21Y-3.105
X5.4064Y-3.4865
X5.4203Y-3.4285
X5.4346Y-3.3199
X5.4429Y-3.0371
X5.4446Y-3.3772
X5.4568Y-3.0718
X5.47Y-3.105
X5.4825Y-3.2809
X5.485Y-3.14
X5.4898Y-3.45
X5.5034Y-3.169
X5.5036Y-3.485
X5.5112Y-3.2809
X5.5175Y-3.5131
X5.5239Y-3.1931
X5.5314Y-3.5431
X5.5493Y-3.1238
X5.557Y-3.5591
X5.5734Y-3.1931
X5.6Y-3.3
X5.6117Y-3.6709
X5.619Y-3.139
X5.6368Y-3.6914
X5.6466Y-3.1566
X5.675Y-3.215
X5.68Y-3.695
X5.6804Y-3.1046
X5.6824Y-3.0738
X5.6838Y-3.0423
X5.6859Y-3.4527
X5.6859Y-3.4824
X5.6859Y-3.5103
X5.6859Y-3.5431
X5.6859Y-3.5731
X5.7Y-3.675
X5.7866Y-3.425
X5.7897Y-3.1314
X5.97Y-3.4259
X6.015Y-3.5431
X6.0554Y-3.5131
X6.0593Y-3.3643
X6.095Y-3.78
X6.109Y-3.5431
X6.1149Y-3.5109
X6.115Y-3.67
X6.2218Y-3.2423
X6.2222Y-3.4556
X6.225Y-3.485
X6.2259Y-3.0941
X6.2267Y-3.0616
X6.229Y-3.4
X6.2336Y-3.1437
X6.2411Y-3.1874
X6.2533Y-3.0417
X6.2579Y-3.2185
X6.2591Y-3.665
X6.2742Y-3.1048
X6.28Y-3.485
X6.3023Y-3.4473
X6.3178Y-3.0472
X6.3198Y-3.3918
X6.3278Y-3.4722
X6.3323Y-3.2207
X6.3339Y-3.0924
X6.3346Y-3.1759
X6.3429Y-3.1342
X6.374Y-3.2245
X6.388Y-3.0466
X6.4217Y-3.2154
X6.4484Y-3.4816
X6.5259Y-3.1541
X6.5403Y-3.3346
X6.5541Y-3.1541
X6.5603Y-3.2259
X6.5722Y-3.3248
X6.5811Y-3.1472
X6.5824Y-3.4014
X6.585Y-3.48
X6.5869Y-3.4289
X6.64Y-3.045
X6.7214Y-3.0919
X6.7719Y-3.7585
X6.7846Y-3.7336
X6.7899Y-3.1259
X6.84Y-3.105
X6.85Y-3.7197
X6.89Y-3.7059
X6.91Y-3.45
X6.9282Y-3.1428
X6.9573Y-3.2016
X7.005Y-3.1807
X7.005Y-3.23
X7.005Y-3.28
X7.005Y-3.425
X7.006Y-3.1529
X7.01Y-3.38
X7.0207Y-3.6859
X7.1357Y-3.7343
X7.1401Y-3.6449
T2
X6.235Y-3.635
X6.9563Y-3.0034
X7.155Y-3.695
T3
X5.27Y-3.26
X5.27Y-3.335
T4
X4.9Y-3.215
X4.905Y-3.415
X4.995Y-3.615
X5.0Y-2.93
X5.03Y-3.715
X5.14Y-2.93
X5.1451Y-3.3049
X5.8Y-3.33
X5.805Y-3.265
X5.85Y-3.21
X5.885Y-3.545
X6.025Y-3.275
X6.0909Y-3.2904
X6.74Y-2.9241
X6.84Y-3.635
X6.8825Y-2.8875
X6.9Y-2.98
X6.975Y-3.715
X7.195Y-3.48
X7.2Y-3.58
T5
X4.715Y-3.845
X4.715Y-3.945
X4.815Y-3.845
X4.815Y-3.945
X4.915Y-3.845
X4.915Y-3.945
X5.015Y-3.845
X5.015Y-3.945
X5.115Y-3.845
X5.115Y-3.945
X5.515Y-3.845
X5.515Y-3.945
X5.615Y-3.845
X5.615Y-3.945
X5.715Y-3.845
X5.715Y-3.945
X5.815Y-3.845
X5.815Y-3.945
X5.915Y-3.845
X5.915Y-3.945
X6.015Y-3.845
X6.015Y-3.945
X6.115Y-3.845
X6.115Y-3.945
X6.215Y-3.845
X6.215Y-3.945
X6.315Y-3.845
X6.315Y-3.945
X6.415Y-3.845
X6.415Y-3.945
X6.515Y-3.845
X6.515Y-3.945
X6.615Y-3.845
X6.615Y-3.945
X6.715Y-3.845
X6.715Y-3.945
X6.815Y-3.845
X6.815Y-3.945
X6.915Y-3.845
X6.915Y-3.945
X7.015Y-3.845
X7.015Y-3.945
X7.115Y-3.845
X7.115Y-3.945
X7.215Y-3.845
X7.215Y-3.945
X7.315Y-3.845
X7.315Y-3.945
X7.415Y-3.845
X7.415Y-3.945
T0
M30
