G04 #@! TF.GenerationSoftware,KiCad,Pcbnew,(5.1.2-1)-1*
G04 #@! TF.CreationDate,2019-07-03T01:56:20-07:00*
G04 #@! TF.ProjectId,ram_board,72616d5f-626f-4617-9264-2e6b69636164,rev?*
G04 #@! TF.SameCoordinates,Original*
G04 #@! TF.FileFunction,Paste,Top*
G04 #@! TF.FilePolarity,Positive*
%FSLAX46Y46*%
G04 Gerber Fmt 4.6, Leading zero omitted, Abs format (unit mm)*
G04 Created by KiCad (PCBNEW (5.1.2-1)-1) date 2019-07-03 01:56:20*
%MOMM*%
%LPD*%
G04 APERTURE LIST*
%ADD10C,0.100000*%
%ADD11C,0.950000*%
%ADD12C,1.425000*%
%ADD13R,0.700000X1.925000*%
%ADD14R,1.925000X0.700000*%
%ADD15C,0.550000*%
G04 APERTURE END LIST*
D10*
G36*
X131397779Y-76488144D02*
G01*
X131420834Y-76491563D01*
X131443443Y-76497227D01*
X131465387Y-76505079D01*
X131486457Y-76515044D01*
X131506448Y-76527026D01*
X131525168Y-76540910D01*
X131542438Y-76556562D01*
X131558090Y-76573832D01*
X131571974Y-76592552D01*
X131583956Y-76612543D01*
X131593921Y-76633613D01*
X131601773Y-76655557D01*
X131607437Y-76678166D01*
X131610856Y-76701221D01*
X131612000Y-76724500D01*
X131612000Y-77199500D01*
X131610856Y-77222779D01*
X131607437Y-77245834D01*
X131601773Y-77268443D01*
X131593921Y-77290387D01*
X131583956Y-77311457D01*
X131571974Y-77331448D01*
X131558090Y-77350168D01*
X131542438Y-77367438D01*
X131525168Y-77383090D01*
X131506448Y-77396974D01*
X131486457Y-77408956D01*
X131465387Y-77418921D01*
X131443443Y-77426773D01*
X131420834Y-77432437D01*
X131397779Y-77435856D01*
X131374500Y-77437000D01*
X130799500Y-77437000D01*
X130776221Y-77435856D01*
X130753166Y-77432437D01*
X130730557Y-77426773D01*
X130708613Y-77418921D01*
X130687543Y-77408956D01*
X130667552Y-77396974D01*
X130648832Y-77383090D01*
X130631562Y-77367438D01*
X130615910Y-77350168D01*
X130602026Y-77331448D01*
X130590044Y-77311457D01*
X130580079Y-77290387D01*
X130572227Y-77268443D01*
X130566563Y-77245834D01*
X130563144Y-77222779D01*
X130562000Y-77199500D01*
X130562000Y-76724500D01*
X130563144Y-76701221D01*
X130566563Y-76678166D01*
X130572227Y-76655557D01*
X130580079Y-76633613D01*
X130590044Y-76612543D01*
X130602026Y-76592552D01*
X130615910Y-76573832D01*
X130631562Y-76556562D01*
X130648832Y-76540910D01*
X130667552Y-76527026D01*
X130687543Y-76515044D01*
X130708613Y-76505079D01*
X130730557Y-76497227D01*
X130753166Y-76491563D01*
X130776221Y-76488144D01*
X130799500Y-76487000D01*
X131374500Y-76487000D01*
X131397779Y-76488144D01*
X131397779Y-76488144D01*
G37*
D11*
X131087000Y-76962000D03*
D10*
G36*
X133147779Y-76488144D02*
G01*
X133170834Y-76491563D01*
X133193443Y-76497227D01*
X133215387Y-76505079D01*
X133236457Y-76515044D01*
X133256448Y-76527026D01*
X133275168Y-76540910D01*
X133292438Y-76556562D01*
X133308090Y-76573832D01*
X133321974Y-76592552D01*
X133333956Y-76612543D01*
X133343921Y-76633613D01*
X133351773Y-76655557D01*
X133357437Y-76678166D01*
X133360856Y-76701221D01*
X133362000Y-76724500D01*
X133362000Y-77199500D01*
X133360856Y-77222779D01*
X133357437Y-77245834D01*
X133351773Y-77268443D01*
X133343921Y-77290387D01*
X133333956Y-77311457D01*
X133321974Y-77331448D01*
X133308090Y-77350168D01*
X133292438Y-77367438D01*
X133275168Y-77383090D01*
X133256448Y-77396974D01*
X133236457Y-77408956D01*
X133215387Y-77418921D01*
X133193443Y-77426773D01*
X133170834Y-77432437D01*
X133147779Y-77435856D01*
X133124500Y-77437000D01*
X132549500Y-77437000D01*
X132526221Y-77435856D01*
X132503166Y-77432437D01*
X132480557Y-77426773D01*
X132458613Y-77418921D01*
X132437543Y-77408956D01*
X132417552Y-77396974D01*
X132398832Y-77383090D01*
X132381562Y-77367438D01*
X132365910Y-77350168D01*
X132352026Y-77331448D01*
X132340044Y-77311457D01*
X132330079Y-77290387D01*
X132322227Y-77268443D01*
X132316563Y-77245834D01*
X132313144Y-77222779D01*
X132312000Y-77199500D01*
X132312000Y-76724500D01*
X132313144Y-76701221D01*
X132316563Y-76678166D01*
X132322227Y-76655557D01*
X132330079Y-76633613D01*
X132340044Y-76612543D01*
X132352026Y-76592552D01*
X132365910Y-76573832D01*
X132381562Y-76556562D01*
X132398832Y-76540910D01*
X132417552Y-76527026D01*
X132437543Y-76515044D01*
X132458613Y-76505079D01*
X132480557Y-76497227D01*
X132503166Y-76491563D01*
X132526221Y-76488144D01*
X132549500Y-76487000D01*
X133124500Y-76487000D01*
X133147779Y-76488144D01*
X133147779Y-76488144D01*
G37*
D11*
X132837000Y-76962000D03*
D10*
G36*
X134817779Y-76488144D02*
G01*
X134840834Y-76491563D01*
X134863443Y-76497227D01*
X134885387Y-76505079D01*
X134906457Y-76515044D01*
X134926448Y-76527026D01*
X134945168Y-76540910D01*
X134962438Y-76556562D01*
X134978090Y-76573832D01*
X134991974Y-76592552D01*
X135003956Y-76612543D01*
X135013921Y-76633613D01*
X135021773Y-76655557D01*
X135027437Y-76678166D01*
X135030856Y-76701221D01*
X135032000Y-76724500D01*
X135032000Y-77199500D01*
X135030856Y-77222779D01*
X135027437Y-77245834D01*
X135021773Y-77268443D01*
X135013921Y-77290387D01*
X135003956Y-77311457D01*
X134991974Y-77331448D01*
X134978090Y-77350168D01*
X134962438Y-77367438D01*
X134945168Y-77383090D01*
X134926448Y-77396974D01*
X134906457Y-77408956D01*
X134885387Y-77418921D01*
X134863443Y-77426773D01*
X134840834Y-77432437D01*
X134817779Y-77435856D01*
X134794500Y-77437000D01*
X134219500Y-77437000D01*
X134196221Y-77435856D01*
X134173166Y-77432437D01*
X134150557Y-77426773D01*
X134128613Y-77418921D01*
X134107543Y-77408956D01*
X134087552Y-77396974D01*
X134068832Y-77383090D01*
X134051562Y-77367438D01*
X134035910Y-77350168D01*
X134022026Y-77331448D01*
X134010044Y-77311457D01*
X134000079Y-77290387D01*
X133992227Y-77268443D01*
X133986563Y-77245834D01*
X133983144Y-77222779D01*
X133982000Y-77199500D01*
X133982000Y-76724500D01*
X133983144Y-76701221D01*
X133986563Y-76678166D01*
X133992227Y-76655557D01*
X134000079Y-76633613D01*
X134010044Y-76612543D01*
X134022026Y-76592552D01*
X134035910Y-76573832D01*
X134051562Y-76556562D01*
X134068832Y-76540910D01*
X134087552Y-76527026D01*
X134107543Y-76515044D01*
X134128613Y-76505079D01*
X134150557Y-76497227D01*
X134173166Y-76491563D01*
X134196221Y-76488144D01*
X134219500Y-76487000D01*
X134794500Y-76487000D01*
X134817779Y-76488144D01*
X134817779Y-76488144D01*
G37*
D11*
X134507000Y-76962000D03*
D10*
G36*
X136567779Y-76488144D02*
G01*
X136590834Y-76491563D01*
X136613443Y-76497227D01*
X136635387Y-76505079D01*
X136656457Y-76515044D01*
X136676448Y-76527026D01*
X136695168Y-76540910D01*
X136712438Y-76556562D01*
X136728090Y-76573832D01*
X136741974Y-76592552D01*
X136753956Y-76612543D01*
X136763921Y-76633613D01*
X136771773Y-76655557D01*
X136777437Y-76678166D01*
X136780856Y-76701221D01*
X136782000Y-76724500D01*
X136782000Y-77199500D01*
X136780856Y-77222779D01*
X136777437Y-77245834D01*
X136771773Y-77268443D01*
X136763921Y-77290387D01*
X136753956Y-77311457D01*
X136741974Y-77331448D01*
X136728090Y-77350168D01*
X136712438Y-77367438D01*
X136695168Y-77383090D01*
X136676448Y-77396974D01*
X136656457Y-77408956D01*
X136635387Y-77418921D01*
X136613443Y-77426773D01*
X136590834Y-77432437D01*
X136567779Y-77435856D01*
X136544500Y-77437000D01*
X135969500Y-77437000D01*
X135946221Y-77435856D01*
X135923166Y-77432437D01*
X135900557Y-77426773D01*
X135878613Y-77418921D01*
X135857543Y-77408956D01*
X135837552Y-77396974D01*
X135818832Y-77383090D01*
X135801562Y-77367438D01*
X135785910Y-77350168D01*
X135772026Y-77331448D01*
X135760044Y-77311457D01*
X135750079Y-77290387D01*
X135742227Y-77268443D01*
X135736563Y-77245834D01*
X135733144Y-77222779D01*
X135732000Y-77199500D01*
X135732000Y-76724500D01*
X135733144Y-76701221D01*
X135736563Y-76678166D01*
X135742227Y-76655557D01*
X135750079Y-76633613D01*
X135760044Y-76612543D01*
X135772026Y-76592552D01*
X135785910Y-76573832D01*
X135801562Y-76556562D01*
X135818832Y-76540910D01*
X135837552Y-76527026D01*
X135857543Y-76515044D01*
X135878613Y-76505079D01*
X135900557Y-76497227D01*
X135923166Y-76491563D01*
X135946221Y-76488144D01*
X135969500Y-76487000D01*
X136544500Y-76487000D01*
X136567779Y-76488144D01*
X136567779Y-76488144D01*
G37*
D11*
X136257000Y-76962000D03*
D10*
G36*
X125926504Y-93106204D02*
G01*
X125950773Y-93109804D01*
X125974571Y-93115765D01*
X125997671Y-93124030D01*
X126019849Y-93134520D01*
X126040893Y-93147133D01*
X126060598Y-93161747D01*
X126078777Y-93178223D01*
X126095253Y-93196402D01*
X126109867Y-93216107D01*
X126122480Y-93237151D01*
X126132970Y-93259329D01*
X126141235Y-93282429D01*
X126147196Y-93306227D01*
X126150796Y-93330496D01*
X126152000Y-93355000D01*
X126152000Y-94605000D01*
X126150796Y-94629504D01*
X126147196Y-94653773D01*
X126141235Y-94677571D01*
X126132970Y-94700671D01*
X126122480Y-94722849D01*
X126109867Y-94743893D01*
X126095253Y-94763598D01*
X126078777Y-94781777D01*
X126060598Y-94798253D01*
X126040893Y-94812867D01*
X126019849Y-94825480D01*
X125997671Y-94835970D01*
X125974571Y-94844235D01*
X125950773Y-94850196D01*
X125926504Y-94853796D01*
X125902000Y-94855000D01*
X124977000Y-94855000D01*
X124952496Y-94853796D01*
X124928227Y-94850196D01*
X124904429Y-94844235D01*
X124881329Y-94835970D01*
X124859151Y-94825480D01*
X124838107Y-94812867D01*
X124818402Y-94798253D01*
X124800223Y-94781777D01*
X124783747Y-94763598D01*
X124769133Y-94743893D01*
X124756520Y-94722849D01*
X124746030Y-94700671D01*
X124737765Y-94677571D01*
X124731804Y-94653773D01*
X124728204Y-94629504D01*
X124727000Y-94605000D01*
X124727000Y-93355000D01*
X124728204Y-93330496D01*
X124731804Y-93306227D01*
X124737765Y-93282429D01*
X124746030Y-93259329D01*
X124756520Y-93237151D01*
X124769133Y-93216107D01*
X124783747Y-93196402D01*
X124800223Y-93178223D01*
X124818402Y-93161747D01*
X124838107Y-93147133D01*
X124859151Y-93134520D01*
X124881329Y-93124030D01*
X124904429Y-93115765D01*
X124928227Y-93109804D01*
X124952496Y-93106204D01*
X124977000Y-93105000D01*
X125902000Y-93105000D01*
X125926504Y-93106204D01*
X125926504Y-93106204D01*
G37*
D12*
X125439500Y-93980000D03*
D10*
G36*
X122951504Y-93106204D02*
G01*
X122975773Y-93109804D01*
X122999571Y-93115765D01*
X123022671Y-93124030D01*
X123044849Y-93134520D01*
X123065893Y-93147133D01*
X123085598Y-93161747D01*
X123103777Y-93178223D01*
X123120253Y-93196402D01*
X123134867Y-93216107D01*
X123147480Y-93237151D01*
X123157970Y-93259329D01*
X123166235Y-93282429D01*
X123172196Y-93306227D01*
X123175796Y-93330496D01*
X123177000Y-93355000D01*
X123177000Y-94605000D01*
X123175796Y-94629504D01*
X123172196Y-94653773D01*
X123166235Y-94677571D01*
X123157970Y-94700671D01*
X123147480Y-94722849D01*
X123134867Y-94743893D01*
X123120253Y-94763598D01*
X123103777Y-94781777D01*
X123085598Y-94798253D01*
X123065893Y-94812867D01*
X123044849Y-94825480D01*
X123022671Y-94835970D01*
X122999571Y-94844235D01*
X122975773Y-94850196D01*
X122951504Y-94853796D01*
X122927000Y-94855000D01*
X122002000Y-94855000D01*
X121977496Y-94853796D01*
X121953227Y-94850196D01*
X121929429Y-94844235D01*
X121906329Y-94835970D01*
X121884151Y-94825480D01*
X121863107Y-94812867D01*
X121843402Y-94798253D01*
X121825223Y-94781777D01*
X121808747Y-94763598D01*
X121794133Y-94743893D01*
X121781520Y-94722849D01*
X121771030Y-94700671D01*
X121762765Y-94677571D01*
X121756804Y-94653773D01*
X121753204Y-94629504D01*
X121752000Y-94605000D01*
X121752000Y-93355000D01*
X121753204Y-93330496D01*
X121756804Y-93306227D01*
X121762765Y-93282429D01*
X121771030Y-93259329D01*
X121781520Y-93237151D01*
X121794133Y-93216107D01*
X121808747Y-93196402D01*
X121825223Y-93178223D01*
X121843402Y-93161747D01*
X121863107Y-93147133D01*
X121884151Y-93134520D01*
X121906329Y-93124030D01*
X121929429Y-93115765D01*
X121953227Y-93109804D01*
X121977496Y-93106204D01*
X122002000Y-93105000D01*
X122927000Y-93105000D01*
X122951504Y-93106204D01*
X122951504Y-93106204D01*
G37*
D12*
X122464500Y-93980000D03*
D10*
G36*
X125137779Y-90204144D02*
G01*
X125160834Y-90207563D01*
X125183443Y-90213227D01*
X125205387Y-90221079D01*
X125226457Y-90231044D01*
X125246448Y-90243026D01*
X125265168Y-90256910D01*
X125282438Y-90272562D01*
X125298090Y-90289832D01*
X125311974Y-90308552D01*
X125323956Y-90328543D01*
X125333921Y-90349613D01*
X125341773Y-90371557D01*
X125347437Y-90394166D01*
X125350856Y-90417221D01*
X125352000Y-90440500D01*
X125352000Y-90915500D01*
X125350856Y-90938779D01*
X125347437Y-90961834D01*
X125341773Y-90984443D01*
X125333921Y-91006387D01*
X125323956Y-91027457D01*
X125311974Y-91047448D01*
X125298090Y-91066168D01*
X125282438Y-91083438D01*
X125265168Y-91099090D01*
X125246448Y-91112974D01*
X125226457Y-91124956D01*
X125205387Y-91134921D01*
X125183443Y-91142773D01*
X125160834Y-91148437D01*
X125137779Y-91151856D01*
X125114500Y-91153000D01*
X124539500Y-91153000D01*
X124516221Y-91151856D01*
X124493166Y-91148437D01*
X124470557Y-91142773D01*
X124448613Y-91134921D01*
X124427543Y-91124956D01*
X124407552Y-91112974D01*
X124388832Y-91099090D01*
X124371562Y-91083438D01*
X124355910Y-91066168D01*
X124342026Y-91047448D01*
X124330044Y-91027457D01*
X124320079Y-91006387D01*
X124312227Y-90984443D01*
X124306563Y-90961834D01*
X124303144Y-90938779D01*
X124302000Y-90915500D01*
X124302000Y-90440500D01*
X124303144Y-90417221D01*
X124306563Y-90394166D01*
X124312227Y-90371557D01*
X124320079Y-90349613D01*
X124330044Y-90328543D01*
X124342026Y-90308552D01*
X124355910Y-90289832D01*
X124371562Y-90272562D01*
X124388832Y-90256910D01*
X124407552Y-90243026D01*
X124427543Y-90231044D01*
X124448613Y-90221079D01*
X124470557Y-90213227D01*
X124493166Y-90207563D01*
X124516221Y-90204144D01*
X124539500Y-90203000D01*
X125114500Y-90203000D01*
X125137779Y-90204144D01*
X125137779Y-90204144D01*
G37*
D11*
X124827000Y-90678000D03*
D10*
G36*
X123387779Y-90204144D02*
G01*
X123410834Y-90207563D01*
X123433443Y-90213227D01*
X123455387Y-90221079D01*
X123476457Y-90231044D01*
X123496448Y-90243026D01*
X123515168Y-90256910D01*
X123532438Y-90272562D01*
X123548090Y-90289832D01*
X123561974Y-90308552D01*
X123573956Y-90328543D01*
X123583921Y-90349613D01*
X123591773Y-90371557D01*
X123597437Y-90394166D01*
X123600856Y-90417221D01*
X123602000Y-90440500D01*
X123602000Y-90915500D01*
X123600856Y-90938779D01*
X123597437Y-90961834D01*
X123591773Y-90984443D01*
X123583921Y-91006387D01*
X123573956Y-91027457D01*
X123561974Y-91047448D01*
X123548090Y-91066168D01*
X123532438Y-91083438D01*
X123515168Y-91099090D01*
X123496448Y-91112974D01*
X123476457Y-91124956D01*
X123455387Y-91134921D01*
X123433443Y-91142773D01*
X123410834Y-91148437D01*
X123387779Y-91151856D01*
X123364500Y-91153000D01*
X122789500Y-91153000D01*
X122766221Y-91151856D01*
X122743166Y-91148437D01*
X122720557Y-91142773D01*
X122698613Y-91134921D01*
X122677543Y-91124956D01*
X122657552Y-91112974D01*
X122638832Y-91099090D01*
X122621562Y-91083438D01*
X122605910Y-91066168D01*
X122592026Y-91047448D01*
X122580044Y-91027457D01*
X122570079Y-91006387D01*
X122562227Y-90984443D01*
X122556563Y-90961834D01*
X122553144Y-90938779D01*
X122552000Y-90915500D01*
X122552000Y-90440500D01*
X122553144Y-90417221D01*
X122556563Y-90394166D01*
X122562227Y-90371557D01*
X122570079Y-90349613D01*
X122580044Y-90328543D01*
X122592026Y-90308552D01*
X122605910Y-90289832D01*
X122621562Y-90272562D01*
X122638832Y-90256910D01*
X122657552Y-90243026D01*
X122677543Y-90231044D01*
X122698613Y-90221079D01*
X122720557Y-90213227D01*
X122743166Y-90207563D01*
X122766221Y-90204144D01*
X122789500Y-90203000D01*
X123364500Y-90203000D01*
X123387779Y-90204144D01*
X123387779Y-90204144D01*
G37*
D11*
X123077000Y-90678000D03*
D13*
X173736000Y-77354500D03*
X172466000Y-77354500D03*
X171196000Y-77354500D03*
X169926000Y-77354500D03*
X175006000Y-77354500D03*
X176276000Y-77354500D03*
X177546000Y-77354500D03*
X178816000Y-77354500D03*
D14*
X169048500Y-79502000D03*
X169048500Y-80772000D03*
X169048500Y-82042000D03*
X169048500Y-83312000D03*
X169048500Y-84582000D03*
X169048500Y-85852000D03*
X169048500Y-87122000D03*
X169048500Y-88392000D03*
D13*
X169926000Y-90539500D03*
X171196000Y-90539500D03*
X172466000Y-90539500D03*
X173736000Y-90539500D03*
X175006000Y-90539500D03*
X176276000Y-90539500D03*
X177546000Y-90539500D03*
X178816000Y-90539500D03*
D14*
X179693500Y-88392000D03*
X179693500Y-87122000D03*
X179693500Y-85852000D03*
X179693500Y-84582000D03*
X179693500Y-83312000D03*
X179693500Y-82042000D03*
X179693500Y-80772000D03*
X179693500Y-79502000D03*
D10*
G36*
X157482977Y-75399662D02*
G01*
X157496325Y-75401642D01*
X157509414Y-75404921D01*
X157522119Y-75409467D01*
X157534317Y-75415236D01*
X157545891Y-75422173D01*
X157556729Y-75430211D01*
X157566727Y-75439273D01*
X157575789Y-75449271D01*
X157583827Y-75460109D01*
X157590764Y-75471683D01*
X157596533Y-75483881D01*
X157601079Y-75496586D01*
X157604358Y-75509675D01*
X157606338Y-75523023D01*
X157607000Y-75536500D01*
X157607000Y-75811500D01*
X157606338Y-75824977D01*
X157604358Y-75838325D01*
X157601079Y-75851414D01*
X157596533Y-75864119D01*
X157590764Y-75876317D01*
X157583827Y-75887891D01*
X157575789Y-75898729D01*
X157566727Y-75908727D01*
X157556729Y-75917789D01*
X157545891Y-75925827D01*
X157534317Y-75932764D01*
X157522119Y-75938533D01*
X157509414Y-75943079D01*
X157496325Y-75946358D01*
X157482977Y-75948338D01*
X157469500Y-75949000D01*
X156219500Y-75949000D01*
X156206023Y-75948338D01*
X156192675Y-75946358D01*
X156179586Y-75943079D01*
X156166881Y-75938533D01*
X156154683Y-75932764D01*
X156143109Y-75925827D01*
X156132271Y-75917789D01*
X156122273Y-75908727D01*
X156113211Y-75898729D01*
X156105173Y-75887891D01*
X156098236Y-75876317D01*
X156092467Y-75864119D01*
X156087921Y-75851414D01*
X156084642Y-75838325D01*
X156082662Y-75824977D01*
X156082000Y-75811500D01*
X156082000Y-75536500D01*
X156082662Y-75523023D01*
X156084642Y-75509675D01*
X156087921Y-75496586D01*
X156092467Y-75483881D01*
X156098236Y-75471683D01*
X156105173Y-75460109D01*
X156113211Y-75449271D01*
X156122273Y-75439273D01*
X156132271Y-75430211D01*
X156143109Y-75422173D01*
X156154683Y-75415236D01*
X156166881Y-75409467D01*
X156179586Y-75404921D01*
X156192675Y-75401642D01*
X156206023Y-75399662D01*
X156219500Y-75399000D01*
X157469500Y-75399000D01*
X157482977Y-75399662D01*
X157482977Y-75399662D01*
G37*
D15*
X156844500Y-75674000D03*
D10*
G36*
X157482977Y-76199662D02*
G01*
X157496325Y-76201642D01*
X157509414Y-76204921D01*
X157522119Y-76209467D01*
X157534317Y-76215236D01*
X157545891Y-76222173D01*
X157556729Y-76230211D01*
X157566727Y-76239273D01*
X157575789Y-76249271D01*
X157583827Y-76260109D01*
X157590764Y-76271683D01*
X157596533Y-76283881D01*
X157601079Y-76296586D01*
X157604358Y-76309675D01*
X157606338Y-76323023D01*
X157607000Y-76336500D01*
X157607000Y-76611500D01*
X157606338Y-76624977D01*
X157604358Y-76638325D01*
X157601079Y-76651414D01*
X157596533Y-76664119D01*
X157590764Y-76676317D01*
X157583827Y-76687891D01*
X157575789Y-76698729D01*
X157566727Y-76708727D01*
X157556729Y-76717789D01*
X157545891Y-76725827D01*
X157534317Y-76732764D01*
X157522119Y-76738533D01*
X157509414Y-76743079D01*
X157496325Y-76746358D01*
X157482977Y-76748338D01*
X157469500Y-76749000D01*
X156219500Y-76749000D01*
X156206023Y-76748338D01*
X156192675Y-76746358D01*
X156179586Y-76743079D01*
X156166881Y-76738533D01*
X156154683Y-76732764D01*
X156143109Y-76725827D01*
X156132271Y-76717789D01*
X156122273Y-76708727D01*
X156113211Y-76698729D01*
X156105173Y-76687891D01*
X156098236Y-76676317D01*
X156092467Y-76664119D01*
X156087921Y-76651414D01*
X156084642Y-76638325D01*
X156082662Y-76624977D01*
X156082000Y-76611500D01*
X156082000Y-76336500D01*
X156082662Y-76323023D01*
X156084642Y-76309675D01*
X156087921Y-76296586D01*
X156092467Y-76283881D01*
X156098236Y-76271683D01*
X156105173Y-76260109D01*
X156113211Y-76249271D01*
X156122273Y-76239273D01*
X156132271Y-76230211D01*
X156143109Y-76222173D01*
X156154683Y-76215236D01*
X156166881Y-76209467D01*
X156179586Y-76204921D01*
X156192675Y-76201642D01*
X156206023Y-76199662D01*
X156219500Y-76199000D01*
X157469500Y-76199000D01*
X157482977Y-76199662D01*
X157482977Y-76199662D01*
G37*
D15*
X156844500Y-76474000D03*
D10*
G36*
X157482977Y-76999662D02*
G01*
X157496325Y-77001642D01*
X157509414Y-77004921D01*
X157522119Y-77009467D01*
X157534317Y-77015236D01*
X157545891Y-77022173D01*
X157556729Y-77030211D01*
X157566727Y-77039273D01*
X157575789Y-77049271D01*
X157583827Y-77060109D01*
X157590764Y-77071683D01*
X157596533Y-77083881D01*
X157601079Y-77096586D01*
X157604358Y-77109675D01*
X157606338Y-77123023D01*
X157607000Y-77136500D01*
X157607000Y-77411500D01*
X157606338Y-77424977D01*
X157604358Y-77438325D01*
X157601079Y-77451414D01*
X157596533Y-77464119D01*
X157590764Y-77476317D01*
X157583827Y-77487891D01*
X157575789Y-77498729D01*
X157566727Y-77508727D01*
X157556729Y-77517789D01*
X157545891Y-77525827D01*
X157534317Y-77532764D01*
X157522119Y-77538533D01*
X157509414Y-77543079D01*
X157496325Y-77546358D01*
X157482977Y-77548338D01*
X157469500Y-77549000D01*
X156219500Y-77549000D01*
X156206023Y-77548338D01*
X156192675Y-77546358D01*
X156179586Y-77543079D01*
X156166881Y-77538533D01*
X156154683Y-77532764D01*
X156143109Y-77525827D01*
X156132271Y-77517789D01*
X156122273Y-77508727D01*
X156113211Y-77498729D01*
X156105173Y-77487891D01*
X156098236Y-77476317D01*
X156092467Y-77464119D01*
X156087921Y-77451414D01*
X156084642Y-77438325D01*
X156082662Y-77424977D01*
X156082000Y-77411500D01*
X156082000Y-77136500D01*
X156082662Y-77123023D01*
X156084642Y-77109675D01*
X156087921Y-77096586D01*
X156092467Y-77083881D01*
X156098236Y-77071683D01*
X156105173Y-77060109D01*
X156113211Y-77049271D01*
X156122273Y-77039273D01*
X156132271Y-77030211D01*
X156143109Y-77022173D01*
X156154683Y-77015236D01*
X156166881Y-77009467D01*
X156179586Y-77004921D01*
X156192675Y-77001642D01*
X156206023Y-76999662D01*
X156219500Y-76999000D01*
X157469500Y-76999000D01*
X157482977Y-76999662D01*
X157482977Y-76999662D01*
G37*
D15*
X156844500Y-77274000D03*
D10*
G36*
X157482977Y-77799662D02*
G01*
X157496325Y-77801642D01*
X157509414Y-77804921D01*
X157522119Y-77809467D01*
X157534317Y-77815236D01*
X157545891Y-77822173D01*
X157556729Y-77830211D01*
X157566727Y-77839273D01*
X157575789Y-77849271D01*
X157583827Y-77860109D01*
X157590764Y-77871683D01*
X157596533Y-77883881D01*
X157601079Y-77896586D01*
X157604358Y-77909675D01*
X157606338Y-77923023D01*
X157607000Y-77936500D01*
X157607000Y-78211500D01*
X157606338Y-78224977D01*
X157604358Y-78238325D01*
X157601079Y-78251414D01*
X157596533Y-78264119D01*
X157590764Y-78276317D01*
X157583827Y-78287891D01*
X157575789Y-78298729D01*
X157566727Y-78308727D01*
X157556729Y-78317789D01*
X157545891Y-78325827D01*
X157534317Y-78332764D01*
X157522119Y-78338533D01*
X157509414Y-78343079D01*
X157496325Y-78346358D01*
X157482977Y-78348338D01*
X157469500Y-78349000D01*
X156219500Y-78349000D01*
X156206023Y-78348338D01*
X156192675Y-78346358D01*
X156179586Y-78343079D01*
X156166881Y-78338533D01*
X156154683Y-78332764D01*
X156143109Y-78325827D01*
X156132271Y-78317789D01*
X156122273Y-78308727D01*
X156113211Y-78298729D01*
X156105173Y-78287891D01*
X156098236Y-78276317D01*
X156092467Y-78264119D01*
X156087921Y-78251414D01*
X156084642Y-78238325D01*
X156082662Y-78224977D01*
X156082000Y-78211500D01*
X156082000Y-77936500D01*
X156082662Y-77923023D01*
X156084642Y-77909675D01*
X156087921Y-77896586D01*
X156092467Y-77883881D01*
X156098236Y-77871683D01*
X156105173Y-77860109D01*
X156113211Y-77849271D01*
X156122273Y-77839273D01*
X156132271Y-77830211D01*
X156143109Y-77822173D01*
X156154683Y-77815236D01*
X156166881Y-77809467D01*
X156179586Y-77804921D01*
X156192675Y-77801642D01*
X156206023Y-77799662D01*
X156219500Y-77799000D01*
X157469500Y-77799000D01*
X157482977Y-77799662D01*
X157482977Y-77799662D01*
G37*
D15*
X156844500Y-78074000D03*
D10*
G36*
X157482977Y-78599662D02*
G01*
X157496325Y-78601642D01*
X157509414Y-78604921D01*
X157522119Y-78609467D01*
X157534317Y-78615236D01*
X157545891Y-78622173D01*
X157556729Y-78630211D01*
X157566727Y-78639273D01*
X157575789Y-78649271D01*
X157583827Y-78660109D01*
X157590764Y-78671683D01*
X157596533Y-78683881D01*
X157601079Y-78696586D01*
X157604358Y-78709675D01*
X157606338Y-78723023D01*
X157607000Y-78736500D01*
X157607000Y-79011500D01*
X157606338Y-79024977D01*
X157604358Y-79038325D01*
X157601079Y-79051414D01*
X157596533Y-79064119D01*
X157590764Y-79076317D01*
X157583827Y-79087891D01*
X157575789Y-79098729D01*
X157566727Y-79108727D01*
X157556729Y-79117789D01*
X157545891Y-79125827D01*
X157534317Y-79132764D01*
X157522119Y-79138533D01*
X157509414Y-79143079D01*
X157496325Y-79146358D01*
X157482977Y-79148338D01*
X157469500Y-79149000D01*
X156219500Y-79149000D01*
X156206023Y-79148338D01*
X156192675Y-79146358D01*
X156179586Y-79143079D01*
X156166881Y-79138533D01*
X156154683Y-79132764D01*
X156143109Y-79125827D01*
X156132271Y-79117789D01*
X156122273Y-79108727D01*
X156113211Y-79098729D01*
X156105173Y-79087891D01*
X156098236Y-79076317D01*
X156092467Y-79064119D01*
X156087921Y-79051414D01*
X156084642Y-79038325D01*
X156082662Y-79024977D01*
X156082000Y-79011500D01*
X156082000Y-78736500D01*
X156082662Y-78723023D01*
X156084642Y-78709675D01*
X156087921Y-78696586D01*
X156092467Y-78683881D01*
X156098236Y-78671683D01*
X156105173Y-78660109D01*
X156113211Y-78649271D01*
X156122273Y-78639273D01*
X156132271Y-78630211D01*
X156143109Y-78622173D01*
X156154683Y-78615236D01*
X156166881Y-78609467D01*
X156179586Y-78604921D01*
X156192675Y-78601642D01*
X156206023Y-78599662D01*
X156219500Y-78599000D01*
X157469500Y-78599000D01*
X157482977Y-78599662D01*
X157482977Y-78599662D01*
G37*
D15*
X156844500Y-78874000D03*
D10*
G36*
X157482977Y-79399662D02*
G01*
X157496325Y-79401642D01*
X157509414Y-79404921D01*
X157522119Y-79409467D01*
X157534317Y-79415236D01*
X157545891Y-79422173D01*
X157556729Y-79430211D01*
X157566727Y-79439273D01*
X157575789Y-79449271D01*
X157583827Y-79460109D01*
X157590764Y-79471683D01*
X157596533Y-79483881D01*
X157601079Y-79496586D01*
X157604358Y-79509675D01*
X157606338Y-79523023D01*
X157607000Y-79536500D01*
X157607000Y-79811500D01*
X157606338Y-79824977D01*
X157604358Y-79838325D01*
X157601079Y-79851414D01*
X157596533Y-79864119D01*
X157590764Y-79876317D01*
X157583827Y-79887891D01*
X157575789Y-79898729D01*
X157566727Y-79908727D01*
X157556729Y-79917789D01*
X157545891Y-79925827D01*
X157534317Y-79932764D01*
X157522119Y-79938533D01*
X157509414Y-79943079D01*
X157496325Y-79946358D01*
X157482977Y-79948338D01*
X157469500Y-79949000D01*
X156219500Y-79949000D01*
X156206023Y-79948338D01*
X156192675Y-79946358D01*
X156179586Y-79943079D01*
X156166881Y-79938533D01*
X156154683Y-79932764D01*
X156143109Y-79925827D01*
X156132271Y-79917789D01*
X156122273Y-79908727D01*
X156113211Y-79898729D01*
X156105173Y-79887891D01*
X156098236Y-79876317D01*
X156092467Y-79864119D01*
X156087921Y-79851414D01*
X156084642Y-79838325D01*
X156082662Y-79824977D01*
X156082000Y-79811500D01*
X156082000Y-79536500D01*
X156082662Y-79523023D01*
X156084642Y-79509675D01*
X156087921Y-79496586D01*
X156092467Y-79483881D01*
X156098236Y-79471683D01*
X156105173Y-79460109D01*
X156113211Y-79449271D01*
X156122273Y-79439273D01*
X156132271Y-79430211D01*
X156143109Y-79422173D01*
X156154683Y-79415236D01*
X156166881Y-79409467D01*
X156179586Y-79404921D01*
X156192675Y-79401642D01*
X156206023Y-79399662D01*
X156219500Y-79399000D01*
X157469500Y-79399000D01*
X157482977Y-79399662D01*
X157482977Y-79399662D01*
G37*
D15*
X156844500Y-79674000D03*
D10*
G36*
X157482977Y-80199662D02*
G01*
X157496325Y-80201642D01*
X157509414Y-80204921D01*
X157522119Y-80209467D01*
X157534317Y-80215236D01*
X157545891Y-80222173D01*
X157556729Y-80230211D01*
X157566727Y-80239273D01*
X157575789Y-80249271D01*
X157583827Y-80260109D01*
X157590764Y-80271683D01*
X157596533Y-80283881D01*
X157601079Y-80296586D01*
X157604358Y-80309675D01*
X157606338Y-80323023D01*
X157607000Y-80336500D01*
X157607000Y-80611500D01*
X157606338Y-80624977D01*
X157604358Y-80638325D01*
X157601079Y-80651414D01*
X157596533Y-80664119D01*
X157590764Y-80676317D01*
X157583827Y-80687891D01*
X157575789Y-80698729D01*
X157566727Y-80708727D01*
X157556729Y-80717789D01*
X157545891Y-80725827D01*
X157534317Y-80732764D01*
X157522119Y-80738533D01*
X157509414Y-80743079D01*
X157496325Y-80746358D01*
X157482977Y-80748338D01*
X157469500Y-80749000D01*
X156219500Y-80749000D01*
X156206023Y-80748338D01*
X156192675Y-80746358D01*
X156179586Y-80743079D01*
X156166881Y-80738533D01*
X156154683Y-80732764D01*
X156143109Y-80725827D01*
X156132271Y-80717789D01*
X156122273Y-80708727D01*
X156113211Y-80698729D01*
X156105173Y-80687891D01*
X156098236Y-80676317D01*
X156092467Y-80664119D01*
X156087921Y-80651414D01*
X156084642Y-80638325D01*
X156082662Y-80624977D01*
X156082000Y-80611500D01*
X156082000Y-80336500D01*
X156082662Y-80323023D01*
X156084642Y-80309675D01*
X156087921Y-80296586D01*
X156092467Y-80283881D01*
X156098236Y-80271683D01*
X156105173Y-80260109D01*
X156113211Y-80249271D01*
X156122273Y-80239273D01*
X156132271Y-80230211D01*
X156143109Y-80222173D01*
X156154683Y-80215236D01*
X156166881Y-80209467D01*
X156179586Y-80204921D01*
X156192675Y-80201642D01*
X156206023Y-80199662D01*
X156219500Y-80199000D01*
X157469500Y-80199000D01*
X157482977Y-80199662D01*
X157482977Y-80199662D01*
G37*
D15*
X156844500Y-80474000D03*
D10*
G36*
X157482977Y-80999662D02*
G01*
X157496325Y-81001642D01*
X157509414Y-81004921D01*
X157522119Y-81009467D01*
X157534317Y-81015236D01*
X157545891Y-81022173D01*
X157556729Y-81030211D01*
X157566727Y-81039273D01*
X157575789Y-81049271D01*
X157583827Y-81060109D01*
X157590764Y-81071683D01*
X157596533Y-81083881D01*
X157601079Y-81096586D01*
X157604358Y-81109675D01*
X157606338Y-81123023D01*
X157607000Y-81136500D01*
X157607000Y-81411500D01*
X157606338Y-81424977D01*
X157604358Y-81438325D01*
X157601079Y-81451414D01*
X157596533Y-81464119D01*
X157590764Y-81476317D01*
X157583827Y-81487891D01*
X157575789Y-81498729D01*
X157566727Y-81508727D01*
X157556729Y-81517789D01*
X157545891Y-81525827D01*
X157534317Y-81532764D01*
X157522119Y-81538533D01*
X157509414Y-81543079D01*
X157496325Y-81546358D01*
X157482977Y-81548338D01*
X157469500Y-81549000D01*
X156219500Y-81549000D01*
X156206023Y-81548338D01*
X156192675Y-81546358D01*
X156179586Y-81543079D01*
X156166881Y-81538533D01*
X156154683Y-81532764D01*
X156143109Y-81525827D01*
X156132271Y-81517789D01*
X156122273Y-81508727D01*
X156113211Y-81498729D01*
X156105173Y-81487891D01*
X156098236Y-81476317D01*
X156092467Y-81464119D01*
X156087921Y-81451414D01*
X156084642Y-81438325D01*
X156082662Y-81424977D01*
X156082000Y-81411500D01*
X156082000Y-81136500D01*
X156082662Y-81123023D01*
X156084642Y-81109675D01*
X156087921Y-81096586D01*
X156092467Y-81083881D01*
X156098236Y-81071683D01*
X156105173Y-81060109D01*
X156113211Y-81049271D01*
X156122273Y-81039273D01*
X156132271Y-81030211D01*
X156143109Y-81022173D01*
X156154683Y-81015236D01*
X156166881Y-81009467D01*
X156179586Y-81004921D01*
X156192675Y-81001642D01*
X156206023Y-80999662D01*
X156219500Y-80999000D01*
X157469500Y-80999000D01*
X157482977Y-80999662D01*
X157482977Y-80999662D01*
G37*
D15*
X156844500Y-81274000D03*
D10*
G36*
X157482977Y-81799662D02*
G01*
X157496325Y-81801642D01*
X157509414Y-81804921D01*
X157522119Y-81809467D01*
X157534317Y-81815236D01*
X157545891Y-81822173D01*
X157556729Y-81830211D01*
X157566727Y-81839273D01*
X157575789Y-81849271D01*
X157583827Y-81860109D01*
X157590764Y-81871683D01*
X157596533Y-81883881D01*
X157601079Y-81896586D01*
X157604358Y-81909675D01*
X157606338Y-81923023D01*
X157607000Y-81936500D01*
X157607000Y-82211500D01*
X157606338Y-82224977D01*
X157604358Y-82238325D01*
X157601079Y-82251414D01*
X157596533Y-82264119D01*
X157590764Y-82276317D01*
X157583827Y-82287891D01*
X157575789Y-82298729D01*
X157566727Y-82308727D01*
X157556729Y-82317789D01*
X157545891Y-82325827D01*
X157534317Y-82332764D01*
X157522119Y-82338533D01*
X157509414Y-82343079D01*
X157496325Y-82346358D01*
X157482977Y-82348338D01*
X157469500Y-82349000D01*
X156219500Y-82349000D01*
X156206023Y-82348338D01*
X156192675Y-82346358D01*
X156179586Y-82343079D01*
X156166881Y-82338533D01*
X156154683Y-82332764D01*
X156143109Y-82325827D01*
X156132271Y-82317789D01*
X156122273Y-82308727D01*
X156113211Y-82298729D01*
X156105173Y-82287891D01*
X156098236Y-82276317D01*
X156092467Y-82264119D01*
X156087921Y-82251414D01*
X156084642Y-82238325D01*
X156082662Y-82224977D01*
X156082000Y-82211500D01*
X156082000Y-81936500D01*
X156082662Y-81923023D01*
X156084642Y-81909675D01*
X156087921Y-81896586D01*
X156092467Y-81883881D01*
X156098236Y-81871683D01*
X156105173Y-81860109D01*
X156113211Y-81849271D01*
X156122273Y-81839273D01*
X156132271Y-81830211D01*
X156143109Y-81822173D01*
X156154683Y-81815236D01*
X156166881Y-81809467D01*
X156179586Y-81804921D01*
X156192675Y-81801642D01*
X156206023Y-81799662D01*
X156219500Y-81799000D01*
X157469500Y-81799000D01*
X157482977Y-81799662D01*
X157482977Y-81799662D01*
G37*
D15*
X156844500Y-82074000D03*
D10*
G36*
X157482977Y-82599662D02*
G01*
X157496325Y-82601642D01*
X157509414Y-82604921D01*
X157522119Y-82609467D01*
X157534317Y-82615236D01*
X157545891Y-82622173D01*
X157556729Y-82630211D01*
X157566727Y-82639273D01*
X157575789Y-82649271D01*
X157583827Y-82660109D01*
X157590764Y-82671683D01*
X157596533Y-82683881D01*
X157601079Y-82696586D01*
X157604358Y-82709675D01*
X157606338Y-82723023D01*
X157607000Y-82736500D01*
X157607000Y-83011500D01*
X157606338Y-83024977D01*
X157604358Y-83038325D01*
X157601079Y-83051414D01*
X157596533Y-83064119D01*
X157590764Y-83076317D01*
X157583827Y-83087891D01*
X157575789Y-83098729D01*
X157566727Y-83108727D01*
X157556729Y-83117789D01*
X157545891Y-83125827D01*
X157534317Y-83132764D01*
X157522119Y-83138533D01*
X157509414Y-83143079D01*
X157496325Y-83146358D01*
X157482977Y-83148338D01*
X157469500Y-83149000D01*
X156219500Y-83149000D01*
X156206023Y-83148338D01*
X156192675Y-83146358D01*
X156179586Y-83143079D01*
X156166881Y-83138533D01*
X156154683Y-83132764D01*
X156143109Y-83125827D01*
X156132271Y-83117789D01*
X156122273Y-83108727D01*
X156113211Y-83098729D01*
X156105173Y-83087891D01*
X156098236Y-83076317D01*
X156092467Y-83064119D01*
X156087921Y-83051414D01*
X156084642Y-83038325D01*
X156082662Y-83024977D01*
X156082000Y-83011500D01*
X156082000Y-82736500D01*
X156082662Y-82723023D01*
X156084642Y-82709675D01*
X156087921Y-82696586D01*
X156092467Y-82683881D01*
X156098236Y-82671683D01*
X156105173Y-82660109D01*
X156113211Y-82649271D01*
X156122273Y-82639273D01*
X156132271Y-82630211D01*
X156143109Y-82622173D01*
X156154683Y-82615236D01*
X156166881Y-82609467D01*
X156179586Y-82604921D01*
X156192675Y-82601642D01*
X156206023Y-82599662D01*
X156219500Y-82599000D01*
X157469500Y-82599000D01*
X157482977Y-82599662D01*
X157482977Y-82599662D01*
G37*
D15*
X156844500Y-82874000D03*
D10*
G36*
X157482977Y-83399662D02*
G01*
X157496325Y-83401642D01*
X157509414Y-83404921D01*
X157522119Y-83409467D01*
X157534317Y-83415236D01*
X157545891Y-83422173D01*
X157556729Y-83430211D01*
X157566727Y-83439273D01*
X157575789Y-83449271D01*
X157583827Y-83460109D01*
X157590764Y-83471683D01*
X157596533Y-83483881D01*
X157601079Y-83496586D01*
X157604358Y-83509675D01*
X157606338Y-83523023D01*
X157607000Y-83536500D01*
X157607000Y-83811500D01*
X157606338Y-83824977D01*
X157604358Y-83838325D01*
X157601079Y-83851414D01*
X157596533Y-83864119D01*
X157590764Y-83876317D01*
X157583827Y-83887891D01*
X157575789Y-83898729D01*
X157566727Y-83908727D01*
X157556729Y-83917789D01*
X157545891Y-83925827D01*
X157534317Y-83932764D01*
X157522119Y-83938533D01*
X157509414Y-83943079D01*
X157496325Y-83946358D01*
X157482977Y-83948338D01*
X157469500Y-83949000D01*
X156219500Y-83949000D01*
X156206023Y-83948338D01*
X156192675Y-83946358D01*
X156179586Y-83943079D01*
X156166881Y-83938533D01*
X156154683Y-83932764D01*
X156143109Y-83925827D01*
X156132271Y-83917789D01*
X156122273Y-83908727D01*
X156113211Y-83898729D01*
X156105173Y-83887891D01*
X156098236Y-83876317D01*
X156092467Y-83864119D01*
X156087921Y-83851414D01*
X156084642Y-83838325D01*
X156082662Y-83824977D01*
X156082000Y-83811500D01*
X156082000Y-83536500D01*
X156082662Y-83523023D01*
X156084642Y-83509675D01*
X156087921Y-83496586D01*
X156092467Y-83483881D01*
X156098236Y-83471683D01*
X156105173Y-83460109D01*
X156113211Y-83449271D01*
X156122273Y-83439273D01*
X156132271Y-83430211D01*
X156143109Y-83422173D01*
X156154683Y-83415236D01*
X156166881Y-83409467D01*
X156179586Y-83404921D01*
X156192675Y-83401642D01*
X156206023Y-83399662D01*
X156219500Y-83399000D01*
X157469500Y-83399000D01*
X157482977Y-83399662D01*
X157482977Y-83399662D01*
G37*
D15*
X156844500Y-83674000D03*
D10*
G36*
X157482977Y-84199662D02*
G01*
X157496325Y-84201642D01*
X157509414Y-84204921D01*
X157522119Y-84209467D01*
X157534317Y-84215236D01*
X157545891Y-84222173D01*
X157556729Y-84230211D01*
X157566727Y-84239273D01*
X157575789Y-84249271D01*
X157583827Y-84260109D01*
X157590764Y-84271683D01*
X157596533Y-84283881D01*
X157601079Y-84296586D01*
X157604358Y-84309675D01*
X157606338Y-84323023D01*
X157607000Y-84336500D01*
X157607000Y-84611500D01*
X157606338Y-84624977D01*
X157604358Y-84638325D01*
X157601079Y-84651414D01*
X157596533Y-84664119D01*
X157590764Y-84676317D01*
X157583827Y-84687891D01*
X157575789Y-84698729D01*
X157566727Y-84708727D01*
X157556729Y-84717789D01*
X157545891Y-84725827D01*
X157534317Y-84732764D01*
X157522119Y-84738533D01*
X157509414Y-84743079D01*
X157496325Y-84746358D01*
X157482977Y-84748338D01*
X157469500Y-84749000D01*
X156219500Y-84749000D01*
X156206023Y-84748338D01*
X156192675Y-84746358D01*
X156179586Y-84743079D01*
X156166881Y-84738533D01*
X156154683Y-84732764D01*
X156143109Y-84725827D01*
X156132271Y-84717789D01*
X156122273Y-84708727D01*
X156113211Y-84698729D01*
X156105173Y-84687891D01*
X156098236Y-84676317D01*
X156092467Y-84664119D01*
X156087921Y-84651414D01*
X156084642Y-84638325D01*
X156082662Y-84624977D01*
X156082000Y-84611500D01*
X156082000Y-84336500D01*
X156082662Y-84323023D01*
X156084642Y-84309675D01*
X156087921Y-84296586D01*
X156092467Y-84283881D01*
X156098236Y-84271683D01*
X156105173Y-84260109D01*
X156113211Y-84249271D01*
X156122273Y-84239273D01*
X156132271Y-84230211D01*
X156143109Y-84222173D01*
X156154683Y-84215236D01*
X156166881Y-84209467D01*
X156179586Y-84204921D01*
X156192675Y-84201642D01*
X156206023Y-84199662D01*
X156219500Y-84199000D01*
X157469500Y-84199000D01*
X157482977Y-84199662D01*
X157482977Y-84199662D01*
G37*
D15*
X156844500Y-84474000D03*
D10*
G36*
X157482977Y-84999662D02*
G01*
X157496325Y-85001642D01*
X157509414Y-85004921D01*
X157522119Y-85009467D01*
X157534317Y-85015236D01*
X157545891Y-85022173D01*
X157556729Y-85030211D01*
X157566727Y-85039273D01*
X157575789Y-85049271D01*
X157583827Y-85060109D01*
X157590764Y-85071683D01*
X157596533Y-85083881D01*
X157601079Y-85096586D01*
X157604358Y-85109675D01*
X157606338Y-85123023D01*
X157607000Y-85136500D01*
X157607000Y-85411500D01*
X157606338Y-85424977D01*
X157604358Y-85438325D01*
X157601079Y-85451414D01*
X157596533Y-85464119D01*
X157590764Y-85476317D01*
X157583827Y-85487891D01*
X157575789Y-85498729D01*
X157566727Y-85508727D01*
X157556729Y-85517789D01*
X157545891Y-85525827D01*
X157534317Y-85532764D01*
X157522119Y-85538533D01*
X157509414Y-85543079D01*
X157496325Y-85546358D01*
X157482977Y-85548338D01*
X157469500Y-85549000D01*
X156219500Y-85549000D01*
X156206023Y-85548338D01*
X156192675Y-85546358D01*
X156179586Y-85543079D01*
X156166881Y-85538533D01*
X156154683Y-85532764D01*
X156143109Y-85525827D01*
X156132271Y-85517789D01*
X156122273Y-85508727D01*
X156113211Y-85498729D01*
X156105173Y-85487891D01*
X156098236Y-85476317D01*
X156092467Y-85464119D01*
X156087921Y-85451414D01*
X156084642Y-85438325D01*
X156082662Y-85424977D01*
X156082000Y-85411500D01*
X156082000Y-85136500D01*
X156082662Y-85123023D01*
X156084642Y-85109675D01*
X156087921Y-85096586D01*
X156092467Y-85083881D01*
X156098236Y-85071683D01*
X156105173Y-85060109D01*
X156113211Y-85049271D01*
X156122273Y-85039273D01*
X156132271Y-85030211D01*
X156143109Y-85022173D01*
X156154683Y-85015236D01*
X156166881Y-85009467D01*
X156179586Y-85004921D01*
X156192675Y-85001642D01*
X156206023Y-84999662D01*
X156219500Y-84999000D01*
X157469500Y-84999000D01*
X157482977Y-84999662D01*
X157482977Y-84999662D01*
G37*
D15*
X156844500Y-85274000D03*
D10*
G36*
X157482977Y-85799662D02*
G01*
X157496325Y-85801642D01*
X157509414Y-85804921D01*
X157522119Y-85809467D01*
X157534317Y-85815236D01*
X157545891Y-85822173D01*
X157556729Y-85830211D01*
X157566727Y-85839273D01*
X157575789Y-85849271D01*
X157583827Y-85860109D01*
X157590764Y-85871683D01*
X157596533Y-85883881D01*
X157601079Y-85896586D01*
X157604358Y-85909675D01*
X157606338Y-85923023D01*
X157607000Y-85936500D01*
X157607000Y-86211500D01*
X157606338Y-86224977D01*
X157604358Y-86238325D01*
X157601079Y-86251414D01*
X157596533Y-86264119D01*
X157590764Y-86276317D01*
X157583827Y-86287891D01*
X157575789Y-86298729D01*
X157566727Y-86308727D01*
X157556729Y-86317789D01*
X157545891Y-86325827D01*
X157534317Y-86332764D01*
X157522119Y-86338533D01*
X157509414Y-86343079D01*
X157496325Y-86346358D01*
X157482977Y-86348338D01*
X157469500Y-86349000D01*
X156219500Y-86349000D01*
X156206023Y-86348338D01*
X156192675Y-86346358D01*
X156179586Y-86343079D01*
X156166881Y-86338533D01*
X156154683Y-86332764D01*
X156143109Y-86325827D01*
X156132271Y-86317789D01*
X156122273Y-86308727D01*
X156113211Y-86298729D01*
X156105173Y-86287891D01*
X156098236Y-86276317D01*
X156092467Y-86264119D01*
X156087921Y-86251414D01*
X156084642Y-86238325D01*
X156082662Y-86224977D01*
X156082000Y-86211500D01*
X156082000Y-85936500D01*
X156082662Y-85923023D01*
X156084642Y-85909675D01*
X156087921Y-85896586D01*
X156092467Y-85883881D01*
X156098236Y-85871683D01*
X156105173Y-85860109D01*
X156113211Y-85849271D01*
X156122273Y-85839273D01*
X156132271Y-85830211D01*
X156143109Y-85822173D01*
X156154683Y-85815236D01*
X156166881Y-85809467D01*
X156179586Y-85804921D01*
X156192675Y-85801642D01*
X156206023Y-85799662D01*
X156219500Y-85799000D01*
X157469500Y-85799000D01*
X157482977Y-85799662D01*
X157482977Y-85799662D01*
G37*
D15*
X156844500Y-86074000D03*
D10*
G36*
X157482977Y-86599662D02*
G01*
X157496325Y-86601642D01*
X157509414Y-86604921D01*
X157522119Y-86609467D01*
X157534317Y-86615236D01*
X157545891Y-86622173D01*
X157556729Y-86630211D01*
X157566727Y-86639273D01*
X157575789Y-86649271D01*
X157583827Y-86660109D01*
X157590764Y-86671683D01*
X157596533Y-86683881D01*
X157601079Y-86696586D01*
X157604358Y-86709675D01*
X157606338Y-86723023D01*
X157607000Y-86736500D01*
X157607000Y-87011500D01*
X157606338Y-87024977D01*
X157604358Y-87038325D01*
X157601079Y-87051414D01*
X157596533Y-87064119D01*
X157590764Y-87076317D01*
X157583827Y-87087891D01*
X157575789Y-87098729D01*
X157566727Y-87108727D01*
X157556729Y-87117789D01*
X157545891Y-87125827D01*
X157534317Y-87132764D01*
X157522119Y-87138533D01*
X157509414Y-87143079D01*
X157496325Y-87146358D01*
X157482977Y-87148338D01*
X157469500Y-87149000D01*
X156219500Y-87149000D01*
X156206023Y-87148338D01*
X156192675Y-87146358D01*
X156179586Y-87143079D01*
X156166881Y-87138533D01*
X156154683Y-87132764D01*
X156143109Y-87125827D01*
X156132271Y-87117789D01*
X156122273Y-87108727D01*
X156113211Y-87098729D01*
X156105173Y-87087891D01*
X156098236Y-87076317D01*
X156092467Y-87064119D01*
X156087921Y-87051414D01*
X156084642Y-87038325D01*
X156082662Y-87024977D01*
X156082000Y-87011500D01*
X156082000Y-86736500D01*
X156082662Y-86723023D01*
X156084642Y-86709675D01*
X156087921Y-86696586D01*
X156092467Y-86683881D01*
X156098236Y-86671683D01*
X156105173Y-86660109D01*
X156113211Y-86649271D01*
X156122273Y-86639273D01*
X156132271Y-86630211D01*
X156143109Y-86622173D01*
X156154683Y-86615236D01*
X156166881Y-86609467D01*
X156179586Y-86604921D01*
X156192675Y-86601642D01*
X156206023Y-86599662D01*
X156219500Y-86599000D01*
X157469500Y-86599000D01*
X157482977Y-86599662D01*
X157482977Y-86599662D01*
G37*
D15*
X156844500Y-86874000D03*
D10*
G36*
X157482977Y-87399662D02*
G01*
X157496325Y-87401642D01*
X157509414Y-87404921D01*
X157522119Y-87409467D01*
X157534317Y-87415236D01*
X157545891Y-87422173D01*
X157556729Y-87430211D01*
X157566727Y-87439273D01*
X157575789Y-87449271D01*
X157583827Y-87460109D01*
X157590764Y-87471683D01*
X157596533Y-87483881D01*
X157601079Y-87496586D01*
X157604358Y-87509675D01*
X157606338Y-87523023D01*
X157607000Y-87536500D01*
X157607000Y-87811500D01*
X157606338Y-87824977D01*
X157604358Y-87838325D01*
X157601079Y-87851414D01*
X157596533Y-87864119D01*
X157590764Y-87876317D01*
X157583827Y-87887891D01*
X157575789Y-87898729D01*
X157566727Y-87908727D01*
X157556729Y-87917789D01*
X157545891Y-87925827D01*
X157534317Y-87932764D01*
X157522119Y-87938533D01*
X157509414Y-87943079D01*
X157496325Y-87946358D01*
X157482977Y-87948338D01*
X157469500Y-87949000D01*
X156219500Y-87949000D01*
X156206023Y-87948338D01*
X156192675Y-87946358D01*
X156179586Y-87943079D01*
X156166881Y-87938533D01*
X156154683Y-87932764D01*
X156143109Y-87925827D01*
X156132271Y-87917789D01*
X156122273Y-87908727D01*
X156113211Y-87898729D01*
X156105173Y-87887891D01*
X156098236Y-87876317D01*
X156092467Y-87864119D01*
X156087921Y-87851414D01*
X156084642Y-87838325D01*
X156082662Y-87824977D01*
X156082000Y-87811500D01*
X156082000Y-87536500D01*
X156082662Y-87523023D01*
X156084642Y-87509675D01*
X156087921Y-87496586D01*
X156092467Y-87483881D01*
X156098236Y-87471683D01*
X156105173Y-87460109D01*
X156113211Y-87449271D01*
X156122273Y-87439273D01*
X156132271Y-87430211D01*
X156143109Y-87422173D01*
X156154683Y-87415236D01*
X156166881Y-87409467D01*
X156179586Y-87404921D01*
X156192675Y-87401642D01*
X156206023Y-87399662D01*
X156219500Y-87399000D01*
X157469500Y-87399000D01*
X157482977Y-87399662D01*
X157482977Y-87399662D01*
G37*
D15*
X156844500Y-87674000D03*
D10*
G36*
X157482977Y-88199662D02*
G01*
X157496325Y-88201642D01*
X157509414Y-88204921D01*
X157522119Y-88209467D01*
X157534317Y-88215236D01*
X157545891Y-88222173D01*
X157556729Y-88230211D01*
X157566727Y-88239273D01*
X157575789Y-88249271D01*
X157583827Y-88260109D01*
X157590764Y-88271683D01*
X157596533Y-88283881D01*
X157601079Y-88296586D01*
X157604358Y-88309675D01*
X157606338Y-88323023D01*
X157607000Y-88336500D01*
X157607000Y-88611500D01*
X157606338Y-88624977D01*
X157604358Y-88638325D01*
X157601079Y-88651414D01*
X157596533Y-88664119D01*
X157590764Y-88676317D01*
X157583827Y-88687891D01*
X157575789Y-88698729D01*
X157566727Y-88708727D01*
X157556729Y-88717789D01*
X157545891Y-88725827D01*
X157534317Y-88732764D01*
X157522119Y-88738533D01*
X157509414Y-88743079D01*
X157496325Y-88746358D01*
X157482977Y-88748338D01*
X157469500Y-88749000D01*
X156219500Y-88749000D01*
X156206023Y-88748338D01*
X156192675Y-88746358D01*
X156179586Y-88743079D01*
X156166881Y-88738533D01*
X156154683Y-88732764D01*
X156143109Y-88725827D01*
X156132271Y-88717789D01*
X156122273Y-88708727D01*
X156113211Y-88698729D01*
X156105173Y-88687891D01*
X156098236Y-88676317D01*
X156092467Y-88664119D01*
X156087921Y-88651414D01*
X156084642Y-88638325D01*
X156082662Y-88624977D01*
X156082000Y-88611500D01*
X156082000Y-88336500D01*
X156082662Y-88323023D01*
X156084642Y-88309675D01*
X156087921Y-88296586D01*
X156092467Y-88283881D01*
X156098236Y-88271683D01*
X156105173Y-88260109D01*
X156113211Y-88249271D01*
X156122273Y-88239273D01*
X156132271Y-88230211D01*
X156143109Y-88222173D01*
X156154683Y-88215236D01*
X156166881Y-88209467D01*
X156179586Y-88204921D01*
X156192675Y-88201642D01*
X156206023Y-88199662D01*
X156219500Y-88199000D01*
X157469500Y-88199000D01*
X157482977Y-88199662D01*
X157482977Y-88199662D01*
G37*
D15*
X156844500Y-88474000D03*
D10*
G36*
X157482977Y-88999662D02*
G01*
X157496325Y-89001642D01*
X157509414Y-89004921D01*
X157522119Y-89009467D01*
X157534317Y-89015236D01*
X157545891Y-89022173D01*
X157556729Y-89030211D01*
X157566727Y-89039273D01*
X157575789Y-89049271D01*
X157583827Y-89060109D01*
X157590764Y-89071683D01*
X157596533Y-89083881D01*
X157601079Y-89096586D01*
X157604358Y-89109675D01*
X157606338Y-89123023D01*
X157607000Y-89136500D01*
X157607000Y-89411500D01*
X157606338Y-89424977D01*
X157604358Y-89438325D01*
X157601079Y-89451414D01*
X157596533Y-89464119D01*
X157590764Y-89476317D01*
X157583827Y-89487891D01*
X157575789Y-89498729D01*
X157566727Y-89508727D01*
X157556729Y-89517789D01*
X157545891Y-89525827D01*
X157534317Y-89532764D01*
X157522119Y-89538533D01*
X157509414Y-89543079D01*
X157496325Y-89546358D01*
X157482977Y-89548338D01*
X157469500Y-89549000D01*
X156219500Y-89549000D01*
X156206023Y-89548338D01*
X156192675Y-89546358D01*
X156179586Y-89543079D01*
X156166881Y-89538533D01*
X156154683Y-89532764D01*
X156143109Y-89525827D01*
X156132271Y-89517789D01*
X156122273Y-89508727D01*
X156113211Y-89498729D01*
X156105173Y-89487891D01*
X156098236Y-89476317D01*
X156092467Y-89464119D01*
X156087921Y-89451414D01*
X156084642Y-89438325D01*
X156082662Y-89424977D01*
X156082000Y-89411500D01*
X156082000Y-89136500D01*
X156082662Y-89123023D01*
X156084642Y-89109675D01*
X156087921Y-89096586D01*
X156092467Y-89083881D01*
X156098236Y-89071683D01*
X156105173Y-89060109D01*
X156113211Y-89049271D01*
X156122273Y-89039273D01*
X156132271Y-89030211D01*
X156143109Y-89022173D01*
X156154683Y-89015236D01*
X156166881Y-89009467D01*
X156179586Y-89004921D01*
X156192675Y-89001642D01*
X156206023Y-88999662D01*
X156219500Y-88999000D01*
X157469500Y-88999000D01*
X157482977Y-88999662D01*
X157482977Y-88999662D01*
G37*
D15*
X156844500Y-89274000D03*
D10*
G36*
X157482977Y-89799662D02*
G01*
X157496325Y-89801642D01*
X157509414Y-89804921D01*
X157522119Y-89809467D01*
X157534317Y-89815236D01*
X157545891Y-89822173D01*
X157556729Y-89830211D01*
X157566727Y-89839273D01*
X157575789Y-89849271D01*
X157583827Y-89860109D01*
X157590764Y-89871683D01*
X157596533Y-89883881D01*
X157601079Y-89896586D01*
X157604358Y-89909675D01*
X157606338Y-89923023D01*
X157607000Y-89936500D01*
X157607000Y-90211500D01*
X157606338Y-90224977D01*
X157604358Y-90238325D01*
X157601079Y-90251414D01*
X157596533Y-90264119D01*
X157590764Y-90276317D01*
X157583827Y-90287891D01*
X157575789Y-90298729D01*
X157566727Y-90308727D01*
X157556729Y-90317789D01*
X157545891Y-90325827D01*
X157534317Y-90332764D01*
X157522119Y-90338533D01*
X157509414Y-90343079D01*
X157496325Y-90346358D01*
X157482977Y-90348338D01*
X157469500Y-90349000D01*
X156219500Y-90349000D01*
X156206023Y-90348338D01*
X156192675Y-90346358D01*
X156179586Y-90343079D01*
X156166881Y-90338533D01*
X156154683Y-90332764D01*
X156143109Y-90325827D01*
X156132271Y-90317789D01*
X156122273Y-90308727D01*
X156113211Y-90298729D01*
X156105173Y-90287891D01*
X156098236Y-90276317D01*
X156092467Y-90264119D01*
X156087921Y-90251414D01*
X156084642Y-90238325D01*
X156082662Y-90224977D01*
X156082000Y-90211500D01*
X156082000Y-89936500D01*
X156082662Y-89923023D01*
X156084642Y-89909675D01*
X156087921Y-89896586D01*
X156092467Y-89883881D01*
X156098236Y-89871683D01*
X156105173Y-89860109D01*
X156113211Y-89849271D01*
X156122273Y-89839273D01*
X156132271Y-89830211D01*
X156143109Y-89822173D01*
X156154683Y-89815236D01*
X156166881Y-89809467D01*
X156179586Y-89804921D01*
X156192675Y-89801642D01*
X156206023Y-89799662D01*
X156219500Y-89799000D01*
X157469500Y-89799000D01*
X157482977Y-89799662D01*
X157482977Y-89799662D01*
G37*
D15*
X156844500Y-90074000D03*
D10*
G36*
X157482977Y-90599662D02*
G01*
X157496325Y-90601642D01*
X157509414Y-90604921D01*
X157522119Y-90609467D01*
X157534317Y-90615236D01*
X157545891Y-90622173D01*
X157556729Y-90630211D01*
X157566727Y-90639273D01*
X157575789Y-90649271D01*
X157583827Y-90660109D01*
X157590764Y-90671683D01*
X157596533Y-90683881D01*
X157601079Y-90696586D01*
X157604358Y-90709675D01*
X157606338Y-90723023D01*
X157607000Y-90736500D01*
X157607000Y-91011500D01*
X157606338Y-91024977D01*
X157604358Y-91038325D01*
X157601079Y-91051414D01*
X157596533Y-91064119D01*
X157590764Y-91076317D01*
X157583827Y-91087891D01*
X157575789Y-91098729D01*
X157566727Y-91108727D01*
X157556729Y-91117789D01*
X157545891Y-91125827D01*
X157534317Y-91132764D01*
X157522119Y-91138533D01*
X157509414Y-91143079D01*
X157496325Y-91146358D01*
X157482977Y-91148338D01*
X157469500Y-91149000D01*
X156219500Y-91149000D01*
X156206023Y-91148338D01*
X156192675Y-91146358D01*
X156179586Y-91143079D01*
X156166881Y-91138533D01*
X156154683Y-91132764D01*
X156143109Y-91125827D01*
X156132271Y-91117789D01*
X156122273Y-91108727D01*
X156113211Y-91098729D01*
X156105173Y-91087891D01*
X156098236Y-91076317D01*
X156092467Y-91064119D01*
X156087921Y-91051414D01*
X156084642Y-91038325D01*
X156082662Y-91024977D01*
X156082000Y-91011500D01*
X156082000Y-90736500D01*
X156082662Y-90723023D01*
X156084642Y-90709675D01*
X156087921Y-90696586D01*
X156092467Y-90683881D01*
X156098236Y-90671683D01*
X156105173Y-90660109D01*
X156113211Y-90649271D01*
X156122273Y-90639273D01*
X156132271Y-90630211D01*
X156143109Y-90622173D01*
X156154683Y-90615236D01*
X156166881Y-90609467D01*
X156179586Y-90604921D01*
X156192675Y-90601642D01*
X156206023Y-90599662D01*
X156219500Y-90599000D01*
X157469500Y-90599000D01*
X157482977Y-90599662D01*
X157482977Y-90599662D01*
G37*
D15*
X156844500Y-90874000D03*
D10*
G36*
X157482977Y-91399662D02*
G01*
X157496325Y-91401642D01*
X157509414Y-91404921D01*
X157522119Y-91409467D01*
X157534317Y-91415236D01*
X157545891Y-91422173D01*
X157556729Y-91430211D01*
X157566727Y-91439273D01*
X157575789Y-91449271D01*
X157583827Y-91460109D01*
X157590764Y-91471683D01*
X157596533Y-91483881D01*
X157601079Y-91496586D01*
X157604358Y-91509675D01*
X157606338Y-91523023D01*
X157607000Y-91536500D01*
X157607000Y-91811500D01*
X157606338Y-91824977D01*
X157604358Y-91838325D01*
X157601079Y-91851414D01*
X157596533Y-91864119D01*
X157590764Y-91876317D01*
X157583827Y-91887891D01*
X157575789Y-91898729D01*
X157566727Y-91908727D01*
X157556729Y-91917789D01*
X157545891Y-91925827D01*
X157534317Y-91932764D01*
X157522119Y-91938533D01*
X157509414Y-91943079D01*
X157496325Y-91946358D01*
X157482977Y-91948338D01*
X157469500Y-91949000D01*
X156219500Y-91949000D01*
X156206023Y-91948338D01*
X156192675Y-91946358D01*
X156179586Y-91943079D01*
X156166881Y-91938533D01*
X156154683Y-91932764D01*
X156143109Y-91925827D01*
X156132271Y-91917789D01*
X156122273Y-91908727D01*
X156113211Y-91898729D01*
X156105173Y-91887891D01*
X156098236Y-91876317D01*
X156092467Y-91864119D01*
X156087921Y-91851414D01*
X156084642Y-91838325D01*
X156082662Y-91824977D01*
X156082000Y-91811500D01*
X156082000Y-91536500D01*
X156082662Y-91523023D01*
X156084642Y-91509675D01*
X156087921Y-91496586D01*
X156092467Y-91483881D01*
X156098236Y-91471683D01*
X156105173Y-91460109D01*
X156113211Y-91449271D01*
X156122273Y-91439273D01*
X156132271Y-91430211D01*
X156143109Y-91422173D01*
X156154683Y-91415236D01*
X156166881Y-91409467D01*
X156179586Y-91404921D01*
X156192675Y-91401642D01*
X156206023Y-91399662D01*
X156219500Y-91399000D01*
X157469500Y-91399000D01*
X157482977Y-91399662D01*
X157482977Y-91399662D01*
G37*
D15*
X156844500Y-91674000D03*
D10*
G36*
X157482977Y-92199662D02*
G01*
X157496325Y-92201642D01*
X157509414Y-92204921D01*
X157522119Y-92209467D01*
X157534317Y-92215236D01*
X157545891Y-92222173D01*
X157556729Y-92230211D01*
X157566727Y-92239273D01*
X157575789Y-92249271D01*
X157583827Y-92260109D01*
X157590764Y-92271683D01*
X157596533Y-92283881D01*
X157601079Y-92296586D01*
X157604358Y-92309675D01*
X157606338Y-92323023D01*
X157607000Y-92336500D01*
X157607000Y-92611500D01*
X157606338Y-92624977D01*
X157604358Y-92638325D01*
X157601079Y-92651414D01*
X157596533Y-92664119D01*
X157590764Y-92676317D01*
X157583827Y-92687891D01*
X157575789Y-92698729D01*
X157566727Y-92708727D01*
X157556729Y-92717789D01*
X157545891Y-92725827D01*
X157534317Y-92732764D01*
X157522119Y-92738533D01*
X157509414Y-92743079D01*
X157496325Y-92746358D01*
X157482977Y-92748338D01*
X157469500Y-92749000D01*
X156219500Y-92749000D01*
X156206023Y-92748338D01*
X156192675Y-92746358D01*
X156179586Y-92743079D01*
X156166881Y-92738533D01*
X156154683Y-92732764D01*
X156143109Y-92725827D01*
X156132271Y-92717789D01*
X156122273Y-92708727D01*
X156113211Y-92698729D01*
X156105173Y-92687891D01*
X156098236Y-92676317D01*
X156092467Y-92664119D01*
X156087921Y-92651414D01*
X156084642Y-92638325D01*
X156082662Y-92624977D01*
X156082000Y-92611500D01*
X156082000Y-92336500D01*
X156082662Y-92323023D01*
X156084642Y-92309675D01*
X156087921Y-92296586D01*
X156092467Y-92283881D01*
X156098236Y-92271683D01*
X156105173Y-92260109D01*
X156113211Y-92249271D01*
X156122273Y-92239273D01*
X156132271Y-92230211D01*
X156143109Y-92222173D01*
X156154683Y-92215236D01*
X156166881Y-92209467D01*
X156179586Y-92204921D01*
X156192675Y-92201642D01*
X156206023Y-92199662D01*
X156219500Y-92199000D01*
X157469500Y-92199000D01*
X157482977Y-92199662D01*
X157482977Y-92199662D01*
G37*
D15*
X156844500Y-92474000D03*
D10*
G36*
X146307977Y-92199662D02*
G01*
X146321325Y-92201642D01*
X146334414Y-92204921D01*
X146347119Y-92209467D01*
X146359317Y-92215236D01*
X146370891Y-92222173D01*
X146381729Y-92230211D01*
X146391727Y-92239273D01*
X146400789Y-92249271D01*
X146408827Y-92260109D01*
X146415764Y-92271683D01*
X146421533Y-92283881D01*
X146426079Y-92296586D01*
X146429358Y-92309675D01*
X146431338Y-92323023D01*
X146432000Y-92336500D01*
X146432000Y-92611500D01*
X146431338Y-92624977D01*
X146429358Y-92638325D01*
X146426079Y-92651414D01*
X146421533Y-92664119D01*
X146415764Y-92676317D01*
X146408827Y-92687891D01*
X146400789Y-92698729D01*
X146391727Y-92708727D01*
X146381729Y-92717789D01*
X146370891Y-92725827D01*
X146359317Y-92732764D01*
X146347119Y-92738533D01*
X146334414Y-92743079D01*
X146321325Y-92746358D01*
X146307977Y-92748338D01*
X146294500Y-92749000D01*
X145044500Y-92749000D01*
X145031023Y-92748338D01*
X145017675Y-92746358D01*
X145004586Y-92743079D01*
X144991881Y-92738533D01*
X144979683Y-92732764D01*
X144968109Y-92725827D01*
X144957271Y-92717789D01*
X144947273Y-92708727D01*
X144938211Y-92698729D01*
X144930173Y-92687891D01*
X144923236Y-92676317D01*
X144917467Y-92664119D01*
X144912921Y-92651414D01*
X144909642Y-92638325D01*
X144907662Y-92624977D01*
X144907000Y-92611500D01*
X144907000Y-92336500D01*
X144907662Y-92323023D01*
X144909642Y-92309675D01*
X144912921Y-92296586D01*
X144917467Y-92283881D01*
X144923236Y-92271683D01*
X144930173Y-92260109D01*
X144938211Y-92249271D01*
X144947273Y-92239273D01*
X144957271Y-92230211D01*
X144968109Y-92222173D01*
X144979683Y-92215236D01*
X144991881Y-92209467D01*
X145004586Y-92204921D01*
X145017675Y-92201642D01*
X145031023Y-92199662D01*
X145044500Y-92199000D01*
X146294500Y-92199000D01*
X146307977Y-92199662D01*
X146307977Y-92199662D01*
G37*
D15*
X145669500Y-92474000D03*
D10*
G36*
X146307977Y-91399662D02*
G01*
X146321325Y-91401642D01*
X146334414Y-91404921D01*
X146347119Y-91409467D01*
X146359317Y-91415236D01*
X146370891Y-91422173D01*
X146381729Y-91430211D01*
X146391727Y-91439273D01*
X146400789Y-91449271D01*
X146408827Y-91460109D01*
X146415764Y-91471683D01*
X146421533Y-91483881D01*
X146426079Y-91496586D01*
X146429358Y-91509675D01*
X146431338Y-91523023D01*
X146432000Y-91536500D01*
X146432000Y-91811500D01*
X146431338Y-91824977D01*
X146429358Y-91838325D01*
X146426079Y-91851414D01*
X146421533Y-91864119D01*
X146415764Y-91876317D01*
X146408827Y-91887891D01*
X146400789Y-91898729D01*
X146391727Y-91908727D01*
X146381729Y-91917789D01*
X146370891Y-91925827D01*
X146359317Y-91932764D01*
X146347119Y-91938533D01*
X146334414Y-91943079D01*
X146321325Y-91946358D01*
X146307977Y-91948338D01*
X146294500Y-91949000D01*
X145044500Y-91949000D01*
X145031023Y-91948338D01*
X145017675Y-91946358D01*
X145004586Y-91943079D01*
X144991881Y-91938533D01*
X144979683Y-91932764D01*
X144968109Y-91925827D01*
X144957271Y-91917789D01*
X144947273Y-91908727D01*
X144938211Y-91898729D01*
X144930173Y-91887891D01*
X144923236Y-91876317D01*
X144917467Y-91864119D01*
X144912921Y-91851414D01*
X144909642Y-91838325D01*
X144907662Y-91824977D01*
X144907000Y-91811500D01*
X144907000Y-91536500D01*
X144907662Y-91523023D01*
X144909642Y-91509675D01*
X144912921Y-91496586D01*
X144917467Y-91483881D01*
X144923236Y-91471683D01*
X144930173Y-91460109D01*
X144938211Y-91449271D01*
X144947273Y-91439273D01*
X144957271Y-91430211D01*
X144968109Y-91422173D01*
X144979683Y-91415236D01*
X144991881Y-91409467D01*
X145004586Y-91404921D01*
X145017675Y-91401642D01*
X145031023Y-91399662D01*
X145044500Y-91399000D01*
X146294500Y-91399000D01*
X146307977Y-91399662D01*
X146307977Y-91399662D01*
G37*
D15*
X145669500Y-91674000D03*
D10*
G36*
X146307977Y-90599662D02*
G01*
X146321325Y-90601642D01*
X146334414Y-90604921D01*
X146347119Y-90609467D01*
X146359317Y-90615236D01*
X146370891Y-90622173D01*
X146381729Y-90630211D01*
X146391727Y-90639273D01*
X146400789Y-90649271D01*
X146408827Y-90660109D01*
X146415764Y-90671683D01*
X146421533Y-90683881D01*
X146426079Y-90696586D01*
X146429358Y-90709675D01*
X146431338Y-90723023D01*
X146432000Y-90736500D01*
X146432000Y-91011500D01*
X146431338Y-91024977D01*
X146429358Y-91038325D01*
X146426079Y-91051414D01*
X146421533Y-91064119D01*
X146415764Y-91076317D01*
X146408827Y-91087891D01*
X146400789Y-91098729D01*
X146391727Y-91108727D01*
X146381729Y-91117789D01*
X146370891Y-91125827D01*
X146359317Y-91132764D01*
X146347119Y-91138533D01*
X146334414Y-91143079D01*
X146321325Y-91146358D01*
X146307977Y-91148338D01*
X146294500Y-91149000D01*
X145044500Y-91149000D01*
X145031023Y-91148338D01*
X145017675Y-91146358D01*
X145004586Y-91143079D01*
X144991881Y-91138533D01*
X144979683Y-91132764D01*
X144968109Y-91125827D01*
X144957271Y-91117789D01*
X144947273Y-91108727D01*
X144938211Y-91098729D01*
X144930173Y-91087891D01*
X144923236Y-91076317D01*
X144917467Y-91064119D01*
X144912921Y-91051414D01*
X144909642Y-91038325D01*
X144907662Y-91024977D01*
X144907000Y-91011500D01*
X144907000Y-90736500D01*
X144907662Y-90723023D01*
X144909642Y-90709675D01*
X144912921Y-90696586D01*
X144917467Y-90683881D01*
X144923236Y-90671683D01*
X144930173Y-90660109D01*
X144938211Y-90649271D01*
X144947273Y-90639273D01*
X144957271Y-90630211D01*
X144968109Y-90622173D01*
X144979683Y-90615236D01*
X144991881Y-90609467D01*
X145004586Y-90604921D01*
X145017675Y-90601642D01*
X145031023Y-90599662D01*
X145044500Y-90599000D01*
X146294500Y-90599000D01*
X146307977Y-90599662D01*
X146307977Y-90599662D01*
G37*
D15*
X145669500Y-90874000D03*
D10*
G36*
X146307977Y-89799662D02*
G01*
X146321325Y-89801642D01*
X146334414Y-89804921D01*
X146347119Y-89809467D01*
X146359317Y-89815236D01*
X146370891Y-89822173D01*
X146381729Y-89830211D01*
X146391727Y-89839273D01*
X146400789Y-89849271D01*
X146408827Y-89860109D01*
X146415764Y-89871683D01*
X146421533Y-89883881D01*
X146426079Y-89896586D01*
X146429358Y-89909675D01*
X146431338Y-89923023D01*
X146432000Y-89936500D01*
X146432000Y-90211500D01*
X146431338Y-90224977D01*
X146429358Y-90238325D01*
X146426079Y-90251414D01*
X146421533Y-90264119D01*
X146415764Y-90276317D01*
X146408827Y-90287891D01*
X146400789Y-90298729D01*
X146391727Y-90308727D01*
X146381729Y-90317789D01*
X146370891Y-90325827D01*
X146359317Y-90332764D01*
X146347119Y-90338533D01*
X146334414Y-90343079D01*
X146321325Y-90346358D01*
X146307977Y-90348338D01*
X146294500Y-90349000D01*
X145044500Y-90349000D01*
X145031023Y-90348338D01*
X145017675Y-90346358D01*
X145004586Y-90343079D01*
X144991881Y-90338533D01*
X144979683Y-90332764D01*
X144968109Y-90325827D01*
X144957271Y-90317789D01*
X144947273Y-90308727D01*
X144938211Y-90298729D01*
X144930173Y-90287891D01*
X144923236Y-90276317D01*
X144917467Y-90264119D01*
X144912921Y-90251414D01*
X144909642Y-90238325D01*
X144907662Y-90224977D01*
X144907000Y-90211500D01*
X144907000Y-89936500D01*
X144907662Y-89923023D01*
X144909642Y-89909675D01*
X144912921Y-89896586D01*
X144917467Y-89883881D01*
X144923236Y-89871683D01*
X144930173Y-89860109D01*
X144938211Y-89849271D01*
X144947273Y-89839273D01*
X144957271Y-89830211D01*
X144968109Y-89822173D01*
X144979683Y-89815236D01*
X144991881Y-89809467D01*
X145004586Y-89804921D01*
X145017675Y-89801642D01*
X145031023Y-89799662D01*
X145044500Y-89799000D01*
X146294500Y-89799000D01*
X146307977Y-89799662D01*
X146307977Y-89799662D01*
G37*
D15*
X145669500Y-90074000D03*
D10*
G36*
X146307977Y-88999662D02*
G01*
X146321325Y-89001642D01*
X146334414Y-89004921D01*
X146347119Y-89009467D01*
X146359317Y-89015236D01*
X146370891Y-89022173D01*
X146381729Y-89030211D01*
X146391727Y-89039273D01*
X146400789Y-89049271D01*
X146408827Y-89060109D01*
X146415764Y-89071683D01*
X146421533Y-89083881D01*
X146426079Y-89096586D01*
X146429358Y-89109675D01*
X146431338Y-89123023D01*
X146432000Y-89136500D01*
X146432000Y-89411500D01*
X146431338Y-89424977D01*
X146429358Y-89438325D01*
X146426079Y-89451414D01*
X146421533Y-89464119D01*
X146415764Y-89476317D01*
X146408827Y-89487891D01*
X146400789Y-89498729D01*
X146391727Y-89508727D01*
X146381729Y-89517789D01*
X146370891Y-89525827D01*
X146359317Y-89532764D01*
X146347119Y-89538533D01*
X146334414Y-89543079D01*
X146321325Y-89546358D01*
X146307977Y-89548338D01*
X146294500Y-89549000D01*
X145044500Y-89549000D01*
X145031023Y-89548338D01*
X145017675Y-89546358D01*
X145004586Y-89543079D01*
X144991881Y-89538533D01*
X144979683Y-89532764D01*
X144968109Y-89525827D01*
X144957271Y-89517789D01*
X144947273Y-89508727D01*
X144938211Y-89498729D01*
X144930173Y-89487891D01*
X144923236Y-89476317D01*
X144917467Y-89464119D01*
X144912921Y-89451414D01*
X144909642Y-89438325D01*
X144907662Y-89424977D01*
X144907000Y-89411500D01*
X144907000Y-89136500D01*
X144907662Y-89123023D01*
X144909642Y-89109675D01*
X144912921Y-89096586D01*
X144917467Y-89083881D01*
X144923236Y-89071683D01*
X144930173Y-89060109D01*
X144938211Y-89049271D01*
X144947273Y-89039273D01*
X144957271Y-89030211D01*
X144968109Y-89022173D01*
X144979683Y-89015236D01*
X144991881Y-89009467D01*
X145004586Y-89004921D01*
X145017675Y-89001642D01*
X145031023Y-88999662D01*
X145044500Y-88999000D01*
X146294500Y-88999000D01*
X146307977Y-88999662D01*
X146307977Y-88999662D01*
G37*
D15*
X145669500Y-89274000D03*
D10*
G36*
X146307977Y-88199662D02*
G01*
X146321325Y-88201642D01*
X146334414Y-88204921D01*
X146347119Y-88209467D01*
X146359317Y-88215236D01*
X146370891Y-88222173D01*
X146381729Y-88230211D01*
X146391727Y-88239273D01*
X146400789Y-88249271D01*
X146408827Y-88260109D01*
X146415764Y-88271683D01*
X146421533Y-88283881D01*
X146426079Y-88296586D01*
X146429358Y-88309675D01*
X146431338Y-88323023D01*
X146432000Y-88336500D01*
X146432000Y-88611500D01*
X146431338Y-88624977D01*
X146429358Y-88638325D01*
X146426079Y-88651414D01*
X146421533Y-88664119D01*
X146415764Y-88676317D01*
X146408827Y-88687891D01*
X146400789Y-88698729D01*
X146391727Y-88708727D01*
X146381729Y-88717789D01*
X146370891Y-88725827D01*
X146359317Y-88732764D01*
X146347119Y-88738533D01*
X146334414Y-88743079D01*
X146321325Y-88746358D01*
X146307977Y-88748338D01*
X146294500Y-88749000D01*
X145044500Y-88749000D01*
X145031023Y-88748338D01*
X145017675Y-88746358D01*
X145004586Y-88743079D01*
X144991881Y-88738533D01*
X144979683Y-88732764D01*
X144968109Y-88725827D01*
X144957271Y-88717789D01*
X144947273Y-88708727D01*
X144938211Y-88698729D01*
X144930173Y-88687891D01*
X144923236Y-88676317D01*
X144917467Y-88664119D01*
X144912921Y-88651414D01*
X144909642Y-88638325D01*
X144907662Y-88624977D01*
X144907000Y-88611500D01*
X144907000Y-88336500D01*
X144907662Y-88323023D01*
X144909642Y-88309675D01*
X144912921Y-88296586D01*
X144917467Y-88283881D01*
X144923236Y-88271683D01*
X144930173Y-88260109D01*
X144938211Y-88249271D01*
X144947273Y-88239273D01*
X144957271Y-88230211D01*
X144968109Y-88222173D01*
X144979683Y-88215236D01*
X144991881Y-88209467D01*
X145004586Y-88204921D01*
X145017675Y-88201642D01*
X145031023Y-88199662D01*
X145044500Y-88199000D01*
X146294500Y-88199000D01*
X146307977Y-88199662D01*
X146307977Y-88199662D01*
G37*
D15*
X145669500Y-88474000D03*
D10*
G36*
X146307977Y-87399662D02*
G01*
X146321325Y-87401642D01*
X146334414Y-87404921D01*
X146347119Y-87409467D01*
X146359317Y-87415236D01*
X146370891Y-87422173D01*
X146381729Y-87430211D01*
X146391727Y-87439273D01*
X146400789Y-87449271D01*
X146408827Y-87460109D01*
X146415764Y-87471683D01*
X146421533Y-87483881D01*
X146426079Y-87496586D01*
X146429358Y-87509675D01*
X146431338Y-87523023D01*
X146432000Y-87536500D01*
X146432000Y-87811500D01*
X146431338Y-87824977D01*
X146429358Y-87838325D01*
X146426079Y-87851414D01*
X146421533Y-87864119D01*
X146415764Y-87876317D01*
X146408827Y-87887891D01*
X146400789Y-87898729D01*
X146391727Y-87908727D01*
X146381729Y-87917789D01*
X146370891Y-87925827D01*
X146359317Y-87932764D01*
X146347119Y-87938533D01*
X146334414Y-87943079D01*
X146321325Y-87946358D01*
X146307977Y-87948338D01*
X146294500Y-87949000D01*
X145044500Y-87949000D01*
X145031023Y-87948338D01*
X145017675Y-87946358D01*
X145004586Y-87943079D01*
X144991881Y-87938533D01*
X144979683Y-87932764D01*
X144968109Y-87925827D01*
X144957271Y-87917789D01*
X144947273Y-87908727D01*
X144938211Y-87898729D01*
X144930173Y-87887891D01*
X144923236Y-87876317D01*
X144917467Y-87864119D01*
X144912921Y-87851414D01*
X144909642Y-87838325D01*
X144907662Y-87824977D01*
X144907000Y-87811500D01*
X144907000Y-87536500D01*
X144907662Y-87523023D01*
X144909642Y-87509675D01*
X144912921Y-87496586D01*
X144917467Y-87483881D01*
X144923236Y-87471683D01*
X144930173Y-87460109D01*
X144938211Y-87449271D01*
X144947273Y-87439273D01*
X144957271Y-87430211D01*
X144968109Y-87422173D01*
X144979683Y-87415236D01*
X144991881Y-87409467D01*
X145004586Y-87404921D01*
X145017675Y-87401642D01*
X145031023Y-87399662D01*
X145044500Y-87399000D01*
X146294500Y-87399000D01*
X146307977Y-87399662D01*
X146307977Y-87399662D01*
G37*
D15*
X145669500Y-87674000D03*
D10*
G36*
X146307977Y-86599662D02*
G01*
X146321325Y-86601642D01*
X146334414Y-86604921D01*
X146347119Y-86609467D01*
X146359317Y-86615236D01*
X146370891Y-86622173D01*
X146381729Y-86630211D01*
X146391727Y-86639273D01*
X146400789Y-86649271D01*
X146408827Y-86660109D01*
X146415764Y-86671683D01*
X146421533Y-86683881D01*
X146426079Y-86696586D01*
X146429358Y-86709675D01*
X146431338Y-86723023D01*
X146432000Y-86736500D01*
X146432000Y-87011500D01*
X146431338Y-87024977D01*
X146429358Y-87038325D01*
X146426079Y-87051414D01*
X146421533Y-87064119D01*
X146415764Y-87076317D01*
X146408827Y-87087891D01*
X146400789Y-87098729D01*
X146391727Y-87108727D01*
X146381729Y-87117789D01*
X146370891Y-87125827D01*
X146359317Y-87132764D01*
X146347119Y-87138533D01*
X146334414Y-87143079D01*
X146321325Y-87146358D01*
X146307977Y-87148338D01*
X146294500Y-87149000D01*
X145044500Y-87149000D01*
X145031023Y-87148338D01*
X145017675Y-87146358D01*
X145004586Y-87143079D01*
X144991881Y-87138533D01*
X144979683Y-87132764D01*
X144968109Y-87125827D01*
X144957271Y-87117789D01*
X144947273Y-87108727D01*
X144938211Y-87098729D01*
X144930173Y-87087891D01*
X144923236Y-87076317D01*
X144917467Y-87064119D01*
X144912921Y-87051414D01*
X144909642Y-87038325D01*
X144907662Y-87024977D01*
X144907000Y-87011500D01*
X144907000Y-86736500D01*
X144907662Y-86723023D01*
X144909642Y-86709675D01*
X144912921Y-86696586D01*
X144917467Y-86683881D01*
X144923236Y-86671683D01*
X144930173Y-86660109D01*
X144938211Y-86649271D01*
X144947273Y-86639273D01*
X144957271Y-86630211D01*
X144968109Y-86622173D01*
X144979683Y-86615236D01*
X144991881Y-86609467D01*
X145004586Y-86604921D01*
X145017675Y-86601642D01*
X145031023Y-86599662D01*
X145044500Y-86599000D01*
X146294500Y-86599000D01*
X146307977Y-86599662D01*
X146307977Y-86599662D01*
G37*
D15*
X145669500Y-86874000D03*
D10*
G36*
X146307977Y-85799662D02*
G01*
X146321325Y-85801642D01*
X146334414Y-85804921D01*
X146347119Y-85809467D01*
X146359317Y-85815236D01*
X146370891Y-85822173D01*
X146381729Y-85830211D01*
X146391727Y-85839273D01*
X146400789Y-85849271D01*
X146408827Y-85860109D01*
X146415764Y-85871683D01*
X146421533Y-85883881D01*
X146426079Y-85896586D01*
X146429358Y-85909675D01*
X146431338Y-85923023D01*
X146432000Y-85936500D01*
X146432000Y-86211500D01*
X146431338Y-86224977D01*
X146429358Y-86238325D01*
X146426079Y-86251414D01*
X146421533Y-86264119D01*
X146415764Y-86276317D01*
X146408827Y-86287891D01*
X146400789Y-86298729D01*
X146391727Y-86308727D01*
X146381729Y-86317789D01*
X146370891Y-86325827D01*
X146359317Y-86332764D01*
X146347119Y-86338533D01*
X146334414Y-86343079D01*
X146321325Y-86346358D01*
X146307977Y-86348338D01*
X146294500Y-86349000D01*
X145044500Y-86349000D01*
X145031023Y-86348338D01*
X145017675Y-86346358D01*
X145004586Y-86343079D01*
X144991881Y-86338533D01*
X144979683Y-86332764D01*
X144968109Y-86325827D01*
X144957271Y-86317789D01*
X144947273Y-86308727D01*
X144938211Y-86298729D01*
X144930173Y-86287891D01*
X144923236Y-86276317D01*
X144917467Y-86264119D01*
X144912921Y-86251414D01*
X144909642Y-86238325D01*
X144907662Y-86224977D01*
X144907000Y-86211500D01*
X144907000Y-85936500D01*
X144907662Y-85923023D01*
X144909642Y-85909675D01*
X144912921Y-85896586D01*
X144917467Y-85883881D01*
X144923236Y-85871683D01*
X144930173Y-85860109D01*
X144938211Y-85849271D01*
X144947273Y-85839273D01*
X144957271Y-85830211D01*
X144968109Y-85822173D01*
X144979683Y-85815236D01*
X144991881Y-85809467D01*
X145004586Y-85804921D01*
X145017675Y-85801642D01*
X145031023Y-85799662D01*
X145044500Y-85799000D01*
X146294500Y-85799000D01*
X146307977Y-85799662D01*
X146307977Y-85799662D01*
G37*
D15*
X145669500Y-86074000D03*
D10*
G36*
X146307977Y-84999662D02*
G01*
X146321325Y-85001642D01*
X146334414Y-85004921D01*
X146347119Y-85009467D01*
X146359317Y-85015236D01*
X146370891Y-85022173D01*
X146381729Y-85030211D01*
X146391727Y-85039273D01*
X146400789Y-85049271D01*
X146408827Y-85060109D01*
X146415764Y-85071683D01*
X146421533Y-85083881D01*
X146426079Y-85096586D01*
X146429358Y-85109675D01*
X146431338Y-85123023D01*
X146432000Y-85136500D01*
X146432000Y-85411500D01*
X146431338Y-85424977D01*
X146429358Y-85438325D01*
X146426079Y-85451414D01*
X146421533Y-85464119D01*
X146415764Y-85476317D01*
X146408827Y-85487891D01*
X146400789Y-85498729D01*
X146391727Y-85508727D01*
X146381729Y-85517789D01*
X146370891Y-85525827D01*
X146359317Y-85532764D01*
X146347119Y-85538533D01*
X146334414Y-85543079D01*
X146321325Y-85546358D01*
X146307977Y-85548338D01*
X146294500Y-85549000D01*
X145044500Y-85549000D01*
X145031023Y-85548338D01*
X145017675Y-85546358D01*
X145004586Y-85543079D01*
X144991881Y-85538533D01*
X144979683Y-85532764D01*
X144968109Y-85525827D01*
X144957271Y-85517789D01*
X144947273Y-85508727D01*
X144938211Y-85498729D01*
X144930173Y-85487891D01*
X144923236Y-85476317D01*
X144917467Y-85464119D01*
X144912921Y-85451414D01*
X144909642Y-85438325D01*
X144907662Y-85424977D01*
X144907000Y-85411500D01*
X144907000Y-85136500D01*
X144907662Y-85123023D01*
X144909642Y-85109675D01*
X144912921Y-85096586D01*
X144917467Y-85083881D01*
X144923236Y-85071683D01*
X144930173Y-85060109D01*
X144938211Y-85049271D01*
X144947273Y-85039273D01*
X144957271Y-85030211D01*
X144968109Y-85022173D01*
X144979683Y-85015236D01*
X144991881Y-85009467D01*
X145004586Y-85004921D01*
X145017675Y-85001642D01*
X145031023Y-84999662D01*
X145044500Y-84999000D01*
X146294500Y-84999000D01*
X146307977Y-84999662D01*
X146307977Y-84999662D01*
G37*
D15*
X145669500Y-85274000D03*
D10*
G36*
X146307977Y-84199662D02*
G01*
X146321325Y-84201642D01*
X146334414Y-84204921D01*
X146347119Y-84209467D01*
X146359317Y-84215236D01*
X146370891Y-84222173D01*
X146381729Y-84230211D01*
X146391727Y-84239273D01*
X146400789Y-84249271D01*
X146408827Y-84260109D01*
X146415764Y-84271683D01*
X146421533Y-84283881D01*
X146426079Y-84296586D01*
X146429358Y-84309675D01*
X146431338Y-84323023D01*
X146432000Y-84336500D01*
X146432000Y-84611500D01*
X146431338Y-84624977D01*
X146429358Y-84638325D01*
X146426079Y-84651414D01*
X146421533Y-84664119D01*
X146415764Y-84676317D01*
X146408827Y-84687891D01*
X146400789Y-84698729D01*
X146391727Y-84708727D01*
X146381729Y-84717789D01*
X146370891Y-84725827D01*
X146359317Y-84732764D01*
X146347119Y-84738533D01*
X146334414Y-84743079D01*
X146321325Y-84746358D01*
X146307977Y-84748338D01*
X146294500Y-84749000D01*
X145044500Y-84749000D01*
X145031023Y-84748338D01*
X145017675Y-84746358D01*
X145004586Y-84743079D01*
X144991881Y-84738533D01*
X144979683Y-84732764D01*
X144968109Y-84725827D01*
X144957271Y-84717789D01*
X144947273Y-84708727D01*
X144938211Y-84698729D01*
X144930173Y-84687891D01*
X144923236Y-84676317D01*
X144917467Y-84664119D01*
X144912921Y-84651414D01*
X144909642Y-84638325D01*
X144907662Y-84624977D01*
X144907000Y-84611500D01*
X144907000Y-84336500D01*
X144907662Y-84323023D01*
X144909642Y-84309675D01*
X144912921Y-84296586D01*
X144917467Y-84283881D01*
X144923236Y-84271683D01*
X144930173Y-84260109D01*
X144938211Y-84249271D01*
X144947273Y-84239273D01*
X144957271Y-84230211D01*
X144968109Y-84222173D01*
X144979683Y-84215236D01*
X144991881Y-84209467D01*
X145004586Y-84204921D01*
X145017675Y-84201642D01*
X145031023Y-84199662D01*
X145044500Y-84199000D01*
X146294500Y-84199000D01*
X146307977Y-84199662D01*
X146307977Y-84199662D01*
G37*
D15*
X145669500Y-84474000D03*
D10*
G36*
X146307977Y-83399662D02*
G01*
X146321325Y-83401642D01*
X146334414Y-83404921D01*
X146347119Y-83409467D01*
X146359317Y-83415236D01*
X146370891Y-83422173D01*
X146381729Y-83430211D01*
X146391727Y-83439273D01*
X146400789Y-83449271D01*
X146408827Y-83460109D01*
X146415764Y-83471683D01*
X146421533Y-83483881D01*
X146426079Y-83496586D01*
X146429358Y-83509675D01*
X146431338Y-83523023D01*
X146432000Y-83536500D01*
X146432000Y-83811500D01*
X146431338Y-83824977D01*
X146429358Y-83838325D01*
X146426079Y-83851414D01*
X146421533Y-83864119D01*
X146415764Y-83876317D01*
X146408827Y-83887891D01*
X146400789Y-83898729D01*
X146391727Y-83908727D01*
X146381729Y-83917789D01*
X146370891Y-83925827D01*
X146359317Y-83932764D01*
X146347119Y-83938533D01*
X146334414Y-83943079D01*
X146321325Y-83946358D01*
X146307977Y-83948338D01*
X146294500Y-83949000D01*
X145044500Y-83949000D01*
X145031023Y-83948338D01*
X145017675Y-83946358D01*
X145004586Y-83943079D01*
X144991881Y-83938533D01*
X144979683Y-83932764D01*
X144968109Y-83925827D01*
X144957271Y-83917789D01*
X144947273Y-83908727D01*
X144938211Y-83898729D01*
X144930173Y-83887891D01*
X144923236Y-83876317D01*
X144917467Y-83864119D01*
X144912921Y-83851414D01*
X144909642Y-83838325D01*
X144907662Y-83824977D01*
X144907000Y-83811500D01*
X144907000Y-83536500D01*
X144907662Y-83523023D01*
X144909642Y-83509675D01*
X144912921Y-83496586D01*
X144917467Y-83483881D01*
X144923236Y-83471683D01*
X144930173Y-83460109D01*
X144938211Y-83449271D01*
X144947273Y-83439273D01*
X144957271Y-83430211D01*
X144968109Y-83422173D01*
X144979683Y-83415236D01*
X144991881Y-83409467D01*
X145004586Y-83404921D01*
X145017675Y-83401642D01*
X145031023Y-83399662D01*
X145044500Y-83399000D01*
X146294500Y-83399000D01*
X146307977Y-83399662D01*
X146307977Y-83399662D01*
G37*
D15*
X145669500Y-83674000D03*
D10*
G36*
X146307977Y-82599662D02*
G01*
X146321325Y-82601642D01*
X146334414Y-82604921D01*
X146347119Y-82609467D01*
X146359317Y-82615236D01*
X146370891Y-82622173D01*
X146381729Y-82630211D01*
X146391727Y-82639273D01*
X146400789Y-82649271D01*
X146408827Y-82660109D01*
X146415764Y-82671683D01*
X146421533Y-82683881D01*
X146426079Y-82696586D01*
X146429358Y-82709675D01*
X146431338Y-82723023D01*
X146432000Y-82736500D01*
X146432000Y-83011500D01*
X146431338Y-83024977D01*
X146429358Y-83038325D01*
X146426079Y-83051414D01*
X146421533Y-83064119D01*
X146415764Y-83076317D01*
X146408827Y-83087891D01*
X146400789Y-83098729D01*
X146391727Y-83108727D01*
X146381729Y-83117789D01*
X146370891Y-83125827D01*
X146359317Y-83132764D01*
X146347119Y-83138533D01*
X146334414Y-83143079D01*
X146321325Y-83146358D01*
X146307977Y-83148338D01*
X146294500Y-83149000D01*
X145044500Y-83149000D01*
X145031023Y-83148338D01*
X145017675Y-83146358D01*
X145004586Y-83143079D01*
X144991881Y-83138533D01*
X144979683Y-83132764D01*
X144968109Y-83125827D01*
X144957271Y-83117789D01*
X144947273Y-83108727D01*
X144938211Y-83098729D01*
X144930173Y-83087891D01*
X144923236Y-83076317D01*
X144917467Y-83064119D01*
X144912921Y-83051414D01*
X144909642Y-83038325D01*
X144907662Y-83024977D01*
X144907000Y-83011500D01*
X144907000Y-82736500D01*
X144907662Y-82723023D01*
X144909642Y-82709675D01*
X144912921Y-82696586D01*
X144917467Y-82683881D01*
X144923236Y-82671683D01*
X144930173Y-82660109D01*
X144938211Y-82649271D01*
X144947273Y-82639273D01*
X144957271Y-82630211D01*
X144968109Y-82622173D01*
X144979683Y-82615236D01*
X144991881Y-82609467D01*
X145004586Y-82604921D01*
X145017675Y-82601642D01*
X145031023Y-82599662D01*
X145044500Y-82599000D01*
X146294500Y-82599000D01*
X146307977Y-82599662D01*
X146307977Y-82599662D01*
G37*
D15*
X145669500Y-82874000D03*
D10*
G36*
X146307977Y-81799662D02*
G01*
X146321325Y-81801642D01*
X146334414Y-81804921D01*
X146347119Y-81809467D01*
X146359317Y-81815236D01*
X146370891Y-81822173D01*
X146381729Y-81830211D01*
X146391727Y-81839273D01*
X146400789Y-81849271D01*
X146408827Y-81860109D01*
X146415764Y-81871683D01*
X146421533Y-81883881D01*
X146426079Y-81896586D01*
X146429358Y-81909675D01*
X146431338Y-81923023D01*
X146432000Y-81936500D01*
X146432000Y-82211500D01*
X146431338Y-82224977D01*
X146429358Y-82238325D01*
X146426079Y-82251414D01*
X146421533Y-82264119D01*
X146415764Y-82276317D01*
X146408827Y-82287891D01*
X146400789Y-82298729D01*
X146391727Y-82308727D01*
X146381729Y-82317789D01*
X146370891Y-82325827D01*
X146359317Y-82332764D01*
X146347119Y-82338533D01*
X146334414Y-82343079D01*
X146321325Y-82346358D01*
X146307977Y-82348338D01*
X146294500Y-82349000D01*
X145044500Y-82349000D01*
X145031023Y-82348338D01*
X145017675Y-82346358D01*
X145004586Y-82343079D01*
X144991881Y-82338533D01*
X144979683Y-82332764D01*
X144968109Y-82325827D01*
X144957271Y-82317789D01*
X144947273Y-82308727D01*
X144938211Y-82298729D01*
X144930173Y-82287891D01*
X144923236Y-82276317D01*
X144917467Y-82264119D01*
X144912921Y-82251414D01*
X144909642Y-82238325D01*
X144907662Y-82224977D01*
X144907000Y-82211500D01*
X144907000Y-81936500D01*
X144907662Y-81923023D01*
X144909642Y-81909675D01*
X144912921Y-81896586D01*
X144917467Y-81883881D01*
X144923236Y-81871683D01*
X144930173Y-81860109D01*
X144938211Y-81849271D01*
X144947273Y-81839273D01*
X144957271Y-81830211D01*
X144968109Y-81822173D01*
X144979683Y-81815236D01*
X144991881Y-81809467D01*
X145004586Y-81804921D01*
X145017675Y-81801642D01*
X145031023Y-81799662D01*
X145044500Y-81799000D01*
X146294500Y-81799000D01*
X146307977Y-81799662D01*
X146307977Y-81799662D01*
G37*
D15*
X145669500Y-82074000D03*
D10*
G36*
X146307977Y-80999662D02*
G01*
X146321325Y-81001642D01*
X146334414Y-81004921D01*
X146347119Y-81009467D01*
X146359317Y-81015236D01*
X146370891Y-81022173D01*
X146381729Y-81030211D01*
X146391727Y-81039273D01*
X146400789Y-81049271D01*
X146408827Y-81060109D01*
X146415764Y-81071683D01*
X146421533Y-81083881D01*
X146426079Y-81096586D01*
X146429358Y-81109675D01*
X146431338Y-81123023D01*
X146432000Y-81136500D01*
X146432000Y-81411500D01*
X146431338Y-81424977D01*
X146429358Y-81438325D01*
X146426079Y-81451414D01*
X146421533Y-81464119D01*
X146415764Y-81476317D01*
X146408827Y-81487891D01*
X146400789Y-81498729D01*
X146391727Y-81508727D01*
X146381729Y-81517789D01*
X146370891Y-81525827D01*
X146359317Y-81532764D01*
X146347119Y-81538533D01*
X146334414Y-81543079D01*
X146321325Y-81546358D01*
X146307977Y-81548338D01*
X146294500Y-81549000D01*
X145044500Y-81549000D01*
X145031023Y-81548338D01*
X145017675Y-81546358D01*
X145004586Y-81543079D01*
X144991881Y-81538533D01*
X144979683Y-81532764D01*
X144968109Y-81525827D01*
X144957271Y-81517789D01*
X144947273Y-81508727D01*
X144938211Y-81498729D01*
X144930173Y-81487891D01*
X144923236Y-81476317D01*
X144917467Y-81464119D01*
X144912921Y-81451414D01*
X144909642Y-81438325D01*
X144907662Y-81424977D01*
X144907000Y-81411500D01*
X144907000Y-81136500D01*
X144907662Y-81123023D01*
X144909642Y-81109675D01*
X144912921Y-81096586D01*
X144917467Y-81083881D01*
X144923236Y-81071683D01*
X144930173Y-81060109D01*
X144938211Y-81049271D01*
X144947273Y-81039273D01*
X144957271Y-81030211D01*
X144968109Y-81022173D01*
X144979683Y-81015236D01*
X144991881Y-81009467D01*
X145004586Y-81004921D01*
X145017675Y-81001642D01*
X145031023Y-80999662D01*
X145044500Y-80999000D01*
X146294500Y-80999000D01*
X146307977Y-80999662D01*
X146307977Y-80999662D01*
G37*
D15*
X145669500Y-81274000D03*
D10*
G36*
X146307977Y-80199662D02*
G01*
X146321325Y-80201642D01*
X146334414Y-80204921D01*
X146347119Y-80209467D01*
X146359317Y-80215236D01*
X146370891Y-80222173D01*
X146381729Y-80230211D01*
X146391727Y-80239273D01*
X146400789Y-80249271D01*
X146408827Y-80260109D01*
X146415764Y-80271683D01*
X146421533Y-80283881D01*
X146426079Y-80296586D01*
X146429358Y-80309675D01*
X146431338Y-80323023D01*
X146432000Y-80336500D01*
X146432000Y-80611500D01*
X146431338Y-80624977D01*
X146429358Y-80638325D01*
X146426079Y-80651414D01*
X146421533Y-80664119D01*
X146415764Y-80676317D01*
X146408827Y-80687891D01*
X146400789Y-80698729D01*
X146391727Y-80708727D01*
X146381729Y-80717789D01*
X146370891Y-80725827D01*
X146359317Y-80732764D01*
X146347119Y-80738533D01*
X146334414Y-80743079D01*
X146321325Y-80746358D01*
X146307977Y-80748338D01*
X146294500Y-80749000D01*
X145044500Y-80749000D01*
X145031023Y-80748338D01*
X145017675Y-80746358D01*
X145004586Y-80743079D01*
X144991881Y-80738533D01*
X144979683Y-80732764D01*
X144968109Y-80725827D01*
X144957271Y-80717789D01*
X144947273Y-80708727D01*
X144938211Y-80698729D01*
X144930173Y-80687891D01*
X144923236Y-80676317D01*
X144917467Y-80664119D01*
X144912921Y-80651414D01*
X144909642Y-80638325D01*
X144907662Y-80624977D01*
X144907000Y-80611500D01*
X144907000Y-80336500D01*
X144907662Y-80323023D01*
X144909642Y-80309675D01*
X144912921Y-80296586D01*
X144917467Y-80283881D01*
X144923236Y-80271683D01*
X144930173Y-80260109D01*
X144938211Y-80249271D01*
X144947273Y-80239273D01*
X144957271Y-80230211D01*
X144968109Y-80222173D01*
X144979683Y-80215236D01*
X144991881Y-80209467D01*
X145004586Y-80204921D01*
X145017675Y-80201642D01*
X145031023Y-80199662D01*
X145044500Y-80199000D01*
X146294500Y-80199000D01*
X146307977Y-80199662D01*
X146307977Y-80199662D01*
G37*
D15*
X145669500Y-80474000D03*
D10*
G36*
X146307977Y-79399662D02*
G01*
X146321325Y-79401642D01*
X146334414Y-79404921D01*
X146347119Y-79409467D01*
X146359317Y-79415236D01*
X146370891Y-79422173D01*
X146381729Y-79430211D01*
X146391727Y-79439273D01*
X146400789Y-79449271D01*
X146408827Y-79460109D01*
X146415764Y-79471683D01*
X146421533Y-79483881D01*
X146426079Y-79496586D01*
X146429358Y-79509675D01*
X146431338Y-79523023D01*
X146432000Y-79536500D01*
X146432000Y-79811500D01*
X146431338Y-79824977D01*
X146429358Y-79838325D01*
X146426079Y-79851414D01*
X146421533Y-79864119D01*
X146415764Y-79876317D01*
X146408827Y-79887891D01*
X146400789Y-79898729D01*
X146391727Y-79908727D01*
X146381729Y-79917789D01*
X146370891Y-79925827D01*
X146359317Y-79932764D01*
X146347119Y-79938533D01*
X146334414Y-79943079D01*
X146321325Y-79946358D01*
X146307977Y-79948338D01*
X146294500Y-79949000D01*
X145044500Y-79949000D01*
X145031023Y-79948338D01*
X145017675Y-79946358D01*
X145004586Y-79943079D01*
X144991881Y-79938533D01*
X144979683Y-79932764D01*
X144968109Y-79925827D01*
X144957271Y-79917789D01*
X144947273Y-79908727D01*
X144938211Y-79898729D01*
X144930173Y-79887891D01*
X144923236Y-79876317D01*
X144917467Y-79864119D01*
X144912921Y-79851414D01*
X144909642Y-79838325D01*
X144907662Y-79824977D01*
X144907000Y-79811500D01*
X144907000Y-79536500D01*
X144907662Y-79523023D01*
X144909642Y-79509675D01*
X144912921Y-79496586D01*
X144917467Y-79483881D01*
X144923236Y-79471683D01*
X144930173Y-79460109D01*
X144938211Y-79449271D01*
X144947273Y-79439273D01*
X144957271Y-79430211D01*
X144968109Y-79422173D01*
X144979683Y-79415236D01*
X144991881Y-79409467D01*
X145004586Y-79404921D01*
X145017675Y-79401642D01*
X145031023Y-79399662D01*
X145044500Y-79399000D01*
X146294500Y-79399000D01*
X146307977Y-79399662D01*
X146307977Y-79399662D01*
G37*
D15*
X145669500Y-79674000D03*
D10*
G36*
X146307977Y-78599662D02*
G01*
X146321325Y-78601642D01*
X146334414Y-78604921D01*
X146347119Y-78609467D01*
X146359317Y-78615236D01*
X146370891Y-78622173D01*
X146381729Y-78630211D01*
X146391727Y-78639273D01*
X146400789Y-78649271D01*
X146408827Y-78660109D01*
X146415764Y-78671683D01*
X146421533Y-78683881D01*
X146426079Y-78696586D01*
X146429358Y-78709675D01*
X146431338Y-78723023D01*
X146432000Y-78736500D01*
X146432000Y-79011500D01*
X146431338Y-79024977D01*
X146429358Y-79038325D01*
X146426079Y-79051414D01*
X146421533Y-79064119D01*
X146415764Y-79076317D01*
X146408827Y-79087891D01*
X146400789Y-79098729D01*
X146391727Y-79108727D01*
X146381729Y-79117789D01*
X146370891Y-79125827D01*
X146359317Y-79132764D01*
X146347119Y-79138533D01*
X146334414Y-79143079D01*
X146321325Y-79146358D01*
X146307977Y-79148338D01*
X146294500Y-79149000D01*
X145044500Y-79149000D01*
X145031023Y-79148338D01*
X145017675Y-79146358D01*
X145004586Y-79143079D01*
X144991881Y-79138533D01*
X144979683Y-79132764D01*
X144968109Y-79125827D01*
X144957271Y-79117789D01*
X144947273Y-79108727D01*
X144938211Y-79098729D01*
X144930173Y-79087891D01*
X144923236Y-79076317D01*
X144917467Y-79064119D01*
X144912921Y-79051414D01*
X144909642Y-79038325D01*
X144907662Y-79024977D01*
X144907000Y-79011500D01*
X144907000Y-78736500D01*
X144907662Y-78723023D01*
X144909642Y-78709675D01*
X144912921Y-78696586D01*
X144917467Y-78683881D01*
X144923236Y-78671683D01*
X144930173Y-78660109D01*
X144938211Y-78649271D01*
X144947273Y-78639273D01*
X144957271Y-78630211D01*
X144968109Y-78622173D01*
X144979683Y-78615236D01*
X144991881Y-78609467D01*
X145004586Y-78604921D01*
X145017675Y-78601642D01*
X145031023Y-78599662D01*
X145044500Y-78599000D01*
X146294500Y-78599000D01*
X146307977Y-78599662D01*
X146307977Y-78599662D01*
G37*
D15*
X145669500Y-78874000D03*
D10*
G36*
X146307977Y-77799662D02*
G01*
X146321325Y-77801642D01*
X146334414Y-77804921D01*
X146347119Y-77809467D01*
X146359317Y-77815236D01*
X146370891Y-77822173D01*
X146381729Y-77830211D01*
X146391727Y-77839273D01*
X146400789Y-77849271D01*
X146408827Y-77860109D01*
X146415764Y-77871683D01*
X146421533Y-77883881D01*
X146426079Y-77896586D01*
X146429358Y-77909675D01*
X146431338Y-77923023D01*
X146432000Y-77936500D01*
X146432000Y-78211500D01*
X146431338Y-78224977D01*
X146429358Y-78238325D01*
X146426079Y-78251414D01*
X146421533Y-78264119D01*
X146415764Y-78276317D01*
X146408827Y-78287891D01*
X146400789Y-78298729D01*
X146391727Y-78308727D01*
X146381729Y-78317789D01*
X146370891Y-78325827D01*
X146359317Y-78332764D01*
X146347119Y-78338533D01*
X146334414Y-78343079D01*
X146321325Y-78346358D01*
X146307977Y-78348338D01*
X146294500Y-78349000D01*
X145044500Y-78349000D01*
X145031023Y-78348338D01*
X145017675Y-78346358D01*
X145004586Y-78343079D01*
X144991881Y-78338533D01*
X144979683Y-78332764D01*
X144968109Y-78325827D01*
X144957271Y-78317789D01*
X144947273Y-78308727D01*
X144938211Y-78298729D01*
X144930173Y-78287891D01*
X144923236Y-78276317D01*
X144917467Y-78264119D01*
X144912921Y-78251414D01*
X144909642Y-78238325D01*
X144907662Y-78224977D01*
X144907000Y-78211500D01*
X144907000Y-77936500D01*
X144907662Y-77923023D01*
X144909642Y-77909675D01*
X144912921Y-77896586D01*
X144917467Y-77883881D01*
X144923236Y-77871683D01*
X144930173Y-77860109D01*
X144938211Y-77849271D01*
X144947273Y-77839273D01*
X144957271Y-77830211D01*
X144968109Y-77822173D01*
X144979683Y-77815236D01*
X144991881Y-77809467D01*
X145004586Y-77804921D01*
X145017675Y-77801642D01*
X145031023Y-77799662D01*
X145044500Y-77799000D01*
X146294500Y-77799000D01*
X146307977Y-77799662D01*
X146307977Y-77799662D01*
G37*
D15*
X145669500Y-78074000D03*
D10*
G36*
X146307977Y-76999662D02*
G01*
X146321325Y-77001642D01*
X146334414Y-77004921D01*
X146347119Y-77009467D01*
X146359317Y-77015236D01*
X146370891Y-77022173D01*
X146381729Y-77030211D01*
X146391727Y-77039273D01*
X146400789Y-77049271D01*
X146408827Y-77060109D01*
X146415764Y-77071683D01*
X146421533Y-77083881D01*
X146426079Y-77096586D01*
X146429358Y-77109675D01*
X146431338Y-77123023D01*
X146432000Y-77136500D01*
X146432000Y-77411500D01*
X146431338Y-77424977D01*
X146429358Y-77438325D01*
X146426079Y-77451414D01*
X146421533Y-77464119D01*
X146415764Y-77476317D01*
X146408827Y-77487891D01*
X146400789Y-77498729D01*
X146391727Y-77508727D01*
X146381729Y-77517789D01*
X146370891Y-77525827D01*
X146359317Y-77532764D01*
X146347119Y-77538533D01*
X146334414Y-77543079D01*
X146321325Y-77546358D01*
X146307977Y-77548338D01*
X146294500Y-77549000D01*
X145044500Y-77549000D01*
X145031023Y-77548338D01*
X145017675Y-77546358D01*
X145004586Y-77543079D01*
X144991881Y-77538533D01*
X144979683Y-77532764D01*
X144968109Y-77525827D01*
X144957271Y-77517789D01*
X144947273Y-77508727D01*
X144938211Y-77498729D01*
X144930173Y-77487891D01*
X144923236Y-77476317D01*
X144917467Y-77464119D01*
X144912921Y-77451414D01*
X144909642Y-77438325D01*
X144907662Y-77424977D01*
X144907000Y-77411500D01*
X144907000Y-77136500D01*
X144907662Y-77123023D01*
X144909642Y-77109675D01*
X144912921Y-77096586D01*
X144917467Y-77083881D01*
X144923236Y-77071683D01*
X144930173Y-77060109D01*
X144938211Y-77049271D01*
X144947273Y-77039273D01*
X144957271Y-77030211D01*
X144968109Y-77022173D01*
X144979683Y-77015236D01*
X144991881Y-77009467D01*
X145004586Y-77004921D01*
X145017675Y-77001642D01*
X145031023Y-76999662D01*
X145044500Y-76999000D01*
X146294500Y-76999000D01*
X146307977Y-76999662D01*
X146307977Y-76999662D01*
G37*
D15*
X145669500Y-77274000D03*
D10*
G36*
X146307977Y-76199662D02*
G01*
X146321325Y-76201642D01*
X146334414Y-76204921D01*
X146347119Y-76209467D01*
X146359317Y-76215236D01*
X146370891Y-76222173D01*
X146381729Y-76230211D01*
X146391727Y-76239273D01*
X146400789Y-76249271D01*
X146408827Y-76260109D01*
X146415764Y-76271683D01*
X146421533Y-76283881D01*
X146426079Y-76296586D01*
X146429358Y-76309675D01*
X146431338Y-76323023D01*
X146432000Y-76336500D01*
X146432000Y-76611500D01*
X146431338Y-76624977D01*
X146429358Y-76638325D01*
X146426079Y-76651414D01*
X146421533Y-76664119D01*
X146415764Y-76676317D01*
X146408827Y-76687891D01*
X146400789Y-76698729D01*
X146391727Y-76708727D01*
X146381729Y-76717789D01*
X146370891Y-76725827D01*
X146359317Y-76732764D01*
X146347119Y-76738533D01*
X146334414Y-76743079D01*
X146321325Y-76746358D01*
X146307977Y-76748338D01*
X146294500Y-76749000D01*
X145044500Y-76749000D01*
X145031023Y-76748338D01*
X145017675Y-76746358D01*
X145004586Y-76743079D01*
X144991881Y-76738533D01*
X144979683Y-76732764D01*
X144968109Y-76725827D01*
X144957271Y-76717789D01*
X144947273Y-76708727D01*
X144938211Y-76698729D01*
X144930173Y-76687891D01*
X144923236Y-76676317D01*
X144917467Y-76664119D01*
X144912921Y-76651414D01*
X144909642Y-76638325D01*
X144907662Y-76624977D01*
X144907000Y-76611500D01*
X144907000Y-76336500D01*
X144907662Y-76323023D01*
X144909642Y-76309675D01*
X144912921Y-76296586D01*
X144917467Y-76283881D01*
X144923236Y-76271683D01*
X144930173Y-76260109D01*
X144938211Y-76249271D01*
X144947273Y-76239273D01*
X144957271Y-76230211D01*
X144968109Y-76222173D01*
X144979683Y-76215236D01*
X144991881Y-76209467D01*
X145004586Y-76204921D01*
X145017675Y-76201642D01*
X145031023Y-76199662D01*
X145044500Y-76199000D01*
X146294500Y-76199000D01*
X146307977Y-76199662D01*
X146307977Y-76199662D01*
G37*
D15*
X145669500Y-76474000D03*
D10*
G36*
X146307977Y-75399662D02*
G01*
X146321325Y-75401642D01*
X146334414Y-75404921D01*
X146347119Y-75409467D01*
X146359317Y-75415236D01*
X146370891Y-75422173D01*
X146381729Y-75430211D01*
X146391727Y-75439273D01*
X146400789Y-75449271D01*
X146408827Y-75460109D01*
X146415764Y-75471683D01*
X146421533Y-75483881D01*
X146426079Y-75496586D01*
X146429358Y-75509675D01*
X146431338Y-75523023D01*
X146432000Y-75536500D01*
X146432000Y-75811500D01*
X146431338Y-75824977D01*
X146429358Y-75838325D01*
X146426079Y-75851414D01*
X146421533Y-75864119D01*
X146415764Y-75876317D01*
X146408827Y-75887891D01*
X146400789Y-75898729D01*
X146391727Y-75908727D01*
X146381729Y-75917789D01*
X146370891Y-75925827D01*
X146359317Y-75932764D01*
X146347119Y-75938533D01*
X146334414Y-75943079D01*
X146321325Y-75946358D01*
X146307977Y-75948338D01*
X146294500Y-75949000D01*
X145044500Y-75949000D01*
X145031023Y-75948338D01*
X145017675Y-75946358D01*
X145004586Y-75943079D01*
X144991881Y-75938533D01*
X144979683Y-75932764D01*
X144968109Y-75925827D01*
X144957271Y-75917789D01*
X144947273Y-75908727D01*
X144938211Y-75898729D01*
X144930173Y-75887891D01*
X144923236Y-75876317D01*
X144917467Y-75864119D01*
X144912921Y-75851414D01*
X144909642Y-75838325D01*
X144907662Y-75824977D01*
X144907000Y-75811500D01*
X144907000Y-75536500D01*
X144907662Y-75523023D01*
X144909642Y-75509675D01*
X144912921Y-75496586D01*
X144917467Y-75483881D01*
X144923236Y-75471683D01*
X144930173Y-75460109D01*
X144938211Y-75449271D01*
X144947273Y-75439273D01*
X144957271Y-75430211D01*
X144968109Y-75422173D01*
X144979683Y-75415236D01*
X144991881Y-75409467D01*
X145004586Y-75404921D01*
X145017675Y-75401642D01*
X145031023Y-75399662D01*
X145044500Y-75399000D01*
X146294500Y-75399000D01*
X146307977Y-75399662D01*
X146307977Y-75399662D01*
G37*
D15*
X145669500Y-75674000D03*
M02*
