G04 #@! TF.GenerationSoftware,KiCad,Pcbnew,(5.1.2-1)-1*
G04 #@! TF.CreationDate,2019-07-03T01:56:20-07:00*
G04 #@! TF.ProjectId,ram_board,72616d5f-626f-4617-9264-2e6b69636164,rev?*
G04 #@! TF.SameCoordinates,Original*
G04 #@! TF.FileFunction,Paste,Bot*
G04 #@! TF.FilePolarity,Positive*
%FSLAX46Y46*%
G04 Gerber Fmt 4.6, Leading zero omitted, Abs format (unit mm)*
G04 Created by KiCad (PCBNEW (5.1.2-1)-1) date 2019-07-03 01:56:20*
%MOMM*%
%LPD*%
G04 APERTURE LIST*
%ADD10C,0.100000*%
%ADD11C,0.950000*%
G04 APERTURE END LIST*
D10*
G36*
X148850779Y-84348944D02*
G01*
X148873834Y-84352363D01*
X148896443Y-84358027D01*
X148918387Y-84365879D01*
X148939457Y-84375844D01*
X148959448Y-84387826D01*
X148978168Y-84401710D01*
X148995438Y-84417362D01*
X149011090Y-84434632D01*
X149024974Y-84453352D01*
X149036956Y-84473343D01*
X149046921Y-84494413D01*
X149054773Y-84516357D01*
X149060437Y-84538966D01*
X149063856Y-84562021D01*
X149065000Y-84585300D01*
X149065000Y-85160300D01*
X149063856Y-85183579D01*
X149060437Y-85206634D01*
X149054773Y-85229243D01*
X149046921Y-85251187D01*
X149036956Y-85272257D01*
X149024974Y-85292248D01*
X149011090Y-85310968D01*
X148995438Y-85328238D01*
X148978168Y-85343890D01*
X148959448Y-85357774D01*
X148939457Y-85369756D01*
X148918387Y-85379721D01*
X148896443Y-85387573D01*
X148873834Y-85393237D01*
X148850779Y-85396656D01*
X148827500Y-85397800D01*
X148352500Y-85397800D01*
X148329221Y-85396656D01*
X148306166Y-85393237D01*
X148283557Y-85387573D01*
X148261613Y-85379721D01*
X148240543Y-85369756D01*
X148220552Y-85357774D01*
X148201832Y-85343890D01*
X148184562Y-85328238D01*
X148168910Y-85310968D01*
X148155026Y-85292248D01*
X148143044Y-85272257D01*
X148133079Y-85251187D01*
X148125227Y-85229243D01*
X148119563Y-85206634D01*
X148116144Y-85183579D01*
X148115000Y-85160300D01*
X148115000Y-84585300D01*
X148116144Y-84562021D01*
X148119563Y-84538966D01*
X148125227Y-84516357D01*
X148133079Y-84494413D01*
X148143044Y-84473343D01*
X148155026Y-84453352D01*
X148168910Y-84434632D01*
X148184562Y-84417362D01*
X148201832Y-84401710D01*
X148220552Y-84387826D01*
X148240543Y-84375844D01*
X148261613Y-84365879D01*
X148283557Y-84358027D01*
X148306166Y-84352363D01*
X148329221Y-84348944D01*
X148352500Y-84347800D01*
X148827500Y-84347800D01*
X148850779Y-84348944D01*
X148850779Y-84348944D01*
G37*
D11*
X148590000Y-84872800D03*
D10*
G36*
X148850779Y-82598944D02*
G01*
X148873834Y-82602363D01*
X148896443Y-82608027D01*
X148918387Y-82615879D01*
X148939457Y-82625844D01*
X148959448Y-82637826D01*
X148978168Y-82651710D01*
X148995438Y-82667362D01*
X149011090Y-82684632D01*
X149024974Y-82703352D01*
X149036956Y-82723343D01*
X149046921Y-82744413D01*
X149054773Y-82766357D01*
X149060437Y-82788966D01*
X149063856Y-82812021D01*
X149065000Y-82835300D01*
X149065000Y-83410300D01*
X149063856Y-83433579D01*
X149060437Y-83456634D01*
X149054773Y-83479243D01*
X149046921Y-83501187D01*
X149036956Y-83522257D01*
X149024974Y-83542248D01*
X149011090Y-83560968D01*
X148995438Y-83578238D01*
X148978168Y-83593890D01*
X148959448Y-83607774D01*
X148939457Y-83619756D01*
X148918387Y-83629721D01*
X148896443Y-83637573D01*
X148873834Y-83643237D01*
X148850779Y-83646656D01*
X148827500Y-83647800D01*
X148352500Y-83647800D01*
X148329221Y-83646656D01*
X148306166Y-83643237D01*
X148283557Y-83637573D01*
X148261613Y-83629721D01*
X148240543Y-83619756D01*
X148220552Y-83607774D01*
X148201832Y-83593890D01*
X148184562Y-83578238D01*
X148168910Y-83560968D01*
X148155026Y-83542248D01*
X148143044Y-83522257D01*
X148133079Y-83501187D01*
X148125227Y-83479243D01*
X148119563Y-83456634D01*
X148116144Y-83433579D01*
X148115000Y-83410300D01*
X148115000Y-82835300D01*
X148116144Y-82812021D01*
X148119563Y-82788966D01*
X148125227Y-82766357D01*
X148133079Y-82744413D01*
X148143044Y-82723343D01*
X148155026Y-82703352D01*
X148168910Y-82684632D01*
X148184562Y-82667362D01*
X148201832Y-82651710D01*
X148220552Y-82637826D01*
X148240543Y-82625844D01*
X148261613Y-82615879D01*
X148283557Y-82608027D01*
X148306166Y-82602363D01*
X148329221Y-82598944D01*
X148352500Y-82597800D01*
X148827500Y-82597800D01*
X148850779Y-82598944D01*
X148850779Y-82598944D01*
G37*
D11*
X148590000Y-83122800D03*
D10*
G36*
X176473779Y-74329144D02*
G01*
X176496834Y-74332563D01*
X176519443Y-74338227D01*
X176541387Y-74346079D01*
X176562457Y-74356044D01*
X176582448Y-74368026D01*
X176601168Y-74381910D01*
X176618438Y-74397562D01*
X176634090Y-74414832D01*
X176647974Y-74433552D01*
X176659956Y-74453543D01*
X176669921Y-74474613D01*
X176677773Y-74496557D01*
X176683437Y-74519166D01*
X176686856Y-74542221D01*
X176688000Y-74565500D01*
X176688000Y-75040500D01*
X176686856Y-75063779D01*
X176683437Y-75086834D01*
X176677773Y-75109443D01*
X176669921Y-75131387D01*
X176659956Y-75152457D01*
X176647974Y-75172448D01*
X176634090Y-75191168D01*
X176618438Y-75208438D01*
X176601168Y-75224090D01*
X176582448Y-75237974D01*
X176562457Y-75249956D01*
X176541387Y-75259921D01*
X176519443Y-75267773D01*
X176496834Y-75273437D01*
X176473779Y-75276856D01*
X176450500Y-75278000D01*
X175875500Y-75278000D01*
X175852221Y-75276856D01*
X175829166Y-75273437D01*
X175806557Y-75267773D01*
X175784613Y-75259921D01*
X175763543Y-75249956D01*
X175743552Y-75237974D01*
X175724832Y-75224090D01*
X175707562Y-75208438D01*
X175691910Y-75191168D01*
X175678026Y-75172448D01*
X175666044Y-75152457D01*
X175656079Y-75131387D01*
X175648227Y-75109443D01*
X175642563Y-75086834D01*
X175639144Y-75063779D01*
X175638000Y-75040500D01*
X175638000Y-74565500D01*
X175639144Y-74542221D01*
X175642563Y-74519166D01*
X175648227Y-74496557D01*
X175656079Y-74474613D01*
X175666044Y-74453543D01*
X175678026Y-74433552D01*
X175691910Y-74414832D01*
X175707562Y-74397562D01*
X175724832Y-74381910D01*
X175743552Y-74368026D01*
X175763543Y-74356044D01*
X175784613Y-74346079D01*
X175806557Y-74338227D01*
X175829166Y-74332563D01*
X175852221Y-74329144D01*
X175875500Y-74328000D01*
X176450500Y-74328000D01*
X176473779Y-74329144D01*
X176473779Y-74329144D01*
G37*
D11*
X176163000Y-74803000D03*
D10*
G36*
X178223779Y-74329144D02*
G01*
X178246834Y-74332563D01*
X178269443Y-74338227D01*
X178291387Y-74346079D01*
X178312457Y-74356044D01*
X178332448Y-74368026D01*
X178351168Y-74381910D01*
X178368438Y-74397562D01*
X178384090Y-74414832D01*
X178397974Y-74433552D01*
X178409956Y-74453543D01*
X178419921Y-74474613D01*
X178427773Y-74496557D01*
X178433437Y-74519166D01*
X178436856Y-74542221D01*
X178438000Y-74565500D01*
X178438000Y-75040500D01*
X178436856Y-75063779D01*
X178433437Y-75086834D01*
X178427773Y-75109443D01*
X178419921Y-75131387D01*
X178409956Y-75152457D01*
X178397974Y-75172448D01*
X178384090Y-75191168D01*
X178368438Y-75208438D01*
X178351168Y-75224090D01*
X178332448Y-75237974D01*
X178312457Y-75249956D01*
X178291387Y-75259921D01*
X178269443Y-75267773D01*
X178246834Y-75273437D01*
X178223779Y-75276856D01*
X178200500Y-75278000D01*
X177625500Y-75278000D01*
X177602221Y-75276856D01*
X177579166Y-75273437D01*
X177556557Y-75267773D01*
X177534613Y-75259921D01*
X177513543Y-75249956D01*
X177493552Y-75237974D01*
X177474832Y-75224090D01*
X177457562Y-75208438D01*
X177441910Y-75191168D01*
X177428026Y-75172448D01*
X177416044Y-75152457D01*
X177406079Y-75131387D01*
X177398227Y-75109443D01*
X177392563Y-75086834D01*
X177389144Y-75063779D01*
X177388000Y-75040500D01*
X177388000Y-74565500D01*
X177389144Y-74542221D01*
X177392563Y-74519166D01*
X177398227Y-74496557D01*
X177406079Y-74474613D01*
X177416044Y-74453543D01*
X177428026Y-74433552D01*
X177441910Y-74414832D01*
X177457562Y-74397562D01*
X177474832Y-74381910D01*
X177493552Y-74368026D01*
X177513543Y-74356044D01*
X177534613Y-74346079D01*
X177556557Y-74338227D01*
X177579166Y-74332563D01*
X177602221Y-74329144D01*
X177625500Y-74328000D01*
X178200500Y-74328000D01*
X178223779Y-74329144D01*
X178223779Y-74329144D01*
G37*
D11*
X177913000Y-74803000D03*
D10*
G36*
X172917779Y-74329144D02*
G01*
X172940834Y-74332563D01*
X172963443Y-74338227D01*
X172985387Y-74346079D01*
X173006457Y-74356044D01*
X173026448Y-74368026D01*
X173045168Y-74381910D01*
X173062438Y-74397562D01*
X173078090Y-74414832D01*
X173091974Y-74433552D01*
X173103956Y-74453543D01*
X173113921Y-74474613D01*
X173121773Y-74496557D01*
X173127437Y-74519166D01*
X173130856Y-74542221D01*
X173132000Y-74565500D01*
X173132000Y-75040500D01*
X173130856Y-75063779D01*
X173127437Y-75086834D01*
X173121773Y-75109443D01*
X173113921Y-75131387D01*
X173103956Y-75152457D01*
X173091974Y-75172448D01*
X173078090Y-75191168D01*
X173062438Y-75208438D01*
X173045168Y-75224090D01*
X173026448Y-75237974D01*
X173006457Y-75249956D01*
X172985387Y-75259921D01*
X172963443Y-75267773D01*
X172940834Y-75273437D01*
X172917779Y-75276856D01*
X172894500Y-75278000D01*
X172319500Y-75278000D01*
X172296221Y-75276856D01*
X172273166Y-75273437D01*
X172250557Y-75267773D01*
X172228613Y-75259921D01*
X172207543Y-75249956D01*
X172187552Y-75237974D01*
X172168832Y-75224090D01*
X172151562Y-75208438D01*
X172135910Y-75191168D01*
X172122026Y-75172448D01*
X172110044Y-75152457D01*
X172100079Y-75131387D01*
X172092227Y-75109443D01*
X172086563Y-75086834D01*
X172083144Y-75063779D01*
X172082000Y-75040500D01*
X172082000Y-74565500D01*
X172083144Y-74542221D01*
X172086563Y-74519166D01*
X172092227Y-74496557D01*
X172100079Y-74474613D01*
X172110044Y-74453543D01*
X172122026Y-74433552D01*
X172135910Y-74414832D01*
X172151562Y-74397562D01*
X172168832Y-74381910D01*
X172187552Y-74368026D01*
X172207543Y-74356044D01*
X172228613Y-74346079D01*
X172250557Y-74338227D01*
X172273166Y-74332563D01*
X172296221Y-74329144D01*
X172319500Y-74328000D01*
X172894500Y-74328000D01*
X172917779Y-74329144D01*
X172917779Y-74329144D01*
G37*
D11*
X172607000Y-74803000D03*
D10*
G36*
X174667779Y-74329144D02*
G01*
X174690834Y-74332563D01*
X174713443Y-74338227D01*
X174735387Y-74346079D01*
X174756457Y-74356044D01*
X174776448Y-74368026D01*
X174795168Y-74381910D01*
X174812438Y-74397562D01*
X174828090Y-74414832D01*
X174841974Y-74433552D01*
X174853956Y-74453543D01*
X174863921Y-74474613D01*
X174871773Y-74496557D01*
X174877437Y-74519166D01*
X174880856Y-74542221D01*
X174882000Y-74565500D01*
X174882000Y-75040500D01*
X174880856Y-75063779D01*
X174877437Y-75086834D01*
X174871773Y-75109443D01*
X174863921Y-75131387D01*
X174853956Y-75152457D01*
X174841974Y-75172448D01*
X174828090Y-75191168D01*
X174812438Y-75208438D01*
X174795168Y-75224090D01*
X174776448Y-75237974D01*
X174756457Y-75249956D01*
X174735387Y-75259921D01*
X174713443Y-75267773D01*
X174690834Y-75273437D01*
X174667779Y-75276856D01*
X174644500Y-75278000D01*
X174069500Y-75278000D01*
X174046221Y-75276856D01*
X174023166Y-75273437D01*
X174000557Y-75267773D01*
X173978613Y-75259921D01*
X173957543Y-75249956D01*
X173937552Y-75237974D01*
X173918832Y-75224090D01*
X173901562Y-75208438D01*
X173885910Y-75191168D01*
X173872026Y-75172448D01*
X173860044Y-75152457D01*
X173850079Y-75131387D01*
X173842227Y-75109443D01*
X173836563Y-75086834D01*
X173833144Y-75063779D01*
X173832000Y-75040500D01*
X173832000Y-74565500D01*
X173833144Y-74542221D01*
X173836563Y-74519166D01*
X173842227Y-74496557D01*
X173850079Y-74474613D01*
X173860044Y-74453543D01*
X173872026Y-74433552D01*
X173885910Y-74414832D01*
X173901562Y-74397562D01*
X173918832Y-74381910D01*
X173937552Y-74368026D01*
X173957543Y-74356044D01*
X173978613Y-74346079D01*
X174000557Y-74338227D01*
X174023166Y-74332563D01*
X174046221Y-74329144D01*
X174069500Y-74328000D01*
X174644500Y-74328000D01*
X174667779Y-74329144D01*
X174667779Y-74329144D01*
G37*
D11*
X174357000Y-74803000D03*
M02*
