G04 #@! TF.GenerationSoftware,KiCad,Pcbnew,(5.1.2-1)-1*
G04 #@! TF.CreationDate,2019-07-05T02:29:44-07:00*
G04 #@! TF.ProjectId,ram_board,72616d5f-626f-4617-9264-2e6b69636164,rev?*
G04 #@! TF.SameCoordinates,Original*
G04 #@! TF.FileFunction,Paste,Bot*
G04 #@! TF.FilePolarity,Positive*
%FSLAX46Y46*%
G04 Gerber Fmt 4.6, Leading zero omitted, Abs format (unit mm)*
G04 Created by KiCad (PCBNEW (5.1.2-1)-1) date 2019-07-05 02:29:44*
%MOMM*%
%LPD*%
G04 APERTURE LIST*
%ADD10C,0.100000*%
%ADD11C,0.950000*%
G04 APERTURE END LIST*
D10*
G36*
X135515779Y-84044144D02*
G01*
X135538834Y-84047563D01*
X135561443Y-84053227D01*
X135583387Y-84061079D01*
X135604457Y-84071044D01*
X135624448Y-84083026D01*
X135643168Y-84096910D01*
X135660438Y-84112562D01*
X135676090Y-84129832D01*
X135689974Y-84148552D01*
X135701956Y-84168543D01*
X135711921Y-84189613D01*
X135719773Y-84211557D01*
X135725437Y-84234166D01*
X135728856Y-84257221D01*
X135730000Y-84280500D01*
X135730000Y-84855500D01*
X135728856Y-84878779D01*
X135725437Y-84901834D01*
X135719773Y-84924443D01*
X135711921Y-84946387D01*
X135701956Y-84967457D01*
X135689974Y-84987448D01*
X135676090Y-85006168D01*
X135660438Y-85023438D01*
X135643168Y-85039090D01*
X135624448Y-85052974D01*
X135604457Y-85064956D01*
X135583387Y-85074921D01*
X135561443Y-85082773D01*
X135538834Y-85088437D01*
X135515779Y-85091856D01*
X135492500Y-85093000D01*
X135017500Y-85093000D01*
X134994221Y-85091856D01*
X134971166Y-85088437D01*
X134948557Y-85082773D01*
X134926613Y-85074921D01*
X134905543Y-85064956D01*
X134885552Y-85052974D01*
X134866832Y-85039090D01*
X134849562Y-85023438D01*
X134833910Y-85006168D01*
X134820026Y-84987448D01*
X134808044Y-84967457D01*
X134798079Y-84946387D01*
X134790227Y-84924443D01*
X134784563Y-84901834D01*
X134781144Y-84878779D01*
X134780000Y-84855500D01*
X134780000Y-84280500D01*
X134781144Y-84257221D01*
X134784563Y-84234166D01*
X134790227Y-84211557D01*
X134798079Y-84189613D01*
X134808044Y-84168543D01*
X134820026Y-84148552D01*
X134833910Y-84129832D01*
X134849562Y-84112562D01*
X134866832Y-84096910D01*
X134885552Y-84083026D01*
X134905543Y-84071044D01*
X134926613Y-84061079D01*
X134948557Y-84053227D01*
X134971166Y-84047563D01*
X134994221Y-84044144D01*
X135017500Y-84043000D01*
X135492500Y-84043000D01*
X135515779Y-84044144D01*
X135515779Y-84044144D01*
G37*
D11*
X135255000Y-84568000D03*
D10*
G36*
X135515779Y-82294144D02*
G01*
X135538834Y-82297563D01*
X135561443Y-82303227D01*
X135583387Y-82311079D01*
X135604457Y-82321044D01*
X135624448Y-82333026D01*
X135643168Y-82346910D01*
X135660438Y-82362562D01*
X135676090Y-82379832D01*
X135689974Y-82398552D01*
X135701956Y-82418543D01*
X135711921Y-82439613D01*
X135719773Y-82461557D01*
X135725437Y-82484166D01*
X135728856Y-82507221D01*
X135730000Y-82530500D01*
X135730000Y-83105500D01*
X135728856Y-83128779D01*
X135725437Y-83151834D01*
X135719773Y-83174443D01*
X135711921Y-83196387D01*
X135701956Y-83217457D01*
X135689974Y-83237448D01*
X135676090Y-83256168D01*
X135660438Y-83273438D01*
X135643168Y-83289090D01*
X135624448Y-83302974D01*
X135604457Y-83314956D01*
X135583387Y-83324921D01*
X135561443Y-83332773D01*
X135538834Y-83338437D01*
X135515779Y-83341856D01*
X135492500Y-83343000D01*
X135017500Y-83343000D01*
X134994221Y-83341856D01*
X134971166Y-83338437D01*
X134948557Y-83332773D01*
X134926613Y-83324921D01*
X134905543Y-83314956D01*
X134885552Y-83302974D01*
X134866832Y-83289090D01*
X134849562Y-83273438D01*
X134833910Y-83256168D01*
X134820026Y-83237448D01*
X134808044Y-83217457D01*
X134798079Y-83196387D01*
X134790227Y-83174443D01*
X134784563Y-83151834D01*
X134781144Y-83128779D01*
X134780000Y-83105500D01*
X134780000Y-82530500D01*
X134781144Y-82507221D01*
X134784563Y-82484166D01*
X134790227Y-82461557D01*
X134798079Y-82439613D01*
X134808044Y-82418543D01*
X134820026Y-82398552D01*
X134833910Y-82379832D01*
X134849562Y-82362562D01*
X134866832Y-82346910D01*
X134885552Y-82333026D01*
X134905543Y-82321044D01*
X134926613Y-82311079D01*
X134948557Y-82303227D01*
X134971166Y-82297563D01*
X134994221Y-82294144D01*
X135017500Y-82293000D01*
X135492500Y-82293000D01*
X135515779Y-82294144D01*
X135515779Y-82294144D01*
G37*
D11*
X135255000Y-82818000D03*
D10*
G36*
X130880779Y-79282144D02*
G01*
X130903834Y-79285563D01*
X130926443Y-79291227D01*
X130948387Y-79299079D01*
X130969457Y-79309044D01*
X130989448Y-79321026D01*
X131008168Y-79334910D01*
X131025438Y-79350562D01*
X131041090Y-79367832D01*
X131054974Y-79386552D01*
X131066956Y-79406543D01*
X131076921Y-79427613D01*
X131084773Y-79449557D01*
X131090437Y-79472166D01*
X131093856Y-79495221D01*
X131095000Y-79518500D01*
X131095000Y-79993500D01*
X131093856Y-80016779D01*
X131090437Y-80039834D01*
X131084773Y-80062443D01*
X131076921Y-80084387D01*
X131066956Y-80105457D01*
X131054974Y-80125448D01*
X131041090Y-80144168D01*
X131025438Y-80161438D01*
X131008168Y-80177090D01*
X130989448Y-80190974D01*
X130969457Y-80202956D01*
X130948387Y-80212921D01*
X130926443Y-80220773D01*
X130903834Y-80226437D01*
X130880779Y-80229856D01*
X130857500Y-80231000D01*
X130282500Y-80231000D01*
X130259221Y-80229856D01*
X130236166Y-80226437D01*
X130213557Y-80220773D01*
X130191613Y-80212921D01*
X130170543Y-80202956D01*
X130150552Y-80190974D01*
X130131832Y-80177090D01*
X130114562Y-80161438D01*
X130098910Y-80144168D01*
X130085026Y-80125448D01*
X130073044Y-80105457D01*
X130063079Y-80084387D01*
X130055227Y-80062443D01*
X130049563Y-80039834D01*
X130046144Y-80016779D01*
X130045000Y-79993500D01*
X130045000Y-79518500D01*
X130046144Y-79495221D01*
X130049563Y-79472166D01*
X130055227Y-79449557D01*
X130063079Y-79427613D01*
X130073044Y-79406543D01*
X130085026Y-79386552D01*
X130098910Y-79367832D01*
X130114562Y-79350562D01*
X130131832Y-79334910D01*
X130150552Y-79321026D01*
X130170543Y-79309044D01*
X130191613Y-79299079D01*
X130213557Y-79291227D01*
X130236166Y-79285563D01*
X130259221Y-79282144D01*
X130282500Y-79281000D01*
X130857500Y-79281000D01*
X130880779Y-79282144D01*
X130880779Y-79282144D01*
G37*
D11*
X130570000Y-79756000D03*
D10*
G36*
X132630779Y-79282144D02*
G01*
X132653834Y-79285563D01*
X132676443Y-79291227D01*
X132698387Y-79299079D01*
X132719457Y-79309044D01*
X132739448Y-79321026D01*
X132758168Y-79334910D01*
X132775438Y-79350562D01*
X132791090Y-79367832D01*
X132804974Y-79386552D01*
X132816956Y-79406543D01*
X132826921Y-79427613D01*
X132834773Y-79449557D01*
X132840437Y-79472166D01*
X132843856Y-79495221D01*
X132845000Y-79518500D01*
X132845000Y-79993500D01*
X132843856Y-80016779D01*
X132840437Y-80039834D01*
X132834773Y-80062443D01*
X132826921Y-80084387D01*
X132816956Y-80105457D01*
X132804974Y-80125448D01*
X132791090Y-80144168D01*
X132775438Y-80161438D01*
X132758168Y-80177090D01*
X132739448Y-80190974D01*
X132719457Y-80202956D01*
X132698387Y-80212921D01*
X132676443Y-80220773D01*
X132653834Y-80226437D01*
X132630779Y-80229856D01*
X132607500Y-80231000D01*
X132032500Y-80231000D01*
X132009221Y-80229856D01*
X131986166Y-80226437D01*
X131963557Y-80220773D01*
X131941613Y-80212921D01*
X131920543Y-80202956D01*
X131900552Y-80190974D01*
X131881832Y-80177090D01*
X131864562Y-80161438D01*
X131848910Y-80144168D01*
X131835026Y-80125448D01*
X131823044Y-80105457D01*
X131813079Y-80084387D01*
X131805227Y-80062443D01*
X131799563Y-80039834D01*
X131796144Y-80016779D01*
X131795000Y-79993500D01*
X131795000Y-79518500D01*
X131796144Y-79495221D01*
X131799563Y-79472166D01*
X131805227Y-79449557D01*
X131813079Y-79427613D01*
X131823044Y-79406543D01*
X131835026Y-79386552D01*
X131848910Y-79367832D01*
X131864562Y-79350562D01*
X131881832Y-79334910D01*
X131900552Y-79321026D01*
X131920543Y-79309044D01*
X131941613Y-79299079D01*
X131963557Y-79291227D01*
X131986166Y-79285563D01*
X132009221Y-79282144D01*
X132032500Y-79281000D01*
X132607500Y-79281000D01*
X132630779Y-79282144D01*
X132630779Y-79282144D01*
G37*
D11*
X132320000Y-79756000D03*
D10*
G36*
X130866779Y-75472144D02*
G01*
X130889834Y-75475563D01*
X130912443Y-75481227D01*
X130934387Y-75489079D01*
X130955457Y-75499044D01*
X130975448Y-75511026D01*
X130994168Y-75524910D01*
X131011438Y-75540562D01*
X131027090Y-75557832D01*
X131040974Y-75576552D01*
X131052956Y-75596543D01*
X131062921Y-75617613D01*
X131070773Y-75639557D01*
X131076437Y-75662166D01*
X131079856Y-75685221D01*
X131081000Y-75708500D01*
X131081000Y-76183500D01*
X131079856Y-76206779D01*
X131076437Y-76229834D01*
X131070773Y-76252443D01*
X131062921Y-76274387D01*
X131052956Y-76295457D01*
X131040974Y-76315448D01*
X131027090Y-76334168D01*
X131011438Y-76351438D01*
X130994168Y-76367090D01*
X130975448Y-76380974D01*
X130955457Y-76392956D01*
X130934387Y-76402921D01*
X130912443Y-76410773D01*
X130889834Y-76416437D01*
X130866779Y-76419856D01*
X130843500Y-76421000D01*
X130268500Y-76421000D01*
X130245221Y-76419856D01*
X130222166Y-76416437D01*
X130199557Y-76410773D01*
X130177613Y-76402921D01*
X130156543Y-76392956D01*
X130136552Y-76380974D01*
X130117832Y-76367090D01*
X130100562Y-76351438D01*
X130084910Y-76334168D01*
X130071026Y-76315448D01*
X130059044Y-76295457D01*
X130049079Y-76274387D01*
X130041227Y-76252443D01*
X130035563Y-76229834D01*
X130032144Y-76206779D01*
X130031000Y-76183500D01*
X130031000Y-75708500D01*
X130032144Y-75685221D01*
X130035563Y-75662166D01*
X130041227Y-75639557D01*
X130049079Y-75617613D01*
X130059044Y-75596543D01*
X130071026Y-75576552D01*
X130084910Y-75557832D01*
X130100562Y-75540562D01*
X130117832Y-75524910D01*
X130136552Y-75511026D01*
X130156543Y-75499044D01*
X130177613Y-75489079D01*
X130199557Y-75481227D01*
X130222166Y-75475563D01*
X130245221Y-75472144D01*
X130268500Y-75471000D01*
X130843500Y-75471000D01*
X130866779Y-75472144D01*
X130866779Y-75472144D01*
G37*
D11*
X130556000Y-75946000D03*
D10*
G36*
X132616779Y-75472144D02*
G01*
X132639834Y-75475563D01*
X132662443Y-75481227D01*
X132684387Y-75489079D01*
X132705457Y-75499044D01*
X132725448Y-75511026D01*
X132744168Y-75524910D01*
X132761438Y-75540562D01*
X132777090Y-75557832D01*
X132790974Y-75576552D01*
X132802956Y-75596543D01*
X132812921Y-75617613D01*
X132820773Y-75639557D01*
X132826437Y-75662166D01*
X132829856Y-75685221D01*
X132831000Y-75708500D01*
X132831000Y-76183500D01*
X132829856Y-76206779D01*
X132826437Y-76229834D01*
X132820773Y-76252443D01*
X132812921Y-76274387D01*
X132802956Y-76295457D01*
X132790974Y-76315448D01*
X132777090Y-76334168D01*
X132761438Y-76351438D01*
X132744168Y-76367090D01*
X132725448Y-76380974D01*
X132705457Y-76392956D01*
X132684387Y-76402921D01*
X132662443Y-76410773D01*
X132639834Y-76416437D01*
X132616779Y-76419856D01*
X132593500Y-76421000D01*
X132018500Y-76421000D01*
X131995221Y-76419856D01*
X131972166Y-76416437D01*
X131949557Y-76410773D01*
X131927613Y-76402921D01*
X131906543Y-76392956D01*
X131886552Y-76380974D01*
X131867832Y-76367090D01*
X131850562Y-76351438D01*
X131834910Y-76334168D01*
X131821026Y-76315448D01*
X131809044Y-76295457D01*
X131799079Y-76274387D01*
X131791227Y-76252443D01*
X131785563Y-76229834D01*
X131782144Y-76206779D01*
X131781000Y-76183500D01*
X131781000Y-75708500D01*
X131782144Y-75685221D01*
X131785563Y-75662166D01*
X131791227Y-75639557D01*
X131799079Y-75617613D01*
X131809044Y-75596543D01*
X131821026Y-75576552D01*
X131834910Y-75557832D01*
X131850562Y-75540562D01*
X131867832Y-75524910D01*
X131886552Y-75511026D01*
X131906543Y-75499044D01*
X131927613Y-75489079D01*
X131949557Y-75481227D01*
X131972166Y-75475563D01*
X131995221Y-75472144D01*
X132018500Y-75471000D01*
X132593500Y-75471000D01*
X132616779Y-75472144D01*
X132616779Y-75472144D01*
G37*
D11*
X132306000Y-75946000D03*
D10*
G36*
X127324779Y-79282144D02*
G01*
X127347834Y-79285563D01*
X127370443Y-79291227D01*
X127392387Y-79299079D01*
X127413457Y-79309044D01*
X127433448Y-79321026D01*
X127452168Y-79334910D01*
X127469438Y-79350562D01*
X127485090Y-79367832D01*
X127498974Y-79386552D01*
X127510956Y-79406543D01*
X127520921Y-79427613D01*
X127528773Y-79449557D01*
X127534437Y-79472166D01*
X127537856Y-79495221D01*
X127539000Y-79518500D01*
X127539000Y-79993500D01*
X127537856Y-80016779D01*
X127534437Y-80039834D01*
X127528773Y-80062443D01*
X127520921Y-80084387D01*
X127510956Y-80105457D01*
X127498974Y-80125448D01*
X127485090Y-80144168D01*
X127469438Y-80161438D01*
X127452168Y-80177090D01*
X127433448Y-80190974D01*
X127413457Y-80202956D01*
X127392387Y-80212921D01*
X127370443Y-80220773D01*
X127347834Y-80226437D01*
X127324779Y-80229856D01*
X127301500Y-80231000D01*
X126726500Y-80231000D01*
X126703221Y-80229856D01*
X126680166Y-80226437D01*
X126657557Y-80220773D01*
X126635613Y-80212921D01*
X126614543Y-80202956D01*
X126594552Y-80190974D01*
X126575832Y-80177090D01*
X126558562Y-80161438D01*
X126542910Y-80144168D01*
X126529026Y-80125448D01*
X126517044Y-80105457D01*
X126507079Y-80084387D01*
X126499227Y-80062443D01*
X126493563Y-80039834D01*
X126490144Y-80016779D01*
X126489000Y-79993500D01*
X126489000Y-79518500D01*
X126490144Y-79495221D01*
X126493563Y-79472166D01*
X126499227Y-79449557D01*
X126507079Y-79427613D01*
X126517044Y-79406543D01*
X126529026Y-79386552D01*
X126542910Y-79367832D01*
X126558562Y-79350562D01*
X126575832Y-79334910D01*
X126594552Y-79321026D01*
X126614543Y-79309044D01*
X126635613Y-79299079D01*
X126657557Y-79291227D01*
X126680166Y-79285563D01*
X126703221Y-79282144D01*
X126726500Y-79281000D01*
X127301500Y-79281000D01*
X127324779Y-79282144D01*
X127324779Y-79282144D01*
G37*
D11*
X127014000Y-79756000D03*
D10*
G36*
X129074779Y-79282144D02*
G01*
X129097834Y-79285563D01*
X129120443Y-79291227D01*
X129142387Y-79299079D01*
X129163457Y-79309044D01*
X129183448Y-79321026D01*
X129202168Y-79334910D01*
X129219438Y-79350562D01*
X129235090Y-79367832D01*
X129248974Y-79386552D01*
X129260956Y-79406543D01*
X129270921Y-79427613D01*
X129278773Y-79449557D01*
X129284437Y-79472166D01*
X129287856Y-79495221D01*
X129289000Y-79518500D01*
X129289000Y-79993500D01*
X129287856Y-80016779D01*
X129284437Y-80039834D01*
X129278773Y-80062443D01*
X129270921Y-80084387D01*
X129260956Y-80105457D01*
X129248974Y-80125448D01*
X129235090Y-80144168D01*
X129219438Y-80161438D01*
X129202168Y-80177090D01*
X129183448Y-80190974D01*
X129163457Y-80202956D01*
X129142387Y-80212921D01*
X129120443Y-80220773D01*
X129097834Y-80226437D01*
X129074779Y-80229856D01*
X129051500Y-80231000D01*
X128476500Y-80231000D01*
X128453221Y-80229856D01*
X128430166Y-80226437D01*
X128407557Y-80220773D01*
X128385613Y-80212921D01*
X128364543Y-80202956D01*
X128344552Y-80190974D01*
X128325832Y-80177090D01*
X128308562Y-80161438D01*
X128292910Y-80144168D01*
X128279026Y-80125448D01*
X128267044Y-80105457D01*
X128257079Y-80084387D01*
X128249227Y-80062443D01*
X128243563Y-80039834D01*
X128240144Y-80016779D01*
X128239000Y-79993500D01*
X128239000Y-79518500D01*
X128240144Y-79495221D01*
X128243563Y-79472166D01*
X128249227Y-79449557D01*
X128257079Y-79427613D01*
X128267044Y-79406543D01*
X128279026Y-79386552D01*
X128292910Y-79367832D01*
X128308562Y-79350562D01*
X128325832Y-79334910D01*
X128344552Y-79321026D01*
X128364543Y-79309044D01*
X128385613Y-79299079D01*
X128407557Y-79291227D01*
X128430166Y-79285563D01*
X128453221Y-79282144D01*
X128476500Y-79281000D01*
X129051500Y-79281000D01*
X129074779Y-79282144D01*
X129074779Y-79282144D01*
G37*
D11*
X128764000Y-79756000D03*
D10*
G36*
X127324779Y-75472144D02*
G01*
X127347834Y-75475563D01*
X127370443Y-75481227D01*
X127392387Y-75489079D01*
X127413457Y-75499044D01*
X127433448Y-75511026D01*
X127452168Y-75524910D01*
X127469438Y-75540562D01*
X127485090Y-75557832D01*
X127498974Y-75576552D01*
X127510956Y-75596543D01*
X127520921Y-75617613D01*
X127528773Y-75639557D01*
X127534437Y-75662166D01*
X127537856Y-75685221D01*
X127539000Y-75708500D01*
X127539000Y-76183500D01*
X127537856Y-76206779D01*
X127534437Y-76229834D01*
X127528773Y-76252443D01*
X127520921Y-76274387D01*
X127510956Y-76295457D01*
X127498974Y-76315448D01*
X127485090Y-76334168D01*
X127469438Y-76351438D01*
X127452168Y-76367090D01*
X127433448Y-76380974D01*
X127413457Y-76392956D01*
X127392387Y-76402921D01*
X127370443Y-76410773D01*
X127347834Y-76416437D01*
X127324779Y-76419856D01*
X127301500Y-76421000D01*
X126726500Y-76421000D01*
X126703221Y-76419856D01*
X126680166Y-76416437D01*
X126657557Y-76410773D01*
X126635613Y-76402921D01*
X126614543Y-76392956D01*
X126594552Y-76380974D01*
X126575832Y-76367090D01*
X126558562Y-76351438D01*
X126542910Y-76334168D01*
X126529026Y-76315448D01*
X126517044Y-76295457D01*
X126507079Y-76274387D01*
X126499227Y-76252443D01*
X126493563Y-76229834D01*
X126490144Y-76206779D01*
X126489000Y-76183500D01*
X126489000Y-75708500D01*
X126490144Y-75685221D01*
X126493563Y-75662166D01*
X126499227Y-75639557D01*
X126507079Y-75617613D01*
X126517044Y-75596543D01*
X126529026Y-75576552D01*
X126542910Y-75557832D01*
X126558562Y-75540562D01*
X126575832Y-75524910D01*
X126594552Y-75511026D01*
X126614543Y-75499044D01*
X126635613Y-75489079D01*
X126657557Y-75481227D01*
X126680166Y-75475563D01*
X126703221Y-75472144D01*
X126726500Y-75471000D01*
X127301500Y-75471000D01*
X127324779Y-75472144D01*
X127324779Y-75472144D01*
G37*
D11*
X127014000Y-75946000D03*
D10*
G36*
X129074779Y-75472144D02*
G01*
X129097834Y-75475563D01*
X129120443Y-75481227D01*
X129142387Y-75489079D01*
X129163457Y-75499044D01*
X129183448Y-75511026D01*
X129202168Y-75524910D01*
X129219438Y-75540562D01*
X129235090Y-75557832D01*
X129248974Y-75576552D01*
X129260956Y-75596543D01*
X129270921Y-75617613D01*
X129278773Y-75639557D01*
X129284437Y-75662166D01*
X129287856Y-75685221D01*
X129289000Y-75708500D01*
X129289000Y-76183500D01*
X129287856Y-76206779D01*
X129284437Y-76229834D01*
X129278773Y-76252443D01*
X129270921Y-76274387D01*
X129260956Y-76295457D01*
X129248974Y-76315448D01*
X129235090Y-76334168D01*
X129219438Y-76351438D01*
X129202168Y-76367090D01*
X129183448Y-76380974D01*
X129163457Y-76392956D01*
X129142387Y-76402921D01*
X129120443Y-76410773D01*
X129097834Y-76416437D01*
X129074779Y-76419856D01*
X129051500Y-76421000D01*
X128476500Y-76421000D01*
X128453221Y-76419856D01*
X128430166Y-76416437D01*
X128407557Y-76410773D01*
X128385613Y-76402921D01*
X128364543Y-76392956D01*
X128344552Y-76380974D01*
X128325832Y-76367090D01*
X128308562Y-76351438D01*
X128292910Y-76334168D01*
X128279026Y-76315448D01*
X128267044Y-76295457D01*
X128257079Y-76274387D01*
X128249227Y-76252443D01*
X128243563Y-76229834D01*
X128240144Y-76206779D01*
X128239000Y-76183500D01*
X128239000Y-75708500D01*
X128240144Y-75685221D01*
X128243563Y-75662166D01*
X128249227Y-75639557D01*
X128257079Y-75617613D01*
X128267044Y-75596543D01*
X128279026Y-75576552D01*
X128292910Y-75557832D01*
X128308562Y-75540562D01*
X128325832Y-75524910D01*
X128344552Y-75511026D01*
X128364543Y-75499044D01*
X128385613Y-75489079D01*
X128407557Y-75481227D01*
X128430166Y-75475563D01*
X128453221Y-75472144D01*
X128476500Y-75471000D01*
X129051500Y-75471000D01*
X129074779Y-75472144D01*
X129074779Y-75472144D01*
G37*
D11*
X128764000Y-75946000D03*
D10*
G36*
X148850779Y-84298144D02*
G01*
X148873834Y-84301563D01*
X148896443Y-84307227D01*
X148918387Y-84315079D01*
X148939457Y-84325044D01*
X148959448Y-84337026D01*
X148978168Y-84350910D01*
X148995438Y-84366562D01*
X149011090Y-84383832D01*
X149024974Y-84402552D01*
X149036956Y-84422543D01*
X149046921Y-84443613D01*
X149054773Y-84465557D01*
X149060437Y-84488166D01*
X149063856Y-84511221D01*
X149065000Y-84534500D01*
X149065000Y-85109500D01*
X149063856Y-85132779D01*
X149060437Y-85155834D01*
X149054773Y-85178443D01*
X149046921Y-85200387D01*
X149036956Y-85221457D01*
X149024974Y-85241448D01*
X149011090Y-85260168D01*
X148995438Y-85277438D01*
X148978168Y-85293090D01*
X148959448Y-85306974D01*
X148939457Y-85318956D01*
X148918387Y-85328921D01*
X148896443Y-85336773D01*
X148873834Y-85342437D01*
X148850779Y-85345856D01*
X148827500Y-85347000D01*
X148352500Y-85347000D01*
X148329221Y-85345856D01*
X148306166Y-85342437D01*
X148283557Y-85336773D01*
X148261613Y-85328921D01*
X148240543Y-85318956D01*
X148220552Y-85306974D01*
X148201832Y-85293090D01*
X148184562Y-85277438D01*
X148168910Y-85260168D01*
X148155026Y-85241448D01*
X148143044Y-85221457D01*
X148133079Y-85200387D01*
X148125227Y-85178443D01*
X148119563Y-85155834D01*
X148116144Y-85132779D01*
X148115000Y-85109500D01*
X148115000Y-84534500D01*
X148116144Y-84511221D01*
X148119563Y-84488166D01*
X148125227Y-84465557D01*
X148133079Y-84443613D01*
X148143044Y-84422543D01*
X148155026Y-84402552D01*
X148168910Y-84383832D01*
X148184562Y-84366562D01*
X148201832Y-84350910D01*
X148220552Y-84337026D01*
X148240543Y-84325044D01*
X148261613Y-84315079D01*
X148283557Y-84307227D01*
X148306166Y-84301563D01*
X148329221Y-84298144D01*
X148352500Y-84297000D01*
X148827500Y-84297000D01*
X148850779Y-84298144D01*
X148850779Y-84298144D01*
G37*
D11*
X148590000Y-84822000D03*
D10*
G36*
X148850779Y-82548144D02*
G01*
X148873834Y-82551563D01*
X148896443Y-82557227D01*
X148918387Y-82565079D01*
X148939457Y-82575044D01*
X148959448Y-82587026D01*
X148978168Y-82600910D01*
X148995438Y-82616562D01*
X149011090Y-82633832D01*
X149024974Y-82652552D01*
X149036956Y-82672543D01*
X149046921Y-82693613D01*
X149054773Y-82715557D01*
X149060437Y-82738166D01*
X149063856Y-82761221D01*
X149065000Y-82784500D01*
X149065000Y-83359500D01*
X149063856Y-83382779D01*
X149060437Y-83405834D01*
X149054773Y-83428443D01*
X149046921Y-83450387D01*
X149036956Y-83471457D01*
X149024974Y-83491448D01*
X149011090Y-83510168D01*
X148995438Y-83527438D01*
X148978168Y-83543090D01*
X148959448Y-83556974D01*
X148939457Y-83568956D01*
X148918387Y-83578921D01*
X148896443Y-83586773D01*
X148873834Y-83592437D01*
X148850779Y-83595856D01*
X148827500Y-83597000D01*
X148352500Y-83597000D01*
X148329221Y-83595856D01*
X148306166Y-83592437D01*
X148283557Y-83586773D01*
X148261613Y-83578921D01*
X148240543Y-83568956D01*
X148220552Y-83556974D01*
X148201832Y-83543090D01*
X148184562Y-83527438D01*
X148168910Y-83510168D01*
X148155026Y-83491448D01*
X148143044Y-83471457D01*
X148133079Y-83450387D01*
X148125227Y-83428443D01*
X148119563Y-83405834D01*
X148116144Y-83382779D01*
X148115000Y-83359500D01*
X148115000Y-82784500D01*
X148116144Y-82761221D01*
X148119563Y-82738166D01*
X148125227Y-82715557D01*
X148133079Y-82693613D01*
X148143044Y-82672543D01*
X148155026Y-82652552D01*
X148168910Y-82633832D01*
X148184562Y-82616562D01*
X148201832Y-82600910D01*
X148220552Y-82587026D01*
X148240543Y-82575044D01*
X148261613Y-82565079D01*
X148283557Y-82557227D01*
X148306166Y-82551563D01*
X148329221Y-82548144D01*
X148352500Y-82547000D01*
X148827500Y-82547000D01*
X148850779Y-82548144D01*
X148850779Y-82548144D01*
G37*
D11*
X148590000Y-83072000D03*
D10*
G36*
X176473779Y-74329144D02*
G01*
X176496834Y-74332563D01*
X176519443Y-74338227D01*
X176541387Y-74346079D01*
X176562457Y-74356044D01*
X176582448Y-74368026D01*
X176601168Y-74381910D01*
X176618438Y-74397562D01*
X176634090Y-74414832D01*
X176647974Y-74433552D01*
X176659956Y-74453543D01*
X176669921Y-74474613D01*
X176677773Y-74496557D01*
X176683437Y-74519166D01*
X176686856Y-74542221D01*
X176688000Y-74565500D01*
X176688000Y-75040500D01*
X176686856Y-75063779D01*
X176683437Y-75086834D01*
X176677773Y-75109443D01*
X176669921Y-75131387D01*
X176659956Y-75152457D01*
X176647974Y-75172448D01*
X176634090Y-75191168D01*
X176618438Y-75208438D01*
X176601168Y-75224090D01*
X176582448Y-75237974D01*
X176562457Y-75249956D01*
X176541387Y-75259921D01*
X176519443Y-75267773D01*
X176496834Y-75273437D01*
X176473779Y-75276856D01*
X176450500Y-75278000D01*
X175875500Y-75278000D01*
X175852221Y-75276856D01*
X175829166Y-75273437D01*
X175806557Y-75267773D01*
X175784613Y-75259921D01*
X175763543Y-75249956D01*
X175743552Y-75237974D01*
X175724832Y-75224090D01*
X175707562Y-75208438D01*
X175691910Y-75191168D01*
X175678026Y-75172448D01*
X175666044Y-75152457D01*
X175656079Y-75131387D01*
X175648227Y-75109443D01*
X175642563Y-75086834D01*
X175639144Y-75063779D01*
X175638000Y-75040500D01*
X175638000Y-74565500D01*
X175639144Y-74542221D01*
X175642563Y-74519166D01*
X175648227Y-74496557D01*
X175656079Y-74474613D01*
X175666044Y-74453543D01*
X175678026Y-74433552D01*
X175691910Y-74414832D01*
X175707562Y-74397562D01*
X175724832Y-74381910D01*
X175743552Y-74368026D01*
X175763543Y-74356044D01*
X175784613Y-74346079D01*
X175806557Y-74338227D01*
X175829166Y-74332563D01*
X175852221Y-74329144D01*
X175875500Y-74328000D01*
X176450500Y-74328000D01*
X176473779Y-74329144D01*
X176473779Y-74329144D01*
G37*
D11*
X176163000Y-74803000D03*
D10*
G36*
X178223779Y-74329144D02*
G01*
X178246834Y-74332563D01*
X178269443Y-74338227D01*
X178291387Y-74346079D01*
X178312457Y-74356044D01*
X178332448Y-74368026D01*
X178351168Y-74381910D01*
X178368438Y-74397562D01*
X178384090Y-74414832D01*
X178397974Y-74433552D01*
X178409956Y-74453543D01*
X178419921Y-74474613D01*
X178427773Y-74496557D01*
X178433437Y-74519166D01*
X178436856Y-74542221D01*
X178438000Y-74565500D01*
X178438000Y-75040500D01*
X178436856Y-75063779D01*
X178433437Y-75086834D01*
X178427773Y-75109443D01*
X178419921Y-75131387D01*
X178409956Y-75152457D01*
X178397974Y-75172448D01*
X178384090Y-75191168D01*
X178368438Y-75208438D01*
X178351168Y-75224090D01*
X178332448Y-75237974D01*
X178312457Y-75249956D01*
X178291387Y-75259921D01*
X178269443Y-75267773D01*
X178246834Y-75273437D01*
X178223779Y-75276856D01*
X178200500Y-75278000D01*
X177625500Y-75278000D01*
X177602221Y-75276856D01*
X177579166Y-75273437D01*
X177556557Y-75267773D01*
X177534613Y-75259921D01*
X177513543Y-75249956D01*
X177493552Y-75237974D01*
X177474832Y-75224090D01*
X177457562Y-75208438D01*
X177441910Y-75191168D01*
X177428026Y-75172448D01*
X177416044Y-75152457D01*
X177406079Y-75131387D01*
X177398227Y-75109443D01*
X177392563Y-75086834D01*
X177389144Y-75063779D01*
X177388000Y-75040500D01*
X177388000Y-74565500D01*
X177389144Y-74542221D01*
X177392563Y-74519166D01*
X177398227Y-74496557D01*
X177406079Y-74474613D01*
X177416044Y-74453543D01*
X177428026Y-74433552D01*
X177441910Y-74414832D01*
X177457562Y-74397562D01*
X177474832Y-74381910D01*
X177493552Y-74368026D01*
X177513543Y-74356044D01*
X177534613Y-74346079D01*
X177556557Y-74338227D01*
X177579166Y-74332563D01*
X177602221Y-74329144D01*
X177625500Y-74328000D01*
X178200500Y-74328000D01*
X178223779Y-74329144D01*
X178223779Y-74329144D01*
G37*
D11*
X177913000Y-74803000D03*
D10*
G36*
X173044779Y-74329144D02*
G01*
X173067834Y-74332563D01*
X173090443Y-74338227D01*
X173112387Y-74346079D01*
X173133457Y-74356044D01*
X173153448Y-74368026D01*
X173172168Y-74381910D01*
X173189438Y-74397562D01*
X173205090Y-74414832D01*
X173218974Y-74433552D01*
X173230956Y-74453543D01*
X173240921Y-74474613D01*
X173248773Y-74496557D01*
X173254437Y-74519166D01*
X173257856Y-74542221D01*
X173259000Y-74565500D01*
X173259000Y-75040500D01*
X173257856Y-75063779D01*
X173254437Y-75086834D01*
X173248773Y-75109443D01*
X173240921Y-75131387D01*
X173230956Y-75152457D01*
X173218974Y-75172448D01*
X173205090Y-75191168D01*
X173189438Y-75208438D01*
X173172168Y-75224090D01*
X173153448Y-75237974D01*
X173133457Y-75249956D01*
X173112387Y-75259921D01*
X173090443Y-75267773D01*
X173067834Y-75273437D01*
X173044779Y-75276856D01*
X173021500Y-75278000D01*
X172446500Y-75278000D01*
X172423221Y-75276856D01*
X172400166Y-75273437D01*
X172377557Y-75267773D01*
X172355613Y-75259921D01*
X172334543Y-75249956D01*
X172314552Y-75237974D01*
X172295832Y-75224090D01*
X172278562Y-75208438D01*
X172262910Y-75191168D01*
X172249026Y-75172448D01*
X172237044Y-75152457D01*
X172227079Y-75131387D01*
X172219227Y-75109443D01*
X172213563Y-75086834D01*
X172210144Y-75063779D01*
X172209000Y-75040500D01*
X172209000Y-74565500D01*
X172210144Y-74542221D01*
X172213563Y-74519166D01*
X172219227Y-74496557D01*
X172227079Y-74474613D01*
X172237044Y-74453543D01*
X172249026Y-74433552D01*
X172262910Y-74414832D01*
X172278562Y-74397562D01*
X172295832Y-74381910D01*
X172314552Y-74368026D01*
X172334543Y-74356044D01*
X172355613Y-74346079D01*
X172377557Y-74338227D01*
X172400166Y-74332563D01*
X172423221Y-74329144D01*
X172446500Y-74328000D01*
X173021500Y-74328000D01*
X173044779Y-74329144D01*
X173044779Y-74329144D01*
G37*
D11*
X172734000Y-74803000D03*
D10*
G36*
X174794779Y-74329144D02*
G01*
X174817834Y-74332563D01*
X174840443Y-74338227D01*
X174862387Y-74346079D01*
X174883457Y-74356044D01*
X174903448Y-74368026D01*
X174922168Y-74381910D01*
X174939438Y-74397562D01*
X174955090Y-74414832D01*
X174968974Y-74433552D01*
X174980956Y-74453543D01*
X174990921Y-74474613D01*
X174998773Y-74496557D01*
X175004437Y-74519166D01*
X175007856Y-74542221D01*
X175009000Y-74565500D01*
X175009000Y-75040500D01*
X175007856Y-75063779D01*
X175004437Y-75086834D01*
X174998773Y-75109443D01*
X174990921Y-75131387D01*
X174980956Y-75152457D01*
X174968974Y-75172448D01*
X174955090Y-75191168D01*
X174939438Y-75208438D01*
X174922168Y-75224090D01*
X174903448Y-75237974D01*
X174883457Y-75249956D01*
X174862387Y-75259921D01*
X174840443Y-75267773D01*
X174817834Y-75273437D01*
X174794779Y-75276856D01*
X174771500Y-75278000D01*
X174196500Y-75278000D01*
X174173221Y-75276856D01*
X174150166Y-75273437D01*
X174127557Y-75267773D01*
X174105613Y-75259921D01*
X174084543Y-75249956D01*
X174064552Y-75237974D01*
X174045832Y-75224090D01*
X174028562Y-75208438D01*
X174012910Y-75191168D01*
X173999026Y-75172448D01*
X173987044Y-75152457D01*
X173977079Y-75131387D01*
X173969227Y-75109443D01*
X173963563Y-75086834D01*
X173960144Y-75063779D01*
X173959000Y-75040500D01*
X173959000Y-74565500D01*
X173960144Y-74542221D01*
X173963563Y-74519166D01*
X173969227Y-74496557D01*
X173977079Y-74474613D01*
X173987044Y-74453543D01*
X173999026Y-74433552D01*
X174012910Y-74414832D01*
X174028562Y-74397562D01*
X174045832Y-74381910D01*
X174064552Y-74368026D01*
X174084543Y-74356044D01*
X174105613Y-74346079D01*
X174127557Y-74338227D01*
X174150166Y-74332563D01*
X174173221Y-74329144D01*
X174196500Y-74328000D01*
X174771500Y-74328000D01*
X174794779Y-74329144D01*
X174794779Y-74329144D01*
G37*
D11*
X174484000Y-74803000D03*
M02*
