G04 #@! TF.GenerationSoftware,KiCad,Pcbnew,(5.1.2-1)-1*
G04 #@! TF.CreationDate,2019-07-09T00:43:20-07:00*
G04 #@! TF.ProjectId,ram_board,72616d5f-626f-4617-9264-2e6b69636164,rev?*
G04 #@! TF.SameCoordinates,Original*
G04 #@! TF.FileFunction,Legend,Top*
G04 #@! TF.FilePolarity,Positive*
%FSLAX46Y46*%
G04 Gerber Fmt 4.6, Leading zero omitted, Abs format (unit mm)*
G04 Created by KiCad (PCBNEW (5.1.2-1)-1) date 2019-07-09 00:43:20*
%MOMM*%
%LPD*%
G04 APERTURE LIST*
%ADD10C,0.152400*%
%ADD11C,0.120000*%
%ADD12C,0.150000*%
%ADD13C,0.100000*%
G04 APERTURE END LIST*
D10*
X132326742Y-85888285D02*
X132288038Y-85926990D01*
X132171923Y-85965695D01*
X132094514Y-85965695D01*
X131978400Y-85926990D01*
X131900990Y-85849580D01*
X131862285Y-85772171D01*
X131823580Y-85617352D01*
X131823580Y-85501238D01*
X131862285Y-85346419D01*
X131900990Y-85269009D01*
X131978400Y-85191600D01*
X132094514Y-85152895D01*
X132171923Y-85152895D01*
X132288038Y-85191600D01*
X132326742Y-85230304D01*
X132791200Y-85965695D02*
X132713790Y-85926990D01*
X132675085Y-85888285D01*
X132636380Y-85810876D01*
X132636380Y-85578647D01*
X132675085Y-85501238D01*
X132713790Y-85462533D01*
X132791200Y-85423828D01*
X132907314Y-85423828D01*
X132984723Y-85462533D01*
X133023428Y-85501238D01*
X133062133Y-85578647D01*
X133062133Y-85810876D01*
X133023428Y-85888285D01*
X132984723Y-85926990D01*
X132907314Y-85965695D01*
X132791200Y-85965695D01*
X133410476Y-85423828D02*
X133410476Y-85965695D01*
X133410476Y-85501238D02*
X133449180Y-85462533D01*
X133526590Y-85423828D01*
X133642704Y-85423828D01*
X133720114Y-85462533D01*
X133758819Y-85539942D01*
X133758819Y-85965695D01*
X134029752Y-85423828D02*
X134339390Y-85423828D01*
X134145866Y-85965695D02*
X134145866Y-85269009D01*
X134184571Y-85191600D01*
X134261980Y-85152895D01*
X134339390Y-85152895D01*
X134610323Y-85965695D02*
X134610323Y-85423828D01*
X134610323Y-85152895D02*
X134571619Y-85191600D01*
X134610323Y-85230304D01*
X134649028Y-85191600D01*
X134610323Y-85152895D01*
X134610323Y-85230304D01*
X135345714Y-85423828D02*
X135345714Y-86081809D01*
X135307009Y-86159219D01*
X135268304Y-86197923D01*
X135190895Y-86236628D01*
X135074780Y-86236628D01*
X134997371Y-86197923D01*
X135345714Y-85926990D02*
X135268304Y-85965695D01*
X135113485Y-85965695D01*
X135036076Y-85926990D01*
X134997371Y-85888285D01*
X134958666Y-85810876D01*
X134958666Y-85578647D01*
X134997371Y-85501238D01*
X135036076Y-85462533D01*
X135113485Y-85423828D01*
X135268304Y-85423828D01*
X135345714Y-85462533D01*
X135868228Y-96506695D02*
X135403771Y-96506695D01*
X135636000Y-96506695D02*
X135636000Y-95693895D01*
X135558590Y-95810009D01*
X135481180Y-95887419D01*
X135403771Y-95926123D01*
X134133771Y-95771304D02*
X134172476Y-95732600D01*
X134249885Y-95693895D01*
X134443409Y-95693895D01*
X134520819Y-95732600D01*
X134559523Y-95771304D01*
X134598228Y-95848714D01*
X134598228Y-95926123D01*
X134559523Y-96042238D01*
X134095066Y-96506695D01*
X134598228Y-96506695D01*
X133250819Y-95964828D02*
X133250819Y-96506695D01*
X133057295Y-95655190D02*
X132863771Y-96235761D01*
X133366933Y-96235761D01*
X131748590Y-96042238D02*
X131671180Y-96003533D01*
X131632476Y-95964828D01*
X131593771Y-95887419D01*
X131593771Y-95848714D01*
X131632476Y-95771304D01*
X131671180Y-95732600D01*
X131748590Y-95693895D01*
X131903409Y-95693895D01*
X131980819Y-95732600D01*
X132019523Y-95771304D01*
X132058228Y-95848714D01*
X132058228Y-95887419D01*
X132019523Y-95964828D01*
X131980819Y-96003533D01*
X131903409Y-96042238D01*
X131748590Y-96042238D01*
X131671180Y-96080942D01*
X131632476Y-96119647D01*
X131593771Y-96197057D01*
X131593771Y-96351876D01*
X131632476Y-96429285D01*
X131671180Y-96467990D01*
X131748590Y-96506695D01*
X131903409Y-96506695D01*
X131980819Y-96467990D01*
X132019523Y-96429285D01*
X132058228Y-96351876D01*
X132058228Y-96197057D01*
X132019523Y-96119647D01*
X131980819Y-96080942D01*
X131903409Y-96042238D01*
X126020285Y-78779914D02*
X125766285Y-78417057D01*
X125584857Y-78779914D02*
X125584857Y-78017914D01*
X125875142Y-78017914D01*
X125947714Y-78054200D01*
X125984000Y-78090485D01*
X126020285Y-78163057D01*
X126020285Y-78271914D01*
X125984000Y-78344485D01*
X125947714Y-78380771D01*
X125875142Y-78417057D01*
X125584857Y-78417057D01*
X126492000Y-78017914D02*
X126637142Y-78017914D01*
X126709714Y-78054200D01*
X126782285Y-78126771D01*
X126818571Y-78271914D01*
X126818571Y-78525914D01*
X126782285Y-78671057D01*
X126709714Y-78743628D01*
X126637142Y-78779914D01*
X126492000Y-78779914D01*
X126419428Y-78743628D01*
X126346857Y-78671057D01*
X126310571Y-78525914D01*
X126310571Y-78271914D01*
X126346857Y-78126771D01*
X126419428Y-78054200D01*
X126492000Y-78017914D01*
X127145142Y-78779914D02*
X127145142Y-78017914D01*
X127399142Y-78562200D01*
X127653142Y-78017914D01*
X127653142Y-78779914D01*
X122460657Y-78754514D02*
X122206657Y-78391657D01*
X122025228Y-78754514D02*
X122025228Y-77992514D01*
X122315514Y-77992514D01*
X122388085Y-78028800D01*
X122424371Y-78065085D01*
X122460657Y-78137657D01*
X122460657Y-78246514D01*
X122424371Y-78319085D01*
X122388085Y-78355371D01*
X122315514Y-78391657D01*
X122025228Y-78391657D01*
X122750942Y-78536800D02*
X123113800Y-78536800D01*
X122678371Y-78754514D02*
X122932371Y-77992514D01*
X123186371Y-78754514D01*
X123440371Y-78754514D02*
X123440371Y-77992514D01*
X123694371Y-78536800D01*
X123948371Y-77992514D01*
X123948371Y-78754514D01*
X171649571Y-94959714D02*
X171286714Y-94959714D01*
X171250428Y-95322571D01*
X171286714Y-95286285D01*
X171359285Y-95250000D01*
X171540714Y-95250000D01*
X171613285Y-95286285D01*
X171649571Y-95322571D01*
X171685857Y-95395142D01*
X171685857Y-95576571D01*
X171649571Y-95649142D01*
X171613285Y-95685428D01*
X171540714Y-95721714D01*
X171359285Y-95721714D01*
X171286714Y-95685428D01*
X171250428Y-95649142D01*
X172411571Y-95721714D02*
X171976142Y-95721714D01*
X172193857Y-95721714D02*
X172193857Y-94959714D01*
X172121285Y-95068571D01*
X172048714Y-95141142D01*
X171976142Y-95177428D01*
X172701857Y-95032285D02*
X172738142Y-94996000D01*
X172810714Y-94959714D01*
X172992142Y-94959714D01*
X173064714Y-94996000D01*
X173101000Y-95032285D01*
X173137285Y-95104857D01*
X173137285Y-95177428D01*
X173101000Y-95286285D01*
X172665571Y-95721714D01*
X173137285Y-95721714D01*
X173463857Y-95721714D02*
X173463857Y-94959714D01*
X173899285Y-95721714D02*
X173572714Y-95286285D01*
X173899285Y-94959714D02*
X173463857Y-95395142D01*
X174153285Y-95721714D02*
X174552428Y-95213714D01*
X174153285Y-95213714D02*
X174552428Y-95721714D01*
X174951571Y-95286285D02*
X174879000Y-95250000D01*
X174842714Y-95213714D01*
X174806428Y-95141142D01*
X174806428Y-95104857D01*
X174842714Y-95032285D01*
X174879000Y-94996000D01*
X174951571Y-94959714D01*
X175096714Y-94959714D01*
X175169285Y-94996000D01*
X175205571Y-95032285D01*
X175241857Y-95104857D01*
X175241857Y-95141142D01*
X175205571Y-95213714D01*
X175169285Y-95250000D01*
X175096714Y-95286285D01*
X174951571Y-95286285D01*
X174879000Y-95322571D01*
X174842714Y-95358857D01*
X174806428Y-95431428D01*
X174806428Y-95576571D01*
X174842714Y-95649142D01*
X174879000Y-95685428D01*
X174951571Y-95721714D01*
X175096714Y-95721714D01*
X175169285Y-95685428D01*
X175205571Y-95649142D01*
X175241857Y-95576571D01*
X175241857Y-95431428D01*
X175205571Y-95358857D01*
X175169285Y-95322571D01*
X175096714Y-95286285D01*
X176584428Y-95721714D02*
X176330428Y-95358857D01*
X176149000Y-95721714D02*
X176149000Y-94959714D01*
X176439285Y-94959714D01*
X176511857Y-94996000D01*
X176548142Y-95032285D01*
X176584428Y-95104857D01*
X176584428Y-95213714D01*
X176548142Y-95286285D01*
X176511857Y-95322571D01*
X176439285Y-95358857D01*
X176149000Y-95358857D01*
X177056142Y-94959714D02*
X177201285Y-94959714D01*
X177273857Y-94996000D01*
X177346428Y-95068571D01*
X177382714Y-95213714D01*
X177382714Y-95467714D01*
X177346428Y-95612857D01*
X177273857Y-95685428D01*
X177201285Y-95721714D01*
X177056142Y-95721714D01*
X176983571Y-95685428D01*
X176911000Y-95612857D01*
X176874714Y-95467714D01*
X176874714Y-95213714D01*
X176911000Y-95068571D01*
X176983571Y-94996000D01*
X177056142Y-94959714D01*
X177709285Y-95721714D02*
X177709285Y-94959714D01*
X177963285Y-95504000D01*
X178217285Y-94959714D01*
X178217285Y-95721714D01*
X125628400Y-81098571D02*
X125882400Y-81098571D01*
X125991257Y-81497714D02*
X125628400Y-81497714D01*
X125628400Y-80735714D01*
X125991257Y-80735714D01*
X126317828Y-81497714D02*
X126317828Y-80735714D01*
X126753257Y-81497714D01*
X126753257Y-80735714D01*
X127079828Y-81280000D02*
X127442685Y-81280000D01*
X127007257Y-81497714D02*
X127261257Y-80735714D01*
X127515257Y-81497714D01*
X122047000Y-81123971D02*
X122301000Y-81123971D01*
X122409857Y-81523114D02*
X122047000Y-81523114D01*
X122047000Y-80761114D01*
X122409857Y-80761114D01*
X122736428Y-81523114D02*
X122736428Y-80761114D01*
X123171857Y-81523114D01*
X123171857Y-80761114D01*
X123498428Y-81305400D02*
X123861285Y-81305400D01*
X123425857Y-81523114D02*
X123679857Y-80761114D01*
X123933857Y-81523114D01*
X147737285Y-94959714D02*
X147374428Y-94959714D01*
X147338142Y-95322571D01*
X147374428Y-95286285D01*
X147447000Y-95250000D01*
X147628428Y-95250000D01*
X147701000Y-95286285D01*
X147737285Y-95322571D01*
X147773571Y-95395142D01*
X147773571Y-95576571D01*
X147737285Y-95649142D01*
X147701000Y-95685428D01*
X147628428Y-95721714D01*
X147447000Y-95721714D01*
X147374428Y-95685428D01*
X147338142Y-95649142D01*
X148499285Y-95721714D02*
X148063857Y-95721714D01*
X148281571Y-95721714D02*
X148281571Y-94959714D01*
X148209000Y-95068571D01*
X148136428Y-95141142D01*
X148063857Y-95177428D01*
X148789571Y-95032285D02*
X148825857Y-94996000D01*
X148898428Y-94959714D01*
X149079857Y-94959714D01*
X149152428Y-94996000D01*
X149188714Y-95032285D01*
X149225000Y-95104857D01*
X149225000Y-95177428D01*
X149188714Y-95286285D01*
X148753285Y-95721714D01*
X149225000Y-95721714D01*
X149551571Y-95721714D02*
X149551571Y-94959714D01*
X149987000Y-95721714D02*
X149660428Y-95286285D01*
X149987000Y-94959714D02*
X149551571Y-95395142D01*
X150241000Y-95721714D02*
X150640142Y-95213714D01*
X150241000Y-95213714D02*
X150640142Y-95721714D01*
X151039285Y-95286285D02*
X150966714Y-95250000D01*
X150930428Y-95213714D01*
X150894142Y-95141142D01*
X150894142Y-95104857D01*
X150930428Y-95032285D01*
X150966714Y-94996000D01*
X151039285Y-94959714D01*
X151184428Y-94959714D01*
X151257000Y-94996000D01*
X151293285Y-95032285D01*
X151329571Y-95104857D01*
X151329571Y-95141142D01*
X151293285Y-95213714D01*
X151257000Y-95250000D01*
X151184428Y-95286285D01*
X151039285Y-95286285D01*
X150966714Y-95322571D01*
X150930428Y-95358857D01*
X150894142Y-95431428D01*
X150894142Y-95576571D01*
X150930428Y-95649142D01*
X150966714Y-95685428D01*
X151039285Y-95721714D01*
X151184428Y-95721714D01*
X151257000Y-95685428D01*
X151293285Y-95649142D01*
X151329571Y-95576571D01*
X151329571Y-95431428D01*
X151293285Y-95358857D01*
X151257000Y-95322571D01*
X151184428Y-95286285D01*
X152200428Y-95685428D02*
X152309285Y-95721714D01*
X152490714Y-95721714D01*
X152563285Y-95685428D01*
X152599571Y-95649142D01*
X152635857Y-95576571D01*
X152635857Y-95504000D01*
X152599571Y-95431428D01*
X152563285Y-95395142D01*
X152490714Y-95358857D01*
X152345571Y-95322571D01*
X152273000Y-95286285D01*
X152236714Y-95250000D01*
X152200428Y-95177428D01*
X152200428Y-95104857D01*
X152236714Y-95032285D01*
X152273000Y-94996000D01*
X152345571Y-94959714D01*
X152527000Y-94959714D01*
X152635857Y-94996000D01*
X153397857Y-95721714D02*
X153143857Y-95358857D01*
X152962428Y-95721714D02*
X152962428Y-94959714D01*
X153252714Y-94959714D01*
X153325285Y-94996000D01*
X153361571Y-95032285D01*
X153397857Y-95104857D01*
X153397857Y-95213714D01*
X153361571Y-95286285D01*
X153325285Y-95322571D01*
X153252714Y-95358857D01*
X152962428Y-95358857D01*
X153688142Y-95504000D02*
X154051000Y-95504000D01*
X153615571Y-95721714D02*
X153869571Y-94959714D01*
X154123571Y-95721714D01*
X154377571Y-95721714D02*
X154377571Y-94959714D01*
X154631571Y-95504000D01*
X154885571Y-94959714D01*
X154885571Y-95721714D01*
D11*
X131765000Y-93565000D02*
X130330000Y-93565000D01*
X131765000Y-88045000D02*
X130330000Y-88045000D01*
X137132000Y-93565000D02*
X135697000Y-93565000D01*
X137132000Y-88045000D02*
X137132000Y-93565000D01*
X137132000Y-88045000D02*
X136316000Y-88045000D01*
X136316000Y-86359000D02*
X136316000Y-88045000D01*
X130330000Y-88045000D02*
X130330000Y-93565000D01*
X123018733Y-95582200D02*
X123361267Y-95582200D01*
X123018733Y-94562200D02*
X123361267Y-94562200D01*
D12*
X122363600Y-84139400D02*
X121013600Y-84139400D01*
X122363600Y-89264400D02*
X127013600Y-89264400D01*
X122363600Y-84014400D02*
X127013600Y-84014400D01*
X122363600Y-89264400D02*
X122363600Y-89039400D01*
X127013600Y-89264400D02*
X127013600Y-89039400D01*
X127013600Y-84014400D02*
X127013600Y-84239400D01*
X122363600Y-84014400D02*
X122363600Y-84139400D01*
D11*
X124933600Y-80516400D02*
X127393600Y-80516400D01*
X124933600Y-79046400D02*
X124933600Y-80516400D01*
X127393600Y-79046400D02*
X124933600Y-79046400D01*
X121377600Y-80516400D02*
X123837600Y-80516400D01*
X121377600Y-79046400D02*
X121377600Y-80516400D01*
X123837600Y-79046400D02*
X121377600Y-79046400D01*
X138751000Y-97663000D02*
X138751000Y-96553000D01*
X138751000Y-96553000D02*
X140081000Y-96553000D01*
X138751000Y-110293000D02*
X189671000Y-110293000D01*
X189671000Y-110293000D02*
X189671000Y-101663000D01*
X138751000Y-101663000D02*
X189671000Y-101663000D01*
X138751000Y-110293000D02*
X138751000Y-101663000D01*
X187071000Y-110293000D02*
X187071000Y-101663000D01*
X184531000Y-110293000D02*
X184531000Y-101663000D01*
X181991000Y-110293000D02*
X181991000Y-101663000D01*
X179451000Y-110293000D02*
X179451000Y-101663000D01*
X176911000Y-110293000D02*
X176911000Y-101663000D01*
X174371000Y-110293000D02*
X174371000Y-101663000D01*
X171831000Y-110293000D02*
X171831000Y-101663000D01*
X169291000Y-110293000D02*
X169291000Y-101663000D01*
X166751000Y-110293000D02*
X166751000Y-101663000D01*
X164211000Y-110293000D02*
X164211000Y-101663000D01*
X161671000Y-110293000D02*
X161671000Y-101663000D01*
X159131000Y-110293000D02*
X159131000Y-101663000D01*
X156591000Y-110293000D02*
X156591000Y-101663000D01*
X154051000Y-110293000D02*
X154051000Y-101663000D01*
X151511000Y-110293000D02*
X151511000Y-101663000D01*
X148971000Y-110293000D02*
X148971000Y-101663000D01*
X146431000Y-110293000D02*
X146431000Y-101663000D01*
X143891000Y-110293000D02*
X143891000Y-101663000D01*
X141351000Y-110293000D02*
X141351000Y-101663000D01*
X188701000Y-99153000D02*
X188701000Y-98713000D01*
X188701000Y-101663000D02*
X188701000Y-101253000D01*
X187981000Y-99153000D02*
X187981000Y-98713000D01*
X187981000Y-101663000D02*
X187981000Y-101253000D01*
X186161000Y-99153000D02*
X186161000Y-98713000D01*
X186161000Y-101663000D02*
X186161000Y-101253000D01*
X185441000Y-99153000D02*
X185441000Y-98713000D01*
X185441000Y-101663000D02*
X185441000Y-101253000D01*
X183621000Y-99153000D02*
X183621000Y-98713000D01*
X183621000Y-101663000D02*
X183621000Y-101253000D01*
X182901000Y-99153000D02*
X182901000Y-98713000D01*
X182901000Y-101663000D02*
X182901000Y-101253000D01*
X181081000Y-99153000D02*
X181081000Y-98713000D01*
X181081000Y-101663000D02*
X181081000Y-101253000D01*
X180361000Y-99153000D02*
X180361000Y-98713000D01*
X180361000Y-101663000D02*
X180361000Y-101253000D01*
X178541000Y-99153000D02*
X178541000Y-98713000D01*
X178541000Y-101663000D02*
X178541000Y-101253000D01*
X177821000Y-99153000D02*
X177821000Y-98713000D01*
X177821000Y-101663000D02*
X177821000Y-101253000D01*
X176001000Y-99153000D02*
X176001000Y-98713000D01*
X176001000Y-101663000D02*
X176001000Y-101253000D01*
X175281000Y-99153000D02*
X175281000Y-98713000D01*
X175281000Y-101663000D02*
X175281000Y-101253000D01*
X173461000Y-99153000D02*
X173461000Y-98713000D01*
X173461000Y-101663000D02*
X173461000Y-101253000D01*
X172741000Y-99153000D02*
X172741000Y-98713000D01*
X172741000Y-101663000D02*
X172741000Y-101253000D01*
X170921000Y-99153000D02*
X170921000Y-98713000D01*
X170921000Y-101663000D02*
X170921000Y-101253000D01*
X170201000Y-99153000D02*
X170201000Y-98713000D01*
X170201000Y-101663000D02*
X170201000Y-101253000D01*
X168381000Y-99153000D02*
X168381000Y-98713000D01*
X168381000Y-101663000D02*
X168381000Y-101253000D01*
X167661000Y-99153000D02*
X167661000Y-98713000D01*
X167661000Y-101663000D02*
X167661000Y-101253000D01*
X165841000Y-99153000D02*
X165841000Y-98713000D01*
X165841000Y-101663000D02*
X165841000Y-101253000D01*
X165121000Y-99153000D02*
X165121000Y-98713000D01*
X165121000Y-101663000D02*
X165121000Y-101253000D01*
X163301000Y-99153000D02*
X163301000Y-98713000D01*
X163301000Y-101663000D02*
X163301000Y-101253000D01*
X162581000Y-99153000D02*
X162581000Y-98713000D01*
X162581000Y-101663000D02*
X162581000Y-101253000D01*
X160761000Y-99153000D02*
X160761000Y-98713000D01*
X160761000Y-101663000D02*
X160761000Y-101253000D01*
X160041000Y-99153000D02*
X160041000Y-98713000D01*
X160041000Y-101663000D02*
X160041000Y-101253000D01*
X158221000Y-99153000D02*
X158221000Y-98713000D01*
X158221000Y-101663000D02*
X158221000Y-101253000D01*
X157501000Y-99153000D02*
X157501000Y-98713000D01*
X157501000Y-101663000D02*
X157501000Y-101253000D01*
X155681000Y-99153000D02*
X155681000Y-98713000D01*
X155681000Y-101663000D02*
X155681000Y-101253000D01*
X154961000Y-99153000D02*
X154961000Y-98713000D01*
X154961000Y-101663000D02*
X154961000Y-101253000D01*
X153141000Y-99153000D02*
X153141000Y-98713000D01*
X153141000Y-101663000D02*
X153141000Y-101253000D01*
X152421000Y-99153000D02*
X152421000Y-98713000D01*
X152421000Y-101663000D02*
X152421000Y-101253000D01*
X150601000Y-99153000D02*
X150601000Y-98713000D01*
X150601000Y-101663000D02*
X150601000Y-101253000D01*
X149881000Y-99153000D02*
X149881000Y-98713000D01*
X149881000Y-101663000D02*
X149881000Y-101253000D01*
X148061000Y-99153000D02*
X148061000Y-98713000D01*
X148061000Y-101663000D02*
X148061000Y-101253000D01*
X147341000Y-99153000D02*
X147341000Y-98713000D01*
X147341000Y-101663000D02*
X147341000Y-101253000D01*
X145521000Y-99153000D02*
X145521000Y-98713000D01*
X145521000Y-101663000D02*
X145521000Y-101253000D01*
X144801000Y-99153000D02*
X144801000Y-98713000D01*
X144801000Y-101663000D02*
X144801000Y-101253000D01*
X142981000Y-99153000D02*
X142981000Y-98713000D01*
X142981000Y-101663000D02*
X142981000Y-101253000D01*
X142261000Y-99153000D02*
X142261000Y-98713000D01*
X142261000Y-101663000D02*
X142261000Y-101253000D01*
X140441000Y-99153000D02*
X140441000Y-98773000D01*
X140441000Y-101663000D02*
X140441000Y-101253000D01*
X139721000Y-99153000D02*
X139721000Y-98773000D01*
X139721000Y-101663000D02*
X139721000Y-101253000D01*
X141232900Y-110293000D02*
X141232900Y-101663000D01*
X141114805Y-110293000D02*
X141114805Y-101663000D01*
X140996710Y-110293000D02*
X140996710Y-101663000D01*
X140878615Y-110293000D02*
X140878615Y-101663000D01*
X140760520Y-110293000D02*
X140760520Y-101663000D01*
X140642425Y-110293000D02*
X140642425Y-101663000D01*
X140524330Y-110293000D02*
X140524330Y-101663000D01*
X140406235Y-110293000D02*
X140406235Y-101663000D01*
X140288140Y-110293000D02*
X140288140Y-101663000D01*
X140170045Y-110293000D02*
X140170045Y-101663000D01*
X140051950Y-110293000D02*
X140051950Y-101663000D01*
X139933855Y-110293000D02*
X139933855Y-101663000D01*
X139815760Y-110293000D02*
X139815760Y-101663000D01*
X139697665Y-110293000D02*
X139697665Y-101663000D01*
X139579570Y-110293000D02*
X139579570Y-101663000D01*
X139461475Y-110293000D02*
X139461475Y-101663000D01*
X139343380Y-110293000D02*
X139343380Y-101663000D01*
X139225285Y-110293000D02*
X139225285Y-101663000D01*
X139107190Y-110293000D02*
X139107190Y-101663000D01*
X138989095Y-110293000D02*
X138989095Y-101663000D01*
X138871000Y-110293000D02*
X138871000Y-101663000D01*
X122587936Y-92908800D02*
X123792064Y-92908800D01*
X122587936Y-91088800D02*
X123792064Y-91088800D01*
X173371000Y-73422000D02*
X166131000Y-73422000D01*
X166131000Y-73422000D02*
X165131000Y-74422000D01*
X165131000Y-74422000D02*
X165131000Y-94472000D01*
X165131000Y-94472000D02*
X183611000Y-94472000D01*
X183611000Y-94472000D02*
X183611000Y-73422000D01*
X183611000Y-73422000D02*
X175371000Y-73422000D01*
D13*
X169586000Y-76242000D02*
X169086000Y-76242000D01*
X169086000Y-76242000D02*
X167936000Y-77392000D01*
X167936000Y-77392000D02*
X167936000Y-77892000D01*
X179156000Y-76242000D02*
X180806000Y-76242000D01*
X180806000Y-76242000D02*
X180806000Y-77892000D01*
X169586000Y-91652000D02*
X167936000Y-91652000D01*
X167936000Y-91652000D02*
X167936000Y-90002000D01*
X179156000Y-91652000D02*
X180806000Y-91652000D01*
X180806000Y-91652000D02*
X180806000Y-90002000D01*
D11*
X146067000Y-75139000D02*
X144907000Y-75139000D01*
X146067000Y-74759000D02*
X146067000Y-75139000D01*
X151257000Y-74759000D02*
X146067000Y-74759000D01*
X156447000Y-74759000D02*
X156447000Y-75139000D01*
X151257000Y-74759000D02*
X156447000Y-74759000D01*
X146067000Y-93389000D02*
X146067000Y-93009000D01*
X151257000Y-93389000D02*
X146067000Y-93389000D01*
X156447000Y-93389000D02*
X156447000Y-93009000D01*
X151257000Y-93389000D02*
X156447000Y-93389000D01*
X118431000Y-97663000D02*
X118431000Y-96553000D01*
X118431000Y-96553000D02*
X119761000Y-96553000D01*
X118431000Y-110293000D02*
X131251000Y-110293000D01*
X131251000Y-110293000D02*
X131251000Y-101663000D01*
X118431000Y-101663000D02*
X131251000Y-101663000D01*
X118431000Y-110293000D02*
X118431000Y-101663000D01*
X128651000Y-110293000D02*
X128651000Y-101663000D01*
X126111000Y-110293000D02*
X126111000Y-101663000D01*
X123571000Y-110293000D02*
X123571000Y-101663000D01*
X121031000Y-110293000D02*
X121031000Y-101663000D01*
X130281000Y-99153000D02*
X130281000Y-98713000D01*
X130281000Y-101663000D02*
X130281000Y-101253000D01*
X129561000Y-99153000D02*
X129561000Y-98713000D01*
X129561000Y-101663000D02*
X129561000Y-101253000D01*
X127741000Y-99153000D02*
X127741000Y-98713000D01*
X127741000Y-101663000D02*
X127741000Y-101253000D01*
X127021000Y-99153000D02*
X127021000Y-98713000D01*
X127021000Y-101663000D02*
X127021000Y-101253000D01*
X125201000Y-99153000D02*
X125201000Y-98713000D01*
X125201000Y-101663000D02*
X125201000Y-101253000D01*
X124481000Y-99153000D02*
X124481000Y-98713000D01*
X124481000Y-101663000D02*
X124481000Y-101253000D01*
X122661000Y-99153000D02*
X122661000Y-98713000D01*
X122661000Y-101663000D02*
X122661000Y-101253000D01*
X121941000Y-99153000D02*
X121941000Y-98713000D01*
X121941000Y-101663000D02*
X121941000Y-101253000D01*
X120121000Y-99153000D02*
X120121000Y-98773000D01*
X120121000Y-101663000D02*
X120121000Y-101253000D01*
X119401000Y-99153000D02*
X119401000Y-98773000D01*
X119401000Y-101663000D02*
X119401000Y-101253000D01*
X120912900Y-110293000D02*
X120912900Y-101663000D01*
X120794805Y-110293000D02*
X120794805Y-101663000D01*
X120676710Y-110293000D02*
X120676710Y-101663000D01*
X120558615Y-110293000D02*
X120558615Y-101663000D01*
X120440520Y-110293000D02*
X120440520Y-101663000D01*
X120322425Y-110293000D02*
X120322425Y-101663000D01*
X120204330Y-110293000D02*
X120204330Y-101663000D01*
X120086235Y-110293000D02*
X120086235Y-101663000D01*
X119968140Y-110293000D02*
X119968140Y-101663000D01*
X119850045Y-110293000D02*
X119850045Y-101663000D01*
X119731950Y-110293000D02*
X119731950Y-101663000D01*
X119613855Y-110293000D02*
X119613855Y-101663000D01*
X119495760Y-110293000D02*
X119495760Y-101663000D01*
X119377665Y-110293000D02*
X119377665Y-101663000D01*
X119259570Y-110293000D02*
X119259570Y-101663000D01*
X119141475Y-110293000D02*
X119141475Y-101663000D01*
X119023380Y-110293000D02*
X119023380Y-101663000D01*
X118905285Y-110293000D02*
X118905285Y-101663000D01*
X118787190Y-110293000D02*
X118787190Y-101663000D01*
X118669095Y-110293000D02*
X118669095Y-101663000D01*
X118551000Y-110293000D02*
X118551000Y-101663000D01*
D12*
X132397666Y-91082761D02*
X132540523Y-91130380D01*
X132778619Y-91130380D01*
X132873857Y-91082761D01*
X132921476Y-91035142D01*
X132969095Y-90939904D01*
X132969095Y-90844666D01*
X132921476Y-90749428D01*
X132873857Y-90701809D01*
X132778619Y-90654190D01*
X132588142Y-90606571D01*
X132492904Y-90558952D01*
X132445285Y-90511333D01*
X132397666Y-90416095D01*
X132397666Y-90320857D01*
X132445285Y-90225619D01*
X132492904Y-90178000D01*
X132588142Y-90130380D01*
X132826238Y-90130380D01*
X132969095Y-90178000D01*
X133302428Y-90130380D02*
X133540523Y-91130380D01*
X133731000Y-90416095D01*
X133921476Y-91130380D01*
X134159571Y-90130380D01*
X135064333Y-91130380D02*
X134492904Y-91130380D01*
X134778619Y-91130380D02*
X134778619Y-90130380D01*
X134683380Y-90273238D01*
X134588142Y-90368476D01*
X134492904Y-90416095D01*
X123952095Y-86066380D02*
X123952095Y-86875904D01*
X123999714Y-86971142D01*
X124047333Y-87018761D01*
X124142571Y-87066380D01*
X124333047Y-87066380D01*
X124428285Y-87018761D01*
X124475904Y-86971142D01*
X124523523Y-86875904D01*
X124523523Y-86066380D01*
X124904476Y-86066380D02*
X125523523Y-86066380D01*
X125190190Y-86447333D01*
X125333047Y-86447333D01*
X125428285Y-86494952D01*
X125475904Y-86542571D01*
X125523523Y-86637809D01*
X125523523Y-86875904D01*
X125475904Y-86971142D01*
X125428285Y-87018761D01*
X125333047Y-87066380D01*
X125047333Y-87066380D01*
X124952095Y-87018761D01*
X124904476Y-86971142D01*
X173482095Y-83145380D02*
X173482095Y-83954904D01*
X173529714Y-84050142D01*
X173577333Y-84097761D01*
X173672571Y-84145380D01*
X173863047Y-84145380D01*
X173958285Y-84097761D01*
X174005904Y-84050142D01*
X174053523Y-83954904D01*
X174053523Y-83145380D01*
X174482095Y-83240619D02*
X174529714Y-83193000D01*
X174624952Y-83145380D01*
X174863047Y-83145380D01*
X174958285Y-83193000D01*
X175005904Y-83240619D01*
X175053523Y-83335857D01*
X175053523Y-83431095D01*
X175005904Y-83573952D01*
X174434476Y-84145380D01*
X175053523Y-84145380D01*
X150495095Y-83660380D02*
X150495095Y-84469904D01*
X150542714Y-84565142D01*
X150590333Y-84612761D01*
X150685571Y-84660380D01*
X150876047Y-84660380D01*
X150971285Y-84612761D01*
X151018904Y-84565142D01*
X151066523Y-84469904D01*
X151066523Y-83660380D01*
X152066523Y-84660380D02*
X151495095Y-84660380D01*
X151780809Y-84660380D02*
X151780809Y-83660380D01*
X151685571Y-83803238D01*
X151590333Y-83898476D01*
X151495095Y-83946095D01*
M02*
